<svg version="1.1" viewBox="0.0 0.0 625.0472440944882 684.992125984252" fill="none" stroke="none" stroke-linecap="square" stroke-miterlimit="10" xmlns:xlink="http://www.w3.org/1999/xlink" xmlns="http://www.w3.org/2000/svg"><clipPath id="p.0"><path d="m0 0l625.04724 0l0 684.9921l-625.04724 0l0 -684.9921z" clip-rule="nonzero"/></clipPath><g clip-path="url(#p.0)"><path fill="#000000" fill-opacity="0.0" d="m0 0l625.04724 0l0 684.9921l-625.04724 0z" fill-rule="evenodd"/><path fill="#ffffff" d="m44.97113 464.53314l0 0c0 -9.578918 7.765251 -17.344177 17.344177 -17.344177l478.06757 0c4.5999146 0 9.011475 1.8273315 12.26416 5.080017c3.2526855 3.252655 5.080017 7.664215 5.080017 12.26416l0 69.37463c0 9.578918 -7.765259 17.344177 -17.344177 17.344177l-478.06757 0l0 0c-9.578926 0 -17.344177 -7.765259 -17.344177 -17.344177z" fill-rule="evenodd"/><path stroke="#d9d9d9" stroke-width="1.0" stroke-linejoin="round" stroke-linecap="butt" d="m44.97113 464.53314l0 0c0 -9.578918 7.765251 -17.344177 17.344177 -17.344177l478.06757 0c4.5999146 0 9.011475 1.8273315 12.26416 5.080017c3.2526855 3.252655 5.080017 7.664215 5.080017 12.26416l0 69.37463c0 9.578918 -7.765259 17.344177 -17.344177 17.344177l-478.06757 0l0 0c-9.578926 0 -17.344177 -7.765259 -17.344177 -17.344177z" fill-rule="evenodd"/><path fill="#ffffff" d="m44.97113 352.53314l0 0c0 -9.578918 7.765251 -17.344177 17.344177 -17.344177l511.67383 0c4.5999756 0 9.011536 1.8273315 12.264221 5.080017c3.2526245 3.252655 5.079956 7.664215 5.079956 12.26416l0 69.37463c0 9.578949 -7.765259 17.344208 -17.344177 17.344208l-511.67383 0l0 0c-9.578926 0 -17.344177 -7.765259 -17.344177 -17.344208z" fill-rule="evenodd"/><path stroke="#d9d9d9" stroke-width="1.0" stroke-linejoin="round" stroke-linecap="butt" d="m44.97113 352.53314l0 0c0 -9.578918 7.765251 -17.344177 17.344177 -17.344177l511.67383 0c4.5999756 0 9.011536 1.8273315 12.264221 5.080017c3.2526245 3.252655 5.079956 7.664215 5.079956 12.26416l0 69.37463c0 9.578949 -7.765259 17.344208 -17.344177 17.344208l-511.67383 0l0 0c-9.578926 0 -17.344177 -7.765259 -17.344177 -17.344208z" fill-rule="evenodd"/><path fill="#ffffff" d="m44.97113 243.38576l0 0c0 -9.578918 7.765251 -17.344177 17.344177 -17.344177l325.94156 0c4.5999756 0 9.011536 1.8273315 12.264191 5.0799866c3.252655 3.2526703 5.0799866 7.6642303 5.0799866 12.264191l0 69.37465c0 9.578918 -7.765259 17.344177 -17.344177 17.344177l-325.94156 0c-9.578926 0 -17.344177 -7.765259 -17.344177 -17.344177z" fill-rule="evenodd"/><path stroke="#d9d9d9" stroke-width="1.0" stroke-linejoin="round" stroke-linecap="butt" d="m44.97113 243.38576l0 0c0 -9.578918 7.765251 -17.344177 17.344177 -17.344177l325.94156 0c4.5999756 0 9.011536 1.8273315 12.264191 5.0799866c3.252655 3.2526703 5.0799866 7.6642303 5.0799866 12.264191l0 69.37465c0 9.578918 -7.765259 17.344177 -17.344177 17.344177l-325.94156 0c-9.578926 0 -17.344177 -7.765259 -17.344177 -17.344177z" fill-rule="evenodd"/><path fill="#ffffff" d="m44.97113 133.20375l0 0c0 -9.578918 7.765251 -17.34417 17.344177 -17.34417l363.13843 0c4.599945 0 9.011505 1.8273239 12.26416 5.0799866c3.2526855 3.2526703 5.080017 7.6642227 5.080017 12.264183l0 69.37463c0 9.578934 -7.765259 17.344193 -17.344177 17.344193l-363.13843 0c-9.578926 0 -17.344177 -7.765259 -17.344177 -17.344193z" fill-rule="evenodd"/><path stroke="#d9d9d9" stroke-width="1.0" stroke-linejoin="round" stroke-linecap="butt" d="m44.97113 133.20375l0 0c0 -9.578918 7.765251 -17.34417 17.344177 -17.34417l363.13843 0c4.599945 0 9.011505 1.8273239 12.26416 5.0799866c3.2526855 3.2526703 5.080017 7.6642227 5.080017 12.264183l0 69.37463c0 9.578934 -7.765259 17.344193 -17.344177 17.344193l-363.13843 0c-9.578926 0 -17.344177 -7.765259 -17.344177 -17.344193z" fill-rule="evenodd"/><path fill="#ffffff" d="m44.97113 23.798246l0 0c0 -9.578925 7.765251 -17.344177 17.344177 -17.344177l438.3825 0c4.5999756 0 9.011536 1.8273277 12.26416 5.0799923c3.2526855 3.2526646 5.080017 7.6642237 5.080017 12.264186l0 69.37463c0 9.578926 -7.765259 17.344177 -17.344177 17.344177l-438.3825 0c-9.578926 0 -17.344177 -7.765251 -17.344177 -17.344177z" fill-rule="evenodd"/><path stroke="#d9d9d9" stroke-width="1.0" stroke-linejoin="round" stroke-linecap="butt" d="m44.97113 23.798246l0 0c0 -9.578925 7.765251 -17.344177 17.344177 -17.344177l438.3825 0c4.5999756 0 9.011536 1.8273277 12.26416 5.0799923c3.2526855 3.2526646 5.080017 7.6642237 5.080017 12.264186l0 69.37463c0 9.578926 -7.765259 17.344177 -17.344177 17.344177l-438.3825 0c-9.578926 0 -17.344177 -7.765251 -17.344177 -17.344177z" fill-rule="evenodd"/><path fill="#f3f3f3" d="m58.1421 17.042423l35.086613 0l0 81.98425l-35.086613 0z" fill-rule="evenodd"/><path stroke="#d9d9d9" stroke-width="1.0" stroke-linejoin="round" stroke-linecap="butt" d="m58.1421 17.042423l35.086613 0l0 81.98425l-35.086613 0z" fill-rule="evenodd"/><path fill="#f3f3f3" d="m95.64447 17.042423l35.08661 0l0 81.98425l-35.08661 0z" fill-rule="evenodd"/><path stroke="#d9d9d9" stroke-width="1.0" stroke-linejoin="round" stroke-linecap="butt" d="m95.64447 17.042423l35.08661 0l0 81.98425l-35.08661 0z" fill-rule="evenodd"/><path fill="#f3f3f3" d="m133.14684 17.042423l35.08661 0l0 81.98425l-35.08661 0z" fill-rule="evenodd"/><path stroke="#d9d9d9" stroke-width="1.0" stroke-linejoin="round" stroke-linecap="butt" d="m133.14684 17.042423l35.08661 0l0 81.98425l-35.08661 0z" fill-rule="evenodd"/><path fill="#f3f3f3" d="m170.6492 17.042423l35.08661 0l0 81.98425l-35.08661 0z" fill-rule="evenodd"/><path stroke="#d9d9d9" stroke-width="1.0" stroke-linejoin="round" stroke-linecap="butt" d="m170.6492 17.042423l35.08661 0l0 81.98425l-35.08661 0z" fill-rule="evenodd"/><path fill="#f3f3f3" d="m208.15157 17.042423l35.08661 0l0 81.98425l-35.08661 0z" fill-rule="evenodd"/><path stroke="#d9d9d9" stroke-width="1.0" stroke-linejoin="round" stroke-linecap="butt" d="m208.15157 17.042423l35.08661 0l0 81.98425l-35.08661 0z" fill-rule="evenodd"/><path fill="#f3f3f3" d="m245.65393 17.042423l35.08661 0l0 81.98425l-35.08661 0z" fill-rule="evenodd"/><path stroke="#d9d9d9" stroke-width="1.0" stroke-linejoin="round" stroke-linecap="butt" d="m245.65393 17.042423l35.08661 0l0 81.98425l-35.08661 0z" fill-rule="evenodd"/><path fill="#f3f3f3" d="m283.15628 17.042423l35.08664 0l0 81.98425l-35.08664 0z" fill-rule="evenodd"/><path stroke="#d9d9d9" stroke-width="1.0" stroke-linejoin="round" stroke-linecap="butt" d="m283.15628 17.042423l35.08664 0l0 81.98425l-35.08664 0z" fill-rule="evenodd"/><path fill="#f3f3f3" d="m320.65866 17.042423l35.08661 0l0 81.98425l-35.08661 0z" fill-rule="evenodd"/><path stroke="#d9d9d9" stroke-width="1.0" stroke-linejoin="round" stroke-linecap="butt" d="m320.65866 17.042423l35.08661 0l0 81.98425l-35.08661 0z" fill-rule="evenodd"/><path fill="#f3f3f3" d="m358.161 17.042423l35.08664 0l0 81.98425l-35.08664 0z" fill-rule="evenodd"/><path stroke="#d9d9d9" stroke-width="1.0" stroke-linejoin="round" stroke-linecap="butt" d="m358.161 17.042423l35.08664 0l0 81.98425l-35.08664 0z" fill-rule="evenodd"/><path fill="#f3f3f3" d="m395.6634 17.042423l35.08661 0l0 81.98425l-35.08661 0z" fill-rule="evenodd"/><path stroke="#d9d9d9" stroke-width="1.0" stroke-linejoin="round" stroke-linecap="butt" d="m395.6634 17.042423l35.08661 0l0 81.98425l-35.08661 0z" fill-rule="evenodd"/><path fill="#f3f3f3" d="m433.16574 17.042423l35.08664 0l0 81.98425l-35.08664 0z" fill-rule="evenodd"/><path stroke="#d9d9d9" stroke-width="1.0" stroke-linejoin="round" stroke-linecap="butt" d="m433.16574 17.042423l35.08664 0l0 81.98425l-35.08664 0z" fill-rule="evenodd"/><path fill="#f3f3f3" d="m470.66812 17.042423l35.08661 0l0 81.98425l-35.08661 0z" fill-rule="evenodd"/><path stroke="#d9d9d9" stroke-width="1.0" stroke-linejoin="round" stroke-linecap="butt" d="m470.66812 17.042423l35.08661 0l0 81.98425l-35.08661 0z" fill-rule="evenodd"/><path fill="#f3f3f3" d="m58.1421 125.92318l35.086613 0l0 81.98426l-35.086613 0z" fill-rule="evenodd"/><path stroke="#d9d9d9" stroke-width="1.0" stroke-linejoin="round" stroke-linecap="butt" d="m58.1421 125.92318l35.086613 0l0 81.98426l-35.086613 0z" fill-rule="evenodd"/><path fill="#f3f3f3" d="m95.64447 125.92318l35.08661 0l0 81.98426l-35.08661 0z" fill-rule="evenodd"/><path stroke="#d9d9d9" stroke-width="1.0" stroke-linejoin="round" stroke-linecap="butt" d="m95.64447 125.92318l35.08661 0l0 81.98426l-35.08661 0z" fill-rule="evenodd"/><path fill="#f3f3f3" d="m133.14684 125.92318l35.08661 0l0 81.98426l-35.08661 0z" fill-rule="evenodd"/><path stroke="#d9d9d9" stroke-width="1.0" stroke-linejoin="round" stroke-linecap="butt" d="m133.14684 125.92318l35.08661 0l0 81.98426l-35.08661 0z" fill-rule="evenodd"/><path fill="#f3f3f3" d="m170.6492 125.92318l35.08661 0l0 81.98426l-35.08661 0z" fill-rule="evenodd"/><path stroke="#d9d9d9" stroke-width="1.0" stroke-linejoin="round" stroke-linecap="butt" d="m170.6492 125.92318l35.08661 0l0 81.98426l-35.08661 0z" fill-rule="evenodd"/><path fill="#f3f3f3" d="m208.15157 125.92318l35.08661 0l0 81.98426l-35.08661 0z" fill-rule="evenodd"/><path stroke="#d9d9d9" stroke-width="1.0" stroke-linejoin="round" stroke-linecap="butt" d="m208.15157 125.92318l35.08661 0l0 81.98426l-35.08661 0z" fill-rule="evenodd"/><path fill="#f3f3f3" d="m245.65393 125.92318l35.08661 0l0 81.98426l-35.08661 0z" fill-rule="evenodd"/><path stroke="#d9d9d9" stroke-width="1.0" stroke-linejoin="round" stroke-linecap="butt" d="m245.65393 125.92318l35.08661 0l0 81.98426l-35.08661 0z" fill-rule="evenodd"/><path fill="#f3f3f3" d="m283.15628 125.92318l35.08664 0l0 81.98426l-35.08664 0z" fill-rule="evenodd"/><path stroke="#d9d9d9" stroke-width="1.0" stroke-linejoin="round" stroke-linecap="butt" d="m283.15628 125.92318l35.08664 0l0 81.98426l-35.08664 0z" fill-rule="evenodd"/><path fill="#f3f3f3" d="m320.65866 125.92318l35.08661 0l0 81.98426l-35.08661 0z" fill-rule="evenodd"/><path stroke="#d9d9d9" stroke-width="1.0" stroke-linejoin="round" stroke-linecap="butt" d="m320.65866 125.92318l35.08661 0l0 81.98426l-35.08661 0z" fill-rule="evenodd"/><path fill="#f3f3f3" d="m358.161 125.92318l35.08664 0l0 81.98426l-35.08664 0z" fill-rule="evenodd"/><path stroke="#d9d9d9" stroke-width="1.0" stroke-linejoin="round" stroke-linecap="butt" d="m358.161 125.92318l35.08664 0l0 81.98426l-35.08664 0z" fill-rule="evenodd"/><path fill="#f3f3f3" d="m395.6634 125.92318l35.08661 0l0 81.98426l-35.08661 0z" fill-rule="evenodd"/><path stroke="#d9d9d9" stroke-width="1.0" stroke-linejoin="round" stroke-linecap="butt" d="m395.6634 125.92318l35.08661 0l0 81.98426l-35.08661 0z" fill-rule="evenodd"/><path fill="#f3f3f3" d="m58.1421 236.61958l35.086613 0l0 81.98427l-35.086613 0z" fill-rule="evenodd"/><path stroke="#d9d9d9" stroke-width="1.0" stroke-linejoin="round" stroke-linecap="butt" d="m58.1421 236.61958l35.086613 0l0 81.98427l-35.086613 0z" fill-rule="evenodd"/><path fill="#f3f3f3" d="m95.64447 236.61958l35.08661 0l0 81.98427l-35.08661 0z" fill-rule="evenodd"/><path stroke="#d9d9d9" stroke-width="1.0" stroke-linejoin="round" stroke-linecap="butt" d="m95.64447 236.61958l35.08661 0l0 81.98427l-35.08661 0z" fill-rule="evenodd"/><path fill="#f3f3f3" d="m133.14684 236.61958l35.08661 0l0 81.98427l-35.08661 0z" fill-rule="evenodd"/><path stroke="#d9d9d9" stroke-width="1.0" stroke-linejoin="round" stroke-linecap="butt" d="m133.14684 236.61958l35.08661 0l0 81.98427l-35.08661 0z" fill-rule="evenodd"/><path fill="#f3f3f3" d="m170.6492 236.61958l35.08661 0l0 81.98427l-35.08661 0z" fill-rule="evenodd"/><path stroke="#d9d9d9" stroke-width="1.0" stroke-linejoin="round" stroke-linecap="butt" d="m170.6492 236.61958l35.08661 0l0 81.98427l-35.08661 0z" fill-rule="evenodd"/><path fill="#f3f3f3" d="m208.15157 236.61958l35.08661 0l0 81.98427l-35.08661 0z" fill-rule="evenodd"/><path stroke="#d9d9d9" stroke-width="1.0" stroke-linejoin="round" stroke-linecap="butt" d="m208.15157 236.61958l35.08661 0l0 81.98427l-35.08661 0z" fill-rule="evenodd"/><path fill="#f3f3f3" d="m245.65393 236.61958l35.08661 0l0 81.98427l-35.08661 0z" fill-rule="evenodd"/><path stroke="#d9d9d9" stroke-width="1.0" stroke-linejoin="round" stroke-linecap="butt" d="m245.65393 236.61958l35.08661 0l0 81.98427l-35.08661 0z" fill-rule="evenodd"/><path fill="#f3f3f3" d="m283.15628 236.61958l35.08664 0l0 81.98427l-35.08664 0z" fill-rule="evenodd"/><path stroke="#d9d9d9" stroke-width="1.0" stroke-linejoin="round" stroke-linecap="butt" d="m283.15628 236.61958l35.08664 0l0 81.98427l-35.08664 0z" fill-rule="evenodd"/><path fill="#f3f3f3" d="m320.65866 236.61958l35.08661 0l0 81.98427l-35.08661 0z" fill-rule="evenodd"/><path stroke="#d9d9d9" stroke-width="1.0" stroke-linejoin="round" stroke-linecap="butt" d="m320.65866 236.61958l35.08661 0l0 81.98427l-35.08661 0z" fill-rule="evenodd"/><path fill="#f3f3f3" d="m358.161 236.61958l35.08664 0l0 81.98427l-35.08664 0z" fill-rule="evenodd"/><path stroke="#d9d9d9" stroke-width="1.0" stroke-linejoin="round" stroke-linecap="butt" d="m358.161 236.61958l35.08664 0l0 81.98427l-35.08664 0z" fill-rule="evenodd"/><path fill="#f3f3f3" d="m58.317196 345.50137l35.086613 0l0 81.98425l-35.086613 0z" fill-rule="evenodd"/><path stroke="#d9d9d9" stroke-width="1.0" stroke-linejoin="round" stroke-linecap="butt" d="m58.317196 345.50137l35.086613 0l0 81.98425l-35.086613 0z" fill-rule="evenodd"/><path fill="#f3f3f3" d="m95.819565 345.50137l35.08661 0l0 81.98425l-35.08661 0z" fill-rule="evenodd"/><path stroke="#d9d9d9" stroke-width="1.0" stroke-linejoin="round" stroke-linecap="butt" d="m95.819565 345.50137l35.08661 0l0 81.98425l-35.08661 0z" fill-rule="evenodd"/><path fill="#f3f3f3" d="m133.32193 345.50137l35.08661 0l0 81.98425l-35.08661 0z" fill-rule="evenodd"/><path stroke="#d9d9d9" stroke-width="1.0" stroke-linejoin="round" stroke-linecap="butt" d="m133.32193 345.50137l35.08661 0l0 81.98425l-35.08661 0z" fill-rule="evenodd"/><path fill="#f3f3f3" d="m170.8243 345.50137l35.08661 0l0 81.98425l-35.08661 0z" fill-rule="evenodd"/><path stroke="#d9d9d9" stroke-width="1.0" stroke-linejoin="round" stroke-linecap="butt" d="m170.8243 345.50137l35.08661 0l0 81.98425l-35.08661 0z" fill-rule="evenodd"/><path fill="#f3f3f3" d="m208.32666 345.50137l35.08661 0l0 81.98425l-35.08661 0z" fill-rule="evenodd"/><path stroke="#d9d9d9" stroke-width="1.0" stroke-linejoin="round" stroke-linecap="butt" d="m208.32666 345.50137l35.08661 0l0 81.98425l-35.08661 0z" fill-rule="evenodd"/><path fill="#f3f3f3" d="m245.82903 345.50137l35.086624 0l0 81.98425l-35.086624 0z" fill-rule="evenodd"/><path stroke="#d9d9d9" stroke-width="1.0" stroke-linejoin="round" stroke-linecap="butt" d="m245.82903 345.50137l35.086624 0l0 81.98425l-35.086624 0z" fill-rule="evenodd"/><path fill="#f3f3f3" d="m283.3314 345.50137l35.08661 0l0 81.98425l-35.08661 0z" fill-rule="evenodd"/><path stroke="#d9d9d9" stroke-width="1.0" stroke-linejoin="round" stroke-linecap="butt" d="m283.3314 345.50137l35.08661 0l0 81.98425l-35.08661 0z" fill-rule="evenodd"/><path fill="#f3f3f3" d="m320.83374 345.50137l35.08664 0l0 81.98425l-35.08664 0z" fill-rule="evenodd"/><path stroke="#d9d9d9" stroke-width="1.0" stroke-linejoin="round" stroke-linecap="butt" d="m320.83374 345.50137l35.08664 0l0 81.98425l-35.08664 0z" fill-rule="evenodd"/><path fill="#f3f3f3" d="m358.33612 345.50137l35.08661 0l0 81.98425l-35.08661 0z" fill-rule="evenodd"/><path stroke="#d9d9d9" stroke-width="1.0" stroke-linejoin="round" stroke-linecap="butt" d="m358.33612 345.50137l35.08661 0l0 81.98425l-35.08661 0z" fill-rule="evenodd"/><path fill="#f3f3f3" d="m395.83847 345.50137l35.08664 0l0 81.98425l-35.08664 0z" fill-rule="evenodd"/><path stroke="#d9d9d9" stroke-width="1.0" stroke-linejoin="round" stroke-linecap="butt" d="m395.83847 345.50137l35.08664 0l0 81.98425l-35.08664 0z" fill-rule="evenodd"/><path fill="#f3f3f3" d="m433.34085 345.50137l35.08661 0l0 81.98425l-35.08661 0z" fill-rule="evenodd"/><path stroke="#d9d9d9" stroke-width="1.0" stroke-linejoin="round" stroke-linecap="butt" d="m433.34085 345.50137l35.08661 0l0 81.98425l-35.08661 0z" fill-rule="evenodd"/><path fill="#f3f3f3" d="m470.8432 345.50137l35.08664 0l0 81.98425l-35.08664 0z" fill-rule="evenodd"/><path stroke="#d9d9d9" stroke-width="1.0" stroke-linejoin="round" stroke-linecap="butt" d="m470.8432 345.50137l35.08664 0l0 81.98425l-35.08664 0z" fill-rule="evenodd"/><path fill="#f3f3f3" d="m508.34558 345.50137l35.08661 0l0 81.98425l-35.08661 0z" fill-rule="evenodd"/><path stroke="#d9d9d9" stroke-width="1.0" stroke-linejoin="round" stroke-linecap="butt" d="m508.34558 345.50137l35.08661 0l0 81.98425l-35.08661 0z" fill-rule="evenodd"/><path fill="#f3f3f3" d="m545.84796 345.50137l35.08661 0l0 81.98425l-35.08661 0z" fill-rule="evenodd"/><path stroke="#d9d9d9" stroke-width="1.0" stroke-linejoin="round" stroke-linecap="butt" d="m545.84796 345.50137l35.08661 0l0 81.98425l-35.08661 0z" fill-rule="evenodd"/><path fill="#f3f3f3" d="m59.95879 458.01553l35.086613 0l0 81.98422l-35.086613 0z" fill-rule="evenodd"/><path stroke="#d9d9d9" stroke-width="1.0" stroke-linejoin="round" stroke-linecap="butt" d="m59.95879 458.01553l35.086613 0l0 81.98422l-35.086613 0z" fill-rule="evenodd"/><path fill="#f3f3f3" d="m97.46116 458.01553l35.086617 0l0 81.98422l-35.086617 0z" fill-rule="evenodd"/><path stroke="#d9d9d9" stroke-width="1.0" stroke-linejoin="round" stroke-linecap="butt" d="m97.46116 458.01553l35.086617 0l0 81.98422l-35.086617 0z" fill-rule="evenodd"/><path fill="#f3f3f3" d="m134.96352 458.01553l35.086624 0l0 81.98422l-35.086624 0z" fill-rule="evenodd"/><path stroke="#d9d9d9" stroke-width="1.0" stroke-linejoin="round" stroke-linecap="butt" d="m134.96352 458.01553l35.086624 0l0 81.98422l-35.086624 0z" fill-rule="evenodd"/><path fill="#f3f3f3" d="m172.46588 458.01553l35.086624 0l0 81.98422l-35.086624 0z" fill-rule="evenodd"/><path stroke="#d9d9d9" stroke-width="1.0" stroke-linejoin="round" stroke-linecap="butt" d="m172.46588 458.01553l35.086624 0l0 81.98422l-35.086624 0z" fill-rule="evenodd"/><path fill="#f3f3f3" d="m209.96825 458.01553l35.086624 0l0 81.98422l-35.086624 0z" fill-rule="evenodd"/><path stroke="#d9d9d9" stroke-width="1.0" stroke-linejoin="round" stroke-linecap="butt" d="m209.96825 458.01553l35.086624 0l0 81.98422l-35.086624 0z" fill-rule="evenodd"/><path fill="#f3f3f3" d="m247.47061 458.01553l35.08661 0l0 81.98422l-35.08661 0z" fill-rule="evenodd"/><path stroke="#d9d9d9" stroke-width="1.0" stroke-linejoin="round" stroke-linecap="butt" d="m247.47061 458.01553l35.08661 0l0 81.98422l-35.08661 0z" fill-rule="evenodd"/><path fill="#f3f3f3" d="m284.973 458.01553l35.08661 0l0 81.98422l-35.08661 0z" fill-rule="evenodd"/><path stroke="#d9d9d9" stroke-width="1.0" stroke-linejoin="round" stroke-linecap="butt" d="m284.973 458.01553l35.08661 0l0 81.98422l-35.08661 0z" fill-rule="evenodd"/><path fill="#f3f3f3" d="m322.47534 458.01553l35.08661 0l0 81.98422l-35.08661 0z" fill-rule="evenodd"/><path stroke="#d9d9d9" stroke-width="1.0" stroke-linejoin="round" stroke-linecap="butt" d="m322.47534 458.01553l35.08661 0l0 81.98422l-35.08661 0z" fill-rule="evenodd"/><path fill="#f3f3f3" d="m359.97772 458.01553l35.08661 0l0 81.98422l-35.08661 0z" fill-rule="evenodd"/><path stroke="#d9d9d9" stroke-width="1.0" stroke-linejoin="round" stroke-linecap="butt" d="m359.97772 458.01553l35.08661 0l0 81.98422l-35.08661 0z" fill-rule="evenodd"/><path fill="#f3f3f3" d="m397.48007 458.01553l35.08661 0l0 81.98422l-35.08661 0z" fill-rule="evenodd"/><path stroke="#d9d9d9" stroke-width="1.0" stroke-linejoin="round" stroke-linecap="butt" d="m397.48007 458.01553l35.08661 0l0 81.98422l-35.08661 0z" fill-rule="evenodd"/><path fill="#f3f3f3" d="m434.98245 458.01553l35.08661 0l0 81.98422l-35.08661 0z" fill-rule="evenodd"/><path stroke="#d9d9d9" stroke-width="1.0" stroke-linejoin="round" stroke-linecap="butt" d="m434.98245 458.01553l35.08661 0l0 81.98422l-35.08661 0z" fill-rule="evenodd"/><path fill="#f3f3f3" d="m472.4848 458.01553l35.08661 0l0 81.98422l-35.08661 0z" fill-rule="evenodd"/><path stroke="#d9d9d9" stroke-width="1.0" stroke-linejoin="round" stroke-linecap="butt" d="m472.4848 458.01553l35.08661 0l0 81.98422l-35.08661 0z" fill-rule="evenodd"/><path fill="#f3f3f3" d="m509.98718 458.01553l35.08661 0l0 81.98422l-35.08661 0z" fill-rule="evenodd"/><path stroke="#d9d9d9" stroke-width="1.0" stroke-linejoin="round" stroke-linecap="butt" d="m509.98718 458.01553l35.08661 0l0 81.98422l-35.08661 0z" fill-rule="evenodd"/><path fill="#000000" fill-opacity="0.0" d="m-7.7217803 24.547895l69.57481 0l0 54.92913l-69.57481 0z" fill-rule="evenodd"/><path fill="#000000" d="m9.575094 64.2679l0 -20.203125l-7.5468745 0l0 -2.703125l18.15625 0l0 2.703125l-7.578125 0l0 20.203125l-3.03125 0zm23.171877 0l-2.812502 0l0 -17.921875q-1.015625 0.96875 -2.671875 1.9375q-1.640625 0.96875 -2.953125 1.453125l0 -2.71875q2.359375 -1.109375 4.125 -2.6875q1.765625 -1.578125 2.5 -3.0625l1.8125019 0l0 23.0z" fill-rule="nonzero"/><path fill="#000000" fill-opacity="0.0" d="m-7.7217803 136.0789l69.57481 0l0 54.929123l-69.57481 0z" fill-rule="evenodd"/><path fill="#000000" d="m9.575094 175.7989l0 -20.203125l-7.5468745 0l0 -2.703125l18.15625 0l0 2.703125l-7.578125 0l0 20.203125l-3.03125 0zm27.359377 -2.703125l0 2.703125l-15.140627 0q-0.03125 -1.015625 0.328125 -1.953125q0.578125 -1.546875 1.84375 -3.046875q1.28125 -1.5 3.6875 -3.46875q3.734375 -3.0625 5.046877 -4.84375q1.3125 -1.796875 1.3125 -3.390625q0 -1.671875 -1.203125 -2.8125q-1.1875019 -1.15625 -3.109377 -1.15625q-2.03125 0 -3.25 1.21875q-1.21875 1.21875 -1.234375 3.375l-2.890625 -0.296875q0.296875 -3.234375 2.234375 -4.921875q1.9375 -1.703125 5.203125 -1.703125q3.296877 0 5.218752 1.828125q1.921875 1.828125 1.921875 4.53125q0 1.375 -0.5625 2.703125q-0.5625 1.328125 -1.875 2.796875q-1.296875 1.46875 -4.328127 4.03125q-2.53125 2.125 -3.25 2.890625q-0.71875 0.75 -1.1875 1.515625l11.234377 0z" fill-rule="nonzero"/><path fill="#000000" fill-opacity="0.0" d="m-7.7217803 247.66106l69.57481 0l0 54.929123l-69.57481 0z" fill-rule="evenodd"/><path fill="#000000" d="m9.575094 287.38104l0 -20.203125l-7.5468745 0l0 -2.703125l18.15625 0l0 2.703125l-7.578125 0l0 20.203125l-3.03125 0zm12.59375 -6.046875l2.8125 -0.375q0.484375 2.390625 1.640625 3.453125q1.171875 1.046875 2.84375 1.046875q1.984375 0 3.343752 -1.375q1.375 -1.375 1.375 -3.40625q0 -1.9375 -1.265625 -3.1875q-1.2656269 -1.265625 -3.218752 -1.265625q-0.796875 0 -1.984375 0.3125l0.3125 -2.46875q0.28125 0.03125 0.453125 0.03125q1.796875 0 3.234375 -0.9375q1.4375019 -0.9375 1.4375019 -2.890625q0 -1.546875 -1.046875 -2.5625q-1.0468769 -1.015625 -2.703127 -1.015625q-1.640625 0 -2.734375 1.03125q-1.09375 1.03125 -1.40625 3.09375l-2.8125 -0.5q0.515625 -2.828125 2.34375 -4.375q1.828125 -1.5625 4.546875 -1.5625q1.875 0 3.453127 0.8125q1.578125 0.796875 2.40625 2.1875q0.84375 1.390625 0.84375 2.953125q0 1.484375 -0.796875 2.703125q-0.796875 1.21875 -2.359375 1.9375q2.03125 0.46875 3.15625 1.953125q1.125 1.46875 1.125 3.6875q0 3.0 -2.1875 5.09375q-2.1875 2.078125 -5.531252 2.078125q-3.015625 0 -5.015625 -1.796875q-1.984375 -1.796875 -2.265625 -4.65625z" fill-rule="nonzero"/><path fill="#000000" fill-opacity="0.0" d="m-7.7217803 355.3077l69.57481 0l0 54.92914l-69.57481 0z" fill-rule="evenodd"/><path fill="#000000" d="m9.575094 395.0277l0 -20.203125l-7.5468745 0l0 -2.703125l18.15625 0l0 2.703125l-7.578125 0l0 20.203125l-3.03125 0zm21.59375 0l0 -5.484375l-9.9375 0l0 -2.578125l10.453125 -14.84375l2.296877 0l0 14.84375l3.09375 0l0 2.578125l-3.09375 0l0 5.484375l-2.812502 0zm0 -8.0625l0 -10.328125l-7.171875 10.328125l7.171875 0z" fill-rule="nonzero"/><path fill="#000000" fill-opacity="0.0" d="m-7.7217803 465.30292l69.57481 0l0 54.92914l-69.57481 0z" fill-rule="evenodd"/><path fill="#000000" d="m9.575094 505.02292l0 -20.203125l-7.5468745 0l0 -2.703125l18.15625 0l0 2.703125l-7.578125 0l0 20.203125l-3.03125 0zm12.578125 -6.0l2.953125 -0.25q0.328125 2.15625 1.515625 3.25q1.203125 1.078125 2.890625 1.078125q2.03125 0 3.437502 -1.53125q1.40625 -1.53125 1.40625 -4.0625q0 -2.40625 -1.359375 -3.796875q-1.3437519 -1.390625 -3.531252 -1.390625q-1.359375 0 -2.453125 0.625q-1.09375 0.609375 -1.71875 1.59375l-2.640625 -0.34375l2.21875 -11.765625l11.390627 0l0 2.6875l-9.140627 0l-1.234375 6.15625q2.0625 -1.4375 4.328125 -1.4375q3.000002 0 5.062502 2.078125q2.0625 2.078125 2.0625 5.34375q0 3.109375 -1.8125 5.375q-2.203125 2.78125 -6.015627 2.78125q-3.125 0 -5.109375 -1.75q-1.96875 -1.75 -2.25 -4.640625z" fill-rule="nonzero"/><path fill="#ffffff" d="m44.97113 584.53314l0 0c0 -9.578918 7.765251 -17.344177 17.344177 -17.344177l438.3825 0c4.5999756 0 9.011536 1.8273315 12.26416 5.080017c3.2526855 3.2526245 5.080017 7.6641846 5.080017 12.26416l0 69.37463c0 9.578918 -7.765259 17.344177 -17.344177 17.344177l-438.3825 0c-9.578926 0 -17.344177 -7.765259 -17.344177 -17.344177z" fill-rule="evenodd"/><path stroke="#d9d9d9" stroke-width="1.0" stroke-linejoin="round" stroke-linecap="butt" d="m44.97113 584.53314l0 0c0 -9.578918 7.765251 -17.344177 17.344177 -17.344177l438.3825 0c4.5999756 0 9.011536 1.8273315 12.26416 5.080017c3.2526855 3.2526245 5.080017 7.6641846 5.080017 12.26416l0 69.37463c0 9.578918 -7.765259 17.344177 -17.344177 17.344177l-438.3825 0c-9.578926 0 -17.344177 -7.765259 -17.344177 -17.344177z" fill-rule="evenodd"/><path fill="#f3f3f3" d="m59.95879 578.0155l35.086613 0l0 81.98425l-35.086613 0z" fill-rule="evenodd"/><path stroke="#d9d9d9" stroke-width="1.0" stroke-linejoin="round" stroke-linecap="butt" d="m59.95879 578.0155l35.086613 0l0 81.98425l-35.086613 0z" fill-rule="evenodd"/><path fill="#f3f3f3" d="m97.46116 578.0155l35.086617 0l0 81.98425l-35.086617 0z" fill-rule="evenodd"/><path stroke="#d9d9d9" stroke-width="1.0" stroke-linejoin="round" stroke-linecap="butt" d="m97.46116 578.0155l35.086617 0l0 81.98425l-35.086617 0z" fill-rule="evenodd"/><path fill="#f3f3f3" d="m134.96352 578.0155l35.086624 0l0 81.98425l-35.086624 0z" fill-rule="evenodd"/><path stroke="#d9d9d9" stroke-width="1.0" stroke-linejoin="round" stroke-linecap="butt" d="m134.96352 578.0155l35.086624 0l0 81.98425l-35.086624 0z" fill-rule="evenodd"/><path fill="#f3f3f3" d="m172.46588 578.0155l35.086624 0l0 81.98425l-35.086624 0z" fill-rule="evenodd"/><path stroke="#d9d9d9" stroke-width="1.0" stroke-linejoin="round" stroke-linecap="butt" d="m172.46588 578.0155l35.086624 0l0 81.98425l-35.086624 0z" fill-rule="evenodd"/><path fill="#f3f3f3" d="m209.96825 578.0155l35.086624 0l0 81.98425l-35.086624 0z" fill-rule="evenodd"/><path stroke="#d9d9d9" stroke-width="1.0" stroke-linejoin="round" stroke-linecap="butt" d="m209.96825 578.0155l35.086624 0l0 81.98425l-35.086624 0z" fill-rule="evenodd"/><path fill="#f3f3f3" d="m247.47061 578.0155l35.08661 0l0 81.98425l-35.08661 0z" fill-rule="evenodd"/><path stroke="#d9d9d9" stroke-width="1.0" stroke-linejoin="round" stroke-linecap="butt" d="m247.47061 578.0155l35.08661 0l0 81.98425l-35.08661 0z" fill-rule="evenodd"/><path fill="#f3f3f3" d="m284.973 578.0155l35.08661 0l0 81.98425l-35.08661 0z" fill-rule="evenodd"/><path stroke="#d9d9d9" stroke-width="1.0" stroke-linejoin="round" stroke-linecap="butt" d="m284.973 578.0155l35.08661 0l0 81.98425l-35.08661 0z" fill-rule="evenodd"/><path fill="#f3f3f3" d="m322.47534 578.0155l35.08661 0l0 81.98425l-35.08661 0z" fill-rule="evenodd"/><path stroke="#d9d9d9" stroke-width="1.0" stroke-linejoin="round" stroke-linecap="butt" d="m322.47534 578.0155l35.08661 0l0 81.98425l-35.08661 0z" fill-rule="evenodd"/><path fill="#f3f3f3" d="m359.97772 578.0155l35.08661 0l0 81.98425l-35.08661 0z" fill-rule="evenodd"/><path stroke="#d9d9d9" stroke-width="1.0" stroke-linejoin="round" stroke-linecap="butt" d="m359.97772 578.0155l35.08661 0l0 81.98425l-35.08661 0z" fill-rule="evenodd"/><path fill="#f3f3f3" d="m397.48007 578.0155l35.08661 0l0 81.98425l-35.08661 0z" fill-rule="evenodd"/><path stroke="#d9d9d9" stroke-width="1.0" stroke-linejoin="round" stroke-linecap="butt" d="m397.48007 578.0155l35.08661 0l0 81.98425l-35.08661 0z" fill-rule="evenodd"/><path fill="#f3f3f3" d="m434.98245 578.0155l35.08661 0l0 81.98425l-35.08661 0z" fill-rule="evenodd"/><path stroke="#d9d9d9" stroke-width="1.0" stroke-linejoin="round" stroke-linecap="butt" d="m434.98245 578.0155l35.08661 0l0 81.98425l-35.08661 0z" fill-rule="evenodd"/><path fill="#f3f3f3" d="m472.4848 578.0155l35.08661 0l0 81.98425l-35.08661 0z" fill-rule="evenodd"/><path stroke="#d9d9d9" stroke-width="1.0" stroke-linejoin="round" stroke-linecap="butt" d="m472.4848 578.0155l35.08661 0l0 81.98425l-35.08661 0z" fill-rule="evenodd"/><path fill="#000000" fill-opacity="0.0" d="m-7.7217803 585.3029l69.57481 0l0 54.92914l-69.57481 0z" fill-rule="evenodd"/><path fill="#000000" d="m9.575094 625.02295l0 -20.203125l-7.5468745 0l0 -2.703125l18.15625 0l0 2.703125l-7.578125 0l0 20.203125l-3.03125 0zm27.171877 -17.296875l-2.796875 0.21875q-0.375 -1.65625 -1.0625 -2.40625q-1.1406269 -1.203125 -2.812502 -1.203125q-1.34375 0 -2.359375 0.75q-1.328125 0.96875 -2.09375 2.828125q-0.765625 1.859375 -0.796875 5.296875q1.015625 -1.546875 2.484375 -2.296875q1.46875 -0.75 3.078125 -0.75q2.812502 0 4.781252 2.078125q1.984375 2.0625 1.984375 5.34375q0 2.15625 -0.9375 4.015625q-0.921875 1.84375 -2.546875 2.828125q-1.625 0.984375 -3.687502 0.984375q-3.515625 0 -5.734375 -2.578125q-2.21875 -2.59375 -2.21875 -8.53125q0 -6.640625 2.453125 -9.65625q2.140625 -2.625 5.765625 -2.625q2.703127 0 4.421877 1.515625q1.734375 1.515625 2.078125 4.1875zm-11.484377 9.875q0 1.453125 0.609375 2.78125q0.625 1.328125 1.734375 2.03125q1.109375 0.6875 2.328125 0.6875q1.78125 0 3.062502 -1.4375q1.28125 -1.4375 1.28125 -3.90625q0 -2.375 -1.265625 -3.734375q-1.2656269 -1.375 -3.187502 -1.375q-1.90625 0 -3.234375 1.375q-1.328125 1.359375 -1.328125 3.578125z" fill-rule="nonzero"/></g></svg>