<?xml version="1.0" standalone="no"?><!DOCTYPE svg PUBLIC "-//W3C//DTD SVG 1.1//EN" "http://www.w3.org/Graphics/SVG/1.1/DTD/svg11.dtd"><svg width="100%" height="100%" viewBox="0 0 1280 380" version="1.1" xmlns="http://www.w3.org/2000/svg" xmlns:xlink="http://www.w3.org/1999/xlink" xml:space="preserve" style="fill-rule:evenodd;clip-rule:evenodd;stroke-linejoin:round;stroke-miterlimit:1.41421;"><path d="M518.609,43.441l2.172,-0.967c0.479,-0.213 0.733,-0.326 0.73,-0.737c-0.002,-0.228 -0.256,-0.115 -0.679,0.073l-2.087,0.929l0.519,-2.565c0.082,-0.471 0.438,-2.094 0.577,-2.385c0.223,-0.489 0.644,-0.996 1.18,-1.235c0.113,-0.05 0.761,-0.339 1.243,-0.187c-1.099,0.581 -1.348,1.401 -1.345,1.72c0.003,0.457 0.456,0.507 0.936,0.293c0.648,-0.288 1.378,-1.071 1.373,-1.847c-0.007,-0.935 -1.167,-0.899 -2.211,-0.435c-0.846,0.377 -2.451,1.48 -3.169,3.814c-0.167,0.509 -0.221,0.739 -0.823,3.593l-1.749,0.778c-0.48,0.214 -0.762,0.339 -0.759,0.727c0.002,0.251 0.228,0.15 0.707,-0.063l1.692,-0.753l-1.859,8.906c-0.437,2.186 -0.847,4.245 -2.144,4.822c-0.113,0.05 -0.733,0.327 -1.216,0.152c1.156,-0.56 1.377,-1.391 1.374,-1.71c-0.003,-0.456 -0.456,-0.506 -0.935,-0.293c-0.677,0.301 -1.408,1.061 -1.402,1.837c0.007,0.935 1.139,0.912 2.182,0.448c1.382,-0.615 2.389,-2.276 2.834,-3.253c0.781,-1.629 1.355,-4.356 1.382,-4.529l1.477,-7.133" style="fill:#000;fill-rule:nonzero;"/><path d="M1100.05,43.441l2.172,-0.967c0.48,-0.213 0.733,-0.326 0.73,-0.737c-0.001,-0.228 -0.255,-0.115 -0.678,0.073l-2.087,0.929l0.519,-2.565c0.081,-0.471 0.437,-2.094 0.577,-2.385c0.223,-0.489 0.643,-0.996 1.179,-1.235c0.113,-0.05 0.762,-0.339 1.244,-0.187c-1.099,0.581 -1.348,1.401 -1.346,1.72c0.003,0.457 0.456,0.507 0.936,0.293c0.649,-0.288 1.379,-1.071 1.373,-1.847c-0.007,-0.935 -1.167,-0.899 -2.21,-0.435c-0.846,0.377 -2.451,1.48 -3.17,3.814c-0.166,0.509 -0.221,0.739 -0.823,3.593l-1.749,0.778c-0.479,0.214 -0.761,0.339 -0.758,0.727c0.002,0.251 0.227,0.15 0.707,-0.063l1.692,-0.753l-1.86,8.906c-0.437,2.186 -0.846,4.245 -2.144,4.822c-0.112,0.05 -0.733,0.327 -1.215,0.152c1.156,-0.56 1.376,-1.391 1.374,-1.71c-0.003,-0.456 -0.456,-0.506 -0.936,-0.293c-0.677,0.301 -1.407,1.061 -1.401,1.837c0.006,0.935 1.138,0.912 2.182,0.448c1.382,-0.615 2.388,-2.276 2.834,-3.253c0.78,-1.629 1.355,-4.356 1.382,-4.529l1.476,-7.133" style="fill:#000;fill-rule:nonzero;"/><g id="rescal_factor_R"><path id="path6260" d="M378.549,126.171l0,109.996l117.943,54.998l0,-109.996l-117.943,-54.998Z" style="fill:#fff;fill-rule:nonzero;stroke-width:1.35px;stroke:#000;"/><path id="path6262" d="M378.549,126.171l148.711,-69.345l117.944,54.998l-56.408,112.387l-210.247,-98.04Z" style="fill:#fff;fill-rule:nonzero;stroke-width:1.35px;stroke:#000;"/><path id="path6264" d="M496.492,291.165l148.712,-69.345l0,-109.996l-148.712,69.345l0,109.996Z" style="fill:#fff;fill-rule:nonzero;stroke-width:1.35px;stroke:#000;"/></g><g id="rescal_factor_R1"><path id="path62601" d="M959.995,126.171l0,109.996l117.943,54.998l0,-109.996l-117.943,-54.998Z" style="fill:#fff;fill-rule:nonzero;stroke-width:1.35px;stroke:#000;"/><path id="path62621" d="M959.995,126.171l148.711,-69.345l117.943,54.998l-56.408,112.387l-210.246,-98.04Z" style="fill:#fff;fill-rule:nonzero;stroke-width:1.35px;stroke:#000;"/><path id="path62641" d="M1077.94,291.165l148.711,-69.345l0,-109.996l-148.711,69.345l0,109.996Z" style="fill:#fff;fill-rule:nonzero;stroke-width:1.35px;stroke:#000;"/></g><g id="rescal_factor_R2"><path id="path62602" d="M378.549,126.171l0,109.996l117.943,54.998l0,-109.996l-117.943,-54.998Z" style="fill:#fff;fill-rule:nonzero;stroke-width:1.35px;stroke:#000;"/><path id="path62622" d="M378.549,126.171l148.711,-69.345l117.944,54.998l-56.408,112.387l-210.247,-98.04Z" style="fill:#fff;fill-rule:nonzero;stroke-width:1.35px;stroke:#000;"/><path id="path62642" d="M496.492,291.165l148.712,-69.345l0,-109.996l-148.712,69.345l0,109.996Z" style="fill:#fff;fill-rule:nonzero;stroke-width:1.35px;stroke:#000;"/></g><g id="rescal_factor_R3"><path id="path62603" d="M959.995,126.171l0,109.996l117.943,54.998l0,-109.996l-117.943,-54.998Z" style="fill:#fff;fill-rule:nonzero;stroke-width:1.35px;stroke:#000;"/><path id="path62623" d="M959.995,126.171l148.711,-69.345l117.943,54.998l-56.408,112.387l-210.246,-98.04Z" style="fill:#fff;fill-rule:nonzero;stroke-width:1.35px;stroke:#000;"/><path id="path62643" d="M1077.94,291.165l148.711,-69.345l0,-109.996l-148.711,69.345l0,109.996Z" style="fill:#fff;fill-rule:nonzero;stroke-width:1.35px;stroke:#000;"/></g><path d="M735.452,173.641l8.985,0c0.431,0 1.042,0 1.042,-0.647c0,-0.611 -0.611,-0.611 -1.042,-0.611l-8.985,0l0,-9.021c0,-0.467 0,-1.078 -0.647,-1.078c-0.647,0 -0.647,0.611 -0.647,1.078l0,9.021l-9.02,0c-0.432,0 -1.043,0 -1.043,0.611c0,0.647 0.611,0.647 1.043,0.647l9.02,0l0,9.02c0,0.467 0,1.078 0.647,1.078c0.647,0 0.647,-0.611 0.647,-1.078l0,-9.02" style="fill:#000;fill-rule:nonzero;"/><path d="M894.775,173.641l8.985,0c0.431,0 1.042,0 1.042,-0.647c0,-0.611 -0.611,-0.611 -1.042,-0.611l-8.985,0l0,-9.021c0,-0.467 0,-1.078 -0.647,-1.078c-0.647,0 -0.647,0.611 -0.647,1.078l0,9.021l-9.02,0c-0.432,0 -1.043,0 -1.043,0.611c0,0.647 0.611,0.647 1.043,0.647l9.02,0l0,9.02c0,0.467 0,1.078 0.647,1.078c0.647,0 0.647,-0.611 0.647,-1.078l0,-9.02" style="fill:#000;fill-rule:nonzero;"/><path d="M314.758,168.336c0,-0.683 -0.216,-0.97 -0.431,-0.97c-0.144,0 -0.431,0.144 -0.467,0.862c-0.144,2.229 -2.372,3.558 -4.457,3.558c-1.869,0 -3.486,-1.006 -5.175,-2.12c-1.725,-1.186 -3.45,-2.336 -5.571,-2.336c-2.983,0 -5.355,2.3 -5.355,5.247c0,0.719 0.252,0.97 0.468,0.97c0.287,0 0.431,-0.611 0.431,-0.754c0.179,-2.696 2.803,-3.666 4.456,-3.666c1.869,0 3.486,1.006 5.176,2.12c1.725,1.186 3.45,2.336 5.57,2.336c2.983,0 5.355,-2.3 5.355,-5.247ZM314.758,175.848c0,-0.935 -0.395,-0.971 -0.431,-0.971c-0.144,0 -0.431,0.144 -0.467,0.863c-0.144,2.228 -2.372,3.522 -4.457,3.522c-1.869,0 -3.486,-1.007 -5.175,-2.121c-1.725,-1.15 -3.45,-2.3 -5.571,-2.3c-2.983,0 -5.355,2.264 -5.355,5.247c0,0.683 0.252,0.935 0.468,0.935c0.287,0 0.431,-0.611 0.431,-0.719c0.179,-2.695 2.803,-3.666 4.456,-3.666c1.869,0 3.486,1.006 5.176,2.121c1.725,1.15 3.45,2.3 5.57,2.3c3.055,0 5.355,-2.372 5.355,-5.211" style="fill:#000;fill-rule:nonzero;"/><path d="M808.656,174.555c0,-0.899 -0.791,-1.689 -1.725,-1.689c-0.935,0 -1.689,0.79 -1.689,1.689c0,0.934 0.754,1.725 1.689,1.725c0.934,0 1.725,-0.791 1.725,-1.725" style="fill:#000;fill-rule:nonzero;"/><path d="M822.96,174.555c0,-0.899 -0.791,-1.689 -1.725,-1.689c-0.935,0 -1.689,0.79 -1.689,1.689c0,0.934 0.754,1.725 1.689,1.725c0.934,0 1.725,-0.791 1.725,-1.725" style="fill:#000;fill-rule:nonzero;"/><path d="M837.264,174.555c0,-0.899 -0.791,-1.689 -1.726,-1.689c-0.934,0 -1.689,0.79 -1.689,1.689c0,0.934 0.755,1.725 1.689,1.725c0.935,0 1.726,-0.791 1.726,-1.725" style="fill:#000;fill-rule:nonzero;"/><path d="M492.189,162.924c-0.455,-1.304 -1.181,-2.433 -2.283,-2.935c-2.891,-1.316 -5.892,1.673 -5.836,6.054c0.037,2.809 1.439,5.41 3.339,6.275c0.496,0.226 1.734,0.689 3.193,-0.774c0.209,1.359 1.076,2.717 2.26,3.257c0.881,0.401 1.423,-0.017 1.824,-0.799c0.399,-0.882 0.678,-2.584 0.678,-2.651c-0.004,-0.301 -0.225,-0.401 -0.28,-0.426c-0.248,-0.113 -0.273,0.008 -0.351,0.372c-0.388,1.785 -0.806,3.324 -1.825,2.86c-0.661,-0.301 -0.753,-1.108 -0.761,-1.71c-0.008,-0.635 0.044,-0.878 0.302,-2.057c0.259,-1.145 0.283,-1.434 0.516,-2.458l0.828,-3.779c0.154,-0.761 0.153,-0.828 0.152,-0.928c-0.007,-0.535 -0.314,-0.974 -0.727,-1.162c-0.578,-0.264 -0.955,0.23 -1.029,0.861ZM490.691,169.956c-0.103,0.485 -0.102,0.551 -0.481,0.878c-1.053,1.149 -2.066,1.154 -2.754,0.84c-1.24,-0.564 -1.591,-2.353 -1.606,-3.524c-0.019,-1.472 0.732,-4.82 1.265,-5.941c0.748,-1.421 1.836,-2.023 2.827,-1.572c1.597,0.728 1.987,3.365 1.989,3.533c0.002,0.167 -0.05,0.342 -0.076,0.464l-1.164,5.322" style="fill:#000;fill-rule:nonzero;"/><path d="M1073.63,162.924c-0.454,-1.304 -1.181,-2.433 -2.282,-2.935c-2.892,-1.316 -5.892,1.673 -5.836,6.054c0.036,2.809 1.438,5.41 3.339,6.275c0.495,0.226 1.733,0.689 3.193,-0.774c0.209,1.359 1.075,2.717 2.259,3.257c0.881,0.401 1.424,-0.017 1.824,-0.799c0.4,-0.882 0.679,-2.584 0.678,-2.651c-0.004,-0.301 -0.224,-0.401 -0.279,-0.426c-0.248,-0.113 -0.274,0.008 -0.351,0.372c-0.388,1.785 -0.806,3.324 -1.825,2.86c-0.661,-0.301 -0.754,-1.108 -0.761,-1.71c-0.009,-0.635 0.043,-0.878 0.302,-2.057c0.259,-1.145 0.282,-1.434 0.516,-2.458l0.827,-3.779c0.155,-0.761 0.154,-0.828 0.152,-0.928c-0.006,-0.535 -0.313,-0.974 -0.726,-1.162c-0.579,-0.264 -0.956,0.23 -1.03,0.861ZM1072.14,169.956c-0.103,0.485 -0.103,0.551 -0.482,0.878c-1.053,1.149 -2.066,1.154 -2.754,0.84c-1.239,-0.564 -1.591,-2.353 -1.606,-3.524c-0.019,-1.472 0.732,-4.82 1.265,-5.941c0.749,-1.421 1.836,-2.023 2.827,-1.572c1.598,0.728 1.987,3.365 1.99,3.533c0.002,0.167 -0.051,0.342 -0.077,0.464l-1.163,5.322" style="fill:#000;fill-rule:nonzero;"/><path d="M369.776,210.643c0,-0.035 -0.001,-0.351 -0.318,-0.499c-0.606,-0.282 -2.48,-0.909 -3.173,-1.161c-0.202,-0.059 -0.49,-0.158 -0.489,0.404c0.001,0.351 0.231,0.459 0.635,0.647c1.241,0.577 1.299,0.85 1.299,1.166c0.001,0.211 -0.228,1.157 -0.371,1.757l-2.088,9.277c-0.315,1.433 -0.43,1.871 -0.428,2.995c0.005,2.986 1.393,5.563 3.297,6.449c3.058,1.424 6.223,-1.771 6.216,-6.302c-0.005,-2.881 -1.394,-5.668 -3.442,-6.622c-1.183,-0.55 -2.249,-0.169 -3.026,0.452l1.888,-8.563ZM367.373,221.388c0.143,-0.635 0.143,-0.67 0.373,-0.914c1.266,-1.447 2.448,-1.388 3.112,-1.079c0.923,0.43 1.617,1.7 1.62,3.703c0.003,1.861 -0.827,5.09 -1.287,6.069c-0.861,1.705 -2.042,2.279 -3.052,1.809c-0.865,-0.403 -1.732,-1.649 -1.736,-3.968c-0.001,-0.597 -0.002,-1.194 0.398,-2.973l0.572,-2.647" style="fill:#000;fill-rule:nonzero;"/><path d="M951.221,210.643c0,-0.035 0,-0.351 -0.317,-0.499c-0.606,-0.282 -2.481,-0.909 -3.173,-1.161c-0.202,-0.059 -0.49,-0.158 -0.489,0.404c0,0.351 0.231,0.459 0.635,0.647c1.24,0.577 1.298,0.85 1.299,1.166c0,0.211 -0.229,1.157 -0.372,1.757l-2.088,9.277c-0.315,1.433 -0.429,1.871 -0.427,2.995c0.005,2.986 1.393,5.563 3.297,6.449c3.058,1.424 6.223,-1.771 6.215,-6.302c-0.005,-2.881 -1.393,-5.668 -3.441,-6.622c-1.183,-0.55 -2.249,-0.169 -3.026,0.452l1.887,-8.563ZM948.819,221.388c0.143,-0.635 0.143,-0.67 0.373,-0.914c1.266,-1.447 2.448,-1.388 3.111,-1.079c0.923,0.43 1.617,1.7 1.621,3.703c0.003,1.861 -0.828,5.09 -1.287,6.069c-0.862,1.705 -2.043,2.279 -3.052,1.809c-0.866,-0.403 -1.733,-1.649 -1.737,-3.968c-0.001,-0.597 -0.002,-1.194 0.399,-2.973l0.572,-2.647" style="fill:#000;fill-rule:nonzero;"/><rect x="521.535" y="191.567" width="35.601" height="37.404" style="fill:#fff;"/><rect x="1102.98" y="191.567" width="35.601" height="37.404" style="fill:#fff;"/><g><path d="M94.62,144.356l-5.586,5.68l0.744,0.745l4.842,-4.237l4.795,4.237l0.745,-0.745l-5.54,-5.68" style="fill:#000;fill-rule:nonzero;"/><path d="M126.836,193.984c0,-0.14 0,-0.233 -0.698,-0.931c-5.214,-5.261 -6.564,-13.129 -6.564,-19.507c0,-7.262 1.582,-14.525 6.704,-19.739c0.558,-0.466 0.558,-0.559 0.558,-0.699c0,-0.279 -0.186,-0.418 -0.419,-0.418c-0.419,0 -4.19,2.839 -6.657,8.147c-2.095,4.562 -2.607,9.218 -2.607,12.709c0,3.259 0.465,8.287 2.747,12.989c2.513,5.121 6.098,7.821 6.517,7.821c0.233,0 0.419,-0.093 0.419,-0.372" style="fill:#000;fill-rule:nonzero;"/><path d="M144.853,168.192c-0.745,-1.536 -1.955,-2.653 -3.864,-2.653c-4.888,0 -10.056,6.145 -10.056,12.197c0,3.911 2.328,6.657 5.587,6.657c0.791,0 2.886,-0.139 5.4,-3.119c0.326,1.769 1.769,3.119 3.771,3.119c1.49,0 2.421,-0.931 3.119,-2.281c0.698,-1.489 1.257,-4.05 1.257,-4.097c0,-0.419 -0.419,-0.419 -0.512,-0.419c-0.419,0 -0.466,0.14 -0.605,0.745c-0.699,2.7 -1.443,5.168 -3.166,5.168c-1.117,0 -1.257,-1.117 -1.257,-1.909c0,-0.931 0.093,-1.257 0.559,-3.119c0.465,-1.723 0.558,-2.142 0.931,-3.724l1.49,-5.866c0.279,-1.164 0.279,-1.211 0.279,-1.397c0,-0.698 -0.512,-1.117 -1.21,-1.117c-0.978,0 -1.63,0.931 -1.723,1.815ZM142.106,178.993c-0.186,0.745 -0.186,0.838 -0.791,1.536c-1.862,2.282 -3.585,2.98 -4.749,2.98c-2.048,0 -2.653,-2.281 -2.653,-3.911c0,-2.095 1.35,-7.216 2.281,-9.125c1.303,-2.467 3.165,-4.003 4.841,-4.003c2.701,0 3.306,3.398 3.306,3.631c0,0.279 -0.093,0.512 -0.14,0.745l-2.095,8.147" style="fill:#000;fill-rule:nonzero;"/><path d="M159.937,183.928c0,-2.747 -1.024,-4.376 -2.654,-4.376c-1.35,0 -2.188,1.024 -2.188,2.188c0,1.117 0.838,2.234 2.188,2.234c0.512,0 1.024,-0.186 1.443,-0.558c0.14,-0.093 0.187,-0.14 0.233,-0.14c0.047,0 0.093,0.047 0.093,0.652c0,3.073 -1.49,5.587 -2.84,6.937c-0.465,0.465 -0.465,0.558 -0.465,0.698c0,0.279 0.186,0.419 0.419,0.419c0.465,0 3.771,-3.212 3.771,-8.054" style="fill:#000;fill-rule:nonzero;"/><path d="M180.002,155.483c0,-0.047 0,-0.466 -0.559,-0.466c-0.977,0 -4.003,0.326 -5.074,0.419c-0.326,0.047 -0.792,0.093 -0.792,0.838c0,0.512 0.373,0.512 0.978,0.512c2.002,0 2.095,0.28 2.095,0.699c0,0.279 -0.372,1.722 -0.559,2.607l-3.445,13.547c-0.512,2.095 -0.651,2.794 -0.651,4.237c0,3.957 2.188,6.517 5.307,6.517c4.888,0 10.009,-6.191 10.009,-12.197c0,-3.771 -2.188,-6.657 -5.54,-6.657c-1.909,0 -3.631,1.21 -4.888,2.514l3.119,-12.57ZM176.091,171.265c0.233,-0.931 0.233,-1.024 0.606,-1.49c2.048,-2.7 3.91,-3.305 4.981,-3.305c1.536,0 2.654,1.21 2.654,3.91c0,2.468 -1.397,7.263 -2.142,8.846c-1.35,2.793 -3.305,4.283 -4.888,4.283c-1.443,0 -2.793,-1.117 -2.793,-4.237c0,-0.791 0,-1.582 0.651,-4.19l0.931,-3.817" style="fill:#000;fill-rule:nonzero;"/><path d="M196.483,183.928c0,-2.747 -1.025,-4.376 -2.654,-4.376c-1.397,0 -2.188,1.024 -2.188,2.188c0,1.117 0.791,2.234 2.188,2.234c0.512,0 1.024,-0.186 1.443,-0.558c0.14,-0.093 0.186,-0.14 0.232,-0.14c0.047,0 0.093,0.047 0.093,0.652c0,3.073 -1.489,5.587 -2.839,6.937c-0.466,0.465 -0.466,0.558 -0.466,0.698c0,0.279 0.187,0.419 0.419,0.419c0.466,0 3.772,-3.212 3.772,-8.054" style="fill:#000;fill-rule:nonzero;"/><path d="M221.855,167.308l3.584,0c0.839,0 1.257,0 1.257,-0.838c0,-0.466 -0.418,-0.466 -1.116,-0.466l-3.446,0l0.838,-4.748c0.186,-0.885 0.745,-3.864 1.025,-4.33c0.372,-0.791 1.07,-1.443 1.955,-1.443c0.185,0 1.257,0 2.048,0.745c-1.863,0.186 -2.281,1.629 -2.281,2.281c0,0.931 0.792,1.443 1.583,1.443c1.07,0 2.281,-0.931 2.281,-2.514c0,-1.909 -1.909,-2.886 -3.631,-2.886c-1.444,0 -4.05,0.791 -5.308,4.888c-0.232,0.885 -0.371,1.304 -1.35,6.564l-2.886,0c-0.792,0 -1.257,0 -1.257,0.792c0,0.512 0.372,0.512 1.164,0.512l2.747,0l-3.119,16.434c-0.745,4.05 -1.444,7.821 -3.632,7.821c-0.139,0 -1.211,0 -2.002,-0.745c1.909,-0.093 2.281,-1.629 2.281,-2.235c0,-0.977 -0.745,-1.443 -1.536,-1.443c-1.07,0 -2.281,0.885 -2.281,2.468c0,1.908 1.816,2.886 3.538,2.886c2.281,0 3.957,-2.467 4.702,-4.05c1.35,-2.607 2.328,-7.635 2.328,-7.961l2.514,-13.175" style="fill:#000;fill-rule:nonzero;"/><path d="M237.591,183.928c0,-2.747 -1.072,-4.376 -2.654,-4.376c-1.397,0 -2.235,1.024 -2.235,2.188c0,1.117 0.838,2.234 2.235,2.234c0.466,0 1.025,-0.186 1.443,-0.558c0.139,-0.093 0.139,-0.14 0.186,-0.14c0.046,0 0.094,0.047 0.094,0.652c0,3.073 -1.443,5.587 -2.84,6.937c-0.466,0.465 -0.466,0.558 -0.466,0.698c0,0.279 0.232,0.419 0.419,0.419c0.465,0 3.818,-3.212 3.818,-8.054" style="fill:#000;fill-rule:nonzero;"/><path d="M256.399,167.308l3.956,0c0.792,0 1.211,0 1.211,-0.838c0,-0.466 -0.419,-0.466 -1.164,-0.466l-3.63,0c1.489,-5.912 1.675,-6.75 1.675,-7.03c0,-0.698 -0.466,-1.117 -1.21,-1.117c-0.093,0 -1.304,0.047 -1.676,1.49l-1.583,6.657l-3.958,0c-0.838,0 -1.21,0 -1.21,0.792c0,0.512 0.326,0.512 1.164,0.512l3.631,0c-2.979,11.825 -3.165,12.523 -3.165,13.268c0,2.235 1.582,3.817 3.863,3.817c4.237,0 6.611,-6.052 6.611,-6.378c0,-0.419 -0.325,-0.419 -0.512,-0.419c-0.372,0 -0.418,0.094 -0.604,0.559c-1.817,4.33 -4.005,5.354 -5.402,5.354c-0.884,0 -1.302,-0.559 -1.302,-1.909c0,-1.024 0.093,-1.303 0.232,-2.002l3.073,-12.29" style="fill:#000;fill-rule:nonzero;"/><path d="M274.928,173.546c0,-3.259 -0.466,-8.287 -2.747,-13.035c-2.514,-5.121 -6.099,-7.821 -6.518,-7.821c-0.233,0 -0.419,0.186 -0.419,0.418c0,0.14 0,0.233 0.792,0.978c4.096,4.097 6.471,10.754 6.471,19.46c0,7.123 -1.536,14.432 -6.704,19.693c-0.559,0.512 -0.559,0.605 -0.559,0.745c0,0.233 0.186,0.372 0.419,0.372c0.419,0 4.144,-2.793 6.611,-8.1c2.141,-4.609 2.654,-9.218 2.654,-12.71" style="fill:#000;fill-rule:nonzero;"/></g><g><path id="path3061" d="M656.888,255.431l0,17.442l18.703,-8.721l0,-17.443l-18.703,8.722Z" style="fill:#fff;fill-rule:nonzero;stroke-width:0.98px;stroke:#000;"/><path id="path3063" d="M656.888,255.431l-153.363,-71.515l18.703,-8.721l153.363,71.514l-18.703,8.722Z" style="fill:#fff;fill-rule:nonzero;stroke-width:0.98px;stroke:#000;"/><path id="path3065" d="M656.888,272.873l-153.363,-71.514l0,-17.443l153.363,71.515l0,17.442Z" style="fill:#fff;fill-rule:nonzero;stroke-width:0.98px;stroke:#000;"/></g><g><path id="path30611" d="M1238.33,255.431l0,17.442l18.703,-8.721l0,-17.443l-18.703,8.722Z" style="fill:#fff;fill-rule:nonzero;stroke-width:0.98px;stroke:#000;"/><path id="path30631" d="M1238.33,255.431l-153.363,-71.515l18.703,-8.721l153.363,71.514l-18.703,8.722Z" style="fill:#fff;fill-rule:nonzero;stroke-width:0.98px;stroke:#000;"/><path id="path30651" d="M1238.33,272.873l-153.363,-71.514l0,-17.443l153.363,71.515l0,17.442Z" style="fill:#fff;fill-rule:nonzero;stroke-width:0.98px;stroke:#000;"/></g><g><path d="M451.852,218.249c0,-0.505 -0.059,-0.534 -0.563,-0.534c-1.216,1.186 -2.906,1.216 -3.677,1.216l0,0.652c0.444,0 1.69,0 2.728,-0.504l0,9.549c0,0.623 0,0.86 -1.898,0.86l-0.712,0l0,0.653c0.356,0 2.64,-0.06 3.351,-0.06c0.564,0 2.936,0.06 3.352,0.06l0,-0.653l-0.712,0c-1.869,0 -1.869,-0.237 -1.869,-0.86l0,-10.379" style="fill:#000;fill-rule:nonzero;"/></g><path d="M609.272,223.049l-30.303,-15.903l-9.913,18.889l30.303,15.903l9.913,-18.889Z" style="fill:#fff;"/><path d="M1190.72,223.049l-30.303,-15.903l-9.913,18.889l30.303,15.903l9.913,-18.889Z" style="fill:#fff;"/><path d="M677.828,263.699l-1.4,-2.98l-12.189,5.727l1.4,2.979l12.189,-5.726Z" style="fill:#fff;"/><g><path d="M579.888,226.111l-1.651,0l0,1.118c0.666,-0.026 2.104,-0.053 3.009,-0.053c0.906,0 2.317,0.027 2.983,0.053l0,-1.118l-1.625,0l0,-4.979c0,-2.61 2.051,-3.755 3.542,-3.755c0.799,0 1.304,0.479 1.304,2.29l0,6.444l-1.65,0l0,1.118c0.692,-0.026 2.103,-0.053 3.008,-0.053c0.932,0 2.344,0.027 3.009,0.053l0,-1.118l-1.651,0l0,-6.178c0,-2.503 -1.278,-3.435 -3.674,-3.435c-2.29,0 -3.488,1.385 -4.048,2.344l0,-8.148l-4.207,0.186l0,1.118c1.465,0 1.651,0 1.651,0.932l0,13.181" style="fill:#000;fill-rule:nonzero;"/><path d="M598.101,220.146c0,-0.452 -0.053,-0.479 -0.505,-0.479c-1.092,1.065 -2.61,1.092 -3.302,1.092l0,0.586c0.399,0 1.517,0 2.423,-0.453l0,8.574c0,0.559 0,0.772 -1.678,0.772l-0.639,0l0,0.586c0.32,0 2.37,-0.053 3.009,-0.053c0.506,0 2.636,0.053 3.009,0.053l0,-0.586l-0.639,0c-1.678,0 -1.678,-0.213 -1.678,-0.772l0,-9.32" style="fill:#000;fill-rule:nonzero;"/></g><g><path d="M1161.33,226.111l-1.651,0l0,1.118c0.666,-0.026 2.103,-0.053 3.009,-0.053c0.905,0 2.316,0.027 2.982,0.053l0,-1.118l-1.624,0l0,-4.979c0,-2.61 2.05,-3.755 3.541,-3.755c0.799,0 1.305,0.479 1.305,2.29l0,6.444l-1.651,0l0,1.118c0.692,-0.026 2.104,-0.053 3.009,-0.053c0.932,0 2.343,0.027 3.009,0.053l0,-1.118l-1.651,0l0,-6.178c0,-2.503 -1.278,-3.435 -3.675,-3.435c-2.29,0 -3.488,1.385 -4.047,2.344l0,-8.148l-4.207,0.186l0,1.118c1.464,0 1.651,0 1.651,0.932l0,13.181" style="fill:#000;fill-rule:nonzero;"/></g><g><path d="M671.129,265.161l2.791,1.244c0.59,0.263 0.853,0.38 0.882,-0.316c0.016,-0.386 -0.247,-0.503 -0.805,-0.752l-2.561,-1.14c1.252,-4.439 1.412,-5.076 1.422,-5.308c0.024,-0.58 -0.29,-1.074 -0.816,-1.308c-0.065,-0.029 -0.888,-0.356 -1.201,0.763l-1.375,4.975l-2.79,-1.243c-0.558,-0.249 -0.854,-0.38 -0.881,0.277c-0.017,0.424 0.213,0.527 0.804,0.79l2.56,1.141c-2.504,8.878 -2.659,9.399 -2.684,10.017c-0.078,1.893 0.984,3.704 2.593,4.421c2.987,1.331 4.869,-2.985 4.88,-3.255c0.015,-0.348 -0.215,-0.45 -0.347,-0.509c-0.262,-0.117 -0.298,-0.054 -0.445,0.274c-1.428,3.022 -3.006,3.185 -3.991,2.746c-0.624,-0.278 -0.9,-0.873 -0.854,-1.993c0.035,-0.85 0.11,-1.053 0.232,-1.589l2.586,-9.235" style="fill:#000;fill-rule:nonzero;"/></g><path d="M1032.17,218.507c0.16,-0.585 0.186,-0.692 1.118,-0.692c0.213,0 0.453,0 0.453,-0.346c0,-0.186 -0.16,-0.266 -0.266,-0.266c-0.4,0 -1.412,0.08 -1.811,0.08c-0.346,0 -0.932,-0.027 -1.305,-0.027c-0.426,-0.027 -0.905,-0.053 -1.331,-0.053c-0.107,0 -0.373,0 -0.373,0.372c0,0.24 0.16,0.24 0.666,0.24c0.399,0 0.452,0 0.879,0.027c0.479,0.053 0.532,0.106 0.532,0.319c0,0.107 0,0.133 -0.053,0.373l-1.944,7.695c-0.32,1.278 -1.385,2.317 -2.476,2.317c-0.24,0 -1.305,-0.027 -1.705,-0.852c0.986,0 1.199,-0.799 1.199,-1.092c0,-0.479 -0.4,-0.745 -0.773,-0.745c-0.452,0 -1.118,0.372 -1.118,1.331c0,1.092 1.012,1.837 2.423,1.837c1.651,0 3.515,-1.065 3.941,-2.742l1.944,-7.776" style="fill:#000;fill-rule:nonzero;"/><path d="M1181.57,221.507c0.159,-0.585 0.186,-0.692 1.118,-0.692c0.213,0 0.453,0 0.453,-0.346c0,-0.186 -0.16,-0.266 -0.267,-0.266c-0.399,0 -1.411,0.08 -1.81,0.08c-0.346,0 -0.932,-0.027 -1.305,-0.027c-0.426,-0.027 -0.905,-0.053 -1.331,-0.053c-0.107,0 -0.373,0 -0.373,0.372c0,0.24 0.16,0.24 0.666,0.24c0.399,0 0.452,0 0.878,0.027c0.48,0.053 0.533,0.106 0.533,0.319c0,0.107 0,0.133 -0.053,0.373l-1.944,7.695c-0.32,1.278 -1.385,2.317 -2.477,2.317c-0.239,0 -1.304,-0.027 -1.704,-0.852c0.985,0 1.198,-0.799 1.198,-1.092c0,-0.479 -0.399,-0.745 -0.772,-0.745c-0.452,0 -1.118,0.372 -1.118,1.331c0,1.092 1.012,1.837 2.423,1.837c1.651,0 3.515,-1.065 3.941,-2.742l1.944,-7.776" style="fill:#000;fill-rule:nonzero;"/><path d="M1258.53,263.699l-1.4,-2.98l-12.189,5.727l1.4,2.979l12.189,-5.726Z" style="fill:#fff;"/><g><path d="M1251.83,265.161l2.791,1.244c0.59,0.263 0.853,0.38 0.882,-0.316c0.016,-0.386 -0.247,-0.503 -0.805,-0.752l-2.561,-1.14c1.252,-4.439 1.412,-5.076 1.422,-5.308c0.024,-0.58 -0.29,-1.074 -0.816,-1.308c-0.065,-0.029 -0.888,-0.356 -1.201,0.763l-1.375,4.975l-2.79,-1.243c-0.558,-0.249 -0.854,-0.38 -0.881,0.277c-0.017,0.424 0.213,0.527 0.804,0.79l2.56,1.141c-2.504,8.878 -2.659,9.399 -2.684,10.017c-0.078,1.893 0.984,3.704 2.593,4.421c2.987,1.331 4.869,-2.985 4.88,-3.255c0.015,-0.348 -0.215,-0.45 -0.347,-0.509c-0.262,-0.117 -0.298,-0.054 -0.445,0.274c-1.428,3.022 -3.006,3.185 -3.991,2.746c-0.624,-0.278 -0.9,-0.873 -0.854,-1.993c0.035,-0.85 0.11,-1.053 0.232,-1.589l2.586,-9.235" style="fill:#000;fill-rule:nonzero;"/></g><path d="M90.338,183.232c0.713,-5.917 0.713,-10.23 0.713,-10.979c0,-3.386 0,-17.716 -8.733,-17.716c-1.64,0 -3.316,1.319 -3.316,1.996c0,0.357 0.25,0.357 0.892,0.393c7.022,0.641 7.628,11.656 7.628,17.074c0,4.848 -0.642,10.622 -1.212,13.83c-0.107,0.606 -0.107,0.678 -0.107,0.892c0,0.214 0,0.819 0.356,0.819c0.499,0 12.156,-8.911 18.251,-18.179c2.46,-3.743 4.277,-8.056 4.277,-11.264c0,-4.099 -2.673,-5.561 -4.669,-5.561c-1.39,0 -2.068,3.03 -2.068,3.636c0,0.713 0.25,0.713 0.82,0.784c3.244,0.392 3.814,2.923 3.814,4.064c0,3.921 -8.376,13.759 -16.646,20.211" style="fill:#000;fill-rule:nonzero;"/><path d="M437.926,221.225c0.153,1.859 0.503,3.216 0.657,3.784c0.328,1.335 0.481,1.969 1.728,1.969c1.334,0 3.61,-1.312 3.61,-1.903c0,-0.153 -0.11,-0.219 -0.263,-0.219c-0.394,0 -1.006,0.328 -1.094,0.394c-0.197,0.109 -0.262,0.109 -0.328,0.109c-0.831,0 -1.006,-0.787 -1.356,-2.559c-0.197,-0.985 -0.46,-2.166 -0.7,-6.192c-0.219,-3.019 -0.329,-6.038 -0.329,-9.035c0,-0.722 0.022,-1.488 0.022,-2.188c0,-0.481 0,-0.59 -0.328,-0.59c-0.394,0 -1.619,0.503 -2.144,1.29l-0.219,0.328c-2.319,4.989 -4.506,8.555 -6.038,10.961c-1.75,2.669 -4.813,7.482 -6.41,7.482c-1.094,0 -1.991,-0.7 -2.275,-1.772c-0.022,-0.044 -0.088,-0.219 -0.197,-0.219c-0.438,0 -1.094,1.401 -1.094,2.232c0,1.181 1.269,2.472 2.669,2.472c2.035,0 5.426,-5.294 6.06,-6.344l8.029,0ZM437.336,208.426l0,1.707c0,1.706 0.065,3.434 0.153,5.141c0.022,0.591 0.153,2.8 0.284,4.332l-5.382,0c-0.481,0 -0.919,0 -1.684,0.481c2.056,-3.194 3.763,-6.257 3.96,-6.585c1.465,-2.626 2.253,-4.332 2.647,-5.076l0.022,0" style="fill:#000;fill-rule:nonzero;"/><path d="M1014.88,221.225c0.153,1.859 0.503,3.216 0.656,3.784c0.328,1.335 0.481,1.969 1.728,1.969c1.335,0 3.61,-1.312 3.61,-1.903c0,-0.153 -0.109,-0.219 -0.262,-0.219c-0.394,0 -1.007,0.328 -1.094,0.394c-0.197,0.109 -0.263,0.109 -0.328,0.109c-0.832,0 -1.007,-0.787 -1.357,-2.559c-0.197,-0.985 -0.459,-2.166 -0.7,-6.192c-0.219,-3.019 -0.328,-6.038 -0.328,-9.035c0,-0.722 0.022,-1.488 0.022,-2.188c0,-0.481 0,-0.59 -0.328,-0.59c-0.394,0 -1.619,0.503 -2.144,1.29l-0.219,0.328c-2.319,4.989 -4.507,8.555 -6.038,10.961c-1.751,2.669 -4.814,7.482 -6.411,7.482c-1.093,0 -1.99,-0.7 -2.275,-1.772c-0.022,-0.044 -0.087,-0.219 -0.197,-0.219c-0.437,0 -1.094,1.401 -1.094,2.232c0,1.181 1.269,2.472 2.669,2.472c2.035,0 5.426,-5.294 6.061,-6.344l8.029,0ZM1014.29,208.426l0,1.707c0,1.706 0.066,3.434 0.153,5.141c0.022,0.591 0.153,2.8 0.284,4.332l-5.381,0c-0.482,0 -0.919,0 -1.685,0.481c2.057,-3.194 3.763,-6.257 3.96,-6.585c1.466,-2.626 2.253,-4.332 2.647,-5.076l0.022,0" style="fill:#000;fill-rule:nonzero;"/></svg>