<?xml version="1.0" standalone="no"?><!DOCTYPE svg PUBLIC "-//W3C//DTD SVG 1.1//EN" "http://www.w3.org/Graphics/SVG/1.1/DTD/svg11.dtd"><svg width="100%" height="100%" viewBox="0 0 1280 380" version="1.1" xmlns="http://www.w3.org/2000/svg" xmlns:xlink="http://www.w3.org/1999/xlink" xml:space="preserve" style="fill-rule:evenodd;clip-rule:evenodd;stroke-linecap:round;stroke-linejoin:round;stroke-miterlimit:1.41421;"><path d="M735.452,173.641l8.985,0c0.431,0 1.042,0 1.042,-0.647c0,-0.611 -0.611,-0.611 -1.042,-0.611l-8.985,0l0,-9.021c0,-0.467 0,-1.078 -0.647,-1.078c-0.647,0 -0.647,0.611 -0.647,1.078l0,9.021l-9.02,0c-0.432,0 -1.043,0 -1.043,0.611c0,0.647 0.611,0.647 1.043,0.647l9.02,0l0,9.02c0,0.467 0,1.078 0.647,1.078c0.647,0 0.647,-0.611 0.647,-1.078l0,-9.02" style="fill:#000;fill-rule:nonzero;"/><path d="M894.775,173.641l8.985,0c0.431,0 1.042,0 1.042,-0.647c0,-0.611 -0.611,-0.611 -1.042,-0.611l-8.985,0l0,-9.021c0,-0.467 0,-1.078 -0.647,-1.078c-0.647,0 -0.647,0.611 -0.647,1.078l0,9.021l-9.02,0c-0.432,0 -1.043,0 -1.043,0.611c0,0.647 0.611,0.647 1.043,0.647l9.02,0l0,9.02c0,0.467 0,1.078 0.647,1.078c0.647,0 0.647,-0.611 0.647,-1.078l0,-9.02" style="fill:#000;fill-rule:nonzero;"/><path d="M366.661,165.617c0,-0.683 -0.216,-0.971 -0.431,-0.971c-0.144,0 -0.431,0.144 -0.467,0.863c-0.144,2.228 -2.372,3.558 -4.457,3.558c-1.869,0 -3.486,-1.006 -5.175,-2.12c-1.725,-1.186 -3.45,-2.336 -5.571,-2.336c-2.983,0 -5.355,2.3 -5.355,5.247c0,0.718 0.252,0.97 0.468,0.97c0.287,0 0.431,-0.611 0.431,-0.755c0.18,-2.695 2.803,-3.665 4.456,-3.665c1.869,0 3.486,1.006 5.176,2.12c1.725,1.186 3.45,2.336 5.57,2.336c2.983,0 5.355,-2.3 5.355,-5.247ZM366.661,173.128c0,-0.934 -0.395,-0.97 -0.431,-0.97c-0.144,0 -0.431,0.144 -0.467,0.862c-0.144,2.229 -2.372,3.522 -4.457,3.522c-1.869,0 -3.486,-1.006 -5.175,-2.12c-1.725,-1.15 -3.45,-2.3 -5.571,-2.3c-2.983,0 -5.355,2.264 -5.355,5.247c0,0.683 0.252,0.934 0.468,0.934c0.287,0 0.431,-0.611 0.431,-0.718c0.18,-2.696 2.803,-3.666 4.456,-3.666c1.869,0 3.486,1.006 5.176,2.12c1.725,1.15 3.45,2.3 5.57,2.3c3.055,0 5.355,-2.372 5.355,-5.211" style="fill:#000;fill-rule:nonzero;"/><path d="M808.656,174.555c0,-0.899 -0.791,-1.689 -1.725,-1.689c-0.935,0 -1.689,0.79 -1.689,1.689c0,0.934 0.754,1.725 1.689,1.725c0.934,0 1.725,-0.791 1.725,-1.725" style="fill:#000;fill-rule:nonzero;"/><path d="M822.96,174.555c0,-0.899 -0.791,-1.689 -1.725,-1.689c-0.935,0 -1.689,0.79 -1.689,1.689c0,0.934 0.754,1.725 1.689,1.725c0.934,0 1.725,-0.791 1.725,-1.725" style="fill:#000;fill-rule:nonzero;"/><path d="M837.264,174.555c0,-0.899 -0.791,-1.689 -1.726,-1.689c-0.934,0 -1.689,0.79 -1.689,1.689c0,0.934 0.755,1.725 1.689,1.725c0.935,0 1.726,-0.791 1.726,-1.725" style="fill:#000;fill-rule:nonzero;"/><g><rect x="31.499" y="55.735" width="59.397" height="36.511" style="fill:#fff;stroke-width:1px;stroke:#000;"/><rect x="31.499" y="55.735" width="59.397" height="36.511" style="fill:#fff;stroke-width:1px;stroke:#000;"/><rect x="31.499" y="55.735" width="59.397" height="36.511" style="fill:#fff;stroke-width:1px;stroke:#000;"/><rect x="31.499" y="105.959" width="59.397" height="36.511" style="fill:#fff;stroke-width:1px;stroke:#000;"/><rect x="31.499" y="155.582" width="59.397" height="36.511" style="fill:#fff;stroke-width:1px;stroke:#000;"/><rect x="31.499" y="155.582" width="59.397" height="36.511" style="fill:#fff;stroke-width:1px;stroke:#000;"/><rect x="31.499" y="155.582" width="59.397" height="36.511" style="fill:#fff;stroke-width:1px;stroke:#000;"/><rect x="31.499" y="205.487" width="59.397" height="36.511" style="fill:#fff;stroke-width:1px;stroke:#000;"/><rect x="31.499" y="205.487" width="59.397" height="36.511" style="fill:#fff;stroke-width:1px;stroke:#000;"/><rect x="31.499" y="205.487" width="59.397" height="36.511" style="fill:#fff;stroke-width:1px;stroke:#000;"/><rect x="31.499" y="205.487" width="59.397" height="36.511" style="fill:#fff;stroke-width:1px;stroke:#000;"/><rect x="31.499" y="255.921" width="59.397" height="36.511" style="fill:#fff;stroke-width:1px;stroke:#000;"/><rect x="31.499" y="255.921" width="59.397" height="36.511" style="fill:#fff;stroke-width:1px;stroke:#000;"/><rect x="31.499" y="255.921" width="59.397" height="36.511" style="fill:#fff;stroke-width:1px;stroke:#000;"/><rect x="31.499" y="105.959" width="59.397" height="36.511" style="fill:#fff;stroke-width:1px;stroke:#000;"/><rect x="104.64" y="55.735" width="59.397" height="36.511" style="fill:#fff;stroke-width:1px;stroke:#000;"/><rect x="104.64" y="105.959" width="59.397" height="36.511" style="fill:#fff;stroke-width:1px;stroke:#000;"/><rect x="104.64" y="155.582" width="59.397" height="36.511" style="fill:#fff;stroke-width:1px;stroke:#000;"/><rect x="104.64" y="205.487" width="59.397" height="36.511" style="fill:#fff;stroke-width:1px;stroke:#000;"/><rect x="104.64" y="205.487" width="59.397" height="36.511" style="fill:#fff;stroke-width:1px;stroke:#000;"/><rect x="104.64" y="255.921" width="59.397" height="36.511" style="fill:#fff;stroke-width:1px;stroke:#000;"/><rect x="178.266" y="55.735" width="59.397" height="36.511" style="fill:#fff;stroke-width:1px;stroke:#000;"/><rect x="178.266" y="155.582" width="59.397" height="36.511" style="fill:#fff;stroke-width:1px;stroke:#000;"/><rect x="178.266" y="205.487" width="59.397" height="36.511" style="fill:#fff;stroke-width:1px;stroke:#000;"/><rect x="178.266" y="205.487" width="59.397" height="36.511" style="fill:#fff;stroke-width:1px;stroke:#000;"/><rect x="178.266" y="255.921" width="59.397" height="36.511" style="fill:#fff;stroke-width:1px;stroke:#000;"/><rect x="178.266" y="105.959" width="59.397" height="36.511" style="fill:#fff;stroke-width:1px;stroke:#000;"/><rect x="252.65" y="55.735" width="59.397" height="36.511" style="fill:#fff;stroke-width:1px;stroke:#000;"/><rect x="252.65" y="155.582" width="59.397" height="36.511" style="fill:#fff;stroke-width:1px;stroke:#000;"/><rect x="252.65" y="205.487" width="59.397" height="36.511" style="fill:#fff;stroke-width:1px;stroke:#000;"/><rect x="252.65" y="205.487" width="59.397" height="36.511" style="fill:#fff;stroke-width:1px;stroke:#000;"/><rect x="252.65" y="255.921" width="59.397" height="36.511" style="fill:#fff;stroke-width:1px;stroke:#000;"/><rect x="252.65" y="105.959" width="59.397" height="36.511" style="fill:#fff;stroke-width:1px;stroke:#000;"/></g><rect x="400.009" y="55.735" width="59.397" height="36.511" style="fill:#fff;stroke-width:1px;stroke:#000;"/><rect x="400.009" y="55.735" width="59.397" height="36.511" style="fill:#fff;stroke-width:1px;stroke:#000;"/><rect x="937.677" y="55.735" width="59.397" height="36.511" style="fill:#fff;stroke-width:1px;stroke:#000;"/><rect x="400.009" y="155.582" width="59.397" height="36.511" style="fill:#fff;stroke-width:1px;stroke:#000;"/><rect x="400.009" y="155.582" width="59.397" height="36.511" style="fill:#fff;stroke-width:1px;stroke:#000;"/><rect x="937.677" y="155.582" width="59.397" height="36.511" style="fill:#fff;stroke-width:1px;stroke:#000;"/><rect x="400.009" y="205.487" width="59.397" height="36.511" style="fill:#fff;stroke-width:1px;stroke:#000;"/><rect x="400.009" y="205.487" width="59.397" height="36.511" style="fill:#fff;stroke-width:1px;stroke:#000;"/><rect x="937.677" y="205.487" width="59.397" height="36.511" style="fill:#fff;stroke-width:1px;stroke:#000;"/><rect x="400.009" y="255.921" width="59.397" height="36.511" style="fill:#fff;stroke-width:1px;stroke:#000;"/><rect x="400.009" y="255.921" width="59.397" height="36.511" style="fill:#fff;stroke-width:1px;stroke:#000;"/><rect x="937.677" y="255.921" width="59.397" height="36.511" style="fill:#fff;stroke-width:1px;stroke:#000;"/><rect x="400.009" y="105.959" width="59.397" height="36.511" style="fill:#fff;stroke-width:1px;stroke:#000;"/><rect x="400.009" y="105.959" width="59.397" height="36.511" style="fill:#fff;stroke-width:1px;stroke:#000;"/><rect x="937.677" y="105.959" width="59.397" height="36.511" style="fill:#fff;stroke-width:1px;stroke:#000;"/><rect x="477.836" y="56.138" width="224.231" height="16.579" style="fill:#fff;stroke-width:1px;stroke:#000;"/><rect x="477.836" y="56.138" width="224.231" height="16.579" style="fill:#fff;stroke-width:1px;stroke:#000;"/><rect x="1015.5" y="56.138" width="224.231" height="16.579" style="fill:#fff;stroke-width:1px;stroke:#000;"/><g><path d="M441.653,174.82c0,-0.504 -0.06,-0.534 -0.564,-0.534c-1.216,1.187 -2.906,1.216 -3.677,1.216l0,0.653c0.445,0 1.69,0 2.728,-0.504l0,9.549c0,0.623 0,0.86 -1.898,0.86l-0.712,0l0,0.652c0.356,0 2.64,-0.059 3.351,-0.059c0.564,0 2.936,0.059 3.352,0.059l0,-0.652l-0.712,0c-1.868,0 -1.868,-0.237 -1.868,-0.86l0,-10.38" style="fill:#000;fill-rule:nonzero;"/></g><path d="M609.439,51.102l-34.221,-0.389l-0.308,27.118l34.22,0.389l0.309,-27.118Z" style="fill:#fff;"/><path d="M609.439,51.102l-34.221,-0.389l-0.308,27.118l34.22,0.389l0.309,-27.118Z" style="fill:#fff;"/><path d="M1147.11,51.102l-34.22,-0.389l-0.309,27.118l34.221,0.389l0.308,-27.118Z" style="fill:#fff;"/><g><path d="M584.05,68.843l-1.651,0l0,1.118c0.665,-0.026 2.103,-0.053 3.009,-0.053c0.905,0 2.316,0.027 2.982,0.053l0,-1.118l-1.624,0l0,-4.979c0,-2.61 2.05,-3.755 3.541,-3.755c0.799,0 1.305,0.48 1.305,2.29l0,6.444l-1.651,0l0,1.118c0.692,-0.026 2.103,-0.053 3.009,-0.053c0.932,0 2.343,0.027 3.009,0.053l0,-1.118l-1.651,0l0,-6.178c0,-2.503 -1.278,-3.434 -3.675,-3.434c-2.29,0 -3.488,1.384 -4.047,2.343l0,-8.148l-4.207,0.186l0,1.118c1.464,0 1.651,0 1.651,0.932l0,13.181" style="fill:#000;fill-rule:nonzero;"/><path d="M602.263,62.879c0,-0.453 -0.054,-0.48 -0.506,-0.48c-1.092,1.065 -2.61,1.092 -3.302,1.092l0,0.586c0.399,0 1.518,0 2.423,-0.453l0,8.574c0,0.559 0,0.772 -1.677,0.772l-0.639,0l0,0.586c0.319,0 2.369,-0.053 3.008,-0.053c0.506,0 2.637,0.053 3.009,0.053l0,-0.586l-0.639,0c-1.677,0 -1.677,-0.213 -1.677,-0.772l0,-9.319" style="fill:#000;fill-rule:nonzero;"/></g><g><path d="M584.05,68.843l-1.651,0l0,1.118c0.665,-0.026 2.103,-0.053 3.009,-0.053c0.905,0 2.316,0.027 2.982,0.053l0,-1.118l-1.624,0l0,-4.979c0,-2.61 2.05,-3.755 3.541,-3.755c0.799,0 1.305,0.48 1.305,2.29l0,6.444l-1.651,0l0,1.118c0.692,-0.026 2.103,-0.053 3.009,-0.053c0.932,0 2.343,0.027 3.009,0.053l0,-1.118l-1.651,0l0,-6.178c0,-2.503 -1.278,-3.434 -3.675,-3.434c-2.29,0 -3.488,1.384 -4.047,2.343l0,-8.148l-4.207,0.186l0,1.118c1.464,0 1.651,0 1.651,0.932l0,13.181" style="fill:#000;fill-rule:nonzero;"/><path d="M602.263,62.879c0,-0.453 -0.054,-0.48 -0.506,-0.48c-1.092,1.065 -2.61,1.092 -3.302,1.092l0,0.586c0.399,0 1.518,0 2.423,-0.453l0,8.574c0,0.559 0,0.772 -1.677,0.772l-0.639,0l0,0.586c0.319,0 2.369,-0.053 3.008,-0.053c0.506,0 2.637,0.053 3.009,0.053l0,-0.586l-0.639,0c-1.677,0 -1.677,-0.213 -1.677,-0.772l0,-9.319" style="fill:#000;fill-rule:nonzero;"/></g><g><path d="M1121.72,68.843l-1.651,0l0,1.118c0.666,-0.026 2.104,-0.053 3.009,-0.053c0.906,0 2.317,0.027 2.983,0.053l0,-1.118l-1.625,0l0,-4.979c0,-2.61 2.051,-3.755 3.542,-3.755c0.799,0 1.305,0.48 1.305,2.29l0,6.444l-1.651,0l0,1.118c0.692,-0.026 2.103,-0.053 3.008,-0.053c0.932,0 2.344,0.027 3.009,0.053l0,-1.118l-1.651,0l0,-6.178c0,-2.503 -1.278,-3.434 -3.674,-3.434c-2.29,0 -3.488,1.384 -4.047,2.343l0,-8.148l-4.208,0.186l0,1.118c1.465,0 1.651,0 1.651,0.932l0,13.181" style="fill:#000;fill-rule:nonzero;"/></g><path d="M473.482,271.826c0.125,-0.439 0.314,-1.222 0.314,-1.316c0,-0.376 -0.251,-0.751 -0.784,-0.751c-0.376,0 -0.877,0.25 -1.033,0.845c-0.408,-0.532 -1.19,-1.253 -2.538,-1.253c-2.944,0 -5.889,2.882 -5.889,5.858c0,2.162 1.566,3.665 3.665,3.665c1.723,0 3.07,-1.222 3.321,-1.472c0.376,1.034 1.534,1.472 2.474,1.472c0.846,0 1.41,-0.47 1.88,-1.19c0.532,-0.815 0.814,-1.911 0.814,-2.068c0,-0.282 -0.344,-0.282 -0.438,-0.282c-0.376,0 -0.376,0.126 -0.501,0.439c-0.376,1.566 -0.909,2.381 -1.661,2.381c-0.595,0 -0.845,-0.47 -0.845,-1.097c0,-0.313 0.219,-1.127 0.344,-1.691l0.877,-3.54ZM470.663,275.836c-0.063,0.313 -0.063,0.376 -0.47,0.783c-0.752,0.877 -1.848,1.535 -2.913,1.535c-0.721,0 -1.848,-0.408 -1.848,-2.13c0,-0.972 0.501,-3.196 1.252,-4.292c0.815,-1.159 1.88,-1.66 2.757,-1.66c0.94,0 1.849,0.564 2.193,1.817l-0.971,3.947" style="fill:#000;fill-rule:nonzero;"/><path d="M473.482,271.826c0.125,-0.439 0.314,-1.222 0.314,-1.316c0,-0.376 -0.251,-0.751 -0.784,-0.751c-0.376,0 -0.877,0.25 -1.033,0.845c-0.408,-0.532 -1.19,-1.253 -2.538,-1.253c-2.944,0 -5.889,2.882 -5.889,5.858c0,2.162 1.566,3.665 3.665,3.665c1.723,0 3.07,-1.222 3.321,-1.472c0.376,1.034 1.534,1.472 2.474,1.472c0.846,0 1.41,-0.47 1.88,-1.19c0.532,-0.815 0.814,-1.911 0.814,-2.068c0,-0.282 -0.344,-0.282 -0.438,-0.282c-0.376,0 -0.376,0.126 -0.501,0.439c-0.376,1.566 -0.909,2.381 -1.661,2.381c-0.595,0 -0.845,-0.47 -0.845,-1.097c0,-0.313 0.219,-1.127 0.344,-1.691l0.877,-3.54ZM470.663,275.836c-0.063,0.313 -0.063,0.376 -0.47,0.783c-0.752,0.877 -1.848,1.535 -2.913,1.535c-0.721,0 -1.848,-0.408 -1.848,-2.13c0,-0.972 0.501,-3.196 1.252,-4.292c0.815,-1.159 1.88,-1.66 2.757,-1.66c0.94,0 1.849,0.564 2.193,1.817l-0.971,3.947" style="fill:#000;fill-rule:nonzero;"/><path d="M1011.15,271.826c0.125,-0.439 0.314,-1.222 0.314,-1.316c0,-0.376 -0.252,-0.751 -0.784,-0.751c-0.376,0 -0.877,0.25 -1.034,0.845c-0.407,-0.532 -1.19,-1.253 -2.537,-1.253c-2.945,0 -5.889,2.882 -5.889,5.858c0,2.162 1.566,3.665 3.665,3.665c1.723,0 3.07,-1.222 3.32,-1.472c0.376,1.034 1.535,1.472 2.475,1.472c0.846,0 1.41,-0.47 1.88,-1.19c0.532,-0.815 0.814,-1.911 0.814,-2.068c0,-0.282 -0.344,-0.282 -0.438,-0.282c-0.376,0 -0.376,0.126 -0.501,0.439c-0.376,1.566 -0.909,2.381 -1.661,2.381c-0.595,0 -0.845,-0.47 -0.845,-1.097c0,-0.313 0.219,-1.127 0.344,-1.691l0.877,-3.54ZM1008.33,275.836c-0.062,0.313 -0.062,0.376 -0.469,0.783c-0.752,0.877 -1.848,1.535 -2.913,1.535c-0.721,0 -1.849,-0.408 -1.849,-2.13c0,-0.972 0.502,-3.196 1.253,-4.292c0.815,-1.159 1.88,-1.66 2.757,-1.66c0.94,0 1.849,0.564 2.193,1.817l-0.972,3.947" style="fill:#000;fill-rule:nonzero;"/><path d="M428.508,298.52c0.093,-0.313 0.093,-0.344 0.093,-0.438c0,-0.376 -0.313,-0.376 -0.657,-0.345l-2.601,0.188c-0.344,0 -0.375,0.031 -0.501,0.125c-0.094,0.094 -0.156,0.345 -0.156,0.47c0,0.376 0.344,0.376 0.657,0.376c0,0 0.376,0 0.69,0.032c0.407,0.031 0.439,0.094 0.439,0.281c0,0.126 -0.22,0.94 -0.345,1.41l-1.755,7.048c-0.094,0.439 -0.156,0.783 -0.156,1.222c0,2.193 1.566,3.665 3.571,3.665c3.069,0 5.952,-2.945 5.952,-5.889c0,-2.068 -1.535,-3.665 -3.697,-3.665c-0.877,0 -1.911,0.344 -2.944,1.159l1.41,-5.639ZM427.849,311.833c-0.908,0 -1.942,-0.563 -1.942,-2.255c0,-0.689 0.157,-1.347 0.314,-2.067c0.062,-0.251 0.438,-1.629 0.469,-1.755c0.063,-0.188 1.535,-2.036 3.29,-2.036c0.908,0 1.848,0.564 1.848,2.162c0,0.783 -0.408,2.756 -1.065,3.978c-0.721,1.222 -1.911,1.973 -2.914,1.973" style="fill:#000;fill-rule:nonzero;"/><path d="M428.508,298.52c0.093,-0.313 0.093,-0.344 0.093,-0.438c0,-0.376 -0.313,-0.376 -0.657,-0.345l-2.601,0.188c-0.344,0 -0.375,0.031 -0.501,0.125c-0.094,0.094 -0.156,0.345 -0.156,0.47c0,0.376 0.344,0.376 0.657,0.376c0,0 0.376,0 0.69,0.032c0.407,0.031 0.439,0.094 0.439,0.281c0,0.126 -0.22,0.94 -0.345,1.41l-1.755,7.048c-0.094,0.439 -0.156,0.783 -0.156,1.222c0,2.193 1.566,3.665 3.571,3.665c3.069,0 5.952,-2.945 5.952,-5.889c0,-2.068 -1.535,-3.665 -3.697,-3.665c-0.877,0 -1.911,0.344 -2.944,1.159l1.41,-5.639ZM427.849,311.833c-0.908,0 -1.942,-0.563 -1.942,-2.255c0,-0.689 0.157,-1.347 0.314,-2.067c0.062,-0.251 0.438,-1.629 0.469,-1.755c0.063,-0.188 1.535,-2.036 3.29,-2.036c0.908,0 1.848,0.564 1.848,2.162c0,0.783 -0.408,2.756 -1.065,3.978c-0.721,1.222 -1.911,1.973 -2.914,1.973" style="fill:#000;fill-rule:nonzero;"/><path d="M966.175,298.52c0.094,-0.313 0.094,-0.344 0.094,-0.438c0,-0.376 -0.313,-0.376 -0.657,-0.345l-2.601,0.188c-0.344,0 -0.375,0.031 -0.501,0.125c-0.094,0.094 -0.157,0.345 -0.157,0.47c0,0.376 0.345,0.376 0.658,0.376c0,0 0.376,0 0.69,0.032c0.407,0.031 0.438,0.094 0.438,0.281c0,0.126 -0.219,0.94 -0.344,1.41l-1.755,7.048c-0.094,0.439 -0.156,0.783 -0.156,1.222c0,2.193 1.566,3.665 3.57,3.665c3.07,0 5.952,-2.945 5.952,-5.889c0,-2.068 -1.535,-3.665 -3.696,-3.665c-0.877,0 -1.911,0.344 -2.944,1.159l1.409,-5.639ZM965.517,311.833c-0.908,0 -1.942,-0.563 -1.942,-2.255c0,-0.689 0.157,-1.347 0.313,-2.067c0.063,-0.251 0.439,-1.629 0.47,-1.755c0.063,-0.188 1.535,-2.036 3.29,-2.036c0.907,0 1.847,0.564 1.847,2.162c0,0.783 -0.407,2.756 -1.065,3.978c-0.72,1.222 -1.911,1.973 -2.913,1.973" style="fill:#000;fill-rule:nonzero;"/><path d="M426.808,38.61l2.35,0c0.439,0 0.47,-0.031 0.564,-0.094c0.093,-0.094 0.156,-0.376 0.156,-0.501c0,-0.345 -0.313,-0.345 -0.658,-0.345l-2.255,0c0.251,-1.566 0.658,-4.228 0.939,-4.542c0.314,-0.344 0.659,-0.501 1.003,-0.501c0.126,0 0.596,0 1.034,0.219c-0.846,0.345 -0.846,1.128 -0.846,1.191c0,0.532 0.408,0.877 0.94,0.877c0.533,0 1.315,-0.47 1.315,-1.41c0,-1.19 -1.409,-1.597 -2.411,-1.597c-2.663,0 -3.196,2.537 -3.383,3.445c-0.189,0.909 -0.063,0.345 -0.439,2.318l-1.911,0c-0.376,0 -0.72,0 -0.72,0.596c0,0.344 0.313,0.344 0.657,0.344l1.849,0c-0.407,2.068 -1.285,7.894 -1.88,10.149c-0.125,0.502 -0.626,1.567 -1.441,1.567c-0.125,0 -0.595,-0.032 -0.971,-0.22c0.564,-0.25 0.846,-0.783 0.846,-1.221c0,-0.501 -0.407,-0.846 -0.94,-0.846c-0.532,0 -1.316,0.47 -1.316,1.378c0,1.285 1.535,1.629 2.35,1.629c1.221,0 2.161,-0.971 2.631,-1.629c0.846,-1.19 1.316,-3.978 1.347,-4.041l1.19,-6.766" style="fill:#000;fill-rule:nonzero;"/><path d="M426.808,38.61l2.35,0c0.439,0 0.47,-0.031 0.564,-0.094c0.093,-0.094 0.156,-0.376 0.156,-0.501c0,-0.345 -0.313,-0.345 -0.658,-0.345l-2.255,0c0.251,-1.566 0.658,-4.228 0.939,-4.542c0.314,-0.344 0.659,-0.501 1.003,-0.501c0.126,0 0.596,0 1.034,0.219c-0.846,0.345 -0.846,1.128 -0.846,1.191c0,0.532 0.408,0.877 0.94,0.877c0.533,0 1.315,-0.47 1.315,-1.41c0,-1.19 -1.409,-1.597 -2.411,-1.597c-2.663,0 -3.196,2.537 -3.383,3.445c-0.189,0.909 -0.063,0.345 -0.439,2.318l-1.911,0c-0.376,0 -0.72,0 -0.72,0.596c0,0.344 0.313,0.344 0.657,0.344l1.849,0c-0.407,2.068 -1.285,7.894 -1.88,10.149c-0.125,0.502 -0.626,1.567 -1.441,1.567c-0.125,0 -0.595,-0.032 -0.971,-0.22c0.564,-0.25 0.846,-0.783 0.846,-1.221c0,-0.501 -0.407,-0.846 -0.94,-0.846c-0.532,0 -1.316,0.47 -1.316,1.378c0,1.285 1.535,1.629 2.35,1.629c1.221,0 2.161,-0.971 2.631,-1.629c0.846,-1.19 1.316,-3.978 1.347,-4.041l1.19,-6.766" style="fill:#000;fill-rule:nonzero;"/><path d="M964.476,38.61l2.35,0c0.438,0 0.47,-0.031 0.563,-0.094c0.094,-0.094 0.157,-0.376 0.157,-0.501c0,-0.345 -0.313,-0.345 -0.658,-0.345l-2.255,0c0.25,-1.566 0.658,-4.228 0.939,-4.542c0.314,-0.344 0.659,-0.501 1.003,-0.501c0.126,0 0.595,0 1.034,0.219c-0.846,0.345 -0.846,1.128 -0.846,1.191c0,0.532 0.407,0.877 0.94,0.877c0.532,0 1.315,-0.47 1.315,-1.41c0,-1.19 -1.409,-1.597 -2.411,-1.597c-2.663,0 -3.196,2.537 -3.384,3.445c-0.188,0.909 -0.062,0.345 -0.438,2.318l-1.911,0c-0.376,0 -0.72,0 -0.72,0.596c0,0.344 0.312,0.344 0.657,0.344l1.849,0c-0.408,2.068 -1.285,7.894 -1.88,10.149c-0.125,0.502 -0.626,1.567 -1.441,1.567c-0.125,0 -0.595,-0.032 -0.971,-0.22c0.564,-0.25 0.846,-0.783 0.846,-1.221c0,-0.501 -0.407,-0.846 -0.94,-0.846c-0.532,0 -1.316,0.47 -1.316,1.378c0,1.285 1.535,1.629 2.35,1.629c1.221,0 2.161,-0.971 2.631,-1.629c0.846,-1.19 1.316,-3.978 1.347,-4.041l1.19,-6.766" style="fill:#000;fill-rule:nonzero;"/><path d="M712.629,63.559l2.475,0c0.438,0 0.47,0 0.563,-0.094c0.126,-0.094 0.189,-0.344 0.189,-0.469c0,-0.376 -0.314,-0.376 -0.69,-0.376l-2.317,0l0.438,-1.755c0.125,-0.532 0.376,-1.472 0.376,-1.597c0,-0.376 -0.251,-0.752 -0.752,-0.752c-0.376,0 -0.877,0.251 -1.033,0.814c-0.126,0.345 0.125,-0.626 -0.846,3.29l-2.506,0c-0.408,0 -0.752,0 -0.752,0.595c0,0.344 0.313,0.344 0.689,0.344l2.318,0l-1.222,4.95c-0.125,0.47 -0.281,1.127 -0.281,1.378c0,1.19 1.127,2.036 2.6,2.036c2.537,0 4.103,-2.85 4.103,-3.258c0,-0.282 -0.376,-0.282 -0.439,-0.282c-0.344,0 -0.376,0.063 -0.501,0.345c-0.689,1.504 -2.005,2.475 -3.101,2.475c-0.657,0 -0.877,-0.47 -0.877,-1.097c0,-0.344 0.031,-0.407 0.062,-0.595l1.504,-5.952" style="fill:#000;fill-rule:nonzero;"/><path d="M712.629,63.559l2.475,0c0.438,0 0.47,0 0.563,-0.094c0.126,-0.094 0.189,-0.344 0.189,-0.469c0,-0.376 -0.314,-0.376 -0.69,-0.376l-2.317,0l0.438,-1.755c0.125,-0.532 0.376,-1.472 0.376,-1.597c0,-0.376 -0.251,-0.752 -0.752,-0.752c-0.376,0 -0.877,0.251 -1.033,0.814c-0.126,0.345 0.125,-0.626 -0.846,3.29l-2.506,0c-0.408,0 -0.752,0 -0.752,0.595c0,0.344 0.313,0.344 0.689,0.344l2.318,0l-1.222,4.95c-0.125,0.47 -0.281,1.127 -0.281,1.378c0,1.19 1.127,2.036 2.6,2.036c2.537,0 4.103,-2.85 4.103,-3.258c0,-0.282 -0.376,-0.282 -0.439,-0.282c-0.344,0 -0.376,0.063 -0.501,0.345c-0.689,1.504 -2.005,2.475 -3.101,2.475c-0.657,0 -0.877,-0.47 -0.877,-1.097c0,-0.344 0.031,-0.407 0.062,-0.595l1.504,-5.952" style="fill:#000;fill-rule:nonzero;"/><path d="M1250.3,63.559l2.474,0c0.439,0 0.47,0 0.564,-0.094c0.126,-0.094 0.189,-0.344 0.189,-0.469c0,-0.376 -0.314,-0.376 -0.69,-0.376l-2.317,0l0.438,-1.755c0.125,-0.532 0.375,-1.472 0.375,-1.597c0,-0.376 -0.25,-0.752 -0.751,-0.752c-0.376,0 -0.877,0.251 -1.034,0.814c-0.125,0.345 0.125,-0.626 -0.846,3.29l-2.506,0c-0.407,0 -0.751,0 -0.751,0.595c0,0.344 0.313,0.344 0.689,0.344l2.318,0l-1.222,4.95c-0.125,0.47 -0.281,1.127 -0.281,1.378c0,1.19 1.127,2.036 2.599,2.036c2.538,0 4.104,-2.85 4.104,-3.258c0,-0.282 -0.376,-0.282 -0.439,-0.282c-0.345,0 -0.376,0.063 -0.501,0.345c-0.689,1.504 -2.005,2.475 -3.101,2.475c-0.658,0 -0.877,-0.47 -0.877,-1.097c0,-0.344 0.031,-0.407 0.062,-0.595l1.504,-5.952" style="fill:#000;fill-rule:nonzero;"/><rect x="77.859" y="145.542" width="207.668" height="56.979" style="fill:#fff;"/><g><path d="M99.698,145.069l-5.587,5.68l0.745,0.744l4.842,-4.236l4.795,4.236l0.745,-0.744l-5.54,-5.68" style="fill:#000;fill-rule:nonzero;"/><path d="M131.914,194.696c0,-0.139 0,-0.232 -0.699,-0.931c-5.214,-5.26 -6.564,-13.128 -6.564,-19.506c0,-7.263 1.583,-14.525 6.704,-19.739c0.559,-0.466 0.559,-0.559 0.559,-0.699c0,-0.279 -0.187,-0.419 -0.419,-0.419c-0.419,0 -4.19,2.84 -6.658,8.147c-2.095,4.563 -2.607,9.218 -2.607,12.71c0,3.259 0.466,8.287 2.747,12.989c2.514,5.121 6.099,7.821 6.518,7.821c0.232,0 0.419,-0.093 0.419,-0.373" style="fill:#000;fill-rule:nonzero;"/><path d="M149.931,168.905c-0.745,-1.536 -1.956,-2.654 -3.865,-2.654c-4.888,0 -10.055,6.146 -10.055,12.198c0,3.91 2.327,6.657 5.586,6.657c0.792,0 2.886,-0.14 5.4,-3.119c0.326,1.769 1.77,3.119 3.771,3.119c1.49,0 2.421,-0.931 3.12,-2.281c0.698,-1.49 1.257,-4.05 1.257,-4.097c0,-0.419 -0.419,-0.419 -0.512,-0.419c-0.419,0 -0.466,0.14 -0.606,0.745c-0.698,2.7 -1.443,5.167 -3.165,5.167c-1.118,0 -1.257,-1.117 -1.257,-1.908c0,-0.931 0.093,-1.257 0.558,-3.119c0.466,-1.723 0.559,-2.142 0.931,-3.725l1.49,-5.866c0.279,-1.164 0.279,-1.21 0.279,-1.396c0,-0.699 -0.512,-1.118 -1.21,-1.118c-0.978,0 -1.629,0.931 -1.722,1.816ZM147.184,179.706c-0.187,0.745 -0.187,0.838 -0.792,1.536c-1.862,2.281 -3.584,2.979 -4.748,2.979c-2.049,0 -2.654,-2.281 -2.654,-3.91c0,-2.095 1.35,-7.216 2.281,-9.125c1.304,-2.467 3.166,-4.004 4.842,-4.004c2.7,0 3.305,3.399 3.305,3.632c0,0.279 -0.093,0.512 -0.139,0.745l-2.095,8.147" style="fill:#000;fill-rule:nonzero;"/><path d="M165.014,184.641c0,-2.747 -1.024,-4.377 -2.653,-4.377c-1.35,0 -2.188,1.025 -2.188,2.188c0,1.118 0.838,2.235 2.188,2.235c0.512,0 1.024,-0.186 1.443,-0.559c0.14,-0.093 0.186,-0.139 0.233,-0.139c0.046,0 0.093,0.046 0.093,0.652c0,3.072 -1.49,5.586 -2.84,6.936c-0.466,0.466 -0.466,0.559 -0.466,0.699c0,0.279 0.187,0.419 0.419,0.419c0.466,0 3.771,-3.213 3.771,-8.054" style="fill:#000;fill-rule:nonzero;"/><path d="M185.079,156.195c0,-0.046 0,-0.465 -0.558,-0.465c-0.978,0 -4.004,0.326 -5.075,0.419c-0.326,0.046 -0.791,0.093 -0.791,0.838c0,0.512 0.372,0.512 0.978,0.512c2.001,0 2.094,0.279 2.094,0.698c0,0.28 -0.372,1.723 -0.558,2.607l-3.445,13.548c-0.512,2.095 -0.652,2.793 -0.652,4.236c0,3.958 2.188,6.518 5.307,6.518c4.889,0 10.01,-6.192 10.01,-12.197c0,-3.771 -2.188,-6.658 -5.54,-6.658c-1.909,0 -3.632,1.211 -4.889,2.514l3.119,-12.57ZM181.169,171.978c0.233,-0.932 0.233,-1.025 0.605,-1.49c2.049,-2.7 3.911,-3.306 4.981,-3.306c1.537,0 2.654,1.211 2.654,3.911c0,2.467 -1.397,7.263 -2.141,8.845c-1.35,2.794 -3.306,4.283 -4.889,4.283c-1.443,0 -2.793,-1.117 -2.793,-4.236c0,-0.791 0,-1.583 0.652,-4.19l0.931,-3.817" style="fill:#000;fill-rule:nonzero;"/><path d="M201.56,184.641c0,-2.747 -1.024,-4.377 -2.654,-4.377c-1.396,0 -2.188,1.025 -2.188,2.188c0,1.118 0.792,2.235 2.188,2.235c0.512,0 1.025,-0.186 1.443,-0.559c0.14,-0.093 0.187,-0.139 0.233,-0.139c0.046,0 0.093,0.046 0.093,0.652c0,3.072 -1.489,5.586 -2.839,6.936c-0.466,0.466 -0.466,0.559 -0.466,0.699c0,0.279 0.186,0.419 0.419,0.419c0.465,0 3.771,-3.213 3.771,-8.054" style="fill:#000;fill-rule:nonzero;"/><path d="M226.933,168.02l3.584,0c0.839,0 1.257,0 1.257,-0.838c0,-0.465 -0.418,-0.465 -1.117,-0.465l-3.445,0l0.838,-4.749c0.185,-0.884 0.744,-3.864 1.025,-4.329c0.371,-0.792 1.07,-1.444 1.954,-1.444c0.186,0 1.257,0 2.049,0.745c-1.863,0.187 -2.281,1.63 -2.281,2.282c0,0.931 0.791,1.443 1.582,1.443c1.071,0 2.282,-0.931 2.282,-2.514c0,-1.909 -1.91,-2.887 -3.632,-2.887c-1.443,0 -4.05,0.792 -5.307,4.889c-0.232,0.884 -0.372,1.303 -1.35,6.564l-2.887,0c-0.791,0 -1.256,0 -1.256,0.791c0,0.512 0.372,0.512 1.163,0.512l2.747,0l-3.119,16.434c-0.745,4.051 -1.443,7.822 -3.631,7.822c-0.14,0 -1.211,0 -2.002,-0.745c1.909,-0.093 2.281,-1.63 2.281,-2.235c0,-0.978 -0.745,-1.443 -1.537,-1.443c-1.07,0 -2.281,0.884 -2.281,2.467c0,1.909 1.817,2.887 3.539,2.887c2.281,0 3.957,-2.468 4.702,-4.051c1.35,-2.607 2.327,-7.635 2.327,-7.961l2.515,-13.175" style="fill:#000;fill-rule:nonzero;"/><path d="M242.668,184.641c0,-2.747 -1.071,-4.377 -2.654,-4.377c-1.397,0 -2.235,1.025 -2.235,2.188c0,1.118 0.838,2.235 2.235,2.235c0.466,0 1.025,-0.186 1.443,-0.559c0.14,-0.093 0.14,-0.139 0.186,-0.139c0.047,0 0.094,0.046 0.094,0.652c0,3.072 -1.443,5.586 -2.84,6.936c-0.466,0.466 -0.466,0.559 -0.466,0.699c0,0.279 0.233,0.419 0.42,0.419c0.465,0 3.817,-3.213 3.817,-8.054" style="fill:#000;fill-rule:nonzero;"/><path d="M261.476,168.02l3.957,0c0.791,0 1.211,0 1.211,-0.838c0,-0.465 -0.42,-0.465 -1.165,-0.465l-3.63,0c1.49,-5.913 1.676,-6.751 1.676,-7.03c0,-0.698 -0.466,-1.117 -1.211,-1.117c-0.093,0 -1.304,0.046 -1.676,1.489l-1.582,6.658l-3.958,0c-0.838,0 -1.21,0 -1.21,0.791c0,0.512 0.325,0.512 1.163,0.512l3.632,0c-2.98,11.825 -3.166,12.524 -3.166,13.269c0,2.234 1.583,3.817 3.864,3.817c4.237,0 6.611,-6.052 6.611,-6.378c0,-0.419 -0.325,-0.419 -0.513,-0.419c-0.371,0 -0.418,0.093 -0.604,0.559c-1.816,4.329 -4.004,5.353 -5.401,5.353c-0.884,0 -1.303,-0.558 -1.303,-1.908c0,-1.024 0.093,-1.304 0.233,-2.002l3.072,-12.291" style="fill:#000;fill-rule:nonzero;"/><path d="M280.005,174.259c0,-3.259 -0.466,-8.287 -2.747,-13.036c-2.513,-5.121 -6.098,-7.821 -6.518,-7.821c-0.232,0 -0.418,0.186 -0.418,0.419c0,0.14 0,0.233 0.791,0.978c4.096,4.097 6.472,10.754 6.472,19.46c0,7.123 -1.537,14.432 -6.704,19.693c-0.559,0.512 -0.559,0.605 -0.559,0.744c0,0.233 0.186,0.373 0.418,0.373c0.42,0 4.144,-2.793 6.611,-8.101c2.142,-4.609 2.654,-9.218 2.654,-12.709" style="fill:#000;fill-rule:nonzero;"/></g><path d="M983.581,177.426c0.152,-0.629 0.171,-0.743 1.18,-0.743c0.209,0 0.457,0 0.457,-0.361c0,-0.21 -0.134,-0.267 -0.267,-0.267c-0.438,0 -1.504,0.057 -1.941,0.057c-0.362,0 -0.971,-0.019 -1.371,-0.019c-0.457,-0.019 -0.971,-0.038 -1.408,-0.038c-0.134,0 -0.4,0 -0.4,0.362c0,0.266 0.152,0.266 0.704,0.266c0.4,0 0.476,0 0.914,0.038c0.533,0.057 0.59,0.115 0.59,0.324c0,0.133 0,0.171 -0.076,0.419l-2.056,8.204c-0.343,1.351 -1.485,2.474 -2.665,2.474c-0.247,0 -1.37,-0.057 -1.789,-0.933c1.047,0 1.275,-0.837 1.275,-1.161c0,-0.514 -0.438,-0.78 -0.818,-0.78c-0.495,0 -1.2,0.4 -1.2,1.408c0,1.162 1.085,1.961 2.589,1.961c1.751,0 3.75,-1.123 4.188,-2.912l2.094,-8.299" style="fill:#000;fill-rule:nonzero;"/><path d="M1141.71,65.837c0.152,-0.628 0.171,-0.742 1.18,-0.742c0.21,0 0.457,0 0.457,-0.362c0,-0.209 -0.133,-0.266 -0.266,-0.266c-0.438,0 -1.504,0.057 -1.942,0.057c-0.362,0 -0.971,-0.019 -1.37,-0.019c-0.457,-0.019 -0.971,-0.038 -1.409,-0.038c-0.133,0 -0.4,0 -0.4,0.361c0,0.267 0.153,0.267 0.705,0.267c0.399,0 0.475,0 0.913,0.038c0.533,0.057 0.59,0.114 0.59,0.323c0,0.134 0,0.172 -0.076,0.419l-2.056,8.204c-0.342,1.352 -1.484,2.475 -2.664,2.475c-0.248,0 -1.371,-0.058 -1.79,-0.933c1.047,0 1.276,-0.838 1.276,-1.161c0,-0.514 -0.438,-0.781 -0.819,-0.781c-0.495,0 -1.199,0.4 -1.199,1.409c0,1.161 1.085,1.96 2.589,1.96c1.751,0 3.749,-1.123 4.187,-2.912l2.094,-8.299" style="fill:#000;fill-rule:nonzero;"/><path d="M94.338,183.232c0.713,-5.917 0.713,-10.23 0.713,-10.979c0,-3.386 0,-17.716 -8.733,-17.716c-1.64,0 -3.316,1.319 -3.316,1.996c0,0.357 0.25,0.357 0.892,0.393c7.022,0.641 7.628,11.656 7.628,17.074c0,4.848 -0.642,10.622 -1.212,13.83c-0.107,0.606 -0.107,0.678 -0.107,0.892c0,0.214 0,0.819 0.356,0.819c0.499,0 12.156,-8.911 18.251,-18.179c2.46,-3.743 4.277,-8.056 4.277,-11.264c0,-4.099 -2.673,-5.561 -4.669,-5.561c-1.39,0 -2.068,3.03 -2.068,3.636c0,0.713 0.25,0.713 0.82,0.784c3.244,0.392 3.814,2.923 3.814,4.064c0,3.921 -8.376,13.759 -16.646,20.211" style="fill:#000;fill-rule:nonzero;"/><path d="M431.926,178.225c0.153,1.859 0.503,3.216 0.657,3.784c0.328,1.335 0.481,1.969 1.728,1.969c1.334,0 3.61,-1.312 3.61,-1.903c0,-0.153 -0.11,-0.219 -0.263,-0.219c-0.394,0 -1.006,0.328 -1.094,0.394c-0.197,0.109 -0.262,0.109 -0.328,0.109c-0.831,0 -1.006,-0.787 -1.356,-2.559c-0.197,-0.985 -0.46,-2.166 -0.7,-6.192c-0.219,-3.019 -0.329,-6.038 -0.329,-9.035c0,-0.722 0.022,-1.488 0.022,-2.188c0,-0.481 0,-0.59 -0.328,-0.59c-0.394,0 -1.619,0.503 -2.144,1.29l-0.219,0.328c-2.319,4.989 -4.506,8.555 -6.038,10.961c-1.75,2.669 -4.813,7.482 -6.41,7.482c-1.094,0 -1.991,-0.7 -2.275,-1.772c-0.022,-0.044 -0.088,-0.219 -0.197,-0.219c-0.438,0 -1.094,1.401 -1.094,2.232c0,1.181 1.269,2.472 2.669,2.472c2.035,0 5.426,-5.294 6.06,-6.344l8.029,0ZM431.336,165.426l0,1.707c0,1.706 0.065,3.434 0.153,5.141c0.022,0.591 0.153,2.8 0.284,4.332l-5.382,0c-0.481,0 -0.919,0 -1.684,0.481c2.056,-3.194 3.763,-6.257 3.96,-6.585c1.465,-2.626 2.253,-4.332 2.647,-5.076l0.022,0" style="fill:#000;fill-rule:nonzero;"/><path d="M969.815,178.278c0.153,1.86 0.503,3.216 0.656,3.785c0.328,1.335 0.481,1.969 1.728,1.969c1.335,0 3.61,-1.313 3.61,-1.903c0,-0.153 -0.109,-0.219 -0.263,-0.219c-0.393,0 -1.006,0.328 -1.093,0.394c-0.197,0.109 -0.263,0.109 -0.329,0.109c-0.831,0 -1.006,-0.787 -1.356,-2.56c-0.197,-0.984 -0.459,-2.165 -0.7,-6.191c-0.219,-3.019 -0.328,-6.038 -0.328,-9.035c0,-0.722 0.022,-1.488 0.022,-2.188c0,-0.481 0,-0.591 -0.328,-0.591c-0.394,0 -1.619,0.503 -2.144,1.291l-0.219,0.328c-2.319,4.988 -4.507,8.554 -6.038,10.961c-1.751,2.669 -4.814,7.482 -6.411,7.482c-1.093,0 -1.99,-0.7 -2.275,-1.772c-0.022,-0.044 -0.087,-0.219 -0.197,-0.219c-0.437,0 -1.094,1.4 -1.094,2.232c0,1.181 1.269,2.472 2.669,2.472c2.035,0 5.426,-5.295 6.061,-6.345l8.029,0ZM969.224,165.48l0,1.706c0,1.707 0.066,3.435 0.153,5.142c0.022,0.59 0.153,2.8 0.284,4.331l-5.381,0c-0.482,0 -0.919,0 -1.685,0.482c2.056,-3.194 3.763,-6.257 3.96,-6.585c1.466,-2.626 2.253,-4.332 2.647,-5.076l0.022,0" style="fill:#000;fill-rule:nonzero;"/></svg>