<?xml version="1.0" encoding="UTF-8" standalone="no"?>
<!DOCTYPE svg PUBLIC "-//W3C//DTD SVG 1.1//EN" "http://www.w3.org/Graphics/SVG/1.1/DTD/svg11.dtd">
<svg width="100%" height="100%" viewBox="0 0 1100 300" version="1.1" xmlns="http://www.w3.org/2000/svg" xmlns:xlink="http://www.w3.org/1999/xlink" xml:space="preserve" xmlns:serif="http://www.serif.com/" style="fill-rule:evenodd;clip-rule:evenodd;stroke-linecap:round;stroke-linejoin:round;stroke-miterlimit:1.41421;">
    <g transform="matrix(0.489782,-1.57526e-16,-3.21625e-16,-1,806.161,176.801)">
        <path d="M98.559,143.149L98.559,141.1L181.905,141.1L181.905,136.141L194.122,142.124L181.905,148.108L181.905,143.149L98.559,143.149Z" style="stroke:black;stroke-width:1.27px;"/>
    </g>
    <g transform="matrix(0.489782,-1.57526e-16,-3.21625e-16,-1,858.881,176.801)">
        <path d="M98.559,143.149L98.559,141.1L181.905,141.1L181.905,136.141L194.122,142.124L181.905,148.108L181.905,143.149L98.559,143.149Z" style="stroke:black;stroke-width:1.27px;"/>
    </g>
    <g transform="matrix(0.489782,-1.57526e-16,-3.21625e-16,-1,913.275,176.801)">
        <path d="M98.559,143.149L98.559,141.1L181.905,141.1L181.905,136.141L194.122,142.124L181.905,148.108L181.905,143.149L98.559,143.149Z" style="stroke:black;stroke-width:1.27px;"/>
    </g>
    <g transform="matrix(0.489782,-1.57526e-16,-3.21625e-16,-1,806.161,216.204)">
        <path d="M98.559,143.149L98.559,141.1L181.905,141.1L181.905,136.141L194.122,142.124L181.905,148.108L181.905,143.149L98.559,143.149Z" style="stroke:black;stroke-width:1.27px;"/>
    </g>
    <g transform="matrix(0.489782,-1.57526e-16,-3.21625e-16,-1,858.881,216.204)">
        <path d="M98.559,143.149L98.559,141.1L181.905,141.1L181.905,136.141L194.122,142.124L181.905,148.108L181.905,143.149L98.559,143.149Z" style="stroke:black;stroke-width:1.27px;"/>
    </g>
    <g transform="matrix(0.489782,-1.57526e-16,-3.21625e-16,-1,913.275,216.204)">
        <path d="M98.559,143.149L98.559,141.1L181.905,141.1L181.905,136.141L194.122,142.124L181.905,148.108L181.905,143.149L98.559,143.149Z" style="stroke:black;stroke-width:1.27px;"/>
    </g>
    <g transform="matrix(0.489782,-1.57526e-16,-3.21625e-16,-1,806.161,250.879)">
        <path d="M98.559,143.149L98.559,141.1L181.905,141.1L181.905,136.141L194.122,142.124L181.905,148.108L181.905,143.149L98.559,143.149Z" style="stroke:black;stroke-width:1.27px;"/>
    </g>
    <g transform="matrix(0.489782,-1.57526e-16,-3.21625e-16,-1,858.881,250.879)">
        <path d="M98.559,143.149L98.559,141.1L181.905,141.1L181.905,136.141L194.122,142.124L181.905,148.108L181.905,143.149L98.559,143.149Z" style="stroke:black;stroke-width:1.27px;"/>
    </g>
    <g transform="matrix(0.489782,-1.57526e-16,-3.21625e-16,-1,913.275,250.879)">
        <path d="M98.559,143.149L98.559,141.1L181.905,141.1L181.905,136.141L194.122,142.124L181.905,148.108L181.905,143.149L98.559,143.149Z" style="stroke:black;stroke-width:1.27px;"/>
    </g>
    <g transform="matrix(0.489782,-1.57526e-16,-3.21625e-16,-1,806.161,287.799)">
        <path d="M98.559,143.149L98.559,141.1L181.905,141.1L181.905,136.141L194.122,142.124L181.905,148.108L181.905,143.149L98.559,143.149Z" style="stroke:black;stroke-width:1.27px;"/>
    </g>
    <g transform="matrix(0.489782,-1.57526e-16,-3.21625e-16,-1,858.881,287.799)">
        <path d="M98.559,143.149L98.559,141.1L181.905,141.1L181.905,136.141L194.122,142.124L181.905,148.108L181.905,143.149L98.559,143.149Z" style="stroke:black;stroke-width:1.27px;"/>
    </g>
    <g transform="matrix(0.489782,-1.57526e-16,-3.21625e-16,-1,913.275,287.799)">
        <path d="M98.559,143.149L98.559,141.1L181.905,141.1L181.905,136.141L194.122,142.124L181.905,148.108L181.905,143.149L98.559,143.149Z" style="stroke:black;stroke-width:1.27px;"/>
    </g>
    <g transform="matrix(3.1675,0,0,1,231.44,3.6268)">
        <path d="M98.559,143.149L98.559,141.1L192.233,141.1L192.233,136.141L194.122,142.124L192.233,148.108L192.233,143.149L98.559,143.149Z" style="stroke:black;stroke-width:0.43px;"/>
    </g>
    <g transform="matrix(3.1682,0,0,1,231.371,-67.5266)">
        <path d="M98.559,143.149L98.559,141.1L192.233,141.1L192.233,136.141L194.122,142.124L192.233,148.108L192.233,143.149L98.559,143.149Z" style="stroke:black;stroke-width:0.43px;"/>
    </g>
    <g transform="matrix(3.17175,0,0,1,231.022,-107.368)">
        <path d="M98.559,143.149L98.559,141.1L192.235,141.1L192.235,136.141L194.122,142.124L192.235,148.108L192.235,143.149L98.559,143.149Z" style="stroke:black;stroke-width:0.43px;"/>
    </g>
    <g transform="matrix(3.1594,0,0,1,233.216,-33.6895)">
        <path d="M98.559,143.149L98.559,141.1L192.228,141.1L192.228,136.141L194.122,142.124L192.228,148.108L192.228,143.149L98.559,143.149Z" style="stroke:black;stroke-width:0.43px;"/>
    </g>
    <g transform="matrix(0.434214,-1.82421e-18,-1.83992e-18,0.445466,456.51,0.655251)">
        <g transform="matrix(1.66898,0,0,1,31.5628,-60.0065)">
            <rect x="42.683" y="107.781" width="59.913" height="59.913" style="fill:white;stroke:black;stroke-width:1.66px;"/>
        </g>
        <g transform="matrix(1.66898,0,0,1,31.5628,22.4093)">
            <rect x="42.683" y="107.781" width="59.913" height="59.913" style="fill:white;stroke:black;stroke-width:1.66px;"/>
        </g>
        <g transform="matrix(1.66898,0,0,1,31.5628,103.838)">
            <rect x="42.683" y="107.781" width="59.913" height="59.913" style="fill:white;stroke:black;stroke-width:1.66px;"/>
        </g>
        <g transform="matrix(1.66898,0,0,1,31.5628,185.73)">
            <rect x="42.683" y="107.781" width="59.913" height="59.913" style="fill:white;stroke:black;stroke-width:1.66px;"/>
        </g>
        <g transform="matrix(1.66898,0,0,1,31.5628,22.4093)">
            <rect x="42.683" y="107.781" width="59.913" height="59.913" style="fill:white;stroke:black;stroke-width:1.66px;"/>
        </g>
        <g transform="matrix(1.66898,0,0,1,154.694,-60.0065)">
            <rect x="42.683" y="107.781" width="59.913" height="59.913" style="fill:white;stroke:black;stroke-width:1.66px;"/>
        </g>
        <g transform="matrix(1.66898,0,0,1,154.694,22.4093)">
            <rect x="42.683" y="107.781" width="59.913" height="59.913" style="fill:white;stroke:black;stroke-width:1.66px;"/>
        </g>
        <g transform="matrix(1.66898,0,0,1,154.694,103.838)">
            <rect x="42.683" y="107.781" width="59.913" height="59.913" style="fill:white;stroke:black;stroke-width:1.66px;"/>
        </g>
        <g transform="matrix(1.66898,0,0,1,154.694,185.73)">
            <rect x="42.683" y="107.781" width="59.913" height="59.913" style="fill:white;stroke:black;stroke-width:1.66px;"/>
        </g>
        <g transform="matrix(1.66898,0,0,1,278.641,-60.0065)">
            <rect x="42.683" y="107.781" width="59.913" height="59.913" style="fill:white;stroke:black;stroke-width:1.66px;"/>
        </g>
        <g transform="matrix(1.66898,0,0,1,278.641,103.838)">
            <rect x="42.683" y="107.781" width="59.913" height="59.913" style="fill:white;stroke:black;stroke-width:1.66px;"/>
        </g>
        <g transform="matrix(1.66898,0,0,1,278.641,185.73)">
            <rect x="42.683" y="107.781" width="59.913" height="59.913" style="fill:white;stroke:black;stroke-width:1.66px;"/>
        </g>
        <g transform="matrix(1.66898,0,0,1,278.641,22.4093)">
            <rect x="42.683" y="107.781" width="59.913" height="59.913" style="fill:white;stroke:black;stroke-width:1.66px;"/>
        </g>
        <g transform="matrix(1.66898,0,0,1,403.866,-60.0065)">
            <rect x="42.683" y="107.781" width="59.913" height="59.913" style="fill:white;stroke:black;stroke-width:1.66px;"/>
        </g>
        <g transform="matrix(1.66898,0,0,1,403.866,103.838)">
            <rect x="42.683" y="107.781" width="59.913" height="59.913" style="fill:white;stroke:black;stroke-width:1.66px;"/>
        </g>
        <g transform="matrix(1.66898,0,0,1,403.866,185.73)">
            <rect x="42.683" y="107.781" width="59.913" height="59.913" style="fill:white;stroke:black;stroke-width:1.66px;"/>
        </g>
        <g transform="matrix(1.66898,0,0,1,403.866,22.4093)">
            <rect x="42.683" y="107.781" width="59.913" height="59.913" style="fill:white;stroke:black;stroke-width:1.66px;"/>
        </g>
    </g>
    <g transform="matrix(0.434214,-1.82421e-18,-1.83992e-18,0.445466,803.221,0.655251)">
        <g transform="matrix(1.66898,0,0,1,31.5628,-60.0065)">
            <rect x="42.683" y="107.781" width="59.913" height="59.913" style="fill:rgb(241,213,177);stroke:black;stroke-width:1.66px;"/>
        </g>
        <g transform="matrix(1.66898,0,0,1,31.5628,22.4093)">
            <rect x="42.683" y="107.781" width="59.913" height="59.913" style="fill:rgb(241,213,177);stroke:black;stroke-width:1.66px;"/>
        </g>
        <g transform="matrix(1.66898,0,0,1,31.5628,103.838)">
            <rect x="42.683" y="107.781" width="59.913" height="59.913" style="fill:rgb(241,213,177);stroke:black;stroke-width:1.66px;"/>
        </g>
        <g transform="matrix(1.66898,0,0,1,31.5628,185.73)">
            <rect x="42.683" y="107.781" width="59.913" height="59.913" style="fill:rgb(241,213,177);stroke:black;stroke-width:1.66px;"/>
        </g>
        <g transform="matrix(1.66898,0,0,1,31.5628,22.4093)">
            <rect x="42.683" y="107.781" width="59.913" height="59.913" style="fill:rgb(241,213,177);stroke:black;stroke-width:1.66px;"/>
        </g>
        <g transform="matrix(1.66898,0,0,1,154.694,-60.0065)">
            <rect x="42.683" y="107.781" width="59.913" height="59.913" style="fill:rgb(241,213,177);stroke:black;stroke-width:1.66px;"/>
        </g>
        <g transform="matrix(1.66898,0,0,1,154.694,22.4093)">
            <rect x="42.683" y="107.781" width="59.913" height="59.913" style="fill:rgb(241,213,177);stroke:black;stroke-width:1.66px;"/>
        </g>
        <g transform="matrix(1.66898,0,0,1,154.694,103.838)">
            <rect x="42.683" y="107.781" width="59.913" height="59.913" style="fill:rgb(241,213,177);stroke:black;stroke-width:1.66px;"/>
        </g>
        <g transform="matrix(1.66898,0,0,1,154.694,185.73)">
            <rect x="42.683" y="107.781" width="59.913" height="59.913" style="fill:rgb(241,213,177);stroke:black;stroke-width:1.66px;"/>
        </g>
        <g transform="matrix(1.66898,0,0,1,278.641,-60.0065)">
            <rect x="42.683" y="107.781" width="59.913" height="59.913" style="fill:rgb(241,213,177);stroke:black;stroke-width:1.66px;"/>
        </g>
        <g transform="matrix(1.66898,0,0,1,278.641,103.838)">
            <rect x="42.683" y="107.781" width="59.913" height="59.913" style="fill:rgb(241,213,177);stroke:black;stroke-width:1.66px;"/>
        </g>
        <g transform="matrix(1.66898,0,0,1,278.641,185.73)">
            <rect x="42.683" y="107.781" width="59.913" height="59.913" style="fill:rgb(241,213,177);stroke:black;stroke-width:1.66px;"/>
        </g>
        <g transform="matrix(1.66898,0,0,1,278.641,22.4093)">
            <rect x="42.683" y="107.781" width="59.913" height="59.913" style="fill:rgb(241,213,177);stroke:black;stroke-width:1.66px;"/>
        </g>
        <g transform="matrix(1.66898,0,0,1,401.563,-60.0065)">
            <rect x="42.683" y="107.781" width="59.913" height="59.913" style="fill:rgb(241,213,177);stroke:black;stroke-width:1.66px;"/>
        </g>
        <g transform="matrix(1.66898,0,0,1,401.563,103.838)">
            <rect x="42.683" y="107.781" width="59.913" height="59.913" style="fill:rgb(241,213,177);stroke:black;stroke-width:1.66px;"/>
        </g>
        <g transform="matrix(1.66898,0,0,1,401.563,185.73)">
            <rect x="42.683" y="107.781" width="59.913" height="59.913" style="fill:rgb(241,213,177);stroke:black;stroke-width:1.66px;"/>
        </g>
        <g transform="matrix(1.66898,0,0,1,401.563,22.4093)">
            <rect x="42.683" y="107.781" width="59.913" height="59.913" style="fill:rgb(241,213,177);stroke:black;stroke-width:1.66px;"/>
        </g>
    </g>
    <g transform="matrix(0.999191,-1.98163e-19,-1.98163e-19,1,214.718,96.1164)">
        <text x="44.411px" y="128.858px" style="font-family:'FiraSans-Regular', 'Fira Sans', sans-serif;font-size:36px;">S<tspan x="63.671px " y="128.858px ">T</tspan>FT</text>
    </g>
    <g transform="matrix(0.999191,-1.98163e-19,-1.98163e-19,1,20.9653,96.1164)">
        <text x="44.411px" y="128.858px" style="font-family:'FiraSans-Regular', 'Fira Sans', sans-serif;font-size:36px;">A<tspan x="64.679px " y="128.858px ">u</tspan>dio</text>
    </g>
    <g transform="matrix(0.999191,-1.98163e-19,-1.98163e-19,1,492.751,98.6152)">
        <text x="44.411px" y="128.858px" style="font-family:'FiraSans-Regular', 'Fira Sans', sans-serif;font-size:36px;">Grid S<tspan x="141.503px " y="128.858px ">T</tspan>FT</text>
    </g>
    <g transform="matrix(0.999191,-1.98163e-19,-1.98163e-19,1,884.532,95.4012)">
        <text x="44.411px" y="128.858px" style="font-family:'FiraSans-Regular', 'Fira Sans', sans-serif;font-size:36px;">CFT</text>
    </g>
    <g transform="matrix(0.70743,-2.09717e-19,-1.92215e-19,0.649176,-343.315,-96.8184)">
        <rect x="742.088" y="198.02" width="307.712" height="162.582" style="fill:white;stroke:black;stroke-width:1.47px;"/>
    </g>
    <g transform="matrix(0.606002,0,0,1,34.0267,-60.5713)">
        <path d="M98.559,143.149L98.559,141.1L184.248,141.1L184.248,136.141L194.122,142.124L184.248,148.108L184.248,143.149L98.559,143.149Z" style="stroke:black;stroke-width:1.21px;"/>
    </g>
    <g transform="matrix(0.828106,0,0,1,318.009,-58.75)">
        <path d="M98.559,143.149L98.559,141.1L186.896,141.1L186.896,136.141L194.122,142.124L186.896,148.108L186.896,143.149L98.559,143.149Z" style="stroke:black;stroke-width:1.09px;"/>
    </g>
    <g transform="matrix(1,0,0,1,43.573,62.4635)">
        <path d="M12.262,16.363C12.502,15.431 13.327,12.103 15.83,12.103C16.017,12.103 16.869,12.103 17.614,12.582C16.629,12.768 15.91,13.674 15.91,14.526C15.91,15.085 16.31,15.777 17.268,15.777C18.067,15.777 19.212,15.138 19.212,13.7C19.212,11.836 17.082,11.33 15.857,11.33C13.78,11.33 12.528,13.221 12.102,14.046C11.197,11.676 9.253,11.33 8.215,11.33C4.487,11.33 2.437,15.964 2.437,16.869C2.437,17.215 2.783,17.215 2.863,17.215C3.156,17.215 3.262,17.135 3.342,16.816C4.54,13.008 6.91,12.103 8.135,12.103C8.827,12.103 10.079,12.449 10.079,14.526C10.079,15.644 9.466,18.04 8.135,23.073C7.576,25.31 6.324,26.801 4.727,26.801C4.514,26.801 3.688,26.801 2.943,26.348C3.848,26.162 4.62,25.416 4.62,24.404C4.62,23.419 3.848,23.153 3.289,23.153C2.224,23.153 1.318,24.085 1.318,25.23C1.318,26.881 3.129,27.6 4.7,27.6C7.07,27.6 8.348,25.07 8.481,24.857C8.907,26.188 10.185,27.6 12.342,27.6C16.043,27.6 18.094,22.967 18.094,22.061C18.094,21.715 17.774,21.715 17.668,21.715C17.348,21.715 17.268,21.848 17.188,22.088C16.017,25.949 13.567,26.801 12.422,26.801C11.011,26.801 10.451,25.656 10.451,24.431C10.451,23.632 10.664,22.86 11.064,21.262L12.262,16.363" style="fill-rule:nonzero;"/>
    </g>
    <g transform="matrix(1,0,0,1,-38.6765,-135.435)">
        <text x="120.005px" y="200.742px" style="font-family:'FiraSans-Regular', 'Fira Sans', sans-serif;font-size:18px;">Windo<tspan x="171.593px " y="200.742px ">w</tspan>ing</text>
    </g>
    <g transform="matrix(1,0,0,1,-19.1949,-91.4578)">
        <text x="129.809px" y="196.589px" style="font-family:'FiraSans-Regular', 'Fira Sans', sans-serif;font-size:18px;">DFT</text>
    </g>
    <g transform="matrix(1,0,0,1,625.111,-103.847)">
        <text x="120.005px" y="200.742px" style="font-family:'FiraSans-Regular', 'Fira Sans', sans-serif;font-size:18px;">2D-DFT</text>
    </g>
    <g transform="matrix(1,0,0,1,-2.87194,-30.4115)">
        <text x="411.355px" y="93.1px" style="font-family:'FiraSans-Regular', 'Fira Sans', sans-serif;font-size:16px;">Windo<tspan x="457.211px " y="93.1px ">w</tspan>ing</text>
    </g>
    <g transform="matrix(1,0,0,1,-2.87194,16.1084)">
        <text x="411.355px" y="93.1px" style="font-family:'FiraSans-Regular', 'Fira Sans', sans-serif;font-size:16px;">R<tspan x="420.875px " y="93.1px ">e</tspan>shaping</text>
    </g>
    <g transform="matrix(1.32904,0,0,1.27123,109.137,-87.1738)">
        <rect x="710.523" y="90.979" width="22.025" height="10.845" style="fill:white;"/>
    </g>
</svg>
