<?xml version="1.0" standalone="no"?><!DOCTYPE svg PUBLIC "-//W3C//DTD SVG 1.1//EN" "http://www.w3.org/Graphics/SVG/1.1/DTD/svg11.dtd"><svg width="100%" height="100%" viewBox="0 0 1100 300" version="1.1" xmlns="http://www.w3.org/2000/svg" xmlns:xlink="http://www.w3.org/1999/xlink" xml:space="preserve" style="fill-rule:evenodd;clip-rule:evenodd;stroke-linecap:round;stroke-linejoin:round;stroke-miterlimit:1.41421;"><path d="M854.434,33.652l0,2.048l40.821,0l0,4.96l5.983,-5.984l-5.983,-5.983l0,4.959l-40.821,0Z" style="fill:#000;stroke-width:1px;stroke:#000;"/><path d="M907.154,33.652l0,2.048l40.821,0l0,4.96l5.983,-5.984l-5.983,-5.983l0,4.959l-40.821,0Z" style="fill:#000;stroke-width:1px;stroke:#000;"/><path d="M961.547,33.652l0,2.048l40.821,0l0,4.96l5.984,-5.984l-5.984,-5.983l0,4.959l-40.821,0Z" style="fill:#000;stroke-width:1px;stroke:#000;"/><path d="M854.434,73.055l0,2.049l40.821,0l0,4.959l5.983,-5.984l-5.983,-5.983l0,4.959l-40.821,0Z" style="fill:#000;stroke-width:1px;stroke:#000;"/><path d="M907.154,73.055l0,2.049l40.821,0l0,4.959l5.983,-5.984l-5.983,-5.983l0,4.959l-40.821,0Z" style="fill:#000;stroke-width:1px;stroke:#000;"/><path d="M961.547,73.055l0,2.049l40.821,0l0,4.959l5.984,-5.984l-5.984,-5.983l0,4.959l-40.821,0Z" style="fill:#000;stroke-width:1px;stroke:#000;"/><path d="M854.434,107.731l0,2.048l40.821,0l0,4.959l5.983,-5.983l-5.983,-5.984l0,4.96l-40.821,0Z" style="fill:#000;stroke-width:1px;stroke:#000;"/><path d="M907.154,107.731l0,2.048l40.821,0l0,4.959l5.983,-5.983l-5.983,-5.984l0,4.96l-40.821,0Z" style="fill:#000;stroke-width:1px;stroke:#000;"/><path d="M961.547,107.731l0,2.048l40.821,0l0,4.959l5.984,-5.983l-5.984,-5.984l0,4.96l-40.821,0Z" style="fill:#000;stroke-width:1px;stroke:#000;"/><path d="M854.434,144.651l0,2.048l40.821,0l0,4.96l5.983,-5.984l-5.983,-5.984l0,4.96l-40.821,0Z" style="fill:#000;stroke-width:1px;stroke:#000;"/><path d="M907.154,144.651l0,2.048l40.821,0l0,4.96l5.983,-5.984l-5.983,-5.984l0,4.96l-40.821,0Z" style="fill:#000;stroke-width:1px;stroke:#000;"/><path d="M961.547,144.651l0,2.048l40.821,0l0,4.96l5.984,-5.984l-5.984,-5.984l0,4.96l-40.821,0Z" style="fill:#000;stroke-width:1px;stroke:#000;"/><path d="M543.627,146.775l0,-2.048l296.711,0l0,-4.959l5.983,5.983l-5.983,5.984l0,-4.96l-296.711,0Z" style="fill:#000;stroke-width:1px;stroke:#000;"/><path d="M543.627,75.622l0,-2.048l296.778,0l0,-4.96l5.983,5.984l-5.983,5.983l0,-4.959l-296.778,0Z" style="fill:#000;stroke-width:1px;stroke:#000;"/><path d="M543.627,35.781l0,-2.049l297.117,0l0,-4.959l5.984,5.983l-5.984,5.984l0,-4.959l-297.117,0Z" style="fill:#000;stroke-width:1px;stroke:#000;"/><path d="M544.603,109.459l0,-2.048l295.937,0l0,-4.96l5.984,5.984l-5.984,5.983l0,-4.959l-295.937,0Z" style="fill:#000;stroke-width:1px;stroke:#000;"/><g><rect x="501.148" y="21.937" width="43.418" height="26.689" style="fill:#fff;stroke-width:1px;stroke:#000;"/><rect x="501.148" y="58.651" width="43.418" height="26.689" style="fill:#fff;stroke-width:1px;stroke:#000;"/><rect x="501.148" y="94.925" width="43.418" height="26.689" style="fill:#fff;stroke-width:1px;stroke:#000;"/><rect x="501.148" y="131.405" width="43.418" height="26.689" style="fill:#fff;stroke-width:1px;stroke:#000;"/><rect x="501.148" y="58.651" width="43.418" height="26.689" style="fill:#fff;stroke-width:1px;stroke:#000;"/><rect x="554.613" y="21.937" width="43.418" height="26.689" style="fill:#fff;stroke-width:1px;stroke:#000;"/><rect x="554.613" y="58.651" width="43.418" height="26.689" style="fill:#fff;stroke-width:1px;stroke:#000;"/><rect x="554.613" y="94.925" width="43.418" height="26.689" style="fill:#fff;stroke-width:1px;stroke:#000;"/><rect x="554.613" y="131.405" width="43.418" height="26.689" style="fill:#fff;stroke-width:1px;stroke:#000;"/><rect x="608.433" y="21.937" width="43.418" height="26.689" style="fill:#fff;stroke-width:1px;stroke:#000;"/><rect x="608.433" y="94.925" width="43.418" height="26.689" style="fill:#fff;stroke-width:1px;stroke:#000;"/><rect x="608.433" y="131.405" width="43.418" height="26.689" style="fill:#fff;stroke-width:1px;stroke:#000;"/><rect x="608.433" y="58.651" width="43.418" height="26.689" style="fill:#fff;stroke-width:1px;stroke:#000;"/><rect x="662.807" y="21.937" width="43.418" height="26.689" style="fill:#fff;stroke-width:1px;stroke:#000;"/><rect x="662.807" y="94.925" width="43.418" height="26.689" style="fill:#fff;stroke-width:1px;stroke:#000;"/><rect x="662.807" y="131.405" width="43.418" height="26.689" style="fill:#fff;stroke-width:1px;stroke:#000;"/><rect x="662.807" y="58.651" width="43.418" height="26.689" style="fill:#fff;stroke-width:1px;stroke:#000;"/></g><g><rect x="847.859" y="21.937" width="43.418" height="26.689" style="fill:#f1d5b1;stroke-width:1px;stroke:#000;"/><rect x="847.859" y="58.651" width="43.418" height="26.689" style="fill:#f1d5b1;stroke-width:1px;stroke:#000;"/><rect x="847.859" y="94.925" width="43.418" height="26.689" style="fill:#f1d5b1;stroke-width:1px;stroke:#000;"/><rect x="847.859" y="131.405" width="43.418" height="26.689" style="fill:#f1d5b1;stroke-width:1px;stroke:#000;"/><rect x="847.859" y="58.651" width="43.418" height="26.689" style="fill:#f1d5b1;stroke-width:1px;stroke:#000;"/><rect x="901.324" y="21.937" width="43.418" height="26.689" style="fill:#f1d5b1;stroke-width:1px;stroke:#000;"/><rect x="901.324" y="58.651" width="43.418" height="26.689" style="fill:#f1d5b1;stroke-width:1px;stroke:#000;"/><rect x="901.324" y="94.925" width="43.418" height="26.689" style="fill:#f1d5b1;stroke-width:1px;stroke:#000;"/><rect x="901.324" y="131.405" width="43.418" height="26.689" style="fill:#f1d5b1;stroke-width:1px;stroke:#000;"/><rect x="955.144" y="21.937" width="43.418" height="26.689" style="fill:#f1d5b1;stroke-width:1px;stroke:#000;"/><rect x="955.144" y="94.925" width="43.418" height="26.689" style="fill:#f1d5b1;stroke-width:1px;stroke:#000;"/><rect x="955.144" y="131.405" width="43.418" height="26.689" style="fill:#f1d5b1;stroke-width:1px;stroke:#000;"/><rect x="955.144" y="58.651" width="43.418" height="26.689" style="fill:#f1d5b1;stroke-width:1px;stroke:#000;"/><rect x="1008.52" y="21.937" width="43.418" height="26.689" style="fill:#f1d5b1;stroke-width:1px;stroke:#000;"/><rect x="1008.52" y="94.925" width="43.418" height="26.689" style="fill:#f1d5b1;stroke-width:1px;stroke:#000;"/><rect x="1008.52" y="131.405" width="43.418" height="26.689" style="fill:#f1d5b1;stroke-width:1px;stroke:#000;"/><rect x="1008.52" y="58.651" width="43.418" height="26.689" style="fill:#f1d5b1;stroke-width:1px;stroke:#000;"/></g><text x="250.447px" y="288.499px" style="font-family:'FiraSans-Regular';font-size:36px;fill:#000;">S<tspan x="269.692px " y="288.499px ">T</tspan>FT</text><text x="56.694px" y="288.499px" style="font-family:'FiraSans-Regular';font-size:36px;fill:#000;">A<tspan x="76.946px " y="288.499px ">u</tspan>dio</text><text x="528.48px" y="290.998px" style="font-family:'FiraSans-Regular';font-size:36px;fill:#000;">Grid S<tspan x="625.493px " y="290.998px ">T</tspan>FT</text><text x="920.261px" y="287.784px" style="font-family:'FiraSans-Regular';font-size:36px;fill:#000;">CFT</text><rect x="181.66" y="31.732" width="217.685" height="105.544" style="fill:#fff;stroke-width:1px;stroke:#000;"/><path d="M83.754,82.577l0,-2.048l51.927,0l0,-4.96l5.984,5.984l-5.984,5.984l0,-4.96l-51.927,0Z" style="fill:#000;stroke-width:1px;stroke:#000;"/><path d="M399.626,84.399l0,-2.049l50.146,0l0,-4.959l5.983,5.983l-5.983,5.984l0,-4.959l-50.146,0Z" style="fill:#000;stroke-width:1px;stroke:#000;"/><path d="M55.835,78.826c0.24,-0.932 1.065,-4.26 3.568,-4.26c0.187,0 1.039,0 1.784,0.479c-0.985,0.187 -1.704,1.092 -1.704,1.944c0,0.559 0.4,1.252 1.358,1.252c0.799,0 1.944,-0.64 1.944,-2.077c0,-1.864 -2.13,-2.37 -3.355,-2.37c-2.077,0 -3.329,1.89 -3.755,2.716c-0.905,-2.37 -2.849,-2.716 -3.887,-2.716c-3.728,0 -5.778,4.633 -5.778,5.538c0,0.346 0.346,0.346 0.426,0.346c0.293,0 0.399,-0.079 0.479,-0.399c1.198,-3.808 3.568,-4.713 4.793,-4.713c0.692,0 1.944,0.346 1.944,2.423c0,1.118 -0.613,3.515 -1.944,8.547c-0.559,2.237 -1.811,3.728 -3.408,3.728c-0.213,0 -1.039,0 -1.784,-0.452c0.905,-0.187 1.677,-0.932 1.677,-1.944c0,-0.985 -0.772,-1.252 -1.331,-1.252c-1.065,0 -1.971,0.932 -1.971,2.077c0,1.651 1.811,2.37 3.382,2.37c2.37,0 3.648,-2.529 3.781,-2.742c0.426,1.331 1.704,2.742 3.861,2.742c3.701,0 5.752,-4.633 5.752,-5.538c0,-0.346 -0.32,-0.346 -0.426,-0.346c-0.32,0 -0.4,0.133 -0.48,0.372c-1.171,3.861 -3.621,4.713 -4.766,4.713c-1.411,0 -1.971,-1.145 -1.971,-2.37c0,-0.798 0.213,-1.571 0.613,-3.168l1.198,-4.9" style="fill:#000;fill-rule:nonzero;"/><path d="M165.413,71.448c0.227,-0.944 0.664,-1.678 2.551,-1.747c0.105,0 0.384,-0.018 0.384,-0.472c0,-0.018 0,-0.262 -0.297,-0.262c-0.786,0 -1.607,0.069 -2.376,0.069c-0.804,0 -1.625,-0.069 -2.412,-0.069c-0.14,0 -0.419,0 -0.419,0.471c0,0.263 0.227,0.263 0.419,0.263c1.346,0.034 1.608,0.524 1.608,1.048c0,0.07 -0.053,0.419 -0.07,0.489l-2.639,10.485l-5.207,-12.302c-0.193,-0.419 -0.21,-0.454 -0.752,-0.454l-3.163,0c-0.472,0 -0.681,0 -0.681,0.471c0,0.263 0.209,0.263 0.646,0.263c0.123,0 1.608,0 1.608,0.209l-3.163,12.67c-0.227,0.943 -0.629,1.695 -2.534,1.765c-0.14,0 -0.402,0.017 -0.402,0.471c0,0.158 0.123,0.263 0.297,0.263c0.769,0 1.591,-0.07 2.359,-0.07c0.804,0 1.661,0.07 2.43,0.07c0.122,0 0.419,0 0.419,-0.472c0,-0.245 -0.21,-0.262 -0.472,-0.262c-1.363,-0.053 -1.555,-0.577 -1.555,-1.049c0,-0.157 0.035,-0.28 0.105,-0.542l3.11,-12.442c0.088,0.14 0.088,0.192 0.21,0.437l5.872,13.875c0.157,0.402 0.227,0.455 0.436,0.455c0.263,0 0.263,-0.07 0.385,-0.507l3.303,-13.124" style="fill:#000;fill-rule:nonzero;"/><path d="M177.733,82.527c0,-0.489 -0.228,-1.171 -0.892,-1.171c-0.402,0 -0.839,0.507 -0.839,0.909c0,0.542 0.892,0.664 0.892,1.783c0,1.048 -1.066,3.425 -2.901,3.425c-0.787,0 -1.451,-0.542 -1.678,-1.276c0.21,-0.367 0.612,-1.503 0.612,-1.922c0,-0.245 -0.157,-0.49 -0.437,-0.49c-0.839,0 -0.891,1.765 -0.891,2.342c-0.472,0.594 -1.293,1.346 -2.359,1.346c-0.892,0 -1.538,-0.822 -1.538,-1.923c0,-1.904 1.677,-3.495 1.677,-3.739c0,-0.21 -0.157,-0.385 -0.332,-0.385c-0.174,0 -0.262,0.088 -0.384,0.227c-0.21,0.245 -0.419,0.612 -0.629,0.944c-0.577,0.979 -0.979,2.377 -0.979,3.565c0,1.311 0.525,2.621 2.045,2.621c1.101,0 2.044,-0.734 2.639,-1.607c0.314,0.978 1.031,1.59 2.097,1.59c2.883,0 3.897,-4.876 3.897,-6.239" style="fill:#000;fill-rule:nonzero;"/><path d="M296.684,150.552c0.227,-0.944 0.646,-1.678 2.534,-1.748c0.122,0 0.401,-0.017 0.401,-0.472c0,-0.017 0,-0.262 -0.297,-0.262c-0.786,0 -1.607,0.07 -2.394,0.07c-0.786,0 -1.625,-0.07 -2.394,-0.07c-0.139,0 -0.419,0 -0.419,0.472c0,0.262 0.227,0.262 0.419,0.262c1.346,0.035 1.608,0.524 1.608,1.049c0,0.069 -0.052,0.419 -0.087,0.489l-2.639,10.485l-5.207,-12.303c-0.175,-0.419 -0.21,-0.454 -0.752,-0.454l-3.163,0c-0.472,0 -0.682,0 -0.682,0.472c0,0.262 0.21,0.262 0.664,0.262c0.123,0 1.608,0 1.608,0.21l-3.163,12.669c-0.227,0.944 -0.629,1.695 -2.551,1.765c-0.14,0 -0.402,0.018 -0.402,0.472c0,0.157 0.122,0.262 0.314,0.262c0.752,0 1.573,-0.07 2.36,-0.07c0.803,0 1.642,0.07 2.429,0.07c0.122,0 0.419,0 0.419,-0.472c0,-0.244 -0.21,-0.262 -0.472,-0.262c-1.363,-0.052 -1.555,-0.577 -1.555,-1.048c0,-0.158 0.017,-0.28 0.087,-0.542l3.128,-12.442c0.088,0.139 0.088,0.192 0.21,0.437l5.871,13.875c0.158,0.402 0.228,0.454 0.438,0.454c0.262,0 0.262,-0.07 0.384,-0.507l3.303,-13.123" style="fill:#000;fill-rule:nonzero;"/><path d="M303.394,161.753l3.058,0c0.192,0 0.874,0 0.874,-0.664c0,-0.454 -0.42,-0.454 -0.699,-0.454l-5.19,0c-0.472,0 -0.996,0.035 -1.853,0.821c-0.471,0.419 -1.083,1.293 -1.083,1.433c0,0.192 0.21,0.192 0.279,0.192c0.175,0 0.193,-0.035 0.298,-0.175c0.838,-1.153 1.835,-1.153 2.219,-1.153l1.468,0l-1.643,5.26c-0.07,0.262 -0.07,0.28 -0.07,0.384c0,0.437 0.402,0.525 0.542,0.525c0.629,0 0.734,-0.594 0.786,-0.822l1.014,-5.347" style="fill:#000;fill-rule:nonzero;"/><g><path d="M688.961,5.927c0.183,-0.742 0.534,-1.306 2.052,-1.375c0.084,0 0.309,-0.013 0.309,-0.371c0,-0.014 0,-0.192 -0.239,-0.192c-0.632,0 -1.293,0.055 -1.911,0.055c-0.647,0 -1.307,-0.055 -1.94,-0.055c-0.112,0 -0.337,0 -0.337,0.371c0,0.192 0.183,0.192 0.337,0.192c1.082,0.028 1.293,0.413 1.293,0.825c0,0.055 -0.042,0.33 -0.056,0.385l-2.122,8.25l-4.189,-9.68c-0.154,-0.33 -0.182,-0.343 -0.618,-0.343l-2.53,0c-0.38,0 -0.548,0 -0.548,0.371c0,0.192 0.168,0.192 0.52,0.192c0.098,0 1.293,0 1.293,0.179l-2.544,9.955c-0.183,0.743 -0.506,1.334 -2.038,1.389c-0.113,0 -0.324,0.014 -0.324,0.371c0,0.124 0.085,0.207 0.24,0.207c0.604,0 1.278,-0.055 1.897,-0.055c0.647,0 1.335,0.055 1.954,0.055c0.098,0 0.337,0 0.337,-0.372c0,-0.192 -0.169,-0.206 -0.38,-0.206c-1.096,-0.041 -1.25,-0.44 -1.25,-0.811c0,-0.138 0.028,-0.22 0.084,-0.427l2.502,-9.79c0.07,0.11 0.07,0.138 0.168,0.33l4.723,10.918c0.127,0.316 0.183,0.358 0.351,0.358c0.211,0 0.211,-0.055 0.309,-0.385l2.657,-10.341" style="fill:#000;fill-rule:nonzero;"/><path d="M693.318,10.85c0.014,-0.028 0.056,-0.193 0.056,-0.206c0,-0.069 -0.056,-0.193 -0.21,-0.193c-0.268,0 -1.364,0.11 -1.701,0.138c-0.098,0.013 -0.281,0.027 -0.281,0.288c0,0.193 0.183,0.193 0.337,0.193c0.632,0 0.632,0.082 0.632,0.192c0,0.083 -0.126,0.605 -0.21,0.908l-0.295,1.182c-0.127,0.44 -0.858,3.273 -0.872,3.452c-0.07,0.302 -0.07,0.467 -0.07,0.632c0,1.307 0.843,2.132 1.939,2.132c1.659,0 3.416,-1.76 3.416,-3.672c0,-1.512 -1.068,-2.159 -1.982,-2.159c-0.688,0 -1.265,0.372 -1.673,0.702l0.914,-3.589ZM692.657,19.21c-0.646,0 -1.011,-0.564 -1.011,-1.32c0,-0.481 0.112,-0.921 0.491,-2.379c0.071,-0.247 0.071,-0.275 0.324,-0.564c0.506,-0.563 1.096,-0.852 1.574,-0.852c0.52,0 0.97,0.371 0.97,1.251c0,0.536 -0.296,1.857 -0.689,2.599c-0.323,0.646 -0.984,1.265 -1.659,1.265" style="fill:#000;fill-rule:nonzero;"/></g><path d="M485.451,75.765c0.199,-0.825 0.581,-1.452 2.232,-1.529c0.092,0 0.352,-0.015 0.352,-0.413c0,-0.015 0,-0.214 -0.275,-0.214c-0.688,0 -1.407,0.061 -2.08,0.061c-0.703,0 -1.422,-0.061 -2.11,-0.061c-0.122,0 -0.367,0 -0.367,0.413c0,0.214 0.199,0.214 0.367,0.214c1.177,0.031 1.407,0.459 1.407,0.918c0,0.061 -0.046,0.367 -0.061,0.428l-2.309,9.175l-4.557,-10.765c-0.169,-0.367 -0.184,-0.383 -0.658,-0.383l-2.768,0c-0.413,0 -0.596,0 -0.596,0.413c0,0.214 0.183,0.214 0.566,0.214c0.107,0 1.407,0 1.407,0.199l-2.768,11.071c-0.199,0.826 -0.551,1.484 -2.218,1.545c-0.122,0 -0.351,0.015 -0.351,0.413c0,0.137 0.107,0.229 0.26,0.229c0.673,0 1.391,-0.061 2.064,-0.061c0.703,0 1.453,0.061 2.126,0.061c0.107,0 0.367,0 0.367,-0.413c0,-0.214 -0.184,-0.229 -0.413,-0.229c-1.193,-0.046 -1.361,-0.489 -1.361,-0.902c0,-0.153 0.03,-0.245 0.092,-0.474l2.722,-10.888c0.076,0.122 0.076,0.153 0.183,0.367l5.138,12.142c0.138,0.351 0.199,0.397 0.382,0.397c0.23,0 0.23,-0.061 0.337,-0.428l2.89,-11.5" style="fill:#000;fill-rule:nonzero;"/><path d="M492.256,85.109l1.407,0c0.29,0 0.474,0 0.474,-0.321c0,-0.199 -0.184,-0.199 -0.444,-0.199l-1.33,0c0.321,-1.835 0.443,-2.493 0.551,-2.906c0.076,-0.321 0.397,-0.627 0.734,-0.627c0.015,0 0.413,0 0.673,0.184c-0.582,0.183 -0.628,0.703 -0.628,0.78c0,0.321 0.245,0.535 0.581,0.535c0.383,0 0.811,-0.321 0.811,-0.872c0,-0.657 -0.703,-1.024 -1.437,-1.024c-0.628,0 -1.331,0.367 -1.728,1.086c-0.291,0.52 -0.398,1.177 -0.704,2.844l-1.132,0c-0.29,0 -0.474,0 -0.474,0.321c0,0.199 0.184,0.199 0.444,0.199l1.071,0c-0.016,0.092 -0.933,5.26 -1.27,6.805c-0.076,0.321 -0.321,1.407 -1.009,1.407c-0.016,0 -0.367,0 -0.642,-0.169c0.596,-0.183 0.642,-0.703 0.642,-0.795c0,-0.306 -0.245,-0.535 -0.581,-0.535c-0.383,0 -0.811,0.336 -0.811,0.887c0,0.642 0.673,1.024 1.392,1.024c0.917,0 1.545,-0.948 1.728,-1.269c0.52,-0.963 0.841,-2.737 0.872,-2.905l0.81,-4.45" style="fill:#000;fill-rule:nonzero;"/><path d="M611.323,175.555c0.199,-0.826 0.582,-1.453 2.233,-1.529c0.092,0 0.352,-0.015 0.352,-0.413c0,-0.015 0,-0.214 -0.275,-0.214c-0.673,0 -1.407,0.061 -2.08,0.061c-0.704,0 -1.422,-0.061 -2.11,-0.061c-0.123,0 -0.367,0 -0.367,0.413c0,0.214 0.198,0.214 0.367,0.214c1.177,0.031 1.406,0.459 1.406,0.917c0,0.062 -0.045,0.367 -0.061,0.429l-2.309,9.175l-4.557,-10.766c-0.168,-0.367 -0.183,-0.382 -0.657,-0.382l-2.768,0c-0.413,0 -0.596,0 -0.596,0.413c0,0.214 0.183,0.214 0.581,0.214c0.091,0 1.391,0 1.391,0.199l-2.768,11.071c-0.198,0.826 -0.55,1.483 -2.217,1.545c-0.122,0 -0.352,0.015 -0.352,0.412c0,0.138 0.107,0.23 0.26,0.23c0.673,0 1.392,-0.061 2.065,-0.061c0.703,0 1.452,0.061 2.125,0.061c0.107,0 0.367,0 0.367,-0.413c0,-0.214 -0.183,-0.229 -0.413,-0.229c-1.192,-0.046 -1.361,-0.49 -1.361,-0.903c0,-0.153 0.031,-0.244 0.092,-0.474l2.722,-10.888c0.077,0.123 0.077,0.153 0.184,0.367l5.138,12.142c0.137,0.352 0.198,0.398 0.382,0.398c0.229,0 0.229,-0.061 0.337,-0.428l2.889,-11.5" style="fill:#000;fill-rule:nonzero;"/><path d="M953.771,174.683c0.199,-0.826 0.581,-1.453 2.233,-1.529c0.091,0 0.351,-0.016 0.351,-0.413c0,-0.016 0,-0.214 -0.275,-0.214c-0.673,0 -1.407,0.061 -2.08,0.061c-0.703,0 -1.422,-0.061 -2.11,-0.061c-0.122,0 -0.367,0 -0.367,0.412c0,0.215 0.199,0.215 0.367,0.215c1.178,0.03 1.407,0.458 1.407,0.917c0,0.061 -0.046,0.367 -0.061,0.428l-2.309,9.175l-4.557,-10.765c-0.169,-0.367 -0.184,-0.382 -0.658,-0.382l-2.768,0c-0.413,0 -0.596,0 -0.596,0.412c0,0.215 0.183,0.215 0.581,0.215c0.092,0 1.392,0 1.392,0.198l-2.768,11.072c-0.199,0.825 -0.551,1.483 -2.218,1.544c-0.122,0 -0.351,0.015 -0.351,0.413c0,0.138 0.107,0.229 0.26,0.229c0.673,0 1.391,-0.061 2.064,-0.061c0.703,0 1.453,0.061 2.126,0.061c0.107,0 0.367,0 0.367,-0.412c0,-0.215 -0.184,-0.23 -0.413,-0.23c-1.193,-0.046 -1.361,-0.489 -1.361,-0.902c0,-0.153 0.031,-0.245 0.092,-0.474l2.722,-10.888c0.076,0.122 0.076,0.153 0.183,0.367l5.138,12.142c0.138,0.352 0.199,0.397 0.382,0.397c0.23,0 0.23,-0.061 0.337,-0.428l2.89,-11.499" style="fill:#000;fill-rule:nonzero;"/><path d="M615.804,184.898l1.468,0c0.275,0 0.459,0 0.459,-0.321c0,-0.198 -0.184,-0.198 -0.428,-0.198l-1.361,0l0.535,-2.126c0.015,-0.076 0.046,-0.153 0.046,-0.199c0,-0.26 -0.214,-0.474 -0.489,-0.474c-0.368,0 -0.582,0.245 -0.689,0.627c-0.092,0.352 0.092,-0.336 -0.535,2.172l-1.468,0c-0.275,0 -0.474,0 -0.474,0.321c0,0.198 0.183,0.198 0.444,0.198l1.361,0l-0.857,3.395c-0.076,0.367 -0.214,0.872 -0.214,1.071c0,0.841 0.719,1.361 1.545,1.361c1.605,0 2.507,-2.019 2.507,-2.202c0,-0.184 -0.183,-0.184 -0.229,-0.184c-0.168,0 -0.183,0.031 -0.306,0.275c-0.398,0.903 -1.132,1.713 -1.927,1.713c-0.305,0 -0.504,-0.183 -0.504,-0.703c0,-0.153 0.061,-0.459 0.092,-0.597l1.024,-4.129" style="fill:#000;fill-rule:nonzero;"/><path d="M958.252,184.026l1.468,0c0.275,0 0.458,0 0.458,-0.321c0,-0.199 -0.183,-0.199 -0.428,-0.199l-1.361,0l0.535,-2.125c0.016,-0.077 0.046,-0.153 0.046,-0.199c0,-0.26 -0.214,-0.474 -0.489,-0.474c-0.367,0 -0.581,0.244 -0.688,0.627c-0.092,0.351 0.091,-0.337 -0.535,2.171l-1.468,0c-0.275,0 -0.474,0 -0.474,0.321c0,0.199 0.183,0.199 0.443,0.199l1.361,0l-0.856,3.395c-0.077,0.367 -0.214,0.872 -0.214,1.07c0,0.841 0.718,1.361 1.544,1.361c1.606,0 2.508,-2.018 2.508,-2.202c0,-0.183 -0.183,-0.183 -0.23,-0.183c-0.168,0 -0.183,0.03 -0.305,0.275c-0.398,0.902 -1.132,1.713 -1.927,1.713c-0.306,0 -0.505,-0.184 -0.505,-0.704c0,-0.153 0.061,-0.458 0.092,-0.596l1.025,-4.129" style="fill:#000;fill-rule:nonzero;"/><text x="70.531px" y="56.259px" style="font-family:'FiraSans-Regular';font-size:18px;fill:#000;">Windo<tspan x="122.119px " y="56.259px ">w</tspan>ing</text><text x="100.614px" y="105.131px" style="font-family:'FiraSans-Regular';font-size:18px;fill:#000;">DFT</text><text x="745.115px" y="96.896px" style="font-family:'FiraSans-Regular';font-size:18px;fill:#000;">2D-DFT</text><text x="408.483px" y="62.688px" style="font-family:'FiraSans-Regular';font-size:16px;fill:#000;">Windo<tspan x="454.339px " y="62.688px ">w</tspan>ing</text><text x="408.483px" y="109.208px" style="font-family:'FiraSans-Regular';font-size:16px;fill:#000;">R<tspan x="418.003px " y="109.208px ">e</tspan>shaping</text><rect x="708.614" y="29.481" width="29.271" height="13.786" style="fill:#fff;"/><g><path d="M726.076,30.891c0.199,-0.811 0.583,-1.427 2.242,-1.502c0.092,0 0.337,-0.015 0.337,-0.406c0,-0.015 0,-0.21 -0.261,-0.21c-0.691,0 -1.412,0.06 -2.088,0.06c-0.706,0 -1.428,-0.06 -2.119,-0.06c-0.123,0 -0.369,0 -0.369,0.406c0,0.21 0.2,0.21 0.369,0.21c1.182,0.03 1.413,0.451 1.413,0.901c0,0.06 -0.047,0.361 -0.062,0.421l-2.319,9.014l-4.576,-10.577c-0.169,-0.36 -0.184,-0.375 -0.66,-0.375l-2.78,0c-0.414,0 -0.599,0 -0.599,0.406c0,0.21 0.185,0.21 0.569,0.21c0.107,0 1.412,0 1.412,0.195l-2.779,10.877c-0.2,0.811 -0.553,1.457 -2.227,1.517c-0.123,0 -0.353,0.015 -0.353,0.406c0,0.135 0.107,0.225 0.261,0.225c0.676,0 1.397,-0.06 2.073,-0.06c0.706,0 1.459,0.06 2.135,0.06c0.107,0 0.368,0 0.368,-0.405c0,-0.211 -0.184,-0.226 -0.414,-0.226c-1.198,-0.045 -1.367,-0.48 -1.367,-0.886c0,-0.15 0.031,-0.24 0.092,-0.466l2.733,-10.696c0.077,0.12 0.077,0.15 0.185,0.36l5.159,11.929c0.139,0.345 0.2,0.39 0.384,0.39c0.231,0 0.231,-0.06 0.338,-0.42l2.903,-11.298" style="fill:#000;fill-rule:nonzero;"/><path d="M733.124,40.251c-0.307,-0.466 -0.798,-0.827 -1.489,-0.827c-1.843,0 -3.732,1.983 -3.732,4.027c0,1.367 0.937,2.343 2.181,2.343c0.783,0 1.474,-0.436 2.057,-0.991c0.277,0.856 1.121,0.991 1.49,0.991c0.522,0 0.875,-0.315 1.136,-0.751c0.323,-0.541 0.507,-1.352 0.507,-1.412c0,-0.18 -0.184,-0.18 -0.23,-0.18c-0.2,0 -0.215,0.06 -0.307,0.435c-0.185,0.676 -0.461,1.518 -1.06,1.518c-0.384,0 -0.476,-0.316 -0.476,-0.692c0,-0.24 0.107,-0.751 0.215,-1.126c0.092,-0.376 0.246,-0.962 0.322,-1.262l0.277,-1.082c0.092,-0.36 0.261,-1.036 0.261,-1.097c0,-0.315 -0.261,-0.465 -0.492,-0.465c-0.245,0 -0.568,0.18 -0.66,0.571ZM732.203,43.886c-0.108,0.391 -0.43,0.676 -0.737,0.947c-0.139,0.12 -0.707,0.571 -1.336,0.571c-0.538,0 -1.06,-0.376 -1.06,-1.383c0,-0.736 0.43,-2.298 0.753,-2.869c0.675,-1.127 1.412,-1.337 1.812,-1.337c1.013,0 1.289,1.067 1.289,1.232c0,0.06 -0.03,0.15 -0.046,0.195l-0.675,2.644" style="fill:#000;fill-rule:nonzero;"/></g><path d="M832.892,82.765c0.199,-0.825 0.581,-1.452 2.233,-1.529c0.092,0 0.352,-0.015 0.352,-0.413c0,-0.015 0,-0.214 -0.276,-0.214c-0.688,0 -1.406,0.061 -2.079,0.061c-0.704,0 -1.423,-0.061 -2.111,-0.061c-0.122,0 -0.367,0 -0.367,0.413c0,0.214 0.199,0.214 0.367,0.214c1.178,0.031 1.407,0.459 1.407,0.918c0,0.061 -0.046,0.367 -0.061,0.428l-2.309,9.175l-4.557,-10.765c-0.168,-0.367 -0.184,-0.383 -0.658,-0.383l-2.767,0c-0.413,0 -0.597,0 -0.597,0.413c0,0.214 0.184,0.214 0.566,0.214c0.107,0 1.407,0 1.407,0.199l-2.768,11.071c-0.199,0.826 -0.551,1.484 -2.217,1.545c-0.123,0 -0.352,0.015 -0.352,0.413c0,0.137 0.107,0.229 0.26,0.229c0.673,0 1.392,-0.061 2.064,-0.061c0.704,0 1.453,0.061 2.126,0.061c0.107,0 0.367,0 0.367,-0.413c0,-0.214 -0.184,-0.229 -0.413,-0.229c-1.193,-0.046 -1.361,-0.489 -1.361,-0.902c0,-0.153 0.03,-0.245 0.092,-0.474l2.722,-10.888c0.076,0.122 0.076,0.153 0.183,0.367l5.139,12.142c0.137,0.351 0.198,0.397 0.382,0.397c0.229,0 0.229,-0.061 0.336,-0.428l2.89,-11.5" style="fill:#000;fill-rule:nonzero;"/><path d="M839.697,92.109l1.407,0c0.291,0 0.474,0 0.474,-0.321c0,-0.199 -0.183,-0.199 -0.443,-0.199l-1.331,0c0.321,-1.835 0.444,-2.493 0.551,-2.906c0.076,-0.321 0.397,-0.627 0.734,-0.627c0.015,0 0.413,0 0.673,0.184c-0.582,0.183 -0.627,0.703 -0.627,0.78c0,0.321 0.244,0.535 0.581,0.535c0.382,0 0.81,-0.321 0.81,-0.872c0,-0.657 -0.703,-1.024 -1.437,-1.024c-0.627,0 -1.331,0.367 -1.728,1.086c-0.291,0.52 -0.398,1.177 -0.704,2.844l-1.131,0c-0.291,0 -0.474,0 -0.474,0.321c0,0.199 0.183,0.199 0.443,0.199l1.071,0c-0.016,0.092 -0.933,5.26 -1.27,6.805c-0.076,0.321 -0.321,1.407 -1.009,1.407c-0.015,0 -0.367,0 -0.642,-0.169c0.596,-0.183 0.642,-0.703 0.642,-0.795c0,-0.306 -0.245,-0.535 -0.581,-0.535c-0.382,0 -0.81,0.336 -0.81,0.887c0,0.642 0.672,1.024 1.391,1.024c0.918,0 1.545,-0.948 1.728,-1.269c0.52,-0.963 0.841,-2.737 0.872,-2.905l0.81,-4.45" style="fill:#000;fill-rule:nonzero;"/><path d="M223.537,215.796l4.633,-6.081c0.285,-0.388 0.326,-0.408 1.285,-0.49c0.653,-0.082 0.816,-0.082 1.592,-0.082l0.796,0l0,-1.306c-1.143,0.082 -2.49,0.082 -3.673,0.082c-1.082,0 -3.204,0 -4.184,-0.082l0,1.306c0.49,0 1.572,0 2.531,0.286c-0.041,0.061 -0.163,0.224 -0.225,0.306l-3.632,4.816l-3.938,-5.408l2.285,0l0,-1.306c-1.122,0.082 -3.755,0.082 -4.979,0.082c-1.102,0 -3.49,0 -4.469,-0.082l0,1.306l2.714,0l6.101,8.448l-5.57,7.285c-0.245,0.327 -0.286,0.388 -1.184,0.47c-0.551,0.061 -1.122,0.081 -1.673,0.081l-0.796,0l0,1.286c1.163,-0.082 2.51,-0.082 3.693,-0.082c1.062,0 3.184,0 4.184,0.082l0,-1.286c-0.49,0 -1.572,0 -2.531,-0.306c0.021,-0.061 0.164,-0.224 0.225,-0.306l4.53,-6.02l4.795,6.632l-2.285,0l0,1.286c1.122,-0.082 3.734,-0.082 4.979,-0.082c1.102,0 3.489,0 4.449,0.082l0,-1.286l-2.694,0l-6.959,-9.631" style="fill:#000;fill-rule:nonzero;"/><path d="M256.8,220.387c0.469,0 0.959,0 0.959,-0.551c0,-0.551 -0.49,-0.551 -0.959,-0.551l-11.673,0c0.327,-3.693 3.49,-6.326 7.367,-6.326l4.306,0c0.469,0 0.959,0 0.959,-0.551c0,-0.551 -0.49,-0.551 -0.959,-0.551l-4.347,0c-4.714,0 -8.448,3.571 -8.448,7.979c0,4.408 3.734,7.979 8.448,7.979l4.347,0c0.469,0 0.959,0 0.959,-0.551c0,-0.551 -0.49,-0.551 -0.959,-0.551l-4.306,0c-3.877,0 -7.04,-2.632 -7.367,-6.326l11.673,0" style="fill:#000;fill-rule:nonzero;"/><path d="M285.776,208.245c0,-0.469 0,-0.897 -0.469,-0.897c-0.02,0 -0.428,0 -0.49,0.489c-0.081,0.776 -0.714,0.776 -0.918,0.776c-0.959,0 -1.918,-0.408 -2.469,-0.653c-1.408,-0.612 -2.592,-0.612 -3.02,-0.612c-4.612,0 -9.693,2.877 -9.693,9.937c0,7.02 4.979,9.959 9.734,9.959c1.469,0 3.407,-0.306 5.427,-1.51c1.266,-0.796 2.674,-2.184 2.674,-2.572c0,-0.387 -0.409,-0.551 -0.592,-0.551c-0.184,0 -0.286,0.082 -0.571,0.388c-1.592,1.816 -4.041,2.918 -6.49,2.918c-4.265,0 -5.346,-4.305 -5.346,-8.591c0,-5.407 1.98,-9.019 4.938,-9.019c2.061,0 5.367,2.02 6.285,4.918c0.103,0.265 0.184,0.53 0.531,0.53c0.469,0 0.469,-0.428 0.469,-0.898l0,-4.612ZM284.817,211.082c-0.326,-0.469 -0.694,-0.816 -1.387,-1.531c0.143,0.021 0.367,0.021 0.51,0.021c0.286,0 0.653,-0.061 0.877,-0.184l0,1.694ZM275.042,208.939c-0.632,0.633 -2.448,3 -2.448,8.387c0,2.735 0.408,6.53 2.898,8.51c-4.53,-1.449 -5.816,-5.163 -5.816,-8.53c0,-5.061 2.775,-7.51 5.366,-8.387l0,0.02" style="fill:#000;fill-rule:nonzero;"/><path d="M303.571,204.348c0.183,-0.735 0.489,-1.367 2.02,-1.388c0.102,0 0.387,-0.02 0.387,-0.428c0,-0.123 -0.101,-0.266 -0.285,-0.266c-0.633,0 -1.347,0.062 -2,0.062c-0.449,0 -1.571,-0.062 -2.041,-0.062c-0.081,0 -0.367,0 -0.367,0.409c0,0.265 0.245,0.285 0.408,0.285c0.919,0.021 1.245,0.306 1.245,0.776c0,0.163 -0.02,0.245 -0.081,0.469l-2.103,8.367l-4.877,-9.979c-0.142,-0.327 -0.183,-0.327 -0.653,-0.327l-2.632,0c-0.367,0 -0.612,0 -0.612,0.409c0,0.285 0.224,0.285 0.632,0.285c0.408,0 0.817,0.021 1.225,0.082l-2.571,10.285c-0.163,0.734 -0.49,1.306 -2,1.367c-0.122,0 -0.388,0.02 -0.388,0.388c0,0.224 0.143,0.306 0.286,0.306c0.633,0 1.326,-0.082 2,-0.082c0.448,0 1.571,0.082 2.02,0.082c0.204,0 0.387,-0.102 0.387,-0.408c0,-0.266 -0.224,-0.286 -0.448,-0.286c-1.204,-0.041 -1.204,-0.551 -1.204,-0.816c0,-0.082 0,-0.164 0.081,-0.47l2.449,-9.836l5.612,11.489c0.163,0.306 0.245,0.327 0.428,0.327c0.306,0 0.306,-0.062 0.409,-0.408l2.673,-10.632" style="fill:#000;fill-rule:nonzero;"/><path d="M315.978,213.225c0,-0.49 -0.225,-1.143 -0.837,-1.143c-0.347,0 -0.775,0.388 -0.775,0.775c0,0.551 0.816,0.592 0.816,1.551c0,1.061 -1.204,2.694 -2.551,2.694c-0.694,0 -1.327,-0.327 -1.612,-0.959c0.163,-0.368 0.51,-1.102 0.51,-1.51c0,-0.306 -0.122,-0.551 -0.469,-0.551c-0.796,0 -0.817,1.428 -0.817,1.979c-0.428,0.592 -1.306,1.02 -2.02,1.02c-0.939,0 -1.551,-0.673 -1.551,-1.612c0,-1.408 1.449,-2.693 1.449,-2.959c0,-0.245 -0.163,-0.347 -0.367,-0.347c-0.143,0 -0.245,0.102 -0.326,0.184c-0.817,0.959 -1.388,2.265 -1.388,3.551c0,1.224 0.612,2.387 1.979,2.387c1.143,0 1.898,-0.714 2.449,-1.326c0.388,0.979 1.245,1.326 1.979,1.326c1.408,0 2.388,-1.244 2.939,-2.55c0.387,-0.919 0.592,-1.878 0.592,-2.51" style="fill:#000;fill-rule:nonzero;"/><path d="M332.486,206.368c0.204,-0.204 0.265,-0.326 0.265,-0.449c0,-0.326 -0.245,-0.49 -0.448,-0.49c-0.205,0 -0.266,0.062 -0.49,0.286l-4.204,4.183l-4.224,-4.203c-0.204,-0.184 -0.265,-0.266 -0.449,-0.266c-0.265,0 -0.469,0.204 -0.469,0.49c0,0.163 0.041,0.225 0.286,0.449l4.182,4.183l-4.182,4.204c-0.266,0.265 -0.286,0.347 -0.286,0.469c0,0.266 0.204,0.49 0.469,0.49c0.184,0 0.225,-0.061 0.449,-0.286l4.224,-4.203l4.367,4.387c0.102,0.061 0.204,0.102 0.327,0.102c0.203,0 0.448,-0.184 0.448,-0.49c0,-0.163 -0.04,-0.183 -0.102,-0.244c-0.02,-0.082 -3.754,-3.816 -4.367,-4.408l4.204,-4.204" style="fill:#000;fill-rule:nonzero;"/><path d="M352.219,204.348c0.204,-0.735 0.51,-1.367 2.041,-1.388c0.101,0 0.387,-0.02 0.387,-0.428c0,-0.123 -0.102,-0.266 -0.286,-0.266c-0.632,0 -1.346,0.062 -1.999,0.062c-0.469,0 -1.572,-0.062 -2.041,-0.062c-0.102,0 -0.387,0 -0.387,0.409c0,0.265 0.265,0.285 0.428,0.285c0.898,0.021 1.224,0.306 1.224,0.776c0,0.163 -0.02,0.245 -0.081,0.469l-2.082,8.367l-4.877,-9.979c-0.163,-0.327 -0.204,-0.327 -0.653,-0.327l-2.632,0c-0.367,0 -0.613,0 -0.613,0.409c0,0.285 0.225,0.285 0.633,0.285c0.409,0 0.817,0.021 1.225,0.082l-2.572,10.285c-0.183,0.734 -0.51,1.306 -1.999,1.367c-0.143,0 -0.408,0.02 -0.408,0.388c0,0.224 0.163,0.306 0.285,0.306c0.633,0 1.347,-0.082 2,-0.082c0.469,0 1.572,0.082 2.041,0.082c0.183,0 0.387,-0.102 0.387,-0.408c0,-0.266 -0.224,-0.286 -0.449,-0.286c-1.204,-0.041 -1.204,-0.551 -1.204,-0.816c0,-0.082 0,-0.164 0.082,-0.47l2.449,-9.836l5.611,11.489c0.164,0.306 0.225,0.327 0.429,0.327c0.306,0 0.306,-0.062 0.388,-0.408l2.673,-10.632" style="fill:#000;fill-rule:nonzero;"/><path d="M359.422,213.265l2.878,0c0.265,0 0.387,0 0.571,-0.122c0.102,-0.082 0.224,-0.286 0.224,-0.469c0,-0.449 -0.408,-0.449 -0.632,-0.449l-4.938,0c-0.307,0 -0.878,0 -1.674,0.673c-0.367,0.286 -1.02,1.041 -1.02,1.204c0,0.204 0.183,0.204 0.265,0.204c0.184,0 0.184,-0.02 0.307,-0.143c0.509,-0.694 1.244,-0.898 1.959,-0.898l1.428,0l-1.123,3.633c-0.102,0.306 -0.285,0.857 -0.285,0.938c0,0.306 0.244,0.49 0.53,0.49c0.429,0 0.633,-0.347 0.694,-0.714l0.816,-4.347" style="fill:#000;fill-rule:nonzero;"/><path d="M834.778,221.889c0.42,-3.489 0.42,-6.031 0.42,-6.451c0,-2.017 0,-10.464 -5.148,-10.464c-0.966,0 -1.954,0.798 -1.954,1.197c0,0.19 0.126,0.19 0.525,0.232c4.14,0.357 4.476,6.85 4.476,10.043c0,2.879 -0.357,6.283 -0.693,8.174c-0.063,0.336 -0.063,0.399 -0.063,0.504c0,0.147 0,0.484 0.189,0.484c0.315,0 7.186,-5.232 10.779,-10.717c1.45,-2.206 2.521,-4.727 2.521,-6.618c0,-2.417 -1.596,-3.299 -2.752,-3.299c-0.82,0 -1.219,1.786 -1.219,2.164c0,0.42 0.147,0.42 0.483,0.441c1.892,0.231 2.249,1.744 2.249,2.417c0,2.29 -4.938,8.11 -9.813,11.893" style="fill:#000;fill-rule:nonzero;"/><path d="M870.121,217.812c0.483,0 0.987,0 0.987,-0.567c0,-0.567 -0.504,-0.567 -0.987,-0.567l-12.019,0c0.336,-3.804 3.593,-6.514 7.585,-6.514l4.434,0c0.483,0 0.987,0 0.987,-0.568c0,-0.567 -0.504,-0.567 -0.987,-0.567l-4.476,0c-4.854,0 -8.699,3.677 -8.699,8.216c0,4.538 3.845,8.216 8.699,8.216l4.476,0c0.483,0 0.987,0 0.987,-0.568c0,-0.567 -0.504,-0.567 -0.987,-0.567l-4.434,0c-3.992,0 -7.249,-2.711 -7.585,-6.514l12.019,0" style="fill:#000;fill-rule:nonzero;"/><path d="M899.958,205.31c0,-0.483 0,-0.925 -0.483,-0.925c-0.021,0 -0.463,0 -0.505,0.505c-0.084,0.798 -0.735,0.798 -0.945,0.798c-0.988,0 -1.976,-0.42 -2.543,-0.672c-1.45,-0.631 -2.668,-0.631 -3.131,-0.631c-4.727,0 -9.959,2.963 -9.959,10.233c0,7.228 5.127,10.254 10.023,10.254c1.512,0 3.509,-0.315 5.589,-1.555c1.302,-0.819 2.752,-2.248 2.752,-2.647c0,-0.399 -0.441,-0.568 -0.609,-0.568c-0.189,0 -0.315,0.085 -0.588,0.4c-1.639,1.87 -4.161,3.004 -6.682,3.004c-4.392,0 -5.505,-4.433 -5.505,-8.846c0,-5.568 2.038,-9.287 5.064,-9.287c2.143,0 5.526,2.08 6.492,5.064c0.084,0.273 0.168,0.546 0.547,0.546c0.483,0 0.483,-0.441 0.483,-0.924l0,-4.749ZM898.97,208.231c-0.336,-0.484 -0.714,-0.841 -1.428,-1.576c0.146,0.021 0.378,0.021 0.525,0.021c0.294,0 0.672,-0.063 0.903,-0.189l0,1.744ZM888.905,206.024c-0.651,0.652 -2.521,3.089 -2.521,8.636c0,2.816 0.42,6.724 2.962,8.762c-4.643,-1.491 -5.967,-5.316 -5.967,-8.783c0,-5.211 2.858,-7.732 5.526,-8.636l0,0.021" style="fill:#000;fill-rule:nonzero;"/><path d="M918.259,201.297c0.211,-0.757 0.526,-1.408 2.102,-1.429c0.105,0 0.399,-0.021 0.399,-0.442c0,-0.126 -0.105,-0.273 -0.294,-0.273c-0.652,0 -1.387,0.063 -2.059,0.063c-0.484,0 -1.618,-0.063 -2.101,-0.063c-0.085,0 -0.4,0 -0.4,0.421c0,0.273 0.273,0.294 0.441,0.294c0.925,0.021 1.261,0.315 1.261,0.798c0,0.168 -0.021,0.252 -0.063,0.483l-2.164,8.615l-5.022,-10.275c-0.168,-0.336 -0.189,-0.336 -0.672,-0.336l-2.711,0c-0.378,0 -0.63,0 -0.63,0.421c0,0.294 0.231,0.294 0.651,0.294c0.42,0 0.84,0.021 1.261,0.084l-2.648,10.59c-0.168,0.756 -0.504,1.345 -2.059,1.408c-0.126,0 -0.421,0.021 -0.421,0.399c0,0.231 0.169,0.315 0.295,0.315c0.672,0 1.386,-0.084 2.059,-0.084c0.483,0 1.639,0.084 2.101,0.084c0.21,0 0.4,-0.105 0.4,-0.42c0,-0.273 -0.232,-0.294 -0.462,-0.294c-1.24,-0.042 -1.24,-0.568 -1.24,-0.841c0,-0.084 0,-0.168 0.084,-0.483l2.521,-10.128l5.779,11.83c0.167,0.315 0.23,0.336 0.441,0.336c0.315,0 0.315,-0.063 0.42,-0.42l2.731,-10.947" style="fill:#000;fill-rule:nonzero;"/><path d="M927.841,210.92c0.063,-0.294 0.21,-0.819 0.21,-0.882c0,-0.253 -0.189,-0.505 -0.525,-0.505c-0.252,0 -0.589,0.168 -0.694,0.568c-0.273,-0.358 -0.819,-0.841 -1.701,-0.841c-1.997,0 -3.972,1.933 -3.972,3.929c0,1.45 1.072,2.459 2.479,2.459c1.156,0 2.06,-0.82 2.228,-0.988c0.252,0.694 1.029,0.988 1.66,0.988c0.567,0 0.945,-0.315 1.24,-0.778c0.378,-0.567 0.567,-1.302 0.567,-1.407c0,-0.19 -0.231,-0.19 -0.294,-0.19c-0.252,0 -0.273,0.085 -0.336,0.295c-0.252,1.05 -0.631,1.597 -1.114,1.597c-0.399,0 -0.567,-0.295 -0.567,-0.736c0,-0.21 0.147,-0.756 0.231,-1.134l0.588,-2.375ZM925.95,213.61c-0.063,0.231 -0.063,0.252 -0.315,0.525c-0.525,0.588 -1.24,1.03 -1.954,1.03c-0.505,0 -1.24,-0.253 -1.24,-1.429c0,-0.652 0.336,-2.143 0.84,-2.879c0.547,-0.756 1.261,-1.114 1.85,-1.114c0.63,0 1.239,0.379 1.47,1.219l-0.651,2.648" style="fill:#000;fill-rule:nonzero;"/><path d="M945.912,203.377c0.23,-0.21 0.294,-0.336 0.294,-0.463c0,-0.336 -0.273,-0.504 -0.484,-0.504c-0.188,0 -0.252,0.063 -0.504,0.294l-4.328,4.308l-4.35,-4.329c-0.189,-0.189 -0.273,-0.273 -0.441,-0.273c-0.294,0 -0.504,0.21 -0.504,0.504c0,0.169 0.063,0.232 0.294,0.463l4.307,4.307l-4.307,4.329c-0.273,0.273 -0.294,0.357 -0.294,0.483c0,0.273 0.21,0.504 0.504,0.504c0.168,0 0.231,-0.063 0.441,-0.294l4.35,-4.328l4.517,4.517c0.106,0.063 0.19,0.105 0.315,0.105c0.211,0 0.484,-0.189 0.484,-0.504c0,-0.168 -0.043,-0.189 -0.105,-0.252c-0.042,-0.084 -3.887,-3.929 -4.518,-4.539l4.329,-4.328" style="fill:#000;fill-rule:nonzero;"/><path d="M966.251,201.297c0.19,-0.757 0.505,-1.408 2.101,-1.429c0.085,0 0.379,-0.021 0.379,-0.442c0,-0.126 -0.084,-0.273 -0.294,-0.273c-0.652,0 -1.387,0.063 -2.059,0.063c-0.463,0 -1.618,-0.063 -2.081,-0.063c-0.105,0 -0.399,0 -0.399,0.421c0,0.273 0.252,0.294 0.442,0.294c0.924,0.021 1.26,0.315 1.26,0.798c0,0.168 -0.021,0.252 -0.084,0.483l-2.164,8.615l-5.022,-10.275c-0.147,-0.336 -0.189,-0.336 -0.672,-0.336l-2.711,0c-0.379,0 -0.63,0 -0.63,0.421c0,0.294 0.251,0.294 0.651,0.294c0.42,0 0.861,0.021 1.26,0.084l-2.647,10.59c-0.168,0.756 -0.504,1.345 -2.038,1.408c-0.147,0 -0.421,0.021 -0.421,0.399c0,0.231 0.148,0.315 0.295,0.315c0.651,0 1.386,-0.084 2.059,-0.084c0.462,0 1.618,0.084 2.101,0.084c0.189,0 0.379,-0.105 0.379,-0.42c0,-0.273 -0.232,-0.294 -0.442,-0.294c-1.26,-0.042 -1.26,-0.568 -1.26,-0.841c0,-0.084 0,-0.168 0.084,-0.483l2.542,-10.128l5.779,11.83c0.146,0.315 0.23,0.336 0.42,0.336c0.315,0 0.315,-0.063 0.42,-0.42l2.752,-10.947" style="fill:#000;fill-rule:nonzero;"/><path d="M972.114,206.403c0.063,-0.211 0.063,-0.232 0.063,-0.295c0,-0.252 -0.231,-0.252 -0.441,-0.231l-1.745,0.126c-0.23,0.021 -0.272,0.021 -0.336,0.084c-0.063,0.063 -0.105,0.231 -0.105,0.316c0,0.252 0.232,0.252 0.42,0.252c0.021,0 0.274,0 0.484,0.021c0.273,0.042 0.294,0.084 0.294,0.189c0,0.084 -0.147,0.63 -0.231,0.945l-1.177,4.728c-0.063,0.294 -0.105,0.525 -0.105,0.82c0,1.47 1.051,2.458 2.395,2.458c2.039,0 3.972,-1.975 3.972,-3.95c0,-1.387 -1.009,-2.459 -2.458,-2.459c-0.589,0 -1.282,0.231 -1.976,0.778l0.946,-3.782ZM971.651,215.333c-0.609,0 -1.281,-0.379 -1.281,-1.513c0,-0.462 0.105,-0.904 0.21,-1.387c0.042,-0.168 0.294,-1.093 0.294,-1.177c0.042,-0.126 1.03,-1.365 2.228,-1.365c0.609,0 1.239,0.378 1.239,1.449c0,0.526 -0.273,1.849 -0.714,2.669c-0.483,0.819 -1.282,1.324 -1.976,1.324" style="fill:#000;fill-rule:nonzero;"/><path d="M991.928,203.377c0.21,-0.21 0.273,-0.336 0.273,-0.463c0,-0.336 -0.252,-0.504 -0.462,-0.504c-0.21,0 -0.273,0.063 -0.504,0.294l-4.328,4.308l-4.35,-4.329c-0.21,-0.189 -0.273,-0.273 -0.463,-0.273c-0.272,0 -0.483,0.21 -0.483,0.504c0,0.169 0.042,0.232 0.295,0.463l4.307,4.307l-4.307,4.329c-0.295,0.273 -0.295,0.357 -0.295,0.483c0,0.273 0.211,0.504 0.483,0.504c0.19,0 0.232,-0.063 0.463,-0.294l4.35,-4.328l4.496,4.517c0.105,0.063 0.21,0.105 0.336,0.105c0.21,0 0.462,-0.189 0.462,-0.504c0,-0.168 -0.042,-0.189 -0.105,-0.252c-0.042,-0.084 -3.866,-3.929 -4.496,-4.539l4.328,-4.328" style="fill:#000;fill-rule:nonzero;"/><path d="M1012.25,201.297c0.21,-0.757 0.526,-1.408 2.101,-1.429c0.106,0 0.399,-0.021 0.399,-0.442c0,-0.126 -0.105,-0.273 -0.293,-0.273c-0.652,0 -1.388,0.063 -2.06,0.063c-0.483,0 -1.618,-0.063 -2.101,-0.063c-0.105,0 -0.399,0 -0.399,0.421c0,0.273 0.273,0.294 0.441,0.294c0.925,0.021 1.261,0.315 1.261,0.798c0,0.168 -0.021,0.252 -0.084,0.483l-2.144,8.615l-5.021,-10.275c-0.169,-0.336 -0.211,-0.336 -0.673,-0.336l-2.711,0c-0.378,0 -0.63,0 -0.63,0.421c0,0.294 0.231,0.294 0.652,0.294c0.42,0 0.84,0.021 1.26,0.084l-2.647,10.59c-0.189,0.756 -0.525,1.345 -2.06,1.408c-0.146,0 -0.42,0.021 -0.42,0.399c0,0.231 0.169,0.315 0.295,0.315c0.651,0 1.386,-0.084 2.059,-0.084c0.483,0 1.618,0.084 2.101,0.084c0.189,0 0.399,-0.105 0.399,-0.42c0,-0.273 -0.231,-0.294 -0.462,-0.294c-1.24,-0.042 -1.24,-0.568 -1.24,-0.841c0,-0.084 0,-0.168 0.084,-0.483l2.522,-10.128l5.778,11.83c0.147,0.315 0.231,0.336 0.441,0.336c0.316,0 0.316,-0.063 0.4,-0.42l2.752,-10.947" style="fill:#000;fill-rule:nonzero;"/><path d="M1020.38,210.206l1.597,0c0.294,0 0.294,-0.021 0.378,-0.063c0.063,-0.063 0.105,-0.252 0.105,-0.337c0,-0.231 -0.21,-0.231 -0.441,-0.231l-1.513,0c0.168,-1.05 0.441,-2.836 0.63,-3.046c0.21,-0.232 0.442,-0.337 0.672,-0.337c0.085,0 0.4,0 0.694,0.147c-0.567,0.253 -0.567,0.757 -0.567,0.799c0,0.357 0.273,0.588 0.63,0.588c0.357,0 0.861,-0.315 0.861,-0.924c0,-0.82 -0.924,-1.093 -1.596,-1.093c-1.786,0 -2.144,1.702 -2.27,2.311c-0.126,0.61 -0.042,0.232 -0.294,1.555l-1.282,0c-0.273,0 -0.483,0 -0.483,0.4c0,0.231 0.21,0.231 0.441,0.231l1.24,0c-0.273,1.387 -0.861,5.316 -1.261,6.808c-0.083,0.336 -0.42,1.05 -0.966,1.05c-0.084,0 -0.399,-0.021 -0.652,-0.147c0.379,-0.168 0.568,-0.504 0.568,-0.819c0,-0.336 -0.273,-0.568 -0.631,-0.568c-0.357,0 -0.882,0.316 -0.882,0.925c0,0.861 1.029,1.093 1.576,1.093c0.819,0 1.429,-0.652 1.765,-1.093c0.567,-0.777 0.882,-2.669 0.903,-2.711l0.778,-4.538" style="fill:#000;fill-rule:nonzero;"/><path d="M1040.3,203.377c0.21,-0.21 0.273,-0.336 0.273,-0.463c0,-0.336 -0.251,-0.504 -0.462,-0.504c-0.21,0 -0.273,0.063 -0.504,0.294l-4.328,4.308l-4.35,-4.329c-0.21,-0.189 -0.273,-0.273 -0.462,-0.273c-0.274,0 -0.483,0.21 -0.483,0.504c0,0.169 0.062,0.232 0.294,0.463l4.307,4.307l-4.307,4.329c-0.274,0.273 -0.294,0.357 -0.294,0.483c0,0.273 0.209,0.504 0.483,0.504c0.189,0 0.252,-0.063 0.462,-0.294l4.35,-4.328l4.517,4.517c0.084,0.063 0.189,0.105 0.315,0.105c0.211,0 0.462,-0.189 0.462,-0.504c0,-0.168 -0.042,-0.189 -0.083,-0.252c-0.042,-0.084 -3.888,-3.929 -4.518,-4.539l4.328,-4.328" style="fill:#000;fill-rule:nonzero;"/><path d="M1060.62,201.297c0.211,-0.757 0.525,-1.408 2.101,-1.429c0.105,0 0.4,-0.021 0.4,-0.442c0,-0.126 -0.105,-0.273 -0.295,-0.273c-0.651,0 -1.386,0.063 -2.059,0.063c-0.483,0 -1.617,-0.063 -2.101,-0.063c-0.084,0 -0.399,0 -0.399,0.421c0,0.273 0.273,0.294 0.441,0.294c0.925,0.021 1.261,0.315 1.261,0.798c0,0.168 -0.021,0.252 -0.063,0.483l-2.165,8.615l-5.022,-10.275c-0.167,-0.336 -0.209,-0.336 -0.672,-0.336l-2.711,0c-0.378,0 -0.63,0 -0.63,0.421c0,0.294 0.231,0.294 0.651,0.294c0.421,0 0.841,0.021 1.261,0.084l-2.647,10.59c-0.168,0.756 -0.504,1.345 -2.059,1.408c-0.126,0 -0.421,0.021 -0.421,0.399c0,0.231 0.168,0.315 0.295,0.315c0.672,0 1.386,-0.084 2.059,-0.084c0.483,0 1.639,0.084 2.101,0.084c0.21,0 0.399,-0.105 0.399,-0.42c0,-0.273 -0.231,-0.294 -0.462,-0.294c-1.24,-0.042 -1.24,-0.568 -1.24,-0.841c0,-0.084 0,-0.168 0.085,-0.483l2.521,-10.128l5.778,11.83c0.168,0.315 0.231,0.336 0.442,0.336c0.314,0 0.314,-0.063 0.42,-0.42l2.731,-10.947" style="fill:#000;fill-rule:nonzero;"/><path d="M1066.48,210.059l1.66,0c0.295,0 0.316,-0.021 0.379,-0.084c0.063,-0.042 0.105,-0.232 0.105,-0.316c0,-0.252 -0.21,-0.252 -0.442,-0.252l-1.554,0l0.294,-1.155c0.084,-0.379 0.252,-1.009 0.252,-1.093c0,-0.252 -0.168,-0.504 -0.525,-0.504c-0.231,0 -0.568,0.168 -0.673,0.546c-0.083,0.231 0.084,-0.42 -0.567,2.206l-1.681,0c-0.294,0 -0.504,0 -0.504,0.399c0,0.253 0.21,0.253 0.462,0.253l1.555,0l-0.82,3.299c-0.084,0.315 -0.188,0.756 -0.188,0.924c0,0.799 0.756,1.366 1.743,1.366c1.702,0 2.753,-1.912 2.753,-2.185c0,-0.19 -0.252,-0.19 -0.315,-0.19c-0.211,0 -0.253,0.043 -0.316,0.232c-0.462,1.008 -1.344,1.66 -2.08,1.66c-0.441,0 -0.588,-0.316 -0.588,-0.736c0,-0.231 0.021,-0.273 0.042,-0.399l1.008,-3.971" style="fill:#000;fill-rule:nonzero;"/><path d="M509.379,221.847c-0.701,2.397 -1.383,3.606 -1.637,4.015c-1.033,1.793 -1.578,1.851 -2.475,1.851c-0.448,0 -2.319,-0.078 -3.878,-1.13c-1.17,0.039 -2.086,0.955 -2.086,1.247c0,0.234 1.774,1.326 4.23,1.326c1.89,0 4.989,-0.994 6.957,-5.282c0.682,-1.481 1.131,-2.982 1.208,-3.294c0.527,-1.812 1.092,-3.917 1.092,-4.014c0,-0.156 -0.059,-0.234 -0.292,-0.234c-0.234,0 -0.683,0.117 -1.248,0.487c-0.604,0.39 -0.623,0.526 -0.818,1.189c-0.254,0.896 -1.813,4.775 -5.067,4.775c-2.554,0 -4.054,-2.066 -4.054,-5.048c0,-2.007 0.818,-4.716 2.339,-6.568c0.721,-0.838 2.007,-2.222 4.969,-2.222c0.507,0 1.267,0.078 1.93,0.273c0.292,0.078 0.935,0.293 0.935,1.131c0,0.896 -1.364,2.592 -1.462,2.748c-0.116,0.097 -0.194,0.194 -0.194,0.311c0,0.176 0.136,0.176 0.292,0.176c0.76,0 1.637,-0.702 2.339,-1.676c0.214,-0.293 1.266,-1.754 1.266,-2.651c0,-1.091 -0.818,-1.345 -1.13,-1.442c-0.974,-0.331 -1.871,-0.331 -2.241,-0.331c-5.925,0 -11.265,5.203 -11.265,11.381c0,2.67 1.189,5.379 4.561,5.379c1.987,0 3.995,-1.013 5.729,-2.397" style="fill:#000;fill-rule:nonzero;"/><path d="M536.781,219.976c0.448,0 0.916,0 0.916,-0.526c0,-0.526 -0.468,-0.526 -0.916,-0.526l-11.148,0c0.312,-3.528 3.333,-6.042 7.036,-6.042l4.112,0c0.448,0 0.916,0 0.916,-0.526c0,-0.526 -0.468,-0.526 -0.916,-0.526l-4.151,0c-4.502,0 -8.069,3.41 -8.069,7.62c0,4.21 3.567,7.62 8.069,7.62l4.151,0c0.448,0 0.916,0 0.916,-0.526c0,-0.526 -0.468,-0.526 -0.916,-0.526l-4.112,0c-3.703,0 -6.724,-2.514 -7.036,-6.042l11.148,0" style="fill:#000;fill-rule:nonzero;"/><path d="M564.455,208.38c0,-0.448 0,-0.857 -0.448,-0.857c-0.019,0 -0.409,0 -0.468,0.467c-0.077,0.741 -0.682,0.741 -0.877,0.741c-0.916,0 -1.832,-0.39 -2.358,-0.643c-1.345,-0.565 -2.475,-0.565 -2.884,-0.565c-4.405,0 -9.257,2.748 -9.257,9.491c0,6.704 4.755,9.511 9.296,9.511c1.403,0 3.274,-0.293 5.184,-1.443c1.208,-0.76 2.553,-2.085 2.553,-2.455c0,-0.371 -0.39,-0.526 -0.565,-0.526c-0.176,0 -0.273,0.077 -0.546,0.37c-1.52,1.734 -3.859,2.787 -6.197,2.787c-4.074,0 -5.106,-4.132 -5.106,-8.205c0,-5.165 1.89,-8.614 4.716,-8.614c1.968,0 5.125,1.91 6.022,4.697c0.078,0.233 0.156,0.506 0.487,0.506c0.448,0 0.448,-0.428 0.448,-0.877l0,-4.385ZM563.539,211.089c-0.311,-0.448 -0.662,-0.779 -1.325,-1.461c0.136,0.019 0.351,0.019 0.487,0.019c0.293,0 0.624,-0.058 0.838,-0.195l0,1.637ZM554.204,209.043c-0.604,0.604 -2.338,2.865 -2.338,8.01c0,2.611 0.389,6.236 2.767,8.127c-4.326,-1.384 -5.554,-4.95 -5.554,-8.147c0,-4.833 2.65,-7.172 5.125,-8.01l0,0.02" style="fill:#000;fill-rule:nonzero;"/><path d="M581.45,204.658c0.175,-0.702 0.468,-1.306 1.929,-1.345c0.098,0 0.371,0 0.371,-0.39c0,-0.117 -0.078,-0.253 -0.273,-0.253c-0.604,0 -1.286,0.058 -1.91,0.058c-0.429,0 -1.501,-0.058 -1.949,-0.058c-0.078,0 -0.351,0 -0.351,0.39c0,0.253 0.234,0.253 0.39,0.253c0.877,0.02 1.189,0.292 1.189,0.76c0,0.156 -0.02,0.234 -0.078,0.448l-2.008,7.991l-4.657,-9.53c-0.137,-0.312 -0.176,-0.312 -0.624,-0.312l-2.514,0c-0.351,0 -0.585,0 -0.585,0.39c0,0.253 0.215,0.253 0.604,0.253c0.39,0 0.8,0.02 1.17,0.098l-2.456,9.822c-0.156,0.682 -0.468,1.247 -1.91,1.306c-0.117,0 -0.37,0.019 -0.37,0.37c0,0.214 0.136,0.273 0.272,0.273c0.605,0 1.287,-0.059 1.911,-0.059c0.428,0 1.5,0.059 1.929,0.059c0.195,0 0.37,-0.078 0.37,-0.37c0,-0.254 -0.214,-0.273 -0.409,-0.273c-1.169,-0.039 -1.169,-0.526 -1.169,-0.78c0,-0.078 0,-0.156 0.078,-0.468l2.338,-9.374l5.36,10.953c0.155,0.292 0.234,0.312 0.409,0.312c0.292,0 0.292,-0.039 0.39,-0.37l2.553,-10.154" style="fill:#000;fill-rule:nonzero;"/><path d="M590.317,213.584c0.078,-0.273 0.195,-0.76 0.195,-0.819c0,-0.234 -0.156,-0.467 -0.487,-0.467c-0.234,0 -0.546,0.155 -0.643,0.526c-0.253,-0.332 -0.74,-0.78 -1.579,-0.78c-1.832,0 -3.664,1.793 -3.664,3.645c0,1.344 0.975,2.28 2.28,2.28c1.073,0 1.911,-0.76 2.066,-0.916c0.234,0.643 0.955,0.916 1.54,0.916c0.526,0 0.877,-0.293 1.169,-0.741c0.332,-0.506 0.507,-1.189 0.507,-1.286c0,-0.175 -0.214,-0.175 -0.273,-0.175c-0.234,0 -0.234,0.078 -0.311,0.272c-0.234,0.975 -0.566,1.482 -1.034,1.482c-0.37,0 -0.525,-0.293 -0.525,-0.683c0,-0.194 0.136,-0.701 0.214,-1.052l0.545,-2.202ZM588.563,216.078c-0.039,0.195 -0.039,0.234 -0.292,0.488c-0.468,0.545 -1.15,0.955 -1.812,0.955c-0.449,0 -1.15,-0.254 -1.15,-1.326c0,-0.604 0.312,-1.988 0.779,-2.67c0.507,-0.721 1.17,-1.033 1.715,-1.033c0.585,0 1.15,0.351 1.364,1.131l-0.604,2.455" style="fill:#000;fill-rule:nonzero;"/><path d="M607.098,206.587c0.194,-0.195 0.253,-0.312 0.253,-0.448c0,-0.292 -0.234,-0.448 -0.448,-0.448c-0.176,0 -0.234,0.058 -0.448,0.273l-4.015,3.995l-4.054,-4.015c-0.176,-0.175 -0.254,-0.253 -0.409,-0.253c-0.254,0 -0.468,0.195 -0.468,0.448c0,0.175 0.058,0.234 0.273,0.448l4.015,3.996l-4.015,3.995c-0.254,0.273 -0.273,0.351 -0.273,0.467c0,0.254 0.214,0.449 0.468,0.449c0.155,0 0.214,-0.039 0.409,-0.254l4.054,-4.014l4.17,4.19c0.098,0.058 0.195,0.078 0.293,0.078c0.214,0 0.448,-0.156 0.448,-0.449c0,-0.155 -0.039,-0.194 -0.098,-0.233c-0.039,-0.078 -3.585,-3.645 -4.19,-4.21l4.035,-4.015" style="fill:#000;fill-rule:nonzero;"/><path d="M625.943,204.658c0.176,-0.702 0.468,-1.306 1.949,-1.345c0.078,0 0.371,0 0.371,-0.39c0,-0.117 -0.098,-0.253 -0.293,-0.253c-0.604,0 -1.266,0.058 -1.89,0.058c-0.449,0 -1.52,-0.058 -1.949,-0.058c-0.098,0 -0.37,0 -0.37,0.39c0,0.253 0.234,0.253 0.409,0.253c0.857,0.02 1.169,0.292 1.169,0.76c0,0.156 -0.019,0.234 -0.078,0.448l-1.987,7.991l-4.678,-9.53c-0.137,-0.312 -0.175,-0.312 -0.623,-0.312l-2.495,0c-0.351,0 -0.604,0 -0.604,0.39c0,0.253 0.233,0.253 0.604,0.253c0.39,0 0.799,0.02 1.188,0.098l-2.455,9.822c-0.175,0.682 -0.487,1.247 -1.91,1.306c-0.136,0 -0.39,0.019 -0.39,0.37c0,0.214 0.137,0.273 0.273,0.273c0.604,0 1.286,-0.059 1.91,-0.059c0.448,0 1.501,0.059 1.949,0.059c0.175,0 0.37,-0.078 0.37,-0.37c0,-0.254 -0.234,-0.273 -0.429,-0.273c-1.149,-0.039 -1.149,-0.526 -1.149,-0.78c0,-0.078 0,-0.156 0.058,-0.468l2.358,-9.374l5.36,10.953c0.136,0.292 0.214,0.312 0.39,0.312c0.292,0 0.292,-0.039 0.389,-0.37l2.553,-10.154" style="fill:#000;fill-rule:nonzero;"/><path d="M631.381,209.394c0.058,-0.195 0.058,-0.215 0.058,-0.273c0,-0.234 -0.195,-0.234 -0.409,-0.215l-1.618,0.117c-0.214,0 -0.233,0.02 -0.312,0.078c-0.058,0.059 -0.097,0.215 -0.097,0.293c0,0.234 0.215,0.234 0.409,0.234c0,0 0.234,0 0.429,0.019c0.254,0.019 0.273,0.059 0.273,0.175c0,0.078 -0.136,0.585 -0.214,0.877l-1.092,4.385c-0.058,0.273 -0.097,0.488 -0.097,0.761c0,1.364 0.974,2.28 2.221,2.28c1.91,0 3.703,-1.832 3.703,-3.664c0,-1.286 -0.954,-2.28 -2.299,-2.28c-0.546,0 -1.189,0.214 -1.832,0.721l0.877,-3.508ZM630.971,217.676c-0.564,0 -1.208,-0.35 -1.208,-1.403c0,-0.428 0.098,-0.838 0.195,-1.286c0.039,-0.156 0.273,-1.013 0.292,-1.091c0.039,-0.117 0.955,-1.267 2.047,-1.267c0.565,0 1.15,0.351 1.15,1.345c0,0.487 -0.254,1.715 -0.663,2.475c-0.448,0.76 -1.189,1.227 -1.813,1.227" style="fill:#000;fill-rule:nonzero;"/><path d="M649.759,206.587c0.195,-0.195 0.253,-0.312 0.253,-0.448c0,-0.292 -0.233,-0.448 -0.428,-0.448c-0.195,0 -0.254,0.058 -0.468,0.273l-4.015,3.995l-4.034,-4.015c-0.176,-0.175 -0.253,-0.253 -0.429,-0.253c-0.253,0 -0.448,0.195 -0.448,0.448c0,0.175 0.058,0.234 0.273,0.448l3.995,3.996l-3.995,3.995c-0.254,0.273 -0.273,0.351 -0.273,0.467c0,0.254 0.195,0.449 0.448,0.449c0.176,0 0.234,-0.039 0.429,-0.254l4.034,-4.014l4.19,4.19c0.078,0.058 0.176,0.078 0.293,0.078c0.195,0 0.428,-0.156 0.428,-0.449c0,-0.155 -0.039,-0.194 -0.078,-0.233c-0.039,-0.078 -3.605,-3.645 -4.19,-4.21l4.015,-4.015" style="fill:#000;fill-rule:nonzero;"/><path d="M668.605,204.658c0.195,-0.702 0.487,-1.306 1.949,-1.345c0.098,0 0.37,0 0.37,-0.39c0,-0.117 -0.097,-0.253 -0.272,-0.253c-0.605,0 -1.287,0.058 -1.911,0.058c-0.448,0 -1.5,-0.058 -1.949,-0.058c-0.077,0 -0.37,0 -0.37,0.39c0,0.253 0.254,0.253 0.409,0.253c0.858,0.02 1.17,0.292 1.17,0.76c0,0.156 -0.02,0.234 -0.059,0.448l-2.007,7.991l-4.658,-9.53c-0.156,-0.312 -0.175,-0.312 -0.623,-0.312l-2.515,0c-0.351,0 -0.584,0 -0.584,0.39c0,0.253 0.214,0.253 0.604,0.253c0.39,0 0.779,0.02 1.169,0.098l-2.456,9.822c-0.155,0.682 -0.467,1.247 -1.91,1.306c-0.116,0 -0.389,0.019 -0.389,0.37c0,0.214 0.156,0.273 0.273,0.273c0.623,0 1.286,-0.059 1.91,-0.059c0.448,0 1.52,0.059 1.948,0.059c0.195,0 0.371,-0.078 0.371,-0.37c0,-0.254 -0.214,-0.273 -0.429,-0.273c-1.15,-0.039 -1.15,-0.526 -1.15,-0.78c0,-0.078 0,-0.156 0.078,-0.468l2.339,-9.374l5.359,10.953c0.156,0.292 0.215,0.312 0.41,0.312c0.292,0 0.292,-0.039 0.389,-0.37l2.534,-10.154" style="fill:#000;fill-rule:nonzero;"/><path d="M676.167,212.921l1.461,0c0.273,0 0.293,-0.019 0.351,-0.058c0.058,-0.059 0.097,-0.234 0.097,-0.312c0,-0.214 -0.194,-0.214 -0.409,-0.214l-1.403,0c0.156,-0.975 0.409,-2.631 0.585,-2.826c0.195,-0.215 0.409,-0.312 0.623,-0.312c0.079,0 0.371,0 0.644,0.136c-0.527,0.215 -0.527,0.702 -0.527,0.741c0,0.331 0.254,0.545 0.585,0.545c0.331,0 0.818,-0.292 0.818,-0.877c0,-0.74 -0.876,-0.993 -1.5,-0.993c-1.657,0 -1.988,1.578 -2.105,2.143c-0.117,0.566 -0.039,0.215 -0.273,1.443l-1.189,0c-0.234,0 -0.448,0 -0.448,0.37c0,0.214 0.195,0.214 0.409,0.214l1.15,0c-0.253,1.286 -0.799,4.911 -1.169,6.315c-0.078,0.311 -0.39,0.974 -0.896,0.974c-0.078,0 -0.371,-0.019 -0.605,-0.136c0.351,-0.156 0.527,-0.488 0.527,-0.76c0,-0.312 -0.254,-0.527 -0.585,-0.527c-0.331,0 -0.819,0.293 -0.819,0.858c0,0.799 0.955,1.013 1.462,1.013c0.76,0 1.345,-0.604 1.637,-1.013c0.526,-0.741 0.819,-2.475 0.838,-2.514l0.741,-4.21" style="fill:#000;fill-rule:nonzero;"/><path d="M694.623,206.587c0.214,-0.195 0.253,-0.312 0.253,-0.448c0,-0.292 -0.233,-0.448 -0.429,-0.448c-0.195,0 -0.234,0.058 -0.468,0.273l-4.014,3.995l-4.034,-4.015c-0.176,-0.175 -0.253,-0.253 -0.429,-0.253c-0.254,0 -0.448,0.195 -0.448,0.448c0,0.175 0.058,0.234 0.273,0.448l3.995,3.996l-3.995,3.995c-0.254,0.273 -0.273,0.351 -0.273,0.467c0,0.254 0.194,0.449 0.448,0.449c0.176,0 0.234,-0.039 0.429,-0.254l4.034,-4.014l4.19,4.19c0.078,0.058 0.176,0.078 0.292,0.078c0.196,0 0.429,-0.156 0.429,-0.449c0,-0.155 -0.039,-0.194 -0.078,-0.233c-0.039,-0.078 -3.605,-3.645 -4.19,-4.21l4.015,-4.015" style="fill:#000;fill-rule:nonzero;"/><path d="M713.488,204.658c0.176,-0.702 0.468,-1.306 1.93,-1.345c0.097,0 0.37,0 0.37,-0.39c0,-0.117 -0.097,-0.253 -0.273,-0.253c-0.604,0 -1.286,0.058 -1.91,0.058c-0.429,0 -1.5,-0.058 -1.949,-0.058c-0.078,0 -0.351,0 -0.351,0.39c0,0.253 0.234,0.253 0.39,0.253c0.877,0.02 1.189,0.292 1.189,0.76c0,0.156 -0.019,0.234 -0.078,0.448l-2.007,7.991l-4.658,-9.53c-0.136,-0.312 -0.175,-0.312 -0.624,-0.312l-2.514,0c-0.351,0 -0.585,0 -0.585,0.39c0,0.253 0.215,0.253 0.604,0.253c0.391,0 0.78,0.02 1.17,0.098l-2.456,9.822c-0.155,0.682 -0.467,1.247 -1.91,1.306c-0.116,0 -0.37,0.019 -0.37,0.37c0,0.214 0.136,0.273 0.273,0.273c0.604,0 1.267,-0.059 1.91,-0.059c0.429,0 1.501,0.059 1.929,0.059c0.195,0 0.37,-0.078 0.37,-0.37c0,-0.254 -0.214,-0.273 -0.428,-0.273c-1.15,-0.039 -1.15,-0.526 -1.15,-0.78c0,-0.078 0,-0.156 0.078,-0.468l2.339,-9.374l5.359,10.953c0.156,0.292 0.234,0.312 0.41,0.312c0.291,0 0.291,-0.039 0.389,-0.37l2.553,-10.154" style="fill:#000;fill-rule:nonzero;"/><path d="M718.906,212.765l1.54,0c0.273,0 0.292,0 0.35,-0.058c0.079,-0.059 0.118,-0.215 0.118,-0.293c0,-0.233 -0.195,-0.233 -0.429,-0.233l-1.442,0l0.273,-1.092c0.078,-0.331 0.233,-0.916 0.233,-0.994c0,-0.234 -0.155,-0.467 -0.467,-0.467c-0.234,0 -0.546,0.155 -0.643,0.506c-0.078,0.215 0.077,-0.39 -0.527,2.047l-1.559,0c-0.253,0 -0.467,0 -0.467,0.37c0,0.214 0.194,0.214 0.428,0.214l1.443,0l-0.761,3.08c-0.078,0.292 -0.175,0.701 -0.175,0.857c0,0.741 0.702,1.267 1.618,1.267c1.578,0 2.553,-1.774 2.553,-2.027c0,-0.175 -0.234,-0.175 -0.273,-0.175c-0.215,0 -0.234,0.039 -0.312,0.214c-0.429,0.935 -1.247,1.54 -1.93,1.54c-0.409,0 -0.545,-0.293 -0.545,-0.683c0,-0.214 0.019,-0.253 0.039,-0.37l0.935,-3.703" style="fill:#000;fill-rule:nonzero;"/><path d="M42.679,215.779c0.173,-0.759 0.846,-3.45 2.908,-3.45c0.13,0 0.846,0 1.454,0.369c-0.825,0.151 -1.411,0.889 -1.411,1.584c0,0.477 0.326,1.02 1.107,1.02c0.651,0 1.584,-0.521 1.584,-1.693c0,-1.519 -1.714,-1.931 -2.712,-1.931c-1.693,0 -2.735,1.562 -3.082,2.235c-0.738,-1.932 -2.301,-2.235 -3.147,-2.235c-3.06,0 -4.731,3.776 -4.731,4.514c0,0.282 0.304,0.282 0.369,0.282c0.217,0 0.303,-0.044 0.369,-0.304c0.998,-3.103 2.929,-3.841 3.928,-3.841c0.542,0 1.584,0.26 1.584,1.953c0,0.911 -0.499,2.865 -1.584,6.966c-0.478,1.823 -1.498,3.061 -2.778,3.061c-0.174,0 -0.847,0 -1.476,-0.391c0.738,-0.152 1.389,-0.76 1.389,-1.584c0,-0.782 -0.651,-1.02 -1.085,-1.02c-0.89,0 -1.606,0.759 -1.606,1.692c0,1.346 1.454,1.932 2.734,1.932c1.932,0 2.995,-2.04 3.082,-2.214c0.347,1.085 1.411,2.214 3.169,2.214c3.017,0 4.688,-3.776 4.688,-4.514c0,-0.282 -0.283,-0.282 -0.369,-0.282c-0.261,0 -0.326,0.108 -0.369,0.325c-0.977,3.125 -2.952,3.842 -3.907,3.842c-1.128,0 -1.606,-0.955 -1.606,-1.932c0,-0.651 0.174,-1.302 0.499,-2.583l0.999,-4.015" style="fill:#000;fill-rule:nonzero;"/><path d="M73.8,217.885c0.5,0 1.02,0 1.02,-0.586c0,-0.586 -0.52,-0.586 -1.02,-0.586l-12.414,0c0.348,-3.929 3.712,-6.728 7.857,-6.728l4.557,0c0.5,0 1.02,0 1.02,-0.586c0,-0.586 -0.52,-0.586 -1.02,-0.586l-4.622,0c-5.014,0 -8.985,3.798 -8.985,8.486c0,4.687 3.971,8.485 8.985,8.485l4.622,0c0.5,0 1.02,0 1.02,-0.586c0,-0.586 -0.52,-0.586 -1.02,-0.586l-4.557,0c-4.145,0 -7.509,-2.799 -7.857,-6.727l12.414,0" style="fill:#000;fill-rule:nonzero;"/><path d="M93.246,215.432l1.042,0l4.384,6.793c0.304,0.456 0.998,1.606 1.324,2.04c0.195,0.347 0.304,0.347 0.976,0.347l4.037,0c0.521,0 0.955,0 0.955,-0.52c0,-0.239 -0.174,-0.435 -0.434,-0.5c-1.085,-0.238 -2.518,-2.17 -3.212,-3.103c-0.217,-0.282 -1.671,-2.214 -3.646,-5.382c2.604,-0.478 5.122,-1.585 5.122,-5.057c0,-4.08 -4.298,-5.491 -7.749,-5.491l-9.201,0c-0.521,0 -0.977,0 -0.977,0.543c0,0.499 0.543,0.499 0.781,0.499c1.672,0 1.823,0.195 1.823,1.671l0,14.649c0,1.476 -0.151,1.671 -1.823,1.671c-0.238,0 -0.781,0 -0.781,0.5c0,0.52 0.456,0.52 0.977,0.52l8.03,0c0.521,0 0.976,0 0.976,-0.52c0,-0.5 -0.499,-0.5 -0.825,-0.5c-1.67,0 -1.779,-0.238 -1.779,-1.671l0,-6.489ZM98.889,214c0.824,-1.085 0.911,-2.648 0.911,-3.928c0,-1.411 -0.173,-2.952 -1.128,-4.146c1.215,0.261 4.102,1.151 4.102,4.124c0,1.888 -0.869,3.385 -3.885,3.95ZM93.246,207.185c0,-0.629 0,-1.584 1.802,-1.584c2.495,0 3.71,1.02 3.71,4.471c0,3.776 -0.889,4.34 -5.512,4.34l0,-7.227ZM89.253,223.592c0.239,-0.521 0.239,-1.345 0.239,-1.606l0,-14.779c0,-0.304 0,-1.085 -0.239,-1.606l3.342,0c-0.391,0.456 -0.391,1.042 -0.391,1.476l0,14.909c0,0.282 0,1.085 0.239,1.606l-3.19,0ZM95.482,215.432c0.216,-0.022 0.325,-0.065 0.563,-0.065c0.435,0 1.086,-0.065 1.52,-0.108c0.434,0.694 3.602,5.903 6.033,8.333l-2.843,0l-5.273,-8.16" style="fill:#000;fill-rule:nonzero;"/><path d="M123.543,200.826c0.195,-0.781 0.521,-1.454 2.149,-1.476c0.108,0 0.412,-0.021 0.412,-0.455c0,-0.131 -0.087,-0.282 -0.304,-0.282c-0.673,0 -1.432,0.065 -2.127,0.065c-0.477,0 -1.671,-0.065 -2.148,-0.065c-0.109,0 -0.412,0 -0.412,0.434c0,0.282 0.26,0.303 0.433,0.303c0.977,0.022 1.324,0.326 1.324,0.825c0,0.174 -0.021,0.261 -0.087,0.499l-2.235,8.898l-5.187,-10.612c-0.152,-0.347 -0.195,-0.347 -0.694,-0.347l-2.8,0c-0.391,0 -0.651,0 -0.651,0.434c0,0.303 0.239,0.303 0.673,0.303c0.434,0 0.89,0.022 1.302,0.087l-2.735,10.938c-0.174,0.782 -0.521,1.389 -2.126,1.454c-0.131,0 -0.413,0.022 -0.413,0.413c0,0.239 0.152,0.325 0.304,0.325c0.672,0 1.433,-0.086 2.127,-0.086c0.477,0 1.671,0.086 2.148,0.086c0.217,0 0.413,-0.108 0.413,-0.434c0,-0.282 -0.239,-0.304 -0.456,-0.304c-1.302,-0.043 -1.302,-0.585 -1.302,-0.868c0,-0.086 0,-0.173 0.087,-0.499l2.626,-10.461l5.946,12.219c0.174,0.326 0.261,0.347 0.456,0.347c0.325,0 0.325,-0.065 0.434,-0.434l2.843,-11.307" style="fill:#000;fill-rule:nonzero;"/><path d="M127.84,214.065c-0.087,0.369 -0.239,0.998 -0.239,1.085c0,0.304 0.261,0.499 0.543,0.499c0.217,0 0.521,-0.108 0.695,-0.477c0,-0.065 0.195,-0.76 0.282,-1.129c0.477,-1.975 0.477,-1.997 0.52,-2.062c0.196,-0.39 1.238,-2.43 3.017,-2.43c0.716,0 1.02,0.39 1.02,1.041c0,0.825 -0.607,2.344 -0.955,3.169c-0.065,0.174 -0.151,0.369 -0.151,0.608c0,0.759 0.737,1.28 1.605,1.28c1.541,0 2.344,-1.888 2.344,-2.257c0,-0.195 -0.239,-0.195 -0.304,-0.195c-0.239,0 -0.26,0.043 -0.347,0.325c-0.282,0.868 -0.933,1.628 -1.649,1.628c-0.326,0 -0.434,-0.217 -0.434,-0.543c0,-0.303 0.065,-0.455 0.195,-0.781c0.239,-0.586 0.911,-2.235 0.911,-3.038c0,-1.085 -0.759,-1.736 -2.148,-1.736c-1.324,0 -2.257,0.803 -2.756,1.432c-0.065,-1.194 -1.237,-1.432 -1.78,-1.432c-1.454,0 -1.888,2.235 -1.888,2.257c0,0.195 0.239,0.195 0.304,0.195c0.26,0 0.282,-0.087 0.347,-0.26c0.217,-0.847 0.543,-1.693 1.172,-1.693c0.477,0 0.586,0.455 0.586,0.759c0,0.217 -0.152,0.76 -0.239,1.151c-0.086,0.39 -0.239,0.976 -0.304,1.302l-0.347,1.302" style="fill:#000;fill-rule:nonzero;"/><g><path d="M1033.8,4.927c0.182,-0.742 0.533,-1.306 2.052,-1.375c0.084,0 0.309,-0.013 0.309,-0.371c0,-0.014 0,-0.192 -0.239,-0.192c-0.632,0 -1.293,0.055 -1.912,0.055c-0.646,0 -1.307,-0.055 -1.939,-0.055c-0.113,0 -0.338,0 -0.338,0.371c0,0.192 0.183,0.192 0.338,0.192c1.082,0.028 1.293,0.413 1.293,0.825c0,0.055 -0.042,0.33 -0.056,0.385l-2.123,8.25l-4.188,-9.68c-0.155,-0.33 -0.183,-0.343 -0.619,-0.343l-2.53,0c-0.379,0 -0.548,0 -0.548,0.371c0,0.192 0.169,0.192 0.52,0.192c0.099,0 1.293,0 1.293,0.179l-2.544,9.955c-0.182,0.743 -0.506,1.334 -2.038,1.389c-0.112,0 -0.323,0.014 -0.323,0.371c0,0.124 0.084,0.207 0.239,0.207c0.604,0 1.279,-0.055 1.897,-0.055c0.647,0 1.336,0.055 1.954,0.055c0.098,0 0.337,0 0.337,-0.372c0,-0.192 -0.168,-0.206 -0.379,-0.206c-1.096,-0.041 -1.251,-0.44 -1.251,-0.811c0,-0.138 0.028,-0.22 0.084,-0.427l2.502,-9.79c0.071,0.11 0.071,0.138 0.169,0.33l4.722,10.918c0.127,0.316 0.183,0.358 0.352,0.358c0.211,0 0.211,-0.055 0.309,-0.385l2.657,-10.341" style="fill:#000;fill-rule:nonzero;"/><path d="M1038.15,9.85c0.015,-0.028 0.057,-0.193 0.057,-0.206c0,-0.069 -0.057,-0.193 -0.211,-0.193c-0.267,0 -1.363,0.11 -1.701,0.138c-0.098,0.013 -0.281,0.027 -0.281,0.288c0,0.193 0.183,0.193 0.337,0.193c0.633,0 0.633,0.082 0.633,0.192c0,0.083 -0.126,0.605 -0.211,0.908l-0.295,1.182c-0.127,0.44 -0.857,3.273 -0.871,3.452c-0.071,0.302 -0.071,0.467 -0.071,0.632c0,1.307 0.843,2.132 1.94,2.132c1.659,0 3.415,-1.76 3.415,-3.672c0,-1.512 -1.068,-2.159 -1.981,-2.159c-0.689,0 -1.265,0.372 -1.673,0.702l0.913,-3.589ZM1037.49,18.21c-0.647,0 -1.012,-0.564 -1.012,-1.32c0,-0.481 0.112,-0.921 0.492,-2.379c0.07,-0.247 0.07,-0.275 0.323,-0.564c0.506,-0.563 1.096,-0.852 1.574,-0.852c0.521,0 0.97,0.371 0.97,1.251c0,0.536 -0.295,1.857 -0.688,2.599c-0.324,0.646 -0.984,1.265 -1.659,1.265" style="fill:#000;fill-rule:nonzero;"/></g><rect x="1053.45" y="28.481" width="29.271" height="13.786" style="fill:#fff;"/><g><path d="M1070.91,29.891c0.2,-0.811 0.584,-1.427 2.242,-1.502c0.092,0 0.338,-0.015 0.338,-0.406c0,-0.015 0,-0.21 -0.261,-0.21c-0.691,0 -1.413,0.06 -2.089,0.06c-0.706,0 -1.428,-0.06 -2.119,-0.06c-0.123,0 -0.368,0 -0.368,0.406c0,0.21 0.199,0.21 0.368,0.21c1.183,0.03 1.413,0.451 1.413,0.901c0,0.06 -0.046,0.361 -0.061,0.421l-2.319,9.014l-4.576,-10.577c-0.169,-0.36 -0.185,-0.375 -0.661,-0.375l-2.779,0c-0.415,0 -0.599,0 -0.599,0.406c0,0.21 0.184,0.21 0.568,0.21c0.108,0 1.413,0 1.413,0.195l-2.78,10.877c-0.199,0.811 -0.553,1.457 -2.226,1.517c-0.123,0 -0.354,0.015 -0.354,0.406c0,0.135 0.108,0.225 0.261,0.225c0.676,0 1.398,-0.06 2.074,-0.06c0.706,0 1.458,0.06 2.134,0.06c0.108,0 0.369,0 0.369,-0.405c0,-0.211 -0.185,-0.226 -0.415,-0.226c-1.198,-0.045 -1.367,-0.48 -1.367,-0.886c0,-0.15 0.031,-0.24 0.092,-0.466l2.734,-10.696c0.077,0.12 0.077,0.15 0.184,0.36l5.16,11.929c0.138,0.345 0.2,0.39 0.384,0.39c0.23,0 0.23,-0.06 0.338,-0.42l2.902,-11.298" style="fill:#000;fill-rule:nonzero;"/><path d="M1077.96,39.251c-0.307,-0.466 -0.799,-0.827 -1.49,-0.827c-1.843,0 -3.732,1.983 -3.732,4.027c0,1.367 0.937,2.343 2.181,2.343c0.783,0 1.474,-0.436 2.058,-0.991c0.276,0.856 1.121,0.991 1.489,0.991c0.523,0 0.876,-0.315 1.137,-0.751c0.322,-0.541 0.507,-1.352 0.507,-1.412c0,-0.18 -0.185,-0.18 -0.231,-0.18c-0.199,0 -0.215,0.06 -0.307,0.435c-0.184,0.676 -0.461,1.518 -1.06,1.518c-0.383,0 -0.476,-0.316 -0.476,-0.692c0,-0.24 0.108,-0.751 0.215,-1.126c0.093,-0.376 0.246,-0.962 0.323,-1.262l0.276,-1.082c0.092,-0.36 0.261,-1.036 0.261,-1.097c0,-0.315 -0.261,-0.465 -0.491,-0.465c-0.246,0 -0.568,0.18 -0.66,0.571ZM1077.04,42.886c-0.107,0.391 -0.43,0.676 -0.737,0.947c-0.138,0.12 -0.706,0.571 -1.336,0.571c-0.537,0 -1.059,-0.376 -1.059,-1.383c0,-0.736 0.43,-2.298 0.752,-2.869c0.676,-1.127 1.413,-1.337 1.812,-1.337c1.014,0 1.29,1.067 1.29,1.232c0,0.06 -0.031,0.15 -0.046,0.195l-0.676,2.644" style="fill:#000;fill-rule:nonzero;"/></g></svg>