<?xml version="1.0" encoding="UTF-8" standalone="no"?>
<!DOCTYPE svg PUBLIC "-//W3C//DTD SVG 1.1//EN" "http://www.w3.org/Graphics/SVG/1.1/DTD/svg11.dtd">
<svg width="100%" height="100%" viewBox="0 0 274 403" version="1.1" xmlns="http://www.w3.org/2000/svg" xmlns:xlink="http://www.w3.org/1999/xlink" xml:space="preserve" xmlns:serif="http://www.serif.com/" style="fill-rule:evenodd;clip-rule:evenodd;stroke-linecap:round;stroke-linejoin:round;stroke-miterlimit:1.5;">
    <g transform="matrix(1,0,0,1,-800.408,-73.8213)">
        <g transform="matrix(1,0,0,1,776.656,4.2064)">
            <text x="92.814px" y="91.093px" style="font-family:'FiraSans-Regular', 'Fira Sans', sans-serif;font-size:27.536px;">Subitizing</text>
        </g>
        <g transform="matrix(1,0,0,1,747.026,-1.04531)">
            <text x="95.093px" y="160.665px" style="font-family:'ArialMT', 'Arial', sans-serif;font-size:12px;">1</text>
        </g>
        <g transform="matrix(1,0,0,1,708.158,-121.124)">
            <circle cx="127.434" cy="276.624" r="27.434" style="fill:rgb(148,148,148);"/>
        </g>
        <g transform="matrix(1,0,0,1,709.158,16.8757)">
            <circle cx="127.434" cy="276.624" r="27.434" style="fill:rgb(148,148,148);"/>
        </g>
        <g transform="matrix(1,0,0,1,709.158,80.8757)">
            <circle cx="127.434" cy="276.624" r="27.434" style="fill:rgb(148,148,148);"/>
        </g>
        <g transform="matrix(0.432381,0,0,0.432381,763.002,306.597)">
            <circle cx="127.434" cy="276.624" r="27.434" style="fill:rgb(148,148,148);"/>
        </g>
        <g transform="matrix(0.432381,0,0,0.432381,830.054,306.167)">
            <circle cx="127.434" cy="276.624" r="27.434" style="fill:rgb(148,148,148);"/>
        </g>
        <g transform="matrix(0.432381,0,0,0.432381,899.462,306.167)">
            <circle cx="127.434" cy="276.624" r="27.434" style="fill:rgb(148,148,148);"/>
        </g>
        <g transform="matrix(0.432381,0,0,0.432381,968.87,305.562)">
            <circle cx="127.434" cy="276.624" r="27.434" style="fill:rgb(148,148,148);"/>
        </g>
        <path d="M936.026,127.045L936.026,384.979" style="fill:none;stroke:black;stroke-width:3.5px;"/>
        <path d="M802.158,256.5L1072.03,256.5" style="fill:none;stroke:black;stroke-width:3.5px;"/>
        <g transform="matrix(1,0,0,1,772.158,-57.1243)">
            <circle cx="127.434" cy="276.624" r="27.434" style="fill:rgb(148,148,148);"/>
        </g>
        <g transform="matrix(1,0,0,1,847.158,-57.1243)">
            <circle cx="127.434" cy="276.624" r="27.434" style="fill:rgb(148,148,148);"/>
        </g>
        <g transform="matrix(1,0,0,1,847.158,80.8757)">
            <circle cx="127.434" cy="276.624" r="27.434" style="fill:rgb(148,148,148);"/>
        </g>
        <g transform="matrix(1,0,0,1,773.158,16.8757)">
            <circle cx="127.434" cy="276.624" r="27.434" style="fill:rgb(148,148,148);"/>
        </g>
        <g transform="matrix(1,0,0,1,847.158,-121.124)">
            <circle cx="127.434" cy="276.624" r="27.434" style="fill:rgb(148,148,148);"/>
        </g>
        <g transform="matrix(1,0,0,1,911.158,16.8757)">
            <circle cx="127.434" cy="276.624" r="27.434" style="fill:rgb(148,148,148);"/>
        </g>
        <g transform="matrix(1,0,0,1,686.842,-130.955)">
            <path d="M212.75,256L219.934,278.111L243.184,278.111L224.375,291.777L231.559,313.889L212.75,300.223L193.941,313.889L201.125,291.777L182.316,278.111L205.566,278.111L212.75,256Z" style="fill:rgb(253,162,42);"/>
        </g>
        <g transform="matrix(1,0,0,1,828.842,-130.955)">
            <path d="M212.75,256L219.934,278.111L243.184,278.111L224.375,291.777L231.559,313.889L212.75,300.223L193.941,313.889L201.125,291.777L182.316,278.111L205.566,278.111L212.75,256Z" style="fill:rgb(253,162,42);"/>
        </g>
        <g transform="matrix(1,0,0,1,828.842,-66.9547)">
            <path d="M212.75,256L219.934,278.111L243.184,278.111L224.375,291.777L231.559,313.889L212.75,300.223L193.941,313.889L201.125,291.777L182.316,278.111L205.566,278.111L212.75,256Z" style="fill:rgb(253,162,42);"/>
        </g>
        <g transform="matrix(1,0,0,1,619.842,-66.9547)">
            <path d="M212.75,256L219.934,278.111L243.184,278.111L224.375,291.777L231.559,313.889L212.75,300.223L193.941,313.889L201.125,291.777L182.316,278.111L205.566,278.111L212.75,256Z" style="fill:rgb(253,162,42);"/>
        </g>
        <g transform="matrix(1,0,0,1,764.842,7.70874)">
            <path d="M212.75,256L219.934,278.111L243.184,278.111L224.375,291.777L231.559,313.889L212.75,300.223L193.941,313.889L201.125,291.777L182.316,278.111L205.566,278.111L212.75,256Z" style="fill:rgb(253,162,42);"/>
        </g>
        <g transform="matrix(1,0,0,1,828.842,72.5557)">
            <path d="M212.75,256L219.934,278.111L243.184,278.111L224.375,291.777L231.559,313.889L212.75,300.223L193.941,313.889L201.125,291.777L182.316,278.111L205.566,278.111L212.75,256Z" style="fill:rgb(253,162,42);"/>
        </g>
        <g transform="matrix(1,0,0,1,687.842,73.0661)">
            <path d="M212.75,256L219.934,278.111L243.184,278.111L224.375,291.777L231.559,313.889L212.75,300.223L193.941,313.889L201.125,291.777L182.316,278.111L205.566,278.111L212.75,256Z" style="fill:rgb(253,162,42);"/>
        </g>
        <g transform="matrix(0.440104,0,0,0.415365,724.076,345.997)">
            <path d="M212.75,256L219.934,278.111L243.184,278.111L224.375,291.777L231.559,313.889L212.75,300.223L193.941,313.889L201.125,291.777L182.316,278.111L205.566,278.111L212.75,256Z" style="fill:rgb(253,162,42);"/>
        </g>
        <g transform="matrix(0.440104,0,0,0.415365,792.054,345.997)">
            <path d="M212.75,256L219.934,278.111L243.184,278.111L224.375,291.777L231.559,313.889L212.75,300.223L193.941,313.889L201.125,291.777L182.316,278.111L205.566,278.111L212.75,256Z" style="fill:rgb(253,162,42);"/>
        </g>
        <g transform="matrix(0.440104,0,0,0.415365,860.93,345.997)">
            <path d="M212.75,256L219.934,278.111L243.184,278.111L224.375,291.777L231.559,313.889L212.75,300.223L193.941,313.889L201.125,291.777L182.316,278.111L205.566,278.111L212.75,256Z" style="fill:rgb(253,162,42);"/>
        </g>
        <g transform="matrix(0.440104,0,0,0.415365,930.338,345.997)">
            <path d="M212.75,256L219.934,278.111L243.184,278.111L224.375,291.777L231.559,313.889L212.75,300.223L193.941,313.889L201.125,291.777L182.316,278.111L205.566,278.111L212.75,256Z" style="fill:rgb(253,162,42);"/>
        </g>
        <g transform="matrix(1,0,0,1,292.954,2.39907)">
            <text x="547.516px" y="435.597px" style="font-family:'FiraSans-Regular', 'Fira Sans', sans-serif;font-size:36px;">2</text>
        </g>
        <g transform="matrix(1,0,0,1,292.954,41.1775)">
            <text x="547.516px" y="435.597px" style="font-family:'FiraSans-Regular', 'Fira Sans', sans-serif;font-size:36px;">2</text>
        </g>
        <g transform="matrix(1,0,0,1,360.212,2.03895)">
            <text x="547.516px" y="435.597px" style="font-family:'FiraSans-Regular', 'Fira Sans', sans-serif;font-size:36px;">2</text>
        </g>
        <g transform="matrix(1,0,0,1,360.212,41.1775)">
            <text x="547.516px" y="435.597px" style="font-family:'FiraSans-Regular', 'Fira Sans', sans-serif;font-size:36px;">2</text>
        </g>
        <g transform="matrix(1,0,0,1,429.98,1.42695)">
            <text x="547.516px" y="435.597px" style="font-family:'FiraSans-Regular', 'Fira Sans', sans-serif;font-size:36px;">3</text>
        </g>
        <g transform="matrix(1,0,0,1,429.98,40.3463)">
            <text x="547.516px" y="435.597px" style="font-family:'FiraSans-Regular', 'Fira Sans', sans-serif;font-size:36px;">2</text>
        </g>
        <g transform="matrix(1,0,0,1,501.722,1.24695)">
            <text x="547.516px" y="435.597px" style="font-family:'FiraSans-Regular', 'Fira Sans', sans-serif;font-size:36px;">2</text>
        </g>
        <g transform="matrix(1,0,0,1,501.722,40.3463)">
            <text x="547.516px" y="435.597px" style="font-family:'FiraSans-Regular', 'Fira Sans', sans-serif;font-size:36px;">2</text>
        </g>
    </g>
</svg>
