<?xml version="1.0" encoding="UTF-8" standalone="no"?>
<!DOCTYPE svg PUBLIC "-//W3C//DTD SVG 1.1//EN" "http://www.w3.org/Graphics/SVG/1.1/DTD/svg11.dtd">
<svg width="100%" height="100%" viewBox="0 0 279 399" version="1.1" xmlns="http://www.w3.org/2000/svg" xmlns:xlink="http://www.w3.org/1999/xlink" xml:space="preserve" xmlns:serif="http://www.serif.com/" style="fill-rule:evenodd;clip-rule:evenodd;stroke-linejoin:round;stroke-miterlimit:2;">
    <g transform="matrix(1,0,0,1,-61.1325,-73.8213)">
        <g transform="matrix(1,0,0,1,-27.1961,4.2064)">
            <text x="92.814px" y="91.093px" style="font-family:'FiraSans-Regular', 'Fira Sans', sans-serif;font-size:27.536px;">C<tspan x="107.959px " y="91.093px ">o</tspan>unting b<tspan x="227.739px " y="91.093px ">y</tspan> Det<tspan x="291.127px " y="91.093px ">e</tspan>ction</text>
        </g>
        <text x="95.093px" y="160.665px" style="font-family:'ArialMT', 'Arial', sans-serif;font-size:12px;">1</text>
        <g transform="matrix(1,0,0,1,-32.8676,-115.079)">
            <circle cx="127.434" cy="276.624" r="27.434" style="fill:rgb(148,148,148);"/>
        </g>
        <g transform="matrix(1,0,0,1,-32.8676,12.921)">
            <circle cx="127.434" cy="276.624" r="27.434" style="fill:rgb(148,148,148);"/>
        </g>
        <g transform="matrix(1,0,0,1,-32.8676,76.921)">
            <circle cx="127.434" cy="276.624" r="27.434" style="fill:rgb(148,148,148);"/>
        </g>
        <g transform="matrix(0.432381,0,0,0.432381,82.5742,305.181)">
            <circle cx="127.434" cy="276.624" r="27.434" style="fill:rgb(148,148,148);"/>
        </g>
        <g transform="matrix(0.432381,0,0,0.432381,139.625,304.655)">
            <circle cx="127.434" cy="276.624" r="27.434" style="fill:rgb(148,148,148);"/>
        </g>
        <g transform="matrix(0.432381,0,0,0.432381,194.123,304.655)">
            <circle cx="127.434" cy="276.624" r="27.434" style="fill:rgb(148,148,148);"/>
        </g>
        <g transform="matrix(1,0,0,1,31.1324,-51.079)">
            <circle cx="127.434" cy="276.624" r="27.434" style="fill:rgb(148,148,148);"/>
        </g>
        <g transform="matrix(1,0,0,1,95.1324,-51.079)">
            <circle cx="127.434" cy="276.624" r="27.434" style="fill:rgb(148,148,148);"/>
        </g>
        <g transform="matrix(1,0,0,1,95.1324,76.921)">
            <circle cx="127.434" cy="276.624" r="27.434" style="fill:rgb(148,148,148);"/>
        </g>
        <g transform="matrix(1,0,0,1,31.1324,12.921)">
            <circle cx="127.434" cy="276.624" r="27.434" style="fill:rgb(148,148,148);"/>
        </g>
        <g transform="matrix(1,0,0,1,95.1324,-115.079)">
            <circle cx="127.434" cy="276.624" r="27.434" style="fill:rgb(148,148,148);"/>
        </g>
        <g transform="matrix(1,0,0,1,159.132,12.921)">
            <circle cx="127.434" cy="276.624" r="27.434" style="fill:rgb(148,148,148);"/>
        </g>
        <g transform="matrix(1,0,0,1,-54.1838,-124.909)">
            <path d="M212.75,256L219.934,278.111L243.184,278.111L224.375,291.777L231.559,313.889L212.75,300.223L193.941,313.889L201.125,291.777L182.316,278.111L205.566,278.111L212.75,256Z" style="fill:rgb(253,162,42);"/>
        </g>
        <g transform="matrix(1,0,0,1,76.8162,-124.909)">
            <path d="M212.75,256L219.934,278.111L243.184,278.111L224.375,291.777L231.559,313.889L212.75,300.223L193.941,313.889L201.125,291.777L182.316,278.111L205.566,278.111L212.75,256Z" style="fill:rgb(253,162,42);"/>
        </g>
        <g transform="matrix(1,0,0,1,76.8162,-60.9094)">
            <path d="M212.75,256L219.934,278.111L243.184,278.111L224.375,291.777L231.559,313.889L212.75,300.223L193.941,313.889L201.125,291.777L182.316,278.111L205.566,278.111L212.75,256Z" style="fill:rgb(253,162,42);"/>
        </g>
        <g transform="matrix(1,0,0,1,-121.184,-60.9094)">
            <path d="M212.75,256L219.934,278.111L243.184,278.111L224.375,291.777L231.559,313.889L212.75,300.223L193.941,313.889L201.125,291.777L182.316,278.111L205.566,278.111L212.75,256Z" style="fill:rgb(253,162,42);"/>
        </g>
        <g transform="matrix(1,0,0,1,12.8162,3.75405)">
            <path d="M212.75,256L219.934,278.111L243.184,278.111L224.375,291.777L231.559,313.889L212.75,300.223L193.941,313.889L201.125,291.777L182.316,278.111L205.566,278.111L212.75,256Z" style="fill:rgb(253,162,42);"/>
        </g>
        <g transform="matrix(1,0,0,1,76.8162,68.601)">
            <path d="M212.75,256L219.934,278.111L243.184,278.111L224.375,291.777L231.559,313.889L212.75,300.223L193.941,313.889L201.125,291.777L182.316,278.111L205.566,278.111L212.75,256Z" style="fill:rgb(253,162,42);"/>
        </g>
        <g transform="matrix(1,0,0,1,-54.1838,69.1115)">
            <path d="M212.75,256L219.934,278.111L243.184,278.111L224.375,291.777L231.559,313.889L212.75,300.223L193.941,313.889L201.125,291.777L182.316,278.111L205.566,278.111L212.75,256Z" style="fill:rgb(253,162,42);"/>
        </g>
        <g transform="matrix(0.440104,0,0,0.415365,101.093,341.667)">
            <path d="M212.75,256L219.934,278.111L243.184,278.111L224.375,291.777L231.559,313.889L212.75,300.223L193.941,313.889L201.125,291.777L182.316,278.111L205.566,278.111L212.75,256Z" style="fill:rgb(253,162,42);"/>
        </g>
        <g transform="matrix(0.440104,0,0,0.415365,155.169,339.77)">
            <path d="M212.75,256L219.934,278.111L243.184,278.111L224.375,291.777L231.559,313.889L212.75,300.223L193.941,313.889L201.125,291.777L182.316,278.111L205.566,278.111L212.75,256Z" style="fill:rgb(253,162,42);"/>
        </g>
        <g transform="matrix(0.440104,0,0,0.415365,45.5742,341.667)">
            <path d="M212.75,256L219.934,278.111L243.184,278.111L224.375,291.777L231.559,313.889L212.75,300.223L193.941,313.889L201.125,291.777L182.316,278.111L205.566,278.111L212.75,256Z" style="fill:rgb(253,162,42);"/>
        </g>
        <g transform="matrix(1,0,0,1,4.28959,-5.51595)">
            <text x="83.434px" y="176.077px" style="font-family:'FiraSans-Regular', 'Fira Sans', sans-serif;font-size:27.536px;fill:white;">1</text>
        </g>
        <g transform="matrix(1,0,0,1,131.148,-6.14623)">
            <text x="83.434px" y="176.077px" style="font-family:'FiraSans-Regular', 'Fira Sans', sans-serif;font-size:27.536px;fill:white;">2</text>
        </g>
        <g transform="matrix(1,0,0,1,67.1447,58.8343)">
            <text x="83.434px" y="176.077px" style="font-family:'FiraSans-Regular', 'Fira Sans', sans-serif;font-size:27.536px;fill:white;">3</text>
        </g>
        <g transform="matrix(1,0,0,1,131.329,58.7537)">
            <text x="83.434px" y="176.077px" style="font-family:'FiraSans-Regular', 'Fira Sans', sans-serif;font-size:27.536px;fill:white;">4</text>
        </g>
        <g transform="matrix(1,0,0,1,3.20053,122.174)">
            <text x="83.434px" y="176.077px" style="font-family:'FiraSans-Regular', 'Fira Sans', sans-serif;font-size:27.536px;fill:white;">5</text>
        </g>
        <g transform="matrix(1,0,0,1,67.6839,123.122)">
            <text x="83.434px" y="176.077px" style="font-family:'FiraSans-Regular', 'Fira Sans', sans-serif;font-size:27.536px;fill:white;">6</text>
        </g>
        <g transform="matrix(1,0,0,1,195.448,123.458)">
            <text x="83.434px" y="176.077px" style="font-family:'FiraSans-Regular', 'Fira Sans', sans-serif;font-size:27.536px;fill:white;">7</text>
        </g>
        <g transform="matrix(1,0,0,1,3.30809,186.769)">
            <text x="83.434px" y="176.077px" style="font-family:'FiraSans-Regular', 'Fira Sans', sans-serif;font-size:27.536px;fill:white;">8</text>
        </g>
        <g transform="matrix(1,0,0,1,131.208,186.769)">
            <text x="83.434px" y="176.077px" style="font-family:'FiraSans-Regular', 'Fira Sans', sans-serif;font-size:27.536px;fill:white;">9</text>
        </g>
        <g transform="matrix(1,0,0,1,-5,6)">
            <text x="163.897px" y="428.588px" style="font-family:'ArialMT', 'Arial', sans-serif;font-size:27.536px;">+</text>
        </g>
        <g transform="matrix(1,0,0,1,49.1683,5.19339)">
            <text x="163.897px" y="428.588px" style="font-family:'ArialMT', 'Arial', sans-serif;font-size:27.536px;">+</text>
        </g>
        <g transform="matrix(1,0,0,1,105.716,-2.04088)">
            <text x="163.897px" y="428.588px" style="font-family:'ArialMT', 'Arial', sans-serif;font-size:27.536px;">...</text>
        </g>
        <g transform="matrix(1,0,0,1,-4.70185,41.3819)">
            <text x="163.897px" y="428.588px" style="font-family:'ArialMT', 'Arial', sans-serif;font-size:27.536px;">+</text>
        </g>
        <g transform="matrix(1,0,0,1,48.6438,40.6152)">
            <text x="163.897px" y="428.588px" style="font-family:'ArialMT', 'Arial', sans-serif;font-size:27.536px;">+</text>
        </g>
        <g transform="matrix(1,0,0,1,-4,0)">
            <text x="273.962px" y="464.353px" style="font-family:'ArialMT', 'Arial', sans-serif;font-size:27.536px;">...</text>
        </g>
    </g>
</svg>
