<?xml version="1.0" standalone="no"?><!DOCTYPE svg PUBLIC "-//W3C//DTD SVG 1.1//EN" "http://www.w3.org/Graphics/SVG/1.1/DTD/svg11.dtd"><svg width="100%" height="100%" viewBox="0 0 1280 380" version="1.1" xmlns="http://www.w3.org/2000/svg" xmlns:xlink="http://www.w3.org/1999/xlink" xml:space="preserve" style="fill-rule:evenodd;clip-rule:evenodd;stroke-linejoin:round;stroke-miterlimit:1.41421;"><g id="g5780"><path id="path5772" d="M19.092,75.73l0,212.598l155.772,72.638l0,-212.598l-155.772,-72.638Z" style="fill:#fff;fill-rule:nonzero;stroke-width:1px;stroke:#000;"/><path id="path5776" d="M19.092,75.73l110.18,-51.378l155.772,72.638l-110.18,51.378l-155.772,-72.638Z" style="fill:#fff;fill-rule:nonzero;stroke-width:1px;stroke:#000;"/><path id="path5778" d="M174.864,360.966l110.18,-51.378l0,-212.598l-110.18,51.378l0,212.598Z" style="fill:#fff;fill-rule:nonzero;stroke-width:1px;stroke:#000;"/></g><rect x="74.196" y="155.926" width="194.326" height="62.83" style="fill:#fff;stroke-width:1px;stroke-linecap:round;stroke:#fff;"/><path id="path3045" d="M379.246,126.023l0,209.311l18.703,8.721l0,-209.311l-18.703,-8.721Z" style="fill:#fff;fill-rule:nonzero;stroke-width:0.98px;stroke:#000;"/><path id="path30451" d="M970.213,126.023l0,209.311l18.703,8.721l0,-209.311l-18.703,-8.721Z" style="fill:#fff;fill-rule:nonzero;stroke-width:0.98px;stroke:#000;"/><path id="path3047" d="M379.246,126.023l18.703,-8.721l18.703,8.721l-18.703,8.721l-18.703,-8.721Z" style="fill:#fff;fill-rule:nonzero;stroke-width:0.98px;stroke:#000;"/><path id="path30471" d="M970.213,126.023l18.703,-8.721l18.703,8.721l-18.703,8.721l-18.703,-8.721Z" style="fill:#fff;fill-rule:nonzero;stroke-width:0.98px;stroke:#000;"/><path id="path3049" d="M397.949,344.055l18.703,-8.721l0,-209.311l-18.703,8.721l0,209.311Z" style="fill:#fff;fill-rule:nonzero;stroke-width:0.98px;stroke:#000;"/><path id="path30491" d="M988.916,344.055l18.703,-8.721l0,-209.311l-18.703,8.721l0,209.311Z" style="fill:#fff;fill-rule:nonzero;stroke-width:0.98px;stroke:#000;"/><path id="path3053" d="M412.532,80.673l0,17.442l18.703,8.721l0,-17.442l-18.703,-8.721Z" style="fill:#fff;fill-rule:nonzero;stroke-width:0.98px;stroke:#000;"/><path id="path30531" d="M1003.5,80.673l0,17.442l18.703,8.721l0,-17.442l-18.703,-8.721Z" style="fill:#fff;fill-rule:nonzero;stroke-width:0.98px;stroke:#000;"/><path id="path3055" d="M412.532,80.673l108.477,-50.584l18.702,8.721l-108.476,50.584l-18.703,-8.721Z" style="fill:#fff;fill-rule:nonzero;stroke-width:0.98px;stroke:#000;"/><path id="path30551" d="M1003.5,80.673l108.477,-50.584l18.703,8.721l-108.477,50.584l-18.703,-8.721Z" style="fill:#fff;fill-rule:nonzero;stroke-width:0.98px;stroke:#000;"/><path id="path3057" d="M431.235,89.394l0,17.442l108.476,-50.583l0,-17.443l-108.476,50.584Z" style="fill:#fff;fill-rule:nonzero;stroke-width:0.98px;stroke:#000;"/><path id="path30571" d="M1022.2,89.394l0,17.442l108.477,-50.583l0,-17.443l-108.477,50.584Z" style="fill:#fff;fill-rule:nonzero;stroke-width:0.98px;stroke:#000;"/><path id="path3061" d="M568.632,180.095l0,17.443l18.703,-8.722l0,-17.442l-18.703,8.721Z" style="fill:#fff;fill-rule:nonzero;stroke-width:0.98px;stroke:#000;"/><path id="path30611" d="M1159.6,180.095l0,17.443l18.703,-8.722l0,-17.442l-18.703,8.721Z" style="fill:#fff;fill-rule:nonzero;stroke-width:0.98px;stroke:#000;"/><path id="path3063" d="M568.632,180.095l-153.363,-71.514l18.703,-8.722l153.363,71.515l-18.703,8.721Z" style="fill:#fff;fill-rule:nonzero;stroke-width:0.98px;stroke:#000;"/><path id="path30631" d="M1159.6,180.095l-153.363,-71.514l18.703,-8.722l153.363,71.515l-18.703,8.721Z" style="fill:#fff;fill-rule:nonzero;stroke-width:0.98px;stroke:#000;"/><path id="path3065" d="M568.632,197.538l-153.363,-71.515l0,-17.442l153.363,71.514l0,17.443Z" style="fill:#fff;fill-rule:nonzero;stroke-width:0.98px;stroke:#000;"/><path id="path30651" d="M1159.6,197.538l-153.363,-71.515l0,-17.442l153.363,71.514l0,17.443Z" style="fill:#fff;fill-rule:nonzero;stroke-width:0.98px;stroke:#000;"/><path d="M114.269,160.031l-5.587,5.679l0.745,0.745l4.842,-4.236l4.795,4.236l0.745,-0.745l-5.54,-5.679" style="fill:#000;fill-rule:nonzero;"/><path d="M126.653,173.904c0.232,-0.512 0.419,-0.931 3.445,-0.931l0.791,0l0,-1.956c-1.583,0.047 -3.585,0.14 -4.702,0.14c-1.676,0 -3.864,0 -5.493,-0.14l0,1.956c0.372,0 3.677,0 3.677,0.512c0,0.186 -0.139,0.372 -0.139,0.512l-8.427,18.948l-8.892,-19.972l3.911,0l0,-1.956c-1.583,0.14 -5.587,0.14 -7.356,0.14c-1.629,0 -5.121,0 -6.611,-0.14l0,1.956l3.865,0l11.499,25.884c0.326,0.792 0.512,1.118 1.676,1.118c0.651,0 1.21,0 1.629,-1.025l11.127,-25.046" style="fill:#000;fill-rule:nonzero;"/><path d="M146.625,209.658c0,-0.14 0,-0.233 -0.699,-0.931c-5.214,-5.261 -6.517,-13.128 -6.517,-19.506c0,-7.263 1.583,-14.526 6.704,-19.74c0.512,-0.465 0.512,-0.558 0.512,-0.698c0,-0.28 -0.14,-0.419 -0.373,-0.419c-0.419,0 -4.19,2.84 -6.657,8.147c-2.095,4.562 -2.607,9.218 -2.607,12.71c0,3.258 0.465,8.286 2.747,12.988c2.513,5.121 6.098,7.822 6.517,7.822c0.233,0 0.373,-0.094 0.373,-0.373" style="fill:#000;fill-rule:nonzero;"/><path d="M164.409,182.982l3.584,0c0.838,0 1.257,0 1.257,-0.838c0,-0.465 -0.419,-0.465 -1.117,-0.465l-3.492,0l0.885,-4.749c0.186,-0.885 0.745,-3.864 1.024,-4.33c0.373,-0.791 1.071,-1.443 1.956,-1.443c0.139,0 1.257,0 2.048,0.745c-1.862,0.186 -2.281,1.629 -2.281,2.281c0,0.931 0.745,1.443 1.536,1.443c1.117,0 2.328,-0.931 2.328,-2.514c0,-1.908 -1.956,-2.886 -3.631,-2.886c-1.444,0 -4.051,0.791 -5.308,4.888c-0.232,0.885 -0.372,1.304 -1.35,6.565l-2.886,0c-0.792,0 -1.257,0 -1.257,0.791c0,0.512 0.372,0.512 1.164,0.512l2.746,0l-3.119,16.434c-0.745,4.05 -1.443,7.821 -3.631,7.821c-0.186,0 -1.21,0 -2.002,-0.745c1.909,-0.093 2.281,-1.629 2.281,-2.234c0,-0.978 -0.745,-1.443 -1.536,-1.443c-1.071,0 -2.281,0.884 -2.281,2.467c0,1.909 1.815,2.886 3.538,2.886c2.281,0 3.957,-2.467 4.702,-4.05c1.35,-2.607 2.281,-7.635 2.328,-7.961l2.514,-13.175" style="fill:#000;fill-rule:nonzero;"/><path d="M180.144,199.602c0,-2.746 -1.07,-4.376 -2.7,-4.376c-1.35,0 -2.188,1.024 -2.188,2.188c0,1.118 0.838,2.235 2.188,2.235c0.512,0 1.071,-0.186 1.49,-0.559c0.093,-0.093 0.14,-0.14 0.186,-0.14c0.047,0 0.093,0.047 0.093,0.652c0,3.073 -1.443,5.587 -2.84,6.937c-0.465,0.466 -0.465,0.559 -0.465,0.698c0,0.28 0.233,0.419 0.419,0.419c0.465,0 3.817,-3.212 3.817,-8.054" style="fill:#000;fill-rule:nonzero;"/><path d="M200.349,171.157c0,-0.046 0,-0.465 -0.558,-0.465c-0.978,0 -4.004,0.325 -5.075,0.419c-0.326,0.046 -0.791,0.093 -0.791,0.838c0,0.512 0.372,0.512 0.977,0.512c2.002,0 2.095,0.279 2.095,0.698c0,0.279 -0.372,1.723 -0.558,2.607l-3.445,13.548c-0.513,2.095 -0.652,2.793 -0.652,4.236c0,3.957 2.188,6.518 5.307,6.518c4.888,0 10.009,-6.192 10.009,-12.198c0,-3.771 -2.188,-6.657 -5.54,-6.657c-1.908,0 -3.631,1.21 -4.888,2.514l3.119,-12.57ZM196.439,186.939c0.232,-0.931 0.232,-1.024 0.605,-1.489c2.048,-2.701 3.91,-3.306 4.981,-3.306c1.537,0 2.654,1.211 2.654,3.911c0,2.467 -1.397,7.262 -2.142,8.845c-1.35,2.793 -3.305,4.283 -4.888,4.283c-1.443,0 -2.793,-1.117 -2.793,-4.236c0,-0.792 0,-1.583 0.651,-4.19l0.932,-3.818" style="fill:#000;fill-rule:nonzero;"/><path d="M216.689,199.602c0,-2.746 -1.07,-4.376 -2.699,-4.376c-1.35,0 -2.188,1.024 -2.188,2.188c0,1.118 0.838,2.235 2.188,2.235c0.512,0 1.071,-0.186 1.49,-0.559c0.093,-0.093 0.139,-0.14 0.186,-0.14c0.046,0 0.093,0.047 0.093,0.652c0,3.073 -1.443,5.587 -2.84,6.937c-0.466,0.466 -0.466,0.559 -0.466,0.698c0,0.28 0.233,0.419 0.419,0.419c0.466,0 3.817,-3.212 3.817,-8.054" style="fill:#000;fill-rule:nonzero;"/><path d="M235.311,182.982l3.912,0c0.838,0 1.256,0 1.256,-0.838c0,-0.465 -0.418,-0.465 -1.163,-0.465l-3.678,0c1.536,-5.913 1.722,-6.751 1.722,-7.03c0,-0.698 -0.512,-1.118 -1.209,-1.118c-0.095,0 -1.304,0.047 -1.677,1.49l-1.63,6.658l-3.91,0c-0.838,0 -1.257,0 -1.257,0.791c0,0.512 0.373,0.512 1.211,0.512l3.631,0c-2.979,11.825 -3.167,12.523 -3.167,13.268c0,2.235 1.584,3.818 3.865,3.818c4.236,0 6.61,-6.052 6.61,-6.378c0,-0.419 -0.325,-0.419 -0.511,-0.419c-0.373,0 -0.42,0.093 -0.605,0.558c-1.816,4.33 -4.004,5.354 -5.447,5.354c-0.838,0 -1.257,-0.558 -1.257,-1.908c0,-1.025 0.046,-1.304 0.232,-2.002l3.072,-12.291" style="fill:#000;fill-rule:nonzero;"/><path d="M253.98,189.221c0,-3.259 -0.418,-8.287 -2.746,-13.036c-2.468,-5.121 -6.052,-7.821 -6.471,-7.821c-0.279,0 -0.419,0.186 -0.419,0.419c0,0.14 0,0.233 0.792,0.977c4.049,4.097 6.423,10.755 6.423,19.461c0,7.122 -1.536,14.432 -6.704,19.692c-0.511,0.512 -0.511,0.605 -0.511,0.745c0,0.233 0.14,0.373 0.419,0.373c0.419,0 4.143,-2.794 6.61,-8.101c2.142,-4.609 2.607,-9.218 2.607,-12.709" style="fill:#000;fill-rule:nonzero;"/><path d="M729.846,182.709l8.638,0c0.415,0 1.002,0 1.002,-0.622c0,-0.587 -0.587,-0.587 -1.002,-0.587l-8.638,0l0,-8.673c0,-0.449 0,-1.036 -0.622,-1.036c-0.622,0 -0.622,0.587 -0.622,1.036l0,8.673l-8.672,0c-0.415,0 -1.002,0 -1.002,0.587c0,0.622 0.587,0.622 1.002,0.622l8.672,0l0,8.673c0,0.449 0,1.036 0.622,1.036c0.622,0 0.622,-0.587 0.622,-1.036l0,-8.673" style="fill:#000;fill-rule:nonzero;"/><path d="M883.018,182.709l8.638,0c0.415,0 1.002,0 1.002,-0.622c0,-0.587 -0.587,-0.587 -1.002,-0.587l-8.638,0l0,-8.673c0,-0.449 0,-1.036 -0.622,-1.036c-0.622,0 -0.622,0.587 -0.622,1.036l0,8.673l-8.672,0c-0.415,0 -1.002,0 -1.002,0.587c0,0.622 0.587,0.622 1.002,0.622l8.672,0l0,8.673c0,0.449 0,1.036 0.622,1.036c0.622,0 0.622,-0.587 0.622,-1.036l0,-8.673" style="fill:#000;fill-rule:nonzero;"/><path d="M341.209,185.455c0,-0.657 -0.207,-0.933 -0.415,-0.933c-0.138,0 -0.414,0.138 -0.449,0.829c-0.138,2.142 -2.28,3.421 -4.284,3.421c-1.797,0 -3.352,-0.968 -4.976,-2.039c-1.658,-1.14 -3.317,-2.246 -5.355,-2.246c-2.868,0 -5.149,2.212 -5.149,5.045c0,0.691 0.242,0.933 0.45,0.933c0.276,0 0.414,-0.588 0.414,-0.726c0.173,-2.591 2.695,-3.524 4.285,-3.524c1.796,0 3.351,0.967 4.975,2.038c1.659,1.141 3.317,2.246 5.356,2.246c2.867,0 5.148,-2.211 5.148,-5.044ZM341.209,192.676c0,-0.898 -0.38,-0.933 -0.415,-0.933c-0.138,0 -0.414,0.138 -0.449,0.829c-0.138,2.143 -2.28,3.386 -4.284,3.386c-1.797,0 -3.352,-0.967 -4.976,-2.038c-1.658,-1.106 -3.317,-2.211 -5.355,-2.211c-2.868,0 -5.149,2.176 -5.149,5.044c0,0.657 0.242,0.898 0.45,0.898c0.276,0 0.414,-0.587 0.414,-0.691c0.173,-2.591 2.695,-3.524 4.285,-3.524c1.796,0 3.351,0.968 4.975,2.039c1.659,1.105 3.317,2.211 5.356,2.211c2.937,0 5.148,-2.28 5.148,-5.01" style="fill:#000;fill-rule:nonzero;"/><path d="M800.224,183.588c0,-0.864 -0.76,-1.624 -1.659,-1.624c-0.898,0 -1.624,0.76 -1.624,1.624c0,0.898 0.726,1.658 1.624,1.658c0.899,0 1.659,-0.76 1.659,-1.658" style="fill:#000;fill-rule:nonzero;"/><path d="M813.975,183.588c0,-0.864 -0.76,-1.624 -1.658,-1.624c-0.899,0 -1.624,0.76 -1.624,1.624c0,0.898 0.725,1.658 1.624,1.658c0.898,0 1.658,-0.76 1.658,-1.658" style="fill:#000;fill-rule:nonzero;"/><path d="M827.727,183.588c0,-0.864 -0.76,-1.624 -1.659,-1.624c-0.898,0 -1.624,0.76 -1.624,1.624c0,0.898 0.726,1.658 1.624,1.658c0.899,0 1.659,-0.76 1.659,-1.658" style="fill:#000;fill-rule:nonzero;"/><path d="M370.286,314.64l2.104,0.994c0.464,0.219 0.71,0.335 0.715,-0.264c0.003,-0.333 -0.243,-0.449 -0.653,-0.643l-2.022,-0.955l0.547,-3.15c0.088,-0.594 0.46,-2.556 0.6,-2.825c0.223,-0.462 0.636,-0.735 1.155,-0.489c0.11,0.051 0.738,0.348 1.198,1.1c-1.067,-0.37 -1.321,0.546 -1.325,1.012c-0.005,0.665 0.429,1.238 0.893,1.458c0.629,0.296 1.344,-0.034 1.354,-1.165c0.011,-1.365 -1.103,-2.594 -2.114,-3.071c-0.82,-0.387 -2.381,-0.557 -3.116,2.037c-0.169,0.555 -0.226,0.828 -0.858,4.306l-1.694,-0.8c-0.464,-0.22 -0.737,-0.349 -0.742,0.217c-0.003,0.366 0.216,0.469 0.68,0.689l1.639,0.774l-1.954,10.873c-0.461,2.69 -0.893,5.226 -2.15,4.632c-0.109,-0.052 -0.71,-0.336 -1.17,-1.121c1.121,0.463 1.348,-0.499 1.352,-0.965c0.005,-0.666 -0.429,-1.239 -0.893,-1.458c-0.656,-0.31 -1.371,-0.013 -1.38,1.119c-0.012,1.365 1.075,2.58 2.086,3.057c1.339,0.633 2.337,-0.667 2.783,-1.592c0.78,-1.503 1.383,-4.827 1.413,-5.047l1.552,-8.723" style="fill:#000;fill-rule:nonzero;"/><path d="M961.253,314.64l2.104,0.994c0.464,0.219 0.71,0.335 0.715,-0.264c0.003,-0.333 -0.243,-0.449 -0.653,-0.643l-2.021,-0.955l0.547,-3.15c0.087,-0.594 0.459,-2.556 0.599,-2.825c0.223,-0.462 0.637,-0.735 1.156,-0.489c0.109,0.051 0.737,0.348 1.197,1.1c-1.066,-0.37 -1.321,0.546 -1.324,1.012c-0.006,0.665 0.428,1.238 0.893,1.458c0.628,0.296 1.344,-0.034 1.353,-1.165c0.011,-1.365 -1.103,-2.594 -2.114,-3.071c-0.82,-0.387 -2.381,-0.557 -3.116,2.037c-0.169,0.555 -0.226,0.828 -0.858,4.306l-1.693,-0.8c-0.465,-0.22 -0.738,-0.349 -0.743,0.217c-0.003,0.366 0.216,0.469 0.68,0.689l1.639,0.774l-1.954,10.873c-0.461,2.69 -0.893,5.226 -2.15,4.632c-0.109,-0.052 -0.71,-0.336 -1.17,-1.121c1.121,0.463 1.348,-0.499 1.352,-0.965c0.006,-0.666 -0.428,-1.239 -0.893,-1.458c-0.656,-0.31 -1.371,-0.013 -1.38,1.119c-0.011,1.365 1.076,2.58 2.086,3.057c1.339,0.633 2.337,-0.667 2.783,-1.592c0.78,-1.503 1.384,-4.827 1.413,-5.047l1.552,-8.723" style="fill:#000;fill-rule:nonzero;"/><path d="M550.942,39.245l2.313,-1.116c0.49,-0.237 0.708,-0.342 0.71,-0.947c0.001,-0.336 -0.216,-0.231 -0.679,-0.008l-2.122,1.025c0.888,-4.69 0.999,-5.348 1,-5.549c0.002,-0.505 -0.269,-0.676 -0.704,-0.466c-0.055,0.027 -0.735,0.389 -0.957,1.57l-0.972,5.233l-2.312,1.117c-0.463,0.223 -0.708,0.341 -0.71,0.913c-0.002,0.37 0.189,0.278 0.679,0.041l2.122,-1.024c-1.776,9.379 -1.887,9.936 -1.889,10.474c-0.006,1.647 0.914,2.343 2.247,1.7c2.476,-1.196 3.882,-6.27 3.883,-6.505c0.001,-0.303 -0.19,-0.211 -0.299,-0.158c-0.217,0.105 -0.245,0.185 -0.355,0.574c-1.074,3.639 -2.355,4.996 -3.172,5.39c-0.517,0.25 -0.76,-0.035 -0.756,-1.01c0.003,-0.74 0.058,-0.968 0.142,-1.512l1.831,-9.742" style="fill:#000;fill-rule:nonzero;"/><path d="M1141.91,39.245l2.312,-1.116c0.49,-0.237 0.708,-0.342 0.71,-0.947c0.002,-0.336 -0.216,-0.231 -0.679,-0.008l-2.122,1.025c0.888,-4.69 0.999,-5.348 1,-5.549c0.002,-0.505 -0.269,-0.676 -0.704,-0.466c-0.055,0.027 -0.735,0.389 -0.957,1.57l-0.971,5.233l-2.313,1.117c-0.463,0.223 -0.708,0.341 -0.71,0.913c-0.001,0.37 0.189,0.278 0.679,0.041l2.122,-1.024c-1.776,9.379 -1.886,9.936 -1.889,10.474c-0.006,1.647 0.914,2.343 2.248,1.7c2.475,-1.196 3.881,-6.27 3.882,-6.505c0.001,-0.303 -0.189,-0.211 -0.298,-0.158c-0.218,0.105 -0.245,0.185 -0.356,0.574c-1.073,3.639 -2.355,4.996 -3.171,5.39c-0.517,0.25 -0.761,-0.035 -0.757,-1.01c0.003,-0.74 0.059,-0.968 0.142,-1.512l1.832,-9.742" style="fill:#000;fill-rule:nonzero;"/><path d="M583.438,187.745l-12.636,4.808l3.105,8.158l12.635,-4.809l-3.104,-8.157Z" style="fill:#fff;"/><path d="M581.067,183.52c-0.001,-0.034 -0.001,-0.333 -0.304,-0.472c-0.576,-0.264 -2.361,-0.849 -3.02,-1.085c-0.192,-0.054 -0.467,-0.147 -0.465,0.386c0.001,0.332 0.22,0.433 0.605,0.609c1.181,0.541 1.237,0.799 1.237,1.099c0.001,0.2 -0.216,1.097 -0.351,1.667l-1.977,8.799c-0.297,1.359 -0.406,1.774 -0.403,2.839c0.009,2.829 1.333,5.264 3.146,6.094c2.911,1.334 5.92,-1.708 5.907,-6.001c-0.008,-2.729 -1.333,-5.363 -3.283,-6.256c-1.126,-0.516 -2.14,-0.15 -2.879,0.442l1.787,-8.121ZM578.792,193.711c0.136,-0.603 0.136,-0.636 0.355,-0.868c1.202,-1.377 2.327,-1.327 2.959,-1.037c0.879,0.403 1.541,1.603 1.547,3.5c0.005,1.764 -0.782,4.827 -1.218,5.757c-0.818,1.619 -1.941,2.168 -2.902,1.728c-0.824,-0.378 -1.651,-1.554 -1.657,-3.751c-0.002,-0.565 -0.004,-1.131 0.375,-2.819l0.541,-2.51" style="fill:#000;fill-rule:nonzero;"/><rect x="383.61" y="223.705" width="28.781" height="22.544" style="fill:#fff;"/><rect x="974.578" y="223.705" width="28.781" height="22.544" style="fill:#fff;"/><path d="M521.508,144.533l-37.454,-16.161l-8.932,20.7l37.455,16.16l8.931,-20.699Z" style="fill:#fff;"/><path d="M1112.48,144.533l-37.454,-16.161l-8.931,20.7l37.454,16.16l8.931,-20.699Z" style="fill:#fff;"/><path d="M497.122,45.098l-36.194,18.813l10.398,20.003l36.194,-18.813l-10.398,-20.003Z" style="fill:#fff;"/><path d="M1088.09,45.098l-36.194,18.813l10.398,20.003l36.194,-18.813l-10.398,-20.003Z" style="fill:#fff;"/><path d="M404.997,230.803c0.133,-0.32 0.213,-0.506 1.624,-0.506l0,-1.118c-0.559,0.053 -1.251,0.053 -1.837,0.053c-0.639,0 -1.757,-0.027 -2.29,-0.053l0,1.118c0.213,0 1.385,0.027 1.385,0.293c0,0.053 -0.08,0.213 -0.107,0.266l-2.503,6.124l-2.716,-6.683l1.358,0l0,-1.118c-0.772,0.026 -2.024,0.053 -2.742,0.053c-0.986,0 -1.998,-0.027 -2.37,-0.053l0,1.118l1.411,0c0.506,1.198 0.506,1.225 0.506,1.251c0,0.107 -0.08,0.24 -0.107,0.32l-1.89,4.58l-2.503,-6.151l1.331,0l0,-1.118c-0.958,0.053 -1.944,0.053 -2.929,0.053c-0.745,0 -1.784,-0.027 -2.583,-0.053l0,1.118l1.385,0l3.648,8.92c0.186,0.4 0.266,0.639 0.879,0.639c0.585,0 0.692,-0.239 0.852,-0.639l2.529,-6.177l2.53,6.177c0.16,0.4 0.266,0.639 0.852,0.639c0.586,0 0.692,-0.239 0.852,-0.639l3.435,-8.414" style="fill:#000;fill-rule:nonzero;"/><path d="M995.964,230.803c0.133,-0.32 0.213,-0.506 1.625,-0.506l0,-1.118c-0.56,0.053 -1.252,0.053 -1.838,0.053c-0.639,0 -1.757,-0.027 -2.29,-0.053l0,1.118c0.213,0 1.385,0.027 1.385,0.293c0,0.053 -0.08,0.213 -0.107,0.266l-2.503,6.124l-2.716,-6.683l1.358,0l0,-1.118c-0.772,0.026 -2.023,0.053 -2.742,0.053c-0.985,0 -1.997,-0.027 -2.37,-0.053l0,1.118l1.411,0c0.506,1.198 0.506,1.225 0.506,1.251c0,0.107 -0.08,0.24 -0.106,0.32l-1.891,4.58l-2.503,-6.151l1.331,0l0,-1.118c-0.958,0.053 -1.943,0.053 -2.929,0.053c-0.745,0 -1.784,-0.027 -2.582,-0.053l0,1.118l1.384,0l3.648,8.92c0.187,0.4 0.266,0.639 0.879,0.639c0.586,0 0.692,-0.239 0.852,-0.639l2.53,-6.177l2.529,6.177c0.16,0.4 0.266,0.639 0.852,0.639c0.586,0 0.693,-0.239 0.852,-0.639l3.435,-8.414" style="fill:#000;fill-rule:nonzero;"/><path d="M412.959,232.667c0,-0.453 -0.027,-0.48 -0.506,-0.48c-1.065,1.066 -2.61,1.092 -3.302,1.092l0,0.586c0.426,0 1.518,0 2.45,-0.453l0,8.574c0,0.56 0,0.773 -1.678,0.773l-0.639,0l0,0.585c0.293,0 2.37,-0.053 2.982,-0.053c0.533,0 2.636,0.053 3.009,0.053l0,-0.585l-0.639,0c-1.677,0 -1.677,-0.213 -1.677,-0.773l0,-9.319" style="fill:#000;fill-rule:nonzero;"/><path d="M485.81,143.294l0,7.376l-1.624,0l0,1.118c0.666,-0.027 2.077,-0.053 3.009,-0.053c0.905,0 2.316,0.026 2.982,0.053l0,-1.118l-1.624,0l0,-4.98c0,-2.609 2.05,-3.754 3.541,-3.754c0.799,0 1.332,0.452 1.332,2.29l0,6.444l-1.651,0l0,1.118c0.665,-0.027 2.103,-0.053 3.009,-0.053c0.932,0 2.343,0.026 3.009,0.053l0,-1.118l-1.651,0l0,-4.98c0,-2.609 2.077,-3.754 3.568,-3.754c0.799,0 1.331,0.452 1.331,2.29l0,6.444l-1.651,0l0,1.118c0.666,-0.027 2.104,-0.053 3.009,-0.053c0.932,0 2.343,0.026 3.009,0.053l0,-1.118l-1.651,0l0,-6.178c0,-2.45 -1.225,-3.435 -3.674,-3.435c-2.184,0 -3.409,1.198 -4.021,2.29c-0.479,-2.21 -2.69,-2.29 -3.595,-2.29c-2.077,0 -3.435,1.092 -4.18,2.583l0,-2.583l-4.101,0.213l0,1.118c1.464,0 1.624,0 1.624,0.906" style="fill:#000;fill-rule:nonzero;"/><path d="M1076.78,143.294l0,7.376l-1.624,0l0,1.118c0.666,-0.027 2.077,-0.053 3.009,-0.053c0.905,0 2.317,0.026 2.982,0.053l0,-1.118l-1.624,0l0,-4.98c0,-2.609 2.05,-3.754 3.542,-3.754c0.798,0 1.331,0.452 1.331,2.29l0,6.444l-1.651,0l0,1.118c0.666,-0.027 2.104,-0.053 3.009,-0.053c0.932,0 2.343,0.026 3.009,0.053l0,-1.118l-1.651,0l0,-4.98c0,-2.609 2.077,-3.754 3.568,-3.754c0.799,0 1.331,0.452 1.331,2.29l0,6.444l-1.651,0l0,1.118c0.666,-0.027 2.104,-0.053 3.009,-0.053c0.932,0 2.344,0.026 3.009,0.053l0,-1.118l-1.651,0l0,-6.178c0,-2.45 -1.225,-3.435 -3.674,-3.435c-2.184,0 -3.409,1.198 -4.021,2.29c-0.479,-2.21 -2.689,-2.29 -3.595,-2.29c-2.077,0 -3.435,1.092 -4.18,2.583l0,-2.583l-4.101,0.213l0,1.118c1.465,0 1.624,0 1.624,0.906" style="fill:#000;fill-rule:nonzero;"/><path d="M511.639,144.705c0,-0.453 -0.027,-0.479 -0.506,-0.479c-1.065,1.065 -2.61,1.091 -3.302,1.091l0,0.586c0.4,0 1.518,0 2.45,-0.452l0,8.574c0,0.559 0,0.772 -1.678,0.772l-0.639,0l0,0.586c0.293,0 2.37,-0.054 2.983,-0.054c0.532,0 2.636,0.054 3.008,0.054l0,-0.586l-0.639,0c-1.677,0 -1.677,-0.213 -1.677,-0.772l0,-9.32" style="fill:#000;fill-rule:nonzero;"/><path d="M477.103,70.331l-1.651,0l0,1.119c0.665,-0.027 2.103,-0.054 3.008,-0.054c0.932,0 2.344,0.027 3.009,0.054l0,-1.119l-1.651,0l0,-4.979c0,-2.61 2.051,-3.755 3.569,-3.755c0.799,0 1.305,0.48 1.305,2.29l0,6.444l-1.651,0l0,1.119c0.666,-0.027 2.103,-0.054 3.008,-0.054c0.932,0 2.344,0.027 3.009,0.054l0,-1.119l-1.651,0l0,-6.177c0,-2.503 -1.278,-3.435 -3.674,-3.435c-2.29,0 -3.515,1.384 -4.048,2.343l0,-8.148l-4.233,0.186l0,1.119c1.491,0 1.651,0 1.651,0.932l0,13.18" style="fill:#000;fill-rule:nonzero;"/><path d="M1068.07,70.331l-1.651,0l0,1.119c0.666,-0.027 2.103,-0.054 3.009,-0.054c0.932,0 2.343,0.027 3.009,0.054l0,-1.119l-1.651,0l0,-4.979c0,-2.61 2.05,-3.755 3.568,-3.755c0.799,0 1.305,0.48 1.305,2.29l0,6.444l-1.651,0l0,1.119c0.666,-0.027 2.103,-0.054 3.009,-0.054c0.931,0 2.343,0.027 3.008,0.054l0,-1.119l-1.651,0l0,-6.177c0,-2.503 -1.278,-3.435 -3.674,-3.435c-2.29,0 -3.515,1.384 -4.047,2.343l0,-8.148l-4.234,0.186l0,1.119c1.491,0 1.651,0 1.651,0.932l0,13.18" style="fill:#000;fill-rule:nonzero;"/><path d="M495.21,64.367c0,-0.453 -0.027,-0.48 -0.507,-0.48c-1.065,1.065 -2.583,1.092 -3.275,1.092l0,0.586c0.4,0 1.518,0 2.423,-0.453l0,8.574c0,0.559 0,0.772 -1.678,0.772l-0.638,0l0,0.586c0.293,0 2.37,-0.053 2.982,-0.053c0.532,0 2.663,0.053 3.035,0.053l0,-0.586l-0.638,0c-1.704,0 -1.704,-0.213 -1.704,-0.772l0,-9.319" style="fill:#000;fill-rule:nonzero;"/><path d="M1002.72,237.633c0.16,-0.586 0.187,-0.692 1.118,-0.692c0.187,0 0.427,0 0.427,-0.346c0,-0.187 -0.134,-0.266 -0.24,-0.266c-0.4,0 -1.411,0.079 -1.811,0.079c-0.373,0 -0.932,-0.026 -1.304,-0.026c-0.427,-0.027 -0.906,-0.053 -1.332,-0.053c-0.106,0 -0.373,0 -0.373,0.372c0,0.24 0.16,0.24 0.666,0.24c0.373,0 0.453,0 0.879,0.027c0.479,0.053 0.532,0.106 0.532,0.319c0,0.107 0,0.133 -0.08,0.373l-1.917,7.695c-0.319,1.278 -1.411,2.317 -2.503,2.317c-0.213,0 -1.278,-0.027 -1.677,-0.852c0.985,0 1.198,-0.799 1.198,-1.092c0,-0.479 -0.399,-0.746 -0.772,-0.746c-0.453,0 -1.119,0.373 -1.119,1.332c0,1.092 1.012,1.837 2.423,1.837c1.651,0 3.515,-1.065 3.941,-2.743l1.944,-7.775" style="fill:#000;fill-rule:nonzero;"/><path d="M1089.36,63.344c0.16,-0.586 0.186,-0.692 1.118,-0.692c0.187,0 0.426,0 0.426,-0.347c0,-0.186 -0.133,-0.266 -0.239,-0.266c-0.4,0 -1.412,0.08 -1.811,0.08c-0.373,0 -0.932,-0.027 -1.305,-0.027c-0.426,-0.026 -0.905,-0.053 -1.331,-0.053c-0.107,0 -0.373,0 -0.373,0.373c0,0.24 0.16,0.24 0.666,0.24c0.373,0 0.452,0 0.878,0.026c0.48,0.054 0.533,0.107 0.533,0.32c0,0.106 0,0.133 -0.08,0.373l-1.917,7.695c-0.32,1.278 -1.411,2.316 -2.503,2.316c-0.213,0 -1.278,-0.026 -1.678,-0.852c0.986,0 1.199,-0.798 1.199,-1.091c0,-0.48 -0.4,-0.746 -0.773,-0.746c-0.452,0 -1.118,0.373 -1.118,1.331c0,1.092 1.012,1.838 2.423,1.838c1.651,0 3.515,-1.065 3.941,-2.743l1.944,-7.775" style="fill:#000;fill-rule:nonzero;"/><path d="M1174.92,187.745l-12.635,4.808l3.104,8.158l12.635,-4.809l-3.104,-8.157Z" style="fill:#fff;"/><path d="M1172.55,183.52c0,-0.034 -0.001,-0.333 -0.303,-0.472c-0.577,-0.264 -2.362,-0.849 -3.021,-1.085c-0.192,-0.054 -0.467,-0.147 -0.465,0.386c0.001,0.332 0.221,0.433 0.605,0.609c1.182,0.541 1.237,0.799 1.238,1.099c0.001,0.2 -0.216,1.097 -0.352,1.667l-1.976,8.799c-0.298,1.359 -0.406,1.774 -0.403,2.839c0.008,2.829 1.332,5.264 3.145,6.094c2.912,1.334 5.92,-1.708 5.908,-6.001c-0.009,-2.729 -1.333,-5.363 -3.283,-6.256c-1.127,-0.516 -2.14,-0.15 -2.879,0.442l1.786,-8.121ZM1170.28,193.711c0.135,-0.603 0.135,-0.636 0.354,-0.868c1.203,-1.377 2.328,-1.327 2.96,-1.037c0.879,0.403 1.54,1.603 1.546,3.5c0.005,1.764 -0.781,4.827 -1.217,5.757c-0.818,1.619 -1.941,2.168 -2.903,1.728c-0.824,-0.378 -1.65,-1.554 -1.657,-3.751c-0.002,-0.565 -0.003,-1.131 0.376,-2.819l0.541,-2.51" style="fill:#000;fill-rule:nonzero;"/></svg>