<?xml version="1.0" encoding="utf-8" standalone="no"?>
<!DOCTYPE svg PUBLIC "-//W3C//DTD SVG 1.1//EN"
  "http://www.w3.org/Graphics/SVG/1.1/DTD/svg11.dtd">
<!-- Created with matplotlib (http://matplotlib.org/) -->
<svg height="224pt" version="1.1" viewBox="0 0 504 224" width="504pt" xmlns="http://www.w3.org/2000/svg" xmlns:xlink="http://www.w3.org/1999/xlink">
 <defs>
  <style type="text/css">
*{stroke-linecap:butt;stroke-linejoin:round;stroke-miterlimit:100000;}
  </style>
 </defs>
 <g id="figure_1">
  <g id="patch_1">
   <path d="M 0 224.64 
L 504.64 224.64 
L 504.64 0 
L 0 0 
z
" style="fill:#ffffff;"/>
  </g>
  <g id="axes_1">
   <g id="patch_2">
    <path d="M 36.695846 189.785698 
L 497.44 189.785698 
L 497.44 11.260548 
L 36.695846 11.260548 
z
" style="fill:#ffffff;"/>
   </g>
   <g id="matplotlib.axis_1">
    <g id="xtick_1">
     <g id="line2d_1">
      <defs>
       <path d="M 0 0 
L 0 0 
" id="m7931e9ab8f" style="stroke:#262626;stroke-width:0.8;"/>
      </defs>
      <g>
       <use style="fill:#262626;stroke:#262626;stroke-width:0.8;" x="82.7702613101" xlink:href="#m7931e9ab8f" y="189.785698017"/>
      </g>
     </g>
     <g id="text_1">
      <!-- 2 -->
      <defs>
       <path d="M 22.703125 68 
C 14.40625 68 8.09375 64.6875 2.703125 58.0625 
L 8.40625 53.640625 
C 12.59375 58.65625 16.5 61.0625 22.296875 61.0625 
C 29 61.0625 33.59375 56.75 33.59375 49.4375 
C 33.59375 38.3125 27.796875 31.78125 4 6.71875 
L 4 0 
L 43 0 
L 44 7.125 
L 13.59375 7.125 
C 34.5 28.390625 42.40625 37.109375 42.40625 49.84375 
C 42.40625 60.171875 34.796875 68 22.703125 68 
" id="Fira_Sans_Book-50"/>
      </defs>
      <g style="fill:#262626;" transform="translate(80.6828285628 201.715750603)scale(0.1 -0.1)">
       <use transform="scale(0.846830489181)" xlink:href="#Fira_Sans_Book-50"/>
      </g>
     </g>
    </g>
    <g id="xtick_2">
     <g id="line2d_2">
      <g>
       <use style="fill:#262626;stroke:#262626;stroke-width:0.8;" x="174.91909213" xlink:href="#m7931e9ab8f" y="189.785698017"/>
      </g>
     </g>
     <g id="text_2">
      <!-- 3 -->
      <defs>
       <path d="M 22.40625 68 
C 15.203125 68 9.09375 65.390625 3.5 60.171875 
L 7.90625 55.21875 
C 12.5 59.390625 16.59375 61.171875 21.90625 61.171875 
C 28.90625 61.171875 33.40625 57.203125 33.40625 50.640625 
C 33.40625 42.59375 27.703125 38.53125 21 38.53125 
L 17.59375 38.53125 
L 16.59375 32 
L 21.5 32 
C 29.796875 32 35.09375 29 35.09375 19.453125 
C 35.09375 11.34375 29.90625 5.921875 21.203125 5.921875 
C 15.703125 5.921875 11.203125 7.9375 6.703125 12.640625 
L 1.59375 7.921875 
C 6.703125 1.90625 13.5 -1 21.5 -1 
C 35.203125 -1 43.90625 7.734375 43.90625 19.453125 
C 43.90625 29.6875 37.203125 35.109375 28.796875 35.8125 
C 36.296875 37.5 41.90625 42.578125 41.90625 51.15625 
C 41.90625 60.21875 34.90625 68 22.40625 68 
" id="Fira_Sans_Book-51"/>
      </defs>
      <g style="fill:#262626;" transform="translate(172.857061561 201.715750603)scale(0.1 -0.1)">
       <use transform="scale(0.846830489181)" xlink:href="#Fira_Sans_Book-51"/>
      </g>
     </g>
    </g>
    <g id="xtick_3">
     <g id="line2d_3">
      <g>
       <use style="fill:#262626;stroke:#262626;stroke-width:0.8;" x="267.06792295" xlink:href="#m7931e9ab8f" y="189.785698017"/>
      </g>
     </g>
     <g id="text_3">
      <!-- 4 -->
      <defs>
       <path d="M 49.703125 23.828125 
L 41 23.828125 
L 41 41.953125 
L 33.703125 41.953125 
L 32.90625 23.828125 
L 13 23.828125 
L 31.296875 65.140625 
L 24.296875 68.0625 
L 4.09375 23.125 
L 4.09375 17 
L 32.796875 17 
L 32.796875 0 
L 41 0 
L 41 17 
L 49.703125 17 
z
" id="Fira_Sans_Book-52"/>
      </defs>
      <g style="fill:#262626;" transform="translate(265.005892381 201.715750603)scale(0.1 -0.1)">
       <use transform="scale(0.846830489181)" xlink:href="#Fira_Sans_Book-52"/>
      </g>
     </g>
    </g>
    <g id="xtick_4">
     <g id="line2d_4">
      <g>
       <use style="fill:#262626;stroke:#262626;stroke-width:0.8;" x="359.21675377" xlink:href="#m7931e9ab8f" y="189.785698017"/>
      </g>
     </g>
     <g id="text_4">
      <!-- 5 -->
      <defs>
       <path d="M 42.90625 67 
L 7.296875 67 
L 7.296875 33.859375 
L 13.90625 33.859375 
C 17.203125 35.578125 19.90625 36.375 23.703125 36.375 
C 30.90625 36.375 36.40625 32.546875 36.40625 21.96875 
C 36.40625 11.78125 30.90625 5.921875 22.296875 5.921875 
C 16.296875 5.921875 12 8.046875 7.90625 12.484375 
L 2.796875 7.4375 
C 7.90625 2.203125 13.90625 -1 22.296875 -1 
C 36.09375 -1 45.09375 8.359375 45.09375 21.765625 
C 45.09375 35.046875 37.5 43 26.203125 43 
C 22.40625 43 18.796875 42.09375 15.296875 40.296875 
L 15.296875 60.375 
L 41.703125 60.375 
z
" id="Fira_Sans_Book-53"/>
      </defs>
      <g style="fill:#262626;" transform="translate(357.146255808 201.715750603)scale(0.1 -0.1)">
       <use transform="scale(0.846830489181)" xlink:href="#Fira_Sans_Book-53"/>
      </g>
     </g>
    </g>
    <g id="xtick_5">
     <g id="line2d_5">
      <g>
       <use style="fill:#262626;stroke:#262626;stroke-width:0.8;" x="451.36558459" xlink:href="#m7931e9ab8f" y="189.785698017"/>
      </g>
     </g>
     <g id="text_5">
      <!-- 6 -->
      <defs>
       <path d="M 30.5 44 
C 24 44 18.59375 41.1875 14.203125 34.96875 
C 14.59375 50.65625 20.59375 61.265625 30.59375 61.265625 
C 34.40625 61.265625 37.796875 60.265625 40.90625 58.375 
L 44.203125 63.984375 
C 40.40625 66.484375 36.09375 68 30.703125 68 
C 15.203125 68 5.796875 53.5 5.796875 31.296875 
C 5.796875 12.5 11.796875 -1 27.90625 -1 
C 39.59375 -1 48.796875 8.203125 48.796875 22.796875 
C 48.796875 37.109375 40.296875 44 30.5 44 
M 27.90625 5.71875 
C 18.59375 5.71875 14.703125 13.109375 14.296875 27.6875 
C 17.703125 33.375 22.90625 37.265625 29.09375 37.265625 
C 35.59375 37.265625 40.296875 33.375 40.296875 22.59375 
C 40.296875 12.515625 36.09375 5.71875 27.90625 5.71875 
" id="Fira_Sans_Book-54"/>
      </defs>
      <g style="fill:#262626;" transform="translate(449.087612702 201.715750603)scale(0.1 -0.1)">
       <use transform="scale(0.846830489181)" xlink:href="#Fira_Sans_Book-54"/>
      </g>
     </g>
    </g>
    <g id="text_6">
     <!-- Number of components -->
     <defs>
      <path d="M 57.796875 69.0625 
L 49.703125 69.0625 
L 49.703125 30.421875 
C 49.703125 21.875 50.59375 11.34375 50.796875 9.4375 
L 21.59375 69.0625 
L 10.296875 69.0625 
L 10.296875 0 
L 18.40625 0 
L 18.40625 33.328125 
C 18.40625 46.078125 17.703125 54 17.203125 59.53125 
L 46.203125 0 
L 57.796875 0 
z
" id="Fira_Sans_Book-78"/>
      <path d="M 29.09375 54 
C 14.40625 54 5.90625 42.90625 5.90625 26.40625 
C 5.90625 9.6875 14.296875 -1 29 -1 
C 43.703125 -1 52.203125 10.09375 52.203125 26.59375 
C 52.203125 43.40625 43.90625 54 29.09375 54 
M 29.09375 47.171875 
C 38.203125 47.171875 43.203125 40.484375 43.203125 26.59375 
C 43.203125 12.515625 38.09375 5.828125 29 5.828125 
C 19.90625 5.828125 14.90625 12.515625 14.90625 26.40625 
C 14.90625 40.484375 20.09375 47.171875 29.09375 47.171875 
" id="Fira_Sans_Book-111"/>
      <path d="M 34.203125 54 
C 27.09375 54 21.5 50.296875 17.703125 44.765625 
L 17 52.796875 
L 9.796875 52.796875 
L 9.796875 0 
L 18.203125 0 
L 18.203125 37.640625 
C 21.796875 43.46875 26 47.375 32.203125 47.375 
C 37.59375 47.375 40.90625 44.765625 40.90625 36.640625 
L 40.90625 0 
L 49.296875 0 
L 49.296875 37.84375 
C 49.296875 47.875 43.796875 54 34.203125 54 
" id="Fira_Sans_Book-110"/>
      <path d="M 27.09375 68 
C 29.90625 68 33 67.5 36.40625 65.984375 
L 39.09375 72.109375 
C 35 73.921875 31.5 74.828125 26.59375 74.828125 
C 16.296875 74.828125 10.59375 68.796875 10.59375 60.0625 
L 10.59375 52.515625 
L 1.296875 52.515625 
L 1.296875 46 
L 10.59375 46 
L 10.59375 -0.5 
L 19 -0.5 
L 19 46 
L 31.09375 46 
L 32 52.515625 
L 19 52.515625 
L 19 60.15625 
C 19 65.5 21.203125 68 27.09375 68 
" id="Fira_Sans_Book-102"/>
      <path d="M 48.90625 28.34375 
C 48.90625 44.15625 41.59375 54 27.5 54 
C 14.09375 54 5.90625 42.5 5.90625 26 
C 5.90625 9.3125 14.40625 -1 28.90625 -1 
C 36.09375 -1 41.90625 1.515625 47 5.625 
L 43.296875 10.65625 
C 38.703125 7.4375 34.796875 5.921875 29.5 5.921875 
C 21.59375 5.921875 15.59375 10.953125 14.796875 23.765625 
L 48.703125 23.765625 
C 48.796875 24.859375 48.90625 26.546875 48.90625 28.34375 
M 40.59375 30 
L 14.796875 30 
C 15.5 42.140625 20.40625 47.28125 27.703125 47.28125 
C 36.40625 47.28125 40.59375 41.25 40.59375 30.78125 
z
" id="Fira_Sans_Book-101"/>
      <path d="M 23.703125 54 
C 13 54 5.09375 48.015625 5.09375 39.71875 
C 5.09375 32.3125 9.59375 27.609375 20.90625 24.609375 
C 31.296875 21.828125 34 19.8125 34 14.328125 
C 34 9.015625 29.296875 5.828125 22.296875 5.828125 
C 16.40625 5.828125 11.59375 7.8125 7.296875 11.015625 
L 2.796875 5.921875 
C 7.40625 1.90625 13.59375 -1 22.5 -1 
C 33.09375 -1 42.796875 4.109375 42.796875 14.796875 
C 42.796875 23.984375 36.59375 28.1875 25.5 31.078125 
C 16.796875 33.390625 13.796875 35.375 13.796875 39.875 
C 13.796875 44.375 17.796875 47.28125 24 47.28125 
C 29 47.28125 33 45.78125 37.703125 42.6875 
L 41.296875 47.984375 
C 36.296875 51.796875 30.90625 54 23.703125 54 
" id="Fira_Sans_Book-115"/>
      <path d="M 32 54 
C 25.5 54 20.59375 49.890625 17.796875 41.75 
L 17 52.796875 
L 9.796875 52.796875 
L 9.796875 0 
L 18.203125 0 
L 18.203125 30.609375 
C 20.5 40.953125 24.296875 45.765625 31.09375 45.765625 
C 33 45.765625 34.09375 45.578125 35.703125 45.15625 
L 37.203125 53.40625 
C 35.703125 53.796875 33.796875 54 32 54 
" id="Fira_Sans_Book-114"/>
      <path d="M 48.40625 53 
L 40 53 
L 40 15.15625 
C 36.703125 9.640625 32.296875 5.71875 26.296875 5.71875 
C 20.296875 5.71875 17.703125 8.53125 17.703125 16.0625 
L 17.703125 53 
L 9.296875 53 
L 9.296875 15.15625 
C 9.296875 4.828125 14.703125 -1 24 -1 
C 31.59375 -1 36.59375 2.3125 40.5 8.734375 
L 41.203125 0.203125 
L 48.40625 0.203125 
z
" id="Fira_Sans_Book-117"/>
      <path d="M 32.5 8.34375 
C 29.90625 6.734375 27.703125 6.03125 25.203125 6.03125 
C 20.5 6.03125 18.59375 8.640625 18.59375 14.15625 
L 18.59375 46.484375 
L 30.40625 46.484375 
L 31.296875 53 
L 18.59375 53 
L 18.59375 66.046875 
L 10.203125 65.140625 
L 10.203125 53 
L 1.09375 53 
L 1.09375 46.484375 
L 10.203125 46.484375 
L 10.203125 13.75 
C 10.203125 4.125 15.40625 -1 24.09375 -1 
C 28.5 -1 32.296875 0.203125 35.703125 2.515625 
z
" id="Fira_Sans_Book-116"/>
      <path d="M 28.703125 54.015625 
C 14.59375 54.015625 5.90625 42.90625 5.90625 26.109375 
C 5.90625 9.109375 14.703125 -1 28.703125 -1 
C 34.703125 -1 40 1 44.5 4.8125 
L 40.59375 10.421875 
C 36.703125 7.625 33.5 6.21875 29 6.21875 
C 20.40625 6.21875 14.90625 12.21875 14.90625 26.203125 
C 14.90625 40.296875 20.40625 47 29 47 
C 33.5 47 36.90625 45.703125 40.40625 43.109375 
L 44.5 48.40625 
C 39.703125 52.40625 34.796875 54.015625 28.703125 54.015625 
" id="Fira_Sans_Book-99"/>
      <path d="M 33.296875 54 
C 26.796875 54 21.796875 50.984375 18.203125 45.984375 
L 18.203125 75.078125 
L 9.796875 74.078125 
L 9.796875 0.203125 
L 17.09375 0.203125 
L 18 6.21875 
C 21.5 1.8125 26.296875 -1 32.203125 -1 
C 45 -1 52.703125 10 52.703125 26.59375 
C 52.703125 44.09375 45.203125 54 33.296875 54 
M 30.296875 5.71875 
C 25.296875 5.71875 21 8.8125 18.203125 13.109375 
L 18.203125 38.890625 
C 21 43.171875 25 47.28125 31 47.28125 
C 38.703125 47.28125 43.703125 41.6875 43.703125 26.59375 
C 43.703125 12.015625 38.296875 5.71875 30.296875 5.71875 
" id="Fira_Sans_Book-98"/>
      <path d="M 62.203125 54 
C 55.09375 54 50.203125 50.09375 46.296875 44.265625 
C 44.40625 50.390625 39.59375 54 33.09375 54 
C 26.296875 54 21.296875 50.296875 17.703125 44.765625 
L 17 52.796875 
L 9.796875 52.796875 
L 9.796875 0 
L 18.203125 0 
L 18.203125 37.640625 
C 21.796875 43.46875 25.296875 47.375 31.09375 47.375 
C 35.40625 47.375 38.796875 44.765625 38.796875 36.640625 
L 38.796875 0 
L 47.203125 0 
L 47.203125 37.640625 
C 50.90625 43.46875 54.296875 47.375 60.203125 47.375 
C 64.5 47.375 67.90625 44.765625 67.90625 36.640625 
L 67.90625 0 
L 76.296875 0 
L 76.296875 37.84375 
C 76.296875 47.78125 70.796875 54 62.203125 54 
" id="Fira_Sans_Book-109"/>
      <path d="M 33.296875 54 
C 27.09375 54 21.5 50.890625 17.59375 45.484375 
L 17 52.796875 
L 9.796875 52.796875 
L 9.796875 -20.96875 
L 18.203125 -19.96875 
L 18.203125 5.3125 
C 21.5 1.203125 26.296875 -1 32.203125 -1 
C 45.703125 -1 52.703125 10.5 52.703125 26.59375 
C 52.703125 43.3125 47.09375 54 33.296875 54 
M 30.296875 5.921875 
C 25.203125 5.921875 21 8.421875 18.203125 12.71875 
L 18.203125 38.890625 
C 21.09375 43.171875 25.5 47.28125 31.296875 47.28125 
C 39.5 47.28125 43.703125 40.578125 43.703125 26.59375 
C 43.703125 12.515625 39 5.921875 30.296875 5.921875 
" id="Fira_Sans_Book-112"/>
     </defs>
     <g style="fill:#262626;" transform="translate(217.222707498 215.469849004)scale(0.11 -0.11)">
      <use transform="scale(0.846830489181)" xlink:href="#Fira_Sans_Book-78"/>
      <use transform="translate(57.6691319904 0.0)scale(0.846830489181)" xlink:href="#Fira_Sans_Book-117"/>
      <use transform="translate(106.870004694 0.0)scale(0.846830489181)" xlink:href="#Fira_Sans_Book-109"/>
      <use transform="translate(179.358685447 0.0)scale(0.846830489181)" xlink:href="#Fira_Sans_Book-98"/>
      <use transform="translate(229.406327833 0.0)scale(0.846830489181)" xlink:href="#Fira_Sans_Book-101"/>
      <use transform="translate(275.727937349 0.0)scale(0.846830489181)" xlink:href="#Fira_Sans_Book-114"/>
      <use transform="translate(330.856577872 0.0)scale(0.846830489181)" xlink:href="#Fira_Sans_Book-111"/>
      <use transform="translate(380.057450576 0.0)scale(0.846830489181)" xlink:href="#Fira_Sans_Book-102"/>
      <use transform="translate(430.867203918 0.0)scale(0.846830489181)" xlink:href="#Fira_Sans_Book-99"/>
      <use transform="translate(470.329449987 0.0)scale(0.846830489181)" xlink:href="#Fira_Sans_Book-111"/>
      <use transform="translate(519.530322691 0.0)scale(0.846830489181)" xlink:href="#Fira_Sans_Book-109"/>
      <use transform="translate(592.019003444 0.0)scale(0.846830489181)" xlink:href="#Fira_Sans_Book-112"/>
      <use transform="translate(642.06664583 0.0)scale(0.846830489181)" xlink:href="#Fira_Sans_Book-111"/>
      <use transform="translate(691.267518534 0.0)scale(0.846830489181)" xlink:href="#Fira_Sans_Book-110"/>
      <use transform="translate(740.807102151 0.0)scale(0.846830489181)" xlink:href="#Fira_Sans_Book-101"/>
      <use transform="translate(787.128711667 0.0)scale(0.846830489181)" xlink:href="#Fira_Sans_Book-110"/>
      <use transform="translate(836.668295284 0.0)scale(0.846830489181)" xlink:href="#Fira_Sans_Book-116"/>
      <use transform="translate(866.815451578 0.0)scale(0.846830489181)" xlink:href="#Fira_Sans_Book-115"/>
     </g>
    </g>
   </g>
   <g id="matplotlib.axis_2">
    <g id="ytick_1">
     <g id="line2d_6">
      <g>
       <use style="fill:#262626;stroke:#262626;stroke-width:0.8;" x="36.6958459001" xlink:href="#m7931e9ab8f" y="189.785698017"/>
      </g>
     </g>
     <g id="text_7">
      <!-- $4$ -->
      <defs>
       <path d="M 48.90625 24 
L 37.296875 24 
L 37.296875 67.59375 
L 32.296875 67.59375 
L 1.09375 23.703125 
L 1.09375 16.90625 
L 29.40625 16.90625 
L 29.40625 0 
L 37.296875 0 
L 37.296875 16.90625 
L 45.59375 16.90625 
z
M 29.40625 24 
L 10 24 
L 29.40625 51.140625 
z
" id="zsf_Math_Italic_Additions_Regular-133"/>
      </defs>
      <g style="fill:#262626;" transform="translate(26.1145258503 192.055202512)scale(0.1 -0.1)">
       <use transform="scale(0.996264009963)" xlink:href="#zsf_Math_Italic_Additions_Regular-133"/>
      </g>
     </g>
    </g>
    <g id="ytick_2">
     <g id="line2d_7">
      <g>
       <use style="fill:#262626;stroke:#262626;stroke-width:0.8;" x="36.6958459001" xlink:href="#m7931e9ab8f" y="160.031506363"/>
      </g>
     </g>
     <g id="text_8">
      <!-- $5$ -->
      <defs>
       <path d="M 45.796875 68 
L 19.59375 68 
L 8 42.8125 
L 9.40625 41.109375 
C 19 41.109375 25.59375 39.3125 30.09375 35.609375 
C 34.40625 32.203125 36.703125 27.90625 36.703125 23 
C 36.703125 14.5 30.796875 6.109375 20.5 6.109375 
C 16.203125 6.109375 11.796875 7.8125 8.296875 11.609375 
L 3.59375 6.015625 
C 8.796875 0.3125 14.796875 -1 21 -1 
C 34.703125 -1 44.59375 10 44.59375 23 
C 44.59375 38.109375 32.59375 46.203125 18.5 48.203125 
L 24.90625 60.90625 
L 42.59375 60.90625 
z
" id="zsf_Math_Italic_Additions_Regular-134"/>
      </defs>
      <g style="fill:#262626;" transform="translate(26.1145258503 162.301010858)scale(0.1 -0.1)">
       <use transform="scale(0.996264009963)" xlink:href="#zsf_Math_Italic_Additions_Regular-134"/>
      </g>
     </g>
    </g>
    <g id="ytick_3">
     <g id="line2d_8">
      <g>
       <use style="fill:#262626;stroke:#262626;stroke-width:0.8;" x="36.6958459001" xlink:href="#m7931e9ab8f" y="130.277314709"/>
      </g>
     </g>
     <g id="text_9">
      <!-- $6$ -->
      <defs>
       <path d="M 44.796875 66.796875 
L 44.703125 68.40625 
C 30.5 67.015625 23.796875 65.515625 14.296875 56.28125 
C 7.5 49.609375 3.203125 37.765625 3.203125 26.65625 
C 3.203125 12.328125 9.5 -1 25.703125 -1 
C 38.203125 -1 47 9.609375 47 22.1875 
C 47 35.171875 36.796875 43.09375 25.90625 43.09375 
C 20.90625 43.09375 16.296875 41.796875 12.203125 38.796875 
C 16.90625 53 28.09375 60.40625 43 61.5 
z
M 39 20.90625 
C 39 12.328125 33.296875 6.109375 26 6.109375 
C 16.703125 6.109375 11.203125 13.703125 11.203125 24.15625 
C 12.5 32.25 18.59375 36 25.09375 36 
C 32.09375 36 39 30.859375 39 20.90625 
" id="zsf_Math_Italic_Additions_Regular-135"/>
      </defs>
      <g style="fill:#262626;" transform="translate(26.1145258503 132.546819203)scale(0.1 -0.1)">
       <use transform="scale(0.996264009963)" xlink:href="#zsf_Math_Italic_Additions_Regular-135"/>
      </g>
     </g>
    </g>
    <g id="ytick_4">
     <g id="line2d_9">
      <g>
       <use style="fill:#262626;stroke:#262626;stroke-width:0.8;" x="36.6958459001" xlink:href="#m7931e9ab8f" y="100.523123054"/>
      </g>
     </g>
     <g id="text_10">
      <!-- $7$ -->
      <defs>
       <path d="M 45.09375 64.109375 
L 45.09375 66.109375 
L 6.90625 66.109375 
L 3.796875 59 
L 35.40625 59 
L 14.796875 -1 
L 23 -1 
z
" id="zsf_Math_Italic_Additions_Regular-136"/>
      </defs>
      <g style="fill:#262626;" transform="translate(26.1145258503 102.792627549)scale(0.1 -0.1)">
       <use transform="scale(0.996264009963)" xlink:href="#zsf_Math_Italic_Additions_Regular-136"/>
      </g>
     </g>
    </g>
    <g id="ytick_5">
     <g id="line2d_10">
      <g>
       <use style="fill:#262626;stroke:#262626;stroke-width:0.8;" x="36.6958459001" xlink:href="#m7931e9ab8f" y="70.7689313998"/>
      </g>
     </g>
     <g id="text_11">
      <!-- $8$ -->
      <defs>
       <path d="M 44.703125 16.5 
C 44.703125 24.3125 39.796875 30.40625 31.09375 35.703125 
C 39.59375 40.609375 42.703125 44.90625 42.703125 52.40625 
C 42.703125 60.3125 35.59375 68 25.59375 68 
C 14.40625 68 6 61.5 6 51.8125 
C 6 45.8125 8.703125 40.203125 17.703125 34.90625 
C 7.796875 28.203125 4.90625 22.609375 4.90625 15.8125 
C 4.90625 6.3125 13.40625 -1 24.796875 -1 
C 37.796875 -1 44.703125 7.3125 44.703125 16.5 
M 35.5 51.90625 
C 35.5 47 31.296875 43.3125 24.90625 39.8125 
C 17 43.40625 13.90625 46.3125 13.90625 52.203125 
C 13.90625 56.5 18 60.90625 24.40625 60.90625 
C 30.90625 60.90625 35.5 57.3125 35.5 51.90625 
M 27.59375 29 
C 34.296875 25.40625 36.796875 21.703125 36.796875 16.203125 
C 36.796875 9.8125 30.90625 6.109375 25.203125 6.109375 
C 16.796875 6.109375 12.796875 11.109375 12.796875 16.703125 
C 12.796875 22.203125 17 28.40625 24.09375 30.90625 
z
" id="zsf_Math_Italic_Additions_Regular-137"/>
      </defs>
      <g style="fill:#262626;" transform="translate(26.1145258503 73.0384358947)scale(0.1 -0.1)">
       <use transform="scale(0.996264009963)" xlink:href="#zsf_Math_Italic_Additions_Regular-137"/>
      </g>
     </g>
    </g>
    <g id="ytick_6">
     <g id="line2d_11">
      <g>
       <use style="fill:#262626;stroke:#262626;stroke-width:0.8;" x="36.6958459001" xlink:href="#m7931e9ab8f" y="41.0147397455"/>
      </g>
     </g>
     <g id="text_12">
      <!-- $9$ -->
      <defs>
       <path d="M 5.5 -0.296875 
L 5.703125 -2.1875 
C 19.5 -0.8125 26.09375 0.796875 35.5 9.921875 
C 42.296875 16.5 46.59375 28.4375 46.59375 39.453125 
C 46.59375 53.875 40.40625 67.09375 24.203125 67.09375 
C 11.59375 67.09375 2.796875 56.5 2.796875 43.921875 
C 2.796875 30.921875 13 23 23.90625 23 
C 28.796875 23 33.5 24.3125 37.59375 27.40625 
C 32.90625 13.109375 21.703125 5.703125 6.796875 4.609375 
z
M 38.59375 41.9375 
C 37.296875 33.859375 31.203125 30.203125 24.703125 30.203125 
C 17.703125 30.203125 10.796875 35.25 10.796875 45.296875 
C 10.796875 53.875 16.59375 60 23.90625 60 
C 33 60 38.5 52.296875 38.59375 41.9375 
" id="zsf_Math_Italic_Additions_Regular-138"/>
      </defs>
      <g style="fill:#262626;" transform="translate(26.1145258503 43.2842442403)scale(0.1 -0.1)">
       <use transform="scale(0.996264009963)" xlink:href="#zsf_Math_Italic_Additions_Regular-138"/>
      </g>
     </g>
    </g>
    <g id="ytick_7">
     <g id="line2d_12">
      <g>
       <use style="fill:#262626;stroke:#262626;stroke-width:0.8;" x="36.6958459001" xlink:href="#m7931e9ab8f" y="11.2605480911"/>
      </g>
     </g>
     <g id="text_13">
      <!-- $10$ -->
      <defs>
       <path d="M 47.703125 33.40625 
C 47.703125 53.90625 38.5 68 25.40625 68 
C 9.203125 68 2.296875 51.703125 2.296875 34 
C 2.296875 17.609375 7.796875 -1 25 -1 
C 41.40625 -1 47.703125 16.203125 47.703125 33.40625 
M 39.796875 33.40625 
C 39.796875 19.8125 35.703125 6.109375 25 6.109375 
C 13.703125 6.109375 10.203125 20.90625 10.203125 33.8125 
C 10.203125 48 14.703125 60.90625 25.203125 60.90625 
C 33.90625 60.90625 39.796875 49.703125 39.796875 33.40625 
" id="zsf_Math_Italic_Additions_Regular-129"/>
       <path d="M 30.203125 0 
L 30.203125 67.203125 
L 28.796875 67.703125 
L 10.796875 58.5 
L 10.796875 51.203125 
C 14.40625 53 18.59375 55.296875 22.296875 57 
L 22.296875 0 
z
" id="zsf_Math_Italic_Additions_Regular-130"/>
      </defs>
      <g style="fill:#262626;" transform="translate(21.1332058005 13.530052586)scale(0.1 -0.1)">
       <use transform="scale(0.996264009963)" xlink:href="#zsf_Math_Italic_Additions_Regular-130"/>
       <use transform="translate(49.8132004981 0.0)scale(0.996264009963)" xlink:href="#zsf_Math_Italic_Additions_Regular-129"/>
      </g>
     </g>
    </g>
    <g id="text_14">
     <!-- SDR -->
     <defs>
      <path d="M 47.09375 0.5 
L 57.40625 0.5 
L 38.796875 31.5 
C 48.59375 34.375 53.796875 40.046875 53.796875 49.796875 
C 53.796875 62.4375 45 69 28 69 
L 10.296875 69 
L 10.296875 0.5 
L 18.90625 0.5 
L 18.90625 30 
L 30.296875 30 
z
M 18.90625 36.71875 
L 18.90625 62.171875 
L 27.90625 62.171875 
C 39.59375 62.171875 44.59375 58.40625 44.59375 49.796875 
C 44.59375 40.390625 38.90625 36.71875 29 36.71875 
z
" id="Fira_Sans_Book-82"/>
      <path d="M 26.90625 70.234375 
C 14.40625 70.234375 5.59375 62.84375 5.59375 52.53125 
C 5.59375 42.03125 12.296875 36.9375 25.796875 32.828125 
C 37.59375 29.234375 41 26.125 41 19.03125 
C 41 10.53125 34.203125 6.21875 25.796875 6.21875 
C 18.203125 6.21875 12.796875 8.921875 7.703125 13.3125 
L 2.796875 7.8125 
C 8.5 2.3125 16.09375 -1 25.90625 -1 
C 41 -1 50 7.296875 50 19.296875 
C 50 32.203125 41.09375 36.59375 29.796875 40 
C 17.40625 43.796875 14.5 46.703125 14.5 52.796875 
C 14.5 59.515625 20 63 27.296875 63 
C 33.09375 63 37.90625 61.203125 43.09375 57 
L 47.796875 62.296875 
C 42.203125 67.421875 36.296875 70.234375 26.90625 70.234375 
" id="Fira_Sans_Book-83"/>
      <path d="M 24.5 69.03125 
L 10.296875 69.03125 
L 10.296875 0 
L 26.296875 0 
C 41 0 58.40625 6.625 58.40625 34.921875 
C 58.40625 63.5 41.703125 69.03125 24.5 69.03125 
M 26.296875 62 
C 37.5 62 49.09375 58.6875 49.09375 34.921875 
C 49.09375 11.75 38 6.921875 27 6.921875 
L 18.90625 6.921875 
L 18.90625 62 
z
" id="Fira_Sans_Book-68"/>
     </defs>
     <g style="fill:#262626;" transform="translate(14.1630548042 108.84152317)rotate(-90.0)scale(0.11 -0.11)">
      <use transform="scale(0.846830489181)" xlink:href="#Fira_Sans_Book-83"/>
      <use transform="translate(46.0675421272 0.0)scale(0.846830489181)" xlink:href="#Fira_Sans_Book-68"/>
      <use transform="translate(100.349352161 0.0)scale(0.846830489181)" xlink:href="#Fira_Sans_Book-82"/>
     </g>
    </g>
   </g>
   <g id="PathCollection_1">
    <path clip-path="url(#p3b89372d5d)" d="M 77.010959 78.773546 
L 73.852608 85.090249 
L 80.169311 85.090249 
z
" style="fill:#4878cf;stroke:#4878cf;stroke-width:1.89;"/>
    <path clip-path="url(#p3b89372d5d)" d="M 169.15979 72.479717 
L 166.001439 78.79642 
L 172.318142 78.79642 
z
" style="fill:#4878cf;stroke:#4878cf;stroke-width:1.89;"/>
    <path clip-path="url(#p3b89372d5d)" d="M 261.308621 73.48528 
L 258.150269 79.801983 
L 264.466973 79.801983 
z
" style="fill:#4878cf;stroke:#4878cf;stroke-width:1.89;"/>
    <path clip-path="url(#p3b89372d5d)" d="M 353.457452 66.61663 
L 350.2991 72.933334 
L 356.615803 72.933334 
z
" style="fill:#4878cf;stroke:#4878cf;stroke-width:1.89;"/>
    <path clip-path="url(#p3b89372d5d)" d="M 445.606283 77.868911 
L 442.447931 84.185614 
L 448.764634 84.185614 
z
" style="fill:#4878cf;stroke:#4878cf;stroke-width:1.89;"/>
   </g>
   <g id="line2d_13">
    <path clip-path="url(#p3b89372d5d)" d="M 77.010959 81.931897 
L 169.15979 75.638069 
L 261.308621 76.643632 
L 353.457452 69.774982 
L 445.606283 81.027263 
" style="fill:none;stroke:#4878cf;stroke-linecap:round;stroke-width:2.52;"/>
   </g>
   <g id="line2d_14">
    <path clip-path="url(#p3b89372d5d)" d="M 77.010959 84.839686 
L 77.010959 73.778221 
" style="fill:none;stroke:#4878cf;stroke-linecap:round;stroke-width:2.52;"/>
   </g>
   <g id="line2d_15">
    <path clip-path="url(#p3b89372d5d)" d="M 169.15979 95.885732 
L 169.15979 63.356522 
" style="fill:none;stroke:#4878cf;stroke-linecap:round;stroke-width:2.52;"/>
   </g>
   <g id="line2d_16">
    <path clip-path="url(#p3b89372d5d)" d="M 261.308621 91.046172 
L 261.308621 62.615569 
" style="fill:none;stroke:#4878cf;stroke-linecap:round;stroke-width:2.52;"/>
   </g>
   <g id="line2d_17">
    <path clip-path="url(#p3b89372d5d)" d="M 353.457452 85.247262 
L 353.457452 56.957134 
" style="fill:none;stroke:#4878cf;stroke-linecap:round;stroke-width:2.52;"/>
   </g>
   <g id="line2d_18">
    <path clip-path="url(#p3b89372d5d)" d="M 445.606283 94.609372 
L 445.606283 63.716651 
" style="fill:none;stroke:#4878cf;stroke-linecap:round;stroke-width:2.52;"/>
   </g>
   <g id="PathCollection_2">
    <path clip-path="url(#p3b89372d5d)" d="M 79.89061 158.49085 
L 83.048962 152.174147 
L 76.732259 152.174147 
z
" style="fill:#6acc65;stroke:#6acc65;stroke-width:1.89;"/>
    <path clip-path="url(#p3b89372d5d)" d="M 172.039441 85.045353 
L 175.197793 78.72865 
L 168.88109 78.72865 
z
" style="fill:#6acc65;stroke:#6acc65;stroke-width:1.89;"/>
    <path clip-path="url(#p3b89372d5d)" d="M 264.188272 92.704214 
L 267.346624 86.387511 
L 261.02992 86.387511 
z
" style="fill:#6acc65;stroke:#6acc65;stroke-width:1.89;"/>
    <path clip-path="url(#p3b89372d5d)" d="M 356.337103 99.221847 
L 359.495454 92.905144 
L 353.178751 92.905144 
z
" style="fill:#6acc65;stroke:#6acc65;stroke-width:1.89;"/>
    <path clip-path="url(#p3b89372d5d)" d="M 448.485934 97.401651 
L 451.644285 91.084948 
L 445.327582 91.084948 
z
" style="fill:#6acc65;stroke:#6acc65;stroke-width:1.89;"/>
   </g>
   <g id="line2d_19">
    <path clip-path="url(#p3b89372d5d)" d="M 79.89061 155.332498 
L 172.039441 81.887002 
L 264.188272 89.545862 
L 356.337103 96.063496 
L 448.485934 94.243299 
" style="fill:none;stroke:#6acc65;stroke-linecap:round;stroke-width:2.52;"/>
   </g>
   <g id="line2d_20">
    <path clip-path="url(#p3b89372d5d)" d="M 79.89061 161.31457 
L 79.89061 135.337605 
" style="fill:none;stroke:#6acc65;stroke-linecap:round;stroke-width:2.52;"/>
   </g>
   <g id="line2d_21">
    <path clip-path="url(#p3b89372d5d)" d="M 172.039441 102.361057 
L 172.039441 67.700777 
" style="fill:none;stroke:#6acc65;stroke-linecap:round;stroke-width:2.52;"/>
   </g>
   <g id="line2d_22">
    <path clip-path="url(#p3b89372d5d)" d="M 264.188272 101.441555 
L 264.188272 72.604499 
" style="fill:none;stroke:#6acc65;stroke-linecap:round;stroke-width:2.52;"/>
   </g>
   <g id="line2d_23">
    <path clip-path="url(#p3b89372d5d)" d="M 356.337103 111.902878 
L 356.337103 78.85926 
" style="fill:none;stroke:#6acc65;stroke-linecap:round;stroke-width:2.52;"/>
   </g>
   <g id="line2d_24">
    <path clip-path="url(#p3b89372d5d)" d="M 448.485934 111.441494 
L 448.485934 72.009939 
" style="fill:none;stroke:#6acc65;stroke-linecap:round;stroke-width:2.52;"/>
   </g>
   <g id="patch_3">
    <path d="M 36.695846 189.785698 
L 497.44 189.785698 
" style="fill:none;stroke:#262626;stroke-linecap:square;stroke-linejoin:miter;stroke-width:1.25;"/>
   </g>
   <g id="patch_4">
    <path d="M 36.695846 189.785698 
L 36.695846 11.260548 
" style="fill:none;stroke:#262626;stroke-linecap:square;stroke-linejoin:miter;stroke-width:1.25;"/>
   </g>
   <g id="PathCollection_3">
    <defs>
     <path d="M 0 3.158352 
C 0.837605 3.158352 1.641016 2.825568 2.233292 2.233292 
C 2.825568 1.641016 3.158352 0.837605 3.158352 0 
C 3.158352 -0.837605 2.825568 -1.641016 2.233292 -2.233292 
C 1.641016 -2.825568 0.837605 -3.158352 0 -3.158352 
C -0.837605 -3.158352 -1.641016 -2.825568 -2.233292 -2.233292 
C -2.825568 -1.641016 -3.158352 -0.837605 -3.158352 0 
C -3.158352 0.837605 -2.825568 1.641016 -2.233292 2.233292 
C -1.641016 2.825568 -0.837605 3.158352 0 3.158352 
z
" id="C0_0_f89c350ceb"/>
    </defs>
    <g clip-path="url(#p3b89372d5d)">
     <use style="fill:#d65f5f;stroke:#d65f5f;stroke-width:1.89;" x="82.7702613101" xlink:href="#C0_0_f89c350ceb" y="103.243227111"/>
    </g>
    <g clip-path="url(#p3b89372d5d)">
     <use style="fill:#d65f5f;stroke:#d65f5f;stroke-width:1.89;" x="174.91909213" xlink:href="#C0_0_f89c350ceb" y="99.274925232"/>
    </g>
    <g clip-path="url(#p3b89372d5d)">
     <use style="fill:#d65f5f;stroke:#d65f5f;stroke-width:1.89;" x="267.06792295" xlink:href="#C0_0_f89c350ceb" y="111.089991648"/>
    </g>
    <g clip-path="url(#p3b89372d5d)">
     <use style="fill:#d65f5f;stroke:#d65f5f;stroke-width:1.89;" x="359.21675377" xlink:href="#C0_0_f89c350ceb" y="109.054155905"/>
    </g>
    <g clip-path="url(#p3b89372d5d)">
     <use style="fill:#d65f5f;stroke:#d65f5f;stroke-width:1.89;" x="451.36558459" xlink:href="#C0_0_f89c350ceb" y="108.79404967"/>
    </g>
   </g>
   <g id="line2d_25">
    <path clip-path="url(#p3b89372d5d)" d="M 82.770261 103.243227 
L 174.919092 99.274925 
L 267.067923 111.089992 
L 359.216754 109.054156 
L 451.365585 108.79405 
" style="fill:none;stroke:#d65f5f;stroke-linecap:round;stroke-width:2.52;"/>
   </g>
   <g id="line2d_26">
    <path clip-path="url(#p3b89372d5d)" d="M 82.770261 116.78545 
L 82.770261 75.979686 
" style="fill:none;stroke:#d65f5f;stroke-linecap:round;stroke-width:2.52;"/>
   </g>
   <g id="line2d_27">
    <path clip-path="url(#p3b89372d5d)" d="M 174.919092 118.432324 
L 174.919092 75.676683 
" style="fill:none;stroke:#d65f5f;stroke-linecap:round;stroke-width:2.52;"/>
   </g>
   <g id="line2d_28">
    <path clip-path="url(#p3b89372d5d)" d="M 267.067923 118.900872 
L 267.067923 95.065886 
" style="fill:none;stroke:#d65f5f;stroke-linecap:round;stroke-width:2.52;"/>
   </g>
   <g id="line2d_29">
    <path clip-path="url(#p3b89372d5d)" d="M 359.216754 125.043688 
L 359.216754 91.642361 
" style="fill:none;stroke:#d65f5f;stroke-linecap:round;stroke-width:2.52;"/>
   </g>
   <g id="line2d_30">
    <path clip-path="url(#p3b89372d5d)" d="M 451.365585 130.911795 
L 451.365585 97.053722 
" style="fill:none;stroke:#d65f5f;stroke-linecap:round;stroke-width:2.52;"/>
   </g>
   <g id="PathCollection_4">
    <path clip-path="url(#p3b89372d5d)" d="M 82.491561 60.742397 
L 88.808264 60.742397 
L 88.808264 54.425694 
L 82.491561 54.425694 
z
" style="fill:#b47cc7;stroke:#b47cc7;stroke-width:1.89;"/>
    <path clip-path="url(#p3b89372d5d)" d="M 174.640391 57.987384 
L 180.957095 57.987384 
L 180.957095 51.670681 
L 174.640391 51.670681 
z
" style="fill:#b47cc7;stroke:#b47cc7;stroke-width:1.89;"/>
    <path clip-path="url(#p3b89372d5d)" d="M 266.789222 53.747985 
L 273.105926 53.747985 
L 273.105926 47.431281 
L 266.789222 47.431281 
z
" style="fill:#b47cc7;stroke:#b47cc7;stroke-width:1.89;"/>
    <path clip-path="url(#p3b89372d5d)" d="M 358.938053 42.194994 
L 365.254756 42.194994 
L 365.254756 35.878291 
L 358.938053 35.878291 
z
" style="fill:#b47cc7;stroke:#b47cc7;stroke-width:1.89;"/>
    <path clip-path="url(#p3b89372d5d)" d="M 451.086884 38.43911 
L 457.403587 38.43911 
L 457.403587 32.122407 
L 451.086884 32.122407 
z
" style="fill:#b47cc7;stroke:#b47cc7;stroke-width:1.89;"/>
   </g>
   <g id="line2d_31">
    <path clip-path="url(#p3b89372d5d)" d="M 85.649912 57.584046 
L 177.798743 54.829033 
L 269.947574 50.589633 
L 362.096405 39.036643 
L 454.245236 35.280758 
" style="fill:none;stroke:#b47cc7;stroke-linecap:round;stroke-width:2.52;"/>
   </g>
   <g id="line2d_32">
    <path clip-path="url(#p3b89372d5d)" d="M 85.649912 68.998968 
L 85.649912 50.275216 
" style="fill:none;stroke:#b47cc7;stroke-linecap:round;stroke-width:2.52;"/>
   </g>
   <g id="line2d_33">
    <path clip-path="url(#p3b89372d5d)" d="M 177.798743 68.609889 
L 177.798743 46.715675 
" style="fill:none;stroke:#b47cc7;stroke-linecap:round;stroke-width:2.52;"/>
   </g>
   <g id="line2d_34">
    <path clip-path="url(#p3b89372d5d)" d="M 269.947574 61.919786 
L 269.947574 34.829704 
" style="fill:none;stroke:#b47cc7;stroke-linecap:round;stroke-width:2.52;"/>
   </g>
   <g id="line2d_35">
    <path clip-path="url(#p3b89372d5d)" d="M 362.096405 54.008914 
L 362.096405 27.000303 
" style="fill:none;stroke:#b47cc7;stroke-linecap:round;stroke-width:2.52;"/>
   </g>
   <g id="line2d_36">
    <path clip-path="url(#p3b89372d5d)" d="M 454.245236 52.543475 
L 454.245236 23.79715 
" style="fill:none;stroke:#b47cc7;stroke-linecap:round;stroke-width:2.52;"/>
   </g>
   <g id="PathCollection_5">
    <path clip-path="url(#p3b89372d5d)" d="M 85.371212 106.925594 
L 91.687915 100.60889 
M 85.371212 100.60889 
L 91.687915 106.925594 
" style="fill:#c4ad66;stroke:#c4ad66;stroke-width:1.89;"/>
    <path clip-path="url(#p3b89372d5d)" d="M 177.520042 90.234537 
L 183.836746 83.917834 
M 177.520042 83.917834 
L 183.836746 90.234537 
" style="fill:#c4ad66;stroke:#c4ad66;stroke-width:1.89;"/>
    <path clip-path="url(#p3b89372d5d)" d="M 269.668873 111.4974 
L 275.985577 105.180696 
M 269.668873 105.180696 
L 275.985577 111.4974 
" style="fill:#c4ad66;stroke:#c4ad66;stroke-width:1.89;"/>
    <path clip-path="url(#p3b89372d5d)" d="M 361.817704 119.012669 
L 368.134407 112.695966 
M 361.817704 112.695966 
L 368.134407 119.012669 
" style="fill:#c4ad66;stroke:#c4ad66;stroke-width:1.89;"/>
    <path clip-path="url(#p3b89372d5d)" d="M 453.966535 115.56943 
L 460.283238 109.252727 
M 453.966535 109.252727 
L 460.283238 115.56943 
" style="fill:#c4ad66;stroke:#c4ad66;stroke-width:1.89;"/>
   </g>
   <g id="line2d_37">
    <path clip-path="url(#p3b89372d5d)" d="M 88.529563 103.767242 
L 180.678394 87.076186 
L 272.827225 108.339048 
L 364.976056 115.854317 
L 457.124887 112.411079 
" style="fill:none;stroke:#c4ad66;stroke-linecap:round;stroke-width:2.52;"/>
   </g>
   <g id="line2d_38">
    <path clip-path="url(#p3b89372d5d)" d="M 88.529563 124.514242 
L 88.529563 70.89848 
" style="fill:none;stroke:#c4ad66;stroke-linecap:round;stroke-width:2.52;"/>
   </g>
   <g id="line2d_39">
    <path clip-path="url(#p3b89372d5d)" d="M 180.678394 105.23037 
L 180.678394 74.337598 
" style="fill:none;stroke:#c4ad66;stroke-linecap:round;stroke-width:2.52;"/>
   </g>
   <g id="line2d_40">
    <path clip-path="url(#p3b89372d5d)" d="M 272.827225 120.361994 
L 272.827225 87.510602 
" style="fill:none;stroke:#c4ad66;stroke-linecap:round;stroke-width:2.52;"/>
   </g>
   <g id="line2d_41">
    <path clip-path="url(#p3b89372d5d)" d="M 364.976056 132.02402 
L 364.976056 105.725631 
" style="fill:none;stroke:#c4ad66;stroke-linecap:round;stroke-width:2.52;"/>
   </g>
   <g id="line2d_42">
    <path clip-path="url(#p3b89372d5d)" d="M 457.124887 132.956227 
L 457.124887 106.131045 
" style="fill:none;stroke:#c4ad66;stroke-linecap:round;stroke-width:2.52;"/>
   </g>
   <g id="legend_1">
    <g id="PathCollection_6">
     <path d="M 140.371141 171.869695 
L 137.212789 178.186399 
L 143.529493 178.186399 
z
" style="fill:#4878cf;stroke:#4878cf;stroke-width:1.89;"/>
     <path d="M 140.371141 171.869695 
L 137.212789 178.186399 
L 143.529493 178.186399 
z
" style="fill:#4878cf;stroke:#4878cf;stroke-width:1.89;"/>
     <path d="M 140.371141 171.869695 
L 137.212789 178.186399 
L 143.529493 178.186399 
z
" style="fill:#4878cf;stroke:#4878cf;stroke-width:1.89;"/>
    </g>
    <g id="text_15">
     <!-- NMF -->
     <defs>
      <path d="M 46.296875 69.03125 
L 10.296875 69.03125 
L 10.296875 0 
L 18.90625 0 
L 18.90625 31 
L 41.703125 31 
L 41.703125 37.921875 
L 18.90625 37.921875 
L 18.90625 62 
L 45.296875 62 
z
" id="Fira_Sans_Book-70"/>
      <path d="M 65.296875 69.0625 
L 53.5 69.0625 
L 39.09375 17.96875 
L 24 69.0625 
L 12.203125 69.0625 
L 6.40625 0 
L 14.59375 0 
L 17 31.109375 
C 17.90625 41.359375 18.5 52.5 18.59375 60.328125 
L 34.796875 7.9375 
L 42.90625 7.9375 
L 58.40625 60.234375 
C 58.5 54.421875 59.296875 42.578125 60.296875 31.640625 
L 62.90625 0 
L 71.296875 0 
z
" id="Fira_Sans_Book-77"/>
     </defs>
     <g style="fill:#262626;" transform="translate(160.171141034 177.915547021)scale(0.11 -0.11)">
      <use transform="scale(0.846830489181)" xlink:href="#Fira_Sans_Book-78"/>
      <use transform="translate(57.6691319904 0.0)scale(0.846830489181)" xlink:href="#Fira_Sans_Book-77"/>
      <use transform="translate(124.738088491 0.0)scale(0.846830489181)" xlink:href="#Fira_Sans_Book-70"/>
     </g>
    </g>
    <g id="PathCollection_7">
     <path d="M 211.447408 178.186399 
L 214.60576 171.869695 
L 208.289056 171.869695 
z
" style="fill:#6acc65;stroke:#6acc65;stroke-width:1.89;"/>
     <path d="M 211.447408 178.186399 
L 214.60576 171.869695 
L 208.289056 171.869695 
z
" style="fill:#6acc65;stroke:#6acc65;stroke-width:1.89;"/>
     <path d="M 211.447408 178.186399 
L 214.60576 171.869695 
L 208.289056 171.869695 
z
" style="fill:#6acc65;stroke:#6acc65;stroke-width:1.89;"/>
    </g>
    <g id="text_16">
     <!-- MOD -->
     <defs>
      <path d="M 34.59375 70.234375 
C 17.59375 70.234375 5.796875 57.125 5.796875 34.421875 
C 5.796875 11.40625 17.5 -1 34.59375 -1 
C 51.796875 -1 63.40625 11.796875 63.40625 34.515625 
C 63.40625 57.734375 51.703125 70.234375 34.59375 70.234375 
M 34.59375 63 
C 46.703125 63 54.203125 54.609375 54.203125 34.515625 
C 54.203125 14.421875 46.59375 6.21875 34.59375 6.21875 
C 23 6.21875 15 14.421875 15 34.421875 
C 15 54.609375 22.796875 63 34.59375 63 
" id="Fira_Sans_Book-79"/>
     </defs>
     <g style="fill:#262626;" transform="translate(231.247407889 177.915547021)scale(0.11 -0.11)">
      <use transform="scale(0.846830489181)" xlink:href="#Fira_Sans_Book-77"/>
      <use transform="translate(66.2220956083 0.0)scale(0.846830489181)" xlink:href="#Fira_Sans_Book-79"/>
      <use transform="translate(124.822792823 0.0)scale(0.846830489181)" xlink:href="#Fira_Sans_Book-68"/>
     </g>
    </g>
    <g id="PathCollection_8">
     <path d="M 283.948887 178.186399 
C 284.786492 178.186399 285.589903 177.853615 286.182179 177.261339 
C 286.774455 176.669063 287.107239 175.865652 287.107239 175.028047 
C 287.107239 174.190442 286.774455 173.387031 286.182179 172.794755 
C 285.589903 172.202479 284.786492 171.869695 283.948887 171.869695 
C 283.111283 171.869695 282.307872 172.202479 281.715596 172.794755 
C 281.12332 173.387031 280.790536 174.190442 280.790536 175.028047 
C 280.790536 175.865652 281.12332 176.669063 281.715596 177.261339 
C 282.307872 177.853615 283.111283 178.186399 283.948887 178.186399 
z
" style="fill:#d65f5f;stroke:#d65f5f;stroke-width:1.89;"/>
     <path d="M 283.948887 178.186399 
C 284.786492 178.186399 285.589903 177.853615 286.182179 177.261339 
C 286.774455 176.669063 287.107239 175.865652 287.107239 175.028047 
C 287.107239 174.190442 286.774455 173.387031 286.182179 172.794755 
C 285.589903 172.202479 284.786492 171.869695 283.948887 171.869695 
C 283.111283 171.869695 282.307872 172.202479 281.715596 172.794755 
C 281.12332 173.387031 280.790536 174.190442 280.790536 175.028047 
C 280.790536 175.865652 281.12332 176.669063 281.715596 177.261339 
C 282.307872 177.853615 283.111283 178.186399 283.948887 178.186399 
z
" style="fill:#d65f5f;stroke:#d65f5f;stroke-width:1.89;"/>
     <path d="M 283.948887 178.186399 
C 284.786492 178.186399 285.589903 177.853615 286.182179 177.261339 
C 286.774455 176.669063 287.107239 175.865652 287.107239 175.028047 
C 287.107239 174.190442 286.774455 173.387031 286.182179 172.794755 
C 285.589903 172.202479 284.786492 171.869695 283.948887 171.869695 
C 283.111283 171.869695 282.307872 172.202479 281.715596 172.794755 
C 281.12332 173.387031 280.790536 174.190442 280.790536 175.028047 
C 280.790536 175.865652 281.12332 176.669063 281.715596 177.261339 
C 282.307872 177.853615 283.111283 178.186399 283.948887 178.186399 
z
" style="fill:#d65f5f;stroke:#d65f5f;stroke-width:1.89;"/>
    </g>
    <g id="text_17">
     <!-- CFMM -->
     <defs>
      <path d="M 34.203125 70.234375 
C 18.59375 70.234375 5.796875 58.03125 5.796875 34.609375 
C 5.796875 11.5 17.796875 -1 34.296875 -1 
C 43.40625 -1 49.90625 2.71875 53.703125 6.625 
L 49.296875 12.21875 
C 45.40625 9.21875 41.203125 6.421875 34.59375 6.421875 
C 23.59375 6.421875 15 14.53125 15 34.625 
C 15 55.703125 23.90625 63 34.703125 63 
C 39.703125 63 43.796875 61.40625 48.203125 57.90625 
L 52.90625 63.5 
C 47.5 67.828125 42.703125 70.234375 34.203125 70.234375 
" id="Fira_Sans_Book-67"/>
     </defs>
     <g style="fill:#262626;" transform="translate(303.748887448 177.915547021)scale(0.11 -0.11)">
      <use transform="scale(0.846830489181)" xlink:href="#Fira_Sans_Book-67"/>
      <use transform="translate(47.2530987313 0.0)scale(0.846830489181)" xlink:href="#Fira_Sans_Book-70"/>
      <use transform="translate(87.8162730824 0.0)scale(0.846830489181)" xlink:href="#Fira_Sans_Book-77"/>
      <use transform="translate(154.885229583 0.0)scale(0.846830489181)" xlink:href="#Fira_Sans_Book-77"/>
     </g>
    </g>
    <g id="PathCollection_9">
     <path d="M 358.005465 178.186399 
L 364.322168 178.186399 
L 364.322168 171.869695 
L 358.005465 171.869695 
z
" style="fill:#b47cc7;stroke:#b47cc7;stroke-width:1.89;"/>
     <path d="M 358.005465 178.186399 
L 364.322168 178.186399 
L 364.322168 171.869695 
L 358.005465 171.869695 
z
" style="fill:#b47cc7;stroke:#b47cc7;stroke-width:1.89;"/>
     <path d="M 358.005465 178.186399 
L 364.322168 178.186399 
L 364.322168 171.869695 
L 358.005465 171.869695 
z
" style="fill:#b47cc7;stroke:#b47cc7;stroke-width:1.89;"/>
    </g>
    <g id="text_18">
     <!-- CFM -->
     <g style="fill:#262626;" transform="translate(380.96381645 177.915547021)scale(0.11 -0.11)">
      <use transform="scale(0.846830489181)" xlink:href="#Fira_Sans_Book-67"/>
      <use transform="translate(47.2530987313 0.0)scale(0.846830489181)" xlink:href="#Fira_Sans_Book-70"/>
      <use transform="translate(87.8162730824 0.0)scale(0.846830489181)" xlink:href="#Fira_Sans_Book-77"/>
     </g>
    </g>
    <g id="PathCollection_10">
     <path d="M 427.842817 178.186399 
L 434.15952 171.869695 
M 427.842817 171.869695 
L 434.15952 178.186399 
" style="fill:#c4ad66;stroke:#c4ad66;stroke-width:1.89;"/>
     <path d="M 427.842817 178.186399 
L 434.15952 171.869695 
M 427.842817 171.869695 
L 434.15952 178.186399 
" style="fill:#c4ad66;stroke:#c4ad66;stroke-width:1.89;"/>
     <path d="M 427.842817 178.186399 
L 434.15952 171.869695 
M 427.842817 171.869695 
L 434.15952 178.186399 
" style="fill:#c4ad66;stroke:#c4ad66;stroke-width:1.89;"/>
    </g>
    <g id="text_19">
     <!-- CFMMOD -->
     <g style="fill:#262626;" transform="translate(450.801168445 177.915547021)scale(0.11 -0.11)">
      <use transform="scale(0.846830489181)" xlink:href="#Fira_Sans_Book-67"/>
      <use transform="translate(47.2530987313 0.0)scale(0.846830489181)" xlink:href="#Fira_Sans_Book-70"/>
      <use transform="translate(87.8162730824 0.0)scale(0.846830489181)" xlink:href="#Fira_Sans_Book-77"/>
      <use transform="translate(154.885229583 0.0)scale(0.846830489181)" xlink:href="#Fira_Sans_Book-77"/>
      <use transform="translate(221.107325192 0.0)scale(0.846830489181)" xlink:href="#Fira_Sans_Book-79"/>
      <use transform="translate(279.708022406 0.0)scale(0.846830489181)" xlink:href="#Fira_Sans_Book-68"/>
     </g>
    </g>
   </g>
  </g>
 </g>
 <defs>
  <clipPath id="p3b89372d5d">
   <rect height="178.525149926" width="460.7441541" x="36.6958459001" y="11.2605480911"/>
  </clipPath>
 </defs>
</svg>
