<?xml version="1.0" standalone="no"?><!DOCTYPE svg PUBLIC "-//W3C//DTD SVG 1.1//EN" "http://www.w3.org/Graphics/SVG/1.1/DTD/svg11.dtd"><svg width="100%" height="100%" viewBox="0 0 1280 380" version="1.1" xmlns="http://www.w3.org/2000/svg" xmlns:xlink="http://www.w3.org/1999/xlink" xml:space="preserve" style="fill-rule:evenodd;clip-rule:evenodd;stroke-linecap:round;stroke-linejoin:round;stroke-miterlimit:1.41421;"><rect x="42.694" y="108.48" width="263.987" height="174.172" style="fill:#fff;stroke-width:1px;stroke:#000;"/><path d="M680.975,182.709l8.638,0c0.414,0 1.002,0 1.002,-0.622c0,-0.587 -0.588,-0.587 -1.002,-0.587l-8.638,0l0,-8.673c0,-0.449 0,-1.036 -0.622,-1.036c-0.622,0 -0.622,0.587 -0.622,1.036l0,8.673l-8.672,0c-0.415,0 -1.002,0 -1.002,0.587c0,0.622 0.587,0.622 1.002,0.622l8.672,0l0,8.673c0,0.449 0,1.036 0.622,1.036c0.622,0 0.622,-0.587 0.622,-1.036l0,-8.673" style="fill:#000;fill-rule:nonzero;"/><path d="M834.147,182.709l8.638,0c0.414,0 1.002,0 1.002,-0.622c0,-0.587 -0.588,-0.587 -1.002,-0.587l-8.638,0l0,-8.673c0,-0.449 0,-1.036 -0.622,-1.036c-0.622,0 -0.622,0.587 -0.622,1.036l0,8.673l-8.673,0c-0.414,0 -1.002,0 -1.002,0.587c0,0.622 0.588,0.622 1.002,0.622l8.673,0l0,8.673c0,0.449 0,1.036 0.622,1.036c0.622,0 0.622,-0.587 0.622,-1.036l0,-8.673" style="fill:#000;fill-rule:nonzero;"/><rect x="403.948" y="88.602" width="224.231" height="16.579" style="fill:#fff;stroke-width:1px;stroke:#000;"/><rect x="914.186" y="88.602" width="224.231" height="16.579" style="fill:#fff;stroke-width:1px;stroke:#000;"/><path d="M384.212,109.504l0,172.044l16.579,0l0,-172.044l-16.579,0Z" style="fill:#fff;stroke-width:1px;stroke:#000;"/><path d="M894.45,109.504l0,172.044l16.579,0l0,-172.044l-16.579,0Z" style="fill:#fff;stroke-width:1px;stroke:#000;"/><path d="M355.543,185.455c0,-0.657 -0.207,-0.933 -0.415,-0.933c-0.138,0 -0.414,0.138 -0.449,0.829c-0.138,2.142 -2.28,3.421 -4.284,3.421c-1.797,0 -3.352,-0.968 -4.976,-2.039c-1.658,-1.14 -3.317,-2.246 -5.355,-2.246c-2.868,0 -5.149,2.212 -5.149,5.045c0,0.691 0.242,0.933 0.45,0.933c0.276,0 0.414,-0.588 0.414,-0.726c0.173,-2.591 2.695,-3.524 4.285,-3.524c1.796,0 3.351,0.967 4.975,2.038c1.659,1.141 3.317,2.246 5.356,2.246c2.867,0 5.148,-2.211 5.148,-5.044ZM355.543,192.676c0,-0.898 -0.38,-0.933 -0.415,-0.933c-0.138,0 -0.414,0.138 -0.449,0.829c-0.138,2.143 -2.28,3.386 -4.284,3.386c-1.797,0 -3.352,-0.967 -4.976,-2.038c-1.658,-1.106 -3.317,-2.211 -5.355,-2.211c-2.868,0 -5.149,2.176 -5.149,5.044c0,0.657 0.242,0.898 0.45,0.898c0.276,0 0.414,-0.587 0.414,-0.691c0.173,-2.591 2.695,-3.524 4.285,-3.524c1.796,0 3.351,0.968 4.975,2.039c1.659,1.105 3.317,2.211 5.356,2.211c2.937,0 5.148,-2.28 5.148,-5.01" style="fill:#000;fill-rule:nonzero;"/><path d="M751.352,183.588c0,-0.864 -0.76,-1.624 -1.658,-1.624c-0.899,0 -1.624,0.76 -1.624,1.624c0,0.898 0.725,1.658 1.624,1.658c0.898,0 1.658,-0.76 1.658,-1.658" style="fill:#000;fill-rule:nonzero;"/><path d="M765.104,183.588c0,-0.864 -0.76,-1.624 -1.659,-1.624c-0.898,0 -1.624,0.76 -1.624,1.624c0,0.898 0.726,1.658 1.624,1.658c0.899,0 1.659,-0.76 1.659,-1.658" style="fill:#000;fill-rule:nonzero;"/><path d="M778.855,183.588c0,-0.864 -0.76,-1.624 -1.658,-1.624c-0.898,0 -1.624,0.76 -1.624,1.624c0,0.898 0.726,1.658 1.624,1.658c0.898,0 1.658,-0.76 1.658,-1.658" style="fill:#000;fill-rule:nonzero;"/><path d="M132.066,162.92l-5.586,5.68l0.745,0.745l4.841,-4.237l4.796,4.237l0.744,-0.745l-5.54,-5.68" style="fill:#000;fill-rule:nonzero;"/><path d="M144.45,176.794c0.233,-0.513 0.419,-0.932 3.445,-0.932l0.791,0l0,-1.955c-1.582,0.047 -3.584,0.14 -4.702,0.14c-1.676,0 -3.817,0 -5.447,-0.14l0,1.955c0.373,0 3.632,0 3.632,0.512c0,0.187 -0.093,0.373 -0.14,0.513l-8.426,18.948l-8.892,-19.973l3.91,0l0,-1.955c-1.583,0.14 -5.586,0.14 -7.355,0.14c-1.63,0 -5.121,0 -6.565,-0.14l0,1.955l3.818,0l11.499,25.885c0.326,0.791 0.512,1.117 1.676,1.117c0.652,0 1.21,0 1.676,-1.024l11.08,-25.046" style="fill:#000;fill-rule:nonzero;"/><path d="M164.282,212.548c0,-0.14 0,-0.233 -0.698,-0.931c-5.214,-5.261 -6.564,-13.129 -6.564,-19.507c0,-7.262 1.583,-14.525 6.704,-19.739c0.558,-0.466 0.558,-0.559 0.558,-0.699c0,-0.279 -0.186,-0.418 -0.419,-0.418c-0.419,0 -4.143,2.839 -6.61,8.147c-2.142,4.562 -2.654,9.218 -2.654,12.709c0,3.259 0.466,8.287 2.747,12.989c2.514,5.121 6.098,7.821 6.517,7.821c0.233,0 0.419,-0.093 0.419,-0.372" style="fill:#000;fill-rule:nonzero;"/><path d="M182.066,185.872l3.539,0c0.838,0 1.257,0 1.257,-0.838c0,-0.466 -0.419,-0.466 -1.118,-0.466l-3.445,0l0.885,-4.748c0.139,-0.885 0.745,-3.864 0.977,-4.33c0.373,-0.791 1.071,-1.443 1.956,-1.443c0.186,0 1.257,0 2.048,0.745c-1.816,0.186 -2.235,1.629 -2.235,2.281c0,0.931 0.745,1.443 1.537,1.443c1.07,0 2.281,-0.931 2.281,-2.514c0,-1.909 -1.909,-2.886 -3.631,-2.886c-1.397,0 -4.051,0.791 -5.261,4.888c-0.279,0.884 -0.419,1.304 -1.397,6.564l-2.886,0c-0.792,0 -1.257,0 -1.257,0.792c0,0.512 0.372,0.512 1.164,0.512l2.747,0l-3.12,16.434c-0.744,4.05 -1.443,7.821 -3.631,7.821c-0.14,0 -1.21,0 -2.002,-0.745c1.955,-0.093 2.328,-1.629 2.328,-2.235c0,-0.977 -0.745,-1.443 -1.536,-1.443c-1.118,0 -2.328,0.885 -2.328,2.468c0,1.908 1.862,2.886 3.538,2.886c2.328,0 4.004,-2.467 4.749,-4.05c1.303,-2.607 2.281,-7.635 2.327,-7.961l2.514,-13.175" style="fill:#000;fill-rule:nonzero;"/><path d="M197.942,202.492c0,-2.747 -1.071,-4.376 -2.654,-4.376c-1.397,0 -2.235,1.024 -2.235,2.188c0,1.117 0.838,2.234 2.235,2.234c0.466,0 1.024,-0.186 1.443,-0.558c0.14,-0.093 0.14,-0.14 0.186,-0.14c0.047,0 0.094,0.047 0.094,0.652c0,3.072 -1.444,5.586 -2.84,6.937c-0.466,0.465 -0.466,0.558 -0.466,0.698c0,0.279 0.233,0.419 0.419,0.419c0.466,0 3.818,-3.212 3.818,-8.054" style="fill:#000;fill-rule:nonzero;"/><rect x="379.944" y="180.626" width="24.713" height="18.607" style="fill:#fff;"/><rect x="890.735" y="180.626" width="24.16" height="18.607" style="fill:#fff;"/><rect x="506.513" y="80.865" width="30.423" height="27.242" style="fill:#fff;"/><rect x="1014.22" y="80.865" width="19.068" height="25.93" style="fill:#fff;"/><rect x="522.391" y="89.499" width="9.898" height="18.607" style="fill:#fff;"/><rect x="1031.44" y="89.499" width="11.091" height="18.607" style="fill:#fff;"/><path d="M216.61,185.872l3.911,0c0.838,0 1.257,0 1.257,-0.838c0,-0.466 -0.419,-0.466 -1.164,-0.466l-3.678,0c1.49,-5.912 1.723,-6.75 1.723,-7.03c0,-0.698 -0.512,-1.117 -1.211,-1.117c-0.139,0 -1.303,0.047 -1.676,1.49l-1.629,6.657l-3.911,0c-0.838,0 -1.257,0 -1.257,0.792c0,0.512 0.326,0.512 1.164,0.512l3.678,0c-3.026,11.825 -3.166,12.523 -3.166,13.268c0,2.235 1.583,3.817 3.818,3.817c4.236,0 6.61,-6.052 6.61,-6.378c0,-0.419 -0.325,-0.419 -0.465,-0.419c-0.373,0 -0.419,0.093 -0.652,0.559c-1.769,4.33 -4.004,5.354 -5.4,5.354c-0.885,0 -1.304,-0.559 -1.304,-1.909c0,-1.024 0.093,-1.303 0.233,-2.002l3.119,-12.29" style="fill:#000;fill-rule:nonzero;"/><path d="M235.093,192.11c0,-3.259 -0.466,-8.287 -2.747,-13.035c-2.514,-5.121 -6.099,-7.821 -6.518,-7.821c-0.233,0 -0.419,0.186 -0.419,0.418c0,0.14 0,0.233 0.792,0.978c4.096,4.097 6.471,10.754 6.471,19.46c0,7.123 -1.537,14.432 -6.704,19.693c-0.559,0.512 -0.559,0.605 -0.559,0.745c0,0.233 0.186,0.372 0.419,0.372c0.419,0 4.19,-2.793 6.657,-8.1c2.095,-4.609 2.608,-9.218 2.608,-12.71" style="fill:#000;fill-rule:nonzero;"/><path d="M404.569,185.059c0.183,-0.438 0.292,-0.694 2.229,-0.694l0,-1.535c-0.767,0.073 -1.717,0.073 -2.522,0.073c-0.877,0 -2.412,-0.037 -3.143,-0.073l0,1.535c0.292,0 1.901,0.037 1.901,0.402c0,0.073 -0.11,0.292 -0.147,0.366l-3.435,8.406l-3.728,-9.174l1.864,0l0,-1.535c-1.06,0.036 -2.778,0.073 -3.765,0.073c-1.352,0 -2.741,-0.037 -3.253,-0.073l0,1.535l1.937,0c0.695,1.645 0.695,1.681 0.695,1.718c0,0.146 -0.11,0.329 -0.147,0.439l-2.595,6.286l-3.435,-8.443l1.827,0l0,-1.535c-1.316,0.073 -2.668,0.073 -4.02,0.073c-1.024,0 -2.449,-0.037 -3.546,-0.073l0,1.535l1.901,0l5.007,12.244c0.256,0.549 0.366,0.878 1.206,0.878c0.804,0 0.951,-0.329 1.17,-0.878l3.472,-8.479l3.473,8.479c0.219,0.549 0.365,0.878 1.169,0.878c0.804,0 0.951,-0.329 1.17,-0.878l4.715,-11.55" style="fill:#000;fill-rule:nonzero;"/><path d="M915.502,185.108c0.195,-0.469 0.313,-0.743 2.387,-0.743l0,-1.643c-0.822,0.078 -1.839,0.078 -2.7,0.078c-0.939,0 -2.583,-0.039 -3.365,-0.078l0,1.643c0.313,0 2.034,0.039 2.034,0.43c0,0.079 -0.117,0.313 -0.156,0.392l-3.678,8.999l-3.991,-9.821l1.995,0l0,-1.643c-1.135,0.039 -2.974,0.078 -4.03,0.078c-1.448,0 -2.935,-0.039 -3.483,-0.078l0,1.643l2.074,0c0.744,1.761 0.744,1.8 0.744,1.839c0,0.157 -0.118,0.352 -0.157,0.47l-2.778,6.73l-3.678,-9.039l1.956,0l0,-1.643c-1.408,0.078 -2.856,0.078 -4.304,0.078c-1.095,0 -2.621,-0.039 -3.795,-0.078l0,1.643l2.034,0l5.361,13.108c0.274,0.587 0.391,0.939 1.291,0.939c0.861,0 1.018,-0.352 1.252,-0.939l3.718,-9.078l3.717,9.078c0.235,0.587 0.391,0.939 1.252,0.939c0.861,0 1.017,-0.352 1.252,-0.939l5.048,-12.365" style="fill:#000;fill-rule:nonzero;"/><path d="M413.497,187.618c0,-0.621 -0.036,-0.658 -0.694,-0.658c-1.462,1.462 -3.582,1.499 -4.532,1.499l0,0.804c0.584,0 2.083,0 3.362,-0.622l0,11.77c0,0.767 0,1.06 -2.302,1.06l-0.878,0l0,0.804c0.402,0 3.253,-0.073 4.094,-0.073c0.731,0 3.619,0.073 4.13,0.073l0,-0.804l-0.877,0c-2.303,0 -2.303,-0.293 -2.303,-1.06l0,-12.793" style="fill:#000;fill-rule:nonzero;"/><path d="M511.206,105.298l-2.208,0l0,1.496c0.891,-0.036 2.814,-0.071 4.024,-0.071c1.246,0 3.134,0.035 4.024,0.071l0,-1.496l-2.208,0l0,-6.659c0,-3.49 2.742,-5.021 4.773,-5.021c1.068,0 1.745,0.641 1.745,3.062l0,8.618l-2.208,0l0,1.496c0.89,-0.036 2.813,-0.071 4.024,-0.071c1.246,0 3.134,0.035 4.024,0.071l0,-1.496l-2.208,0l0,-8.262c0,-3.347 -1.71,-4.594 -4.914,-4.594c-3.063,0 -4.702,1.852 -5.414,3.134l0,-10.897l-5.662,0.249l0,1.496c1.994,0 2.208,0 2.208,1.246l0,17.628" style="fill:#000;fill-rule:nonzero;"/><path d="M511.206,105.298l-2.208,0l0,1.496c0.891,-0.036 2.814,-0.071 4.024,-0.071c1.246,0 3.134,0.035 4.024,0.071l0,-1.496l-2.208,0l0,-6.659c0,-3.49 2.742,-5.021 4.773,-5.021c1.068,0 1.745,0.641 1.745,3.062l0,8.618l-2.208,0l0,1.496c0.89,-0.036 2.813,-0.071 4.024,-0.071c1.246,0 3.134,0.035 4.024,0.071l0,-1.496l-2.208,0l0,-8.262c0,-3.347 -1.71,-4.594 -4.914,-4.594c-3.063,0 -4.702,1.852 -5.414,3.134l0,-10.897l-5.662,0.249l0,1.496c1.994,0 2.208,0 2.208,1.246l0,17.628" style="fill:#000;fill-rule:nonzero;"/><path d="M535.423,97.321c0,-0.605 -0.036,-0.641 -0.678,-0.641c-1.424,1.425 -3.454,1.46 -4.379,1.46l0,0.784c0.534,0 2.029,0 3.24,-0.606l0,11.467c0,0.748 0,1.033 -2.244,1.033l-0.854,0l0,0.784c0.392,0 3.17,-0.072 3.988,-0.072c0.712,0 3.561,0.072 4.06,0.072l0,-0.784l-0.854,0c-2.279,0 -2.279,-0.285 -2.279,-1.033l0,-12.464" style="fill:#000;fill-rule:nonzero;"/><path d="M389.643,293.163l2.051,0c0.452,0 0.692,0 0.692,-0.48c0,-0.266 -0.24,-0.266 -0.639,-0.266l-1.971,0l0.506,-2.716c0.08,-0.506 0.426,-2.21 0.559,-2.476c0.213,-0.453 0.64,-0.826 1.119,-0.826c0.106,0 0.719,0 1.171,0.426c-1.038,0.107 -1.278,0.932 -1.278,1.305c0,0.533 0.426,0.826 0.879,0.826c0.612,0 1.305,-0.533 1.305,-1.438c0,-1.092 -1.092,-1.651 -2.077,-1.651c-0.799,0 -2.317,0.452 -3.009,2.796c-0.16,0.506 -0.213,0.745 -0.799,3.754l-1.651,0c-0.452,0 -0.719,0 -0.719,0.453c0,0.293 0.24,0.293 0.666,0.293l1.598,0l-1.811,9.399c-0.426,2.317 -0.826,4.5 -2.05,4.5c-0.107,0 -0.693,0 -1.145,-0.453c1.091,-0.053 1.304,-0.905 1.304,-1.278c0,-0.532 -0.426,-0.825 -0.878,-0.825c-0.639,0 -1.332,0.506 -1.332,1.411c0,1.092 1.065,1.651 2.051,1.651c1.304,0 2.263,-1.411 2.689,-2.317c0.746,-1.491 1.305,-4.366 1.331,-4.553l1.438,-7.535" style="fill:#000;fill-rule:nonzero;"/><path d="M899.881,293.163l2.051,0c0.452,0 0.692,0 0.692,-0.48c0,-0.266 -0.24,-0.266 -0.639,-0.266l-1.971,0l0.506,-2.716c0.08,-0.506 0.426,-2.21 0.56,-2.476c0.213,-0.453 0.639,-0.826 1.118,-0.826c0.106,0 0.719,0 1.172,0.426c-1.039,0.107 -1.279,0.932 -1.279,1.305c0,0.533 0.426,0.826 0.879,0.826c0.613,0 1.305,-0.533 1.305,-1.438c0,-1.092 -1.092,-1.651 -2.077,-1.651c-0.799,0 -2.317,0.452 -3.009,2.796c-0.16,0.506 -0.213,0.745 -0.799,3.754l-1.651,0c-0.452,0 -0.719,0 -0.719,0.453c0,0.293 0.24,0.293 0.666,0.293l1.598,0l-1.811,9.399c-0.426,2.317 -0.825,4.5 -2.05,4.5c-0.107,0 -0.693,0 -1.145,-0.453c1.091,-0.053 1.304,-0.905 1.304,-1.278c0,-0.532 -0.426,-0.825 -0.878,-0.825c-0.639,0 -1.332,0.506 -1.332,1.411c0,1.092 1.066,1.651 2.051,1.651c1.304,0 2.263,-1.411 2.689,-2.317c0.746,-1.491 1.305,-4.366 1.332,-4.553l1.437,-7.535" style="fill:#000;fill-rule:nonzero;"/><path d="M637.207,97.12l2.236,0c0.48,0 0.719,0 0.719,-0.479c0,-0.267 -0.239,-0.267 -0.665,-0.267l-2.104,0c0.852,-3.381 0.985,-3.861 0.985,-4.02c0,-0.4 -0.293,-0.639 -0.692,-0.639c-0.08,0 -0.746,0.026 -0.959,0.852l-0.932,3.807l-2.236,0c-0.48,0 -0.719,0 -0.719,0.453c0,0.293 0.186,0.293 0.665,0.293l2.104,0c-1.704,6.763 -1.811,7.163 -1.811,7.589c0,1.305 0.906,2.21 2.184,2.21c2.449,0 3.807,-3.488 3.807,-3.675c0,-0.239 -0.186,-0.239 -0.292,-0.239c-0.213,0 -0.24,0.053 -0.347,0.319c-1.038,2.476 -2.29,3.062 -3.115,3.062c-0.506,0 -0.746,-0.319 -0.746,-1.091c0,-0.586 0.054,-0.746 0.16,-1.145l1.758,-7.03" style="fill:#000;fill-rule:nonzero;"/><path d="M1147.44,97.12l2.236,0c0.48,0 0.719,0 0.719,-0.479c0,-0.267 -0.239,-0.267 -0.665,-0.267l-2.104,0c0.852,-3.381 0.985,-3.861 0.985,-4.02c0,-0.4 -0.293,-0.639 -0.692,-0.639c-0.08,0 -0.746,0.026 -0.959,0.852l-0.932,3.807l-2.236,0c-0.479,0 -0.719,0 -0.719,0.453c0,0.293 0.186,0.293 0.666,0.293l2.103,0c-1.704,6.763 -1.811,7.163 -1.811,7.589c0,1.305 0.906,2.21 2.184,2.21c2.45,0 3.808,-3.488 3.808,-3.675c0,-0.239 -0.187,-0.239 -0.293,-0.239c-0.213,0 -0.24,0.053 -0.346,0.319c-1.039,2.476 -2.29,3.062 -3.116,3.062c-0.506,0 -0.745,-0.319 -0.745,-1.091c0,-0.586 0.053,-0.746 0.159,-1.145l1.758,-7.03" style="fill:#000;fill-rule:nonzero;"/><path d="M925.256,192.874c0.235,-0.861 0.274,-1.017 1.643,-1.017c0.274,0 0.626,0 0.626,-0.509c0,-0.274 -0.195,-0.391 -0.352,-0.391c-0.587,0 -2.073,0.117 -2.66,0.117c-0.548,0 -1.37,-0.039 -1.918,-0.039c-0.626,-0.039 -1.33,-0.078 -1.956,-0.078c-0.157,0 -0.548,0 -0.548,0.548c0,0.352 0.235,0.352 0.978,0.352c0.548,0 0.665,0 1.292,0.039c0.704,0.078 0.782,0.156 0.782,0.469c0,0.157 0,0.196 -0.117,0.548l-2.818,11.309c-0.469,1.878 -2.073,3.404 -3.678,3.404c-0.313,0 -1.878,-0.039 -2.465,-1.252c1.448,0 1.761,-1.174 1.761,-1.605c0,-0.704 -0.587,-1.095 -1.135,-1.095c-0.665,0 -1.643,0.548 -1.643,1.956c0,1.604 1.487,2.7 3.561,2.7c2.426,0 5.165,-1.565 5.791,-4.03l2.856,-11.426" style="fill:#000;fill-rule:nonzero;"/><path d="M1041.05,98.553c0.16,-0.585 0.187,-0.692 1.119,-0.692c0.186,0 0.426,0 0.426,-0.346c0,-0.186 -0.134,-0.266 -0.24,-0.266c-0.399,0 -1.411,0.08 -1.811,0.08c-0.372,0 -0.932,-0.027 -1.304,-0.027c-0.426,-0.027 -0.906,-0.053 -1.332,-0.053c-0.106,0 -0.373,0 -0.373,0.373c0,0.239 0.16,0.239 0.666,0.239c0.373,0 0.453,0 0.879,0.027c0.479,0.053 0.532,0.106 0.532,0.319c0,0.107 0,0.133 -0.08,0.373l-1.917,7.695c-0.319,1.279 -1.411,2.317 -2.503,2.317c-0.213,0 -1.278,-0.027 -1.677,-0.852c0.985,0 1.198,-0.799 1.198,-1.092c0,-0.479 -0.399,-0.745 -0.772,-0.745c-0.453,0 -1.119,0.372 -1.119,1.331c0,1.092 1.012,1.837 2.424,1.837c1.65,0 3.514,-1.065 3.94,-2.742l1.944,-7.776" style="fill:#000;fill-rule:nonzero;"/><path d="M1018.75,103.298l-2.208,0l0,1.496c0.89,-0.036 2.813,-0.071 4.024,-0.071c1.246,0 3.134,0.035 4.024,0.071l0,-1.496l-2.208,0l0,-6.659c0,-3.49 2.742,-5.021 4.772,-5.021c1.069,0 1.745,0.641 1.745,3.062l0,8.618l-2.208,0l0,1.496c0.891,-0.036 2.814,-0.071 4.024,-0.071c1.247,0 3.135,0.035 4.024,0.071l0,-1.496l-2.208,0l0,-8.262c0,-3.347 -1.709,-4.594 -4.914,-4.594c-3.063,0 -4.701,1.852 -5.413,3.134l0,-10.897l-5.662,0.249l0,1.496c1.994,0 2.208,0 2.208,1.246l0,17.628" style="fill:#000;fill-rule:nonzero;"/></svg>