<?xml version="1.0" standalone="no"?><!DOCTYPE svg PUBLIC "-//W3C//DTD SVG 1.1//EN" "http://www.w3.org/Graphics/SVG/1.1/DTD/svg11.dtd"><svg width="100%" height="100%" viewBox="0 0 1120 400" version="1.1" xmlns="http://www.w3.org/2000/svg" xmlns:xlink="http://www.w3.org/1999/xlink" xml:space="preserve" style="fill-rule:evenodd;clip-rule:evenodd;stroke-linejoin:round;stroke-miterlimit:1.41421;"><rect x="56.31" y="11.312" width="1052.6" height="324.696" style="fill:#ebebeb;"/><g><text x="548.166px" y="382.319px" style="font-family:'FiraSans-Regular';font-size:36px;fill:#000;">T</text><text x="567.858px" y="382.319px" style="font-family:'FiraSans-Regular';font-size:36px;fill:#000;">ime</text></g><g><g transform="matrix(-1.83697e-16,-1,1,-1.83697e-16,-204.272,277.952)"><text x="36.84px" y="241.112px" style="font-family:'FiraSans-Regular';font-size:36px;fill:#000;">Pit<tspan x="80.544px " y="241.112px ">c</tspan>h</text></g></g><rect x="68.019" y="86.103" width="321.597" height="21.883" style="fill:#ff9b00;"/><rect x="422.159" y="213.814" width="321.597" height="21.883" style="fill:#2f6fff;"/><rect x="422.159" y="213.814" width="321.597" height="21.883" style="fill:#2f6fff;"/><rect x="780.908" y="213.814" width="321.597" height="21.883" style="fill:#2f6fff;"/><rect x="780.908" y="213.814" width="321.597" height="21.883" style="fill:#2f6fff;"/><rect x="777.222" y="85.704" width="321.597" height="21.883" style="fill:#ff9b00;"/><path d="M54.936,338.025l0,-2.715l1047.84,0l0,-6.374l7.732,7.732l-7.732,7.731l0,-6.374l-1047.84,0l0,0Z" style="fill:#000;"/><path d="M57.258,335.865l-2.716,0l0,-317.935l-6.374,0l7.732,-7.732l7.732,7.732l-6.374,0l0,317.935Z" style="fill:#000;"/></svg>