<?xml version="1.0" encoding="UTF-8" standalone="no"?>
<!DOCTYPE svg PUBLIC "-//W3C//DTD SVG 1.1//EN" "http://www.w3.org/Graphics/SVG/1.1/DTD/svg11.dtd">
<svg width="100%" height="100%" viewBox="0 0 1100 600" version="1.1" xmlns="http://www.w3.org/2000/svg" xmlns:xlink="http://www.w3.org/1999/xlink" xml:space="preserve" xmlns:serif="http://www.serif.com/" style="fill-rule:evenodd;clip-rule:evenodd;stroke-linecap:round;">
    <g id="path2235" transform="matrix(1,0,0,1,64.871,-53.671)">
        <path d="M35.129,453.676C45.123,439.454 55.116,425.232 66.508,425.232M97.857,453.676C94.19,448.458 90.523,443.239 86.787,438.723C80.342,430.932 73.691,425.233 66.479,425.233M97.851,453.669C107.844,467.891 117.838,482.113 129.23,482.113M160.579,453.669C150.586,467.891 140.593,482.113 129.201,482.113M160.577,453.671C170.57,439.45 180.563,425.228 191.955,425.228M223.305,453.672C213.312,439.45 203.319,425.228 191.927,425.228M223.304,453.67C233.297,467.892 243.29,482.114 254.682,482.114M286.031,453.669C276.038,467.891 266.045,482.113 254.653,482.113M286.029,453.672C296.022,439.45 306.016,425.228 317.408,425.228M348.757,453.672C338.764,439.45 328.771,425.228 317.379,425.228M348.751,453.665C358.744,467.887 368.737,482.109 380.129,482.109M411.479,453.665C401.486,467.887 391.493,482.109 380.101,482.109M411.477,453.667C421.47,439.445 424.463,425.224 435.855,425.224" style="fill:none;stroke:rgb(57,108,255);stroke-width:6.39px;"/>
    </g>
    <g transform="matrix(1,0,0,1,-40,60)">
        <path d="M640,140L1040,140" style="fill:none;stroke:rgb(214,0,0);stroke-width:8px;stroke-linejoin:round;stroke-miterlimit:1.5;"/>
    </g>
    <g transform="matrix(1,0,0,1,30.9,-480)">
        <text x="320px" y="554px" style="font-family:'FiraSans-Regular', 'Fira Sans', sans-serif;font-size:72px;">no o<tspan x="463.928px 498.632px " y="554px 554px ">ve</tspan>rlap</text>
    </g>
</svg>
