<?xml version="1.0" encoding="UTF-8" standalone="no"?><!DOCTYPE svg PUBLIC "-//W3C//DTD SVG 1.1//EN" "http://www.w3.org/Graphics/SVG/1.1/DTD/svg11.dtd"><svg width="100%" height="100%" viewBox="0 0 1100 600" version="1.1" xmlns="http://www.w3.org/2000/svg" xmlns:xlink="http://www.w3.org/1999/xlink" xml:space="preserve" xmlns:serif="http://www.serif.com/" style="fill-rule:evenodd;clip-rule:evenodd;stroke-linecap:round;"><path id="path2235" d="M100,400.005c9.994,-14.222 19.987,-28.444 31.379,-28.444m31.349,28.444c-3.667,-5.218 -7.334,-10.437 -11.07,-14.953c-6.445,-7.791 -13.096,-13.49 -20.308,-13.49m31.372,28.436c9.993,14.222 19.987,28.444 31.379,28.444m31.349,-28.444c-9.993,14.222 -19.986,28.444 -31.378,28.444m31.376,-28.442c9.993,-14.221 19.986,-28.443 31.378,-28.443m31.35,28.444c-9.993,-14.222 -19.986,-28.444 -31.378,-28.444m31.377,28.442c9.993,14.222 19.986,28.444 31.378,28.444m31.349,-28.445c-9.993,14.222 -19.986,28.444 -31.378,28.444m31.376,-28.441c9.993,-14.222 19.987,-28.444 31.379,-28.444m31.349,28.444c-9.993,-14.222 -19.986,-28.444 -31.378,-28.444m31.372,28.437c9.993,14.222 19.986,28.444 31.378,28.444m31.35,-28.444c-9.993,14.222 -19.986,28.444 -31.378,28.444m31.376,-28.442c9.993,-14.222 12.26,-28.443 23.652,-28.443" style="fill:none;stroke:#396cff;stroke-width:6.39px;"/><path d="M600,399.994l400,0" style="fill:none;stroke:#d60000;stroke-width:7.6px;stroke-linejoin:round;stroke-miterlimit:1.5;"/></svg>