<?xml version="1.0" encoding="UTF-8" standalone="no"?>
<!DOCTYPE svg PUBLIC "-//W3C//DTD SVG 1.1//EN" "http://www.w3.org/Graphics/SVG/1.1/DTD/svg11.dtd">
<svg width="100%" height="100%" viewBox="0 0 4106 1789" version="1.1" xmlns="http://www.w3.org/2000/svg" xmlns:xlink="http://www.w3.org/1999/xlink" xml:space="preserve" xmlns:serif="http://www.serif.com/" style="fill-rule:evenodd;clip-rule:evenodd;stroke-linejoin:round;stroke-miterlimit:2;">
    <g transform="matrix(1,0,0,1,-79.509,-6.848e-05)">
        <g transform="matrix(0.642637,0,0,0.254571,-2166.93,-668.676)">
            <rect x="4199.47" y="2627.04" width="1375.33" height="985.651" style="fill:rgb(216,109,42);"/>
        </g>
        <g transform="matrix(0.595029,0,0,0.254571,-1029.58,-668.767)">
            <rect x="4199.47" y="2627.04" width="1375.33" height="985.651" style="fill:rgb(102,102,102);"/>
        </g>
        <g transform="matrix(0.650817,0,0,0.254571,-391.915,-668.767)">
            <rect x="4199.47" y="2627.04" width="1375.33" height="985.651" style="fill:rgb(102,102,102);"/>
        </g>
        <g transform="matrix(0.659091,0,0,0.254571,510.83,-668.768)">
            <rect x="4199.47" y="2627.04" width="1375.33" height="985.651" style="fill:rgb(102,102,102);"/>
        </g>
        <g transform="matrix(1,0,0,1,-3847.34,-3031.04)">
            <g transform="matrix(1,0,0,1,4488.19,3206.99)">
                <text x="0px" y="0px" style="font-family:'FiraSans-Regular', 'Fira Sans', sans-serif;font-size:150px;fill:white;">S</text>
            </g>
            <g transform="matrix(1,0,0,1,4568.44,3206.99)">
                <text x="0px" y="0px" style="font-family:'FiraSans-Regular', 'Fira Sans', sans-serif;font-size:150px;fill:white;">TFT</text>
            </g>
        </g>
        <g transform="matrix(1,0,0,1,-2954.67,-3028.3)">
            <g transform="matrix(1,0,0,1,4488.19,3206.99)">
                <text x="0px" y="0px" style="font-family:'FiraSans-Regular', 'Fira Sans', sans-serif;font-size:150px;fill:white;">l</text>
            </g>
            <g transform="matrix(1,0,0,1,4530.64,3206.99)">
                <text x="0px" y="0px" style="font-family:'FiraSans-Regular', 'Fira Sans', sans-serif;font-size:150px;fill:white;">ogS</text>
            </g>
            <g transform="matrix(1,0,0,1,4776.49,3206.99)">
                <text x="0px" y="0px" style="font-family:'FiraSans-Regular', 'Fira Sans', sans-serif;font-size:150px;fill:white;">TFT</text>
            </g>
        </g>
        <g transform="matrix(1,0,0,1,2418.14,171.62)">
            <text x="0px" y="0px" style="font-family:'FiraSans-Regular', 'Fira Sans', sans-serif;font-size:150px;fill:white;">M</text>
        </g>
        <g transform="matrix(1,0,0,1,2543.54,171.62)">
            <text x="0px" y="0px" style="font-family:'FiraSans-Regular', 'Fira Sans', sans-serif;font-size:150px;fill:white;">E</text>
        </g>
        <g transform="matrix(1,0,0,1,2623.79,171.62)">
            <text x="0px" y="0px" style="font-family:'FiraSans-Regular', 'Fira Sans', sans-serif;font-size:150px;fill:white;">L</text>
        </g>
        <g transform="matrix(1,0,0,1,-1135.11,-3028.39)">
            <g transform="matrix(1,0,0,1,4488.19,3206.99)">
                <text x="0px" y="0px" style="font-family:'FiraSans-Regular', 'Fira Sans', sans-serif;font-size:150px;fill:white;">MFC</text>
            </g>
            <g transform="matrix(1,0,0,1,4762.24,3206.99)">
                <text x="0px" y="0px" style="font-family:'FiraSans-Regular', 'Fira Sans', sans-serif;font-size:150px;fill:white;">C</text>
            </g>
        </g>
        <g transform="matrix(0.529463,0,0,0.259475,-67.2067,851.494)">
            <rect x="5669.29" y="2645.67" width="2362.2" height="967.022" style="fill:rgb(94,60,153);"/>
        </g>
        <g transform="matrix(1.02975,0,0,1.09862,3070.92,1687.92)">
            <text x="0px" y="0px" style="font-family:'FiraSans-Regular', 'Fira Sans', sans-serif;font-size:100px;fill:white;">Classiﬁcation</text>
        </g>
        <g transform="matrix(1.41652,0,0,0.40573,-5419.11,-191.804)">
            <rect x="4199.47" y="2627.04" width="1375.33" height="985.651" style="fill:rgb(102,102,102);"/>
        </g>
        <g transform="matrix(0.808873,0,0,0.396319,-2867.3,-601.787)">
            <rect x="4199.47" y="2627.04" width="1375.33" height="985.651" style="fill:rgb(102,102,102);"/>
        </g>
        <g transform="matrix(0.771924,0,0,0.398197,-1553.74,-606.72)">
            <rect x="4199.47" y="2627.04" width="1375.33" height="985.651" style="fill:rgb(102,102,102);"/>
        </g>
        <g transform="matrix(1.01043,0,0,0.398197,-1447.76,-606.72)">
            <rect x="4199.47" y="2627.04" width="1375.33" height="985.651" style="fill:rgb(102,102,102);"/>
        </g>
        <g transform="matrix(1.20981,0,0,0.40573,-2559.3,-191.804)">
            <rect x="4199.47" y="2627.04" width="1375.33" height="985.651" style="fill:rgb(102,102,102);"/>
        </g>
        <g transform="matrix(0.999999,0,0,1,648.718,1074.01)">
            <text x="0px" y="0px" style="font-family:'FiraSans-Regular', 'Fira Sans', sans-serif;font-size:150px;fill:white;">RNN</text>
        </g>
        <g transform="matrix(0.999999,0,0,1,637.741,604.212)">
            <text x="0px" y="0px" style="font-family:'FiraSans-Regular', 'Fira Sans', sans-serif;font-size:150px;fill:white;">CNN</text>
        </g>
        <g transform="matrix(1.06844,0,0,0.981432,1815.08,625.481)">
            <text x="0px" y="0px" style="font-family:'FiraSans-Regular', 'Fira Sans', sans-serif;font-size:150px;fill:white;">F-CNN</text>
        </g>
        <g transform="matrix(0.999999,0,0,1,2906.17,615.22)">
            <text x="0px" y="0px" style="font-family:'FiraSans-Regular', 'Fira Sans', sans-serif;font-size:150px;fill:white;">CRNN</text>
        </g>
        <g transform="matrix(0.999999,0,0,1,2640.44,1054.06)">
            <text x="0px" y="0px" style="font-family:'FiraSans-Regular', 'Fira Sans', sans-serif;font-size:150px;fill:white;">F-CRNN</text>
        </g>
        <g transform="matrix(0.999999,0,0,1,648.718,1206)">
            <text x="0px" y="0px" style="font-family:'FiraSans-Regular', 'Fira Sans', sans-serif;font-size:85.333px;fill:white;">Bidir</text>
        </g>
        <g transform="matrix(0.999999,0,0,1,831.849,1206)">
            <text x="0px" y="0px" style="font-family:'FiraSans-Regular', 'Fira Sans', sans-serif;font-size:85.333px;fill:white;">ectional l</text>
        </g>
        <g transform="matrix(0.999999,0,0,1,1192.47,1206)">
            <text x="0px" y="0px" style="font-family:'FiraSans-Regular', 'Fira Sans', sans-serif;font-size:85.333px;fill:white;">ong shor</text>
        </g>
        <g transform="matrix(0.999999,0,0,1,1532.78,1206)">
            <text x="0px" y="0px" style="font-family:'FiraSans-Regular', 'Fira Sans', sans-serif;font-size:85.333px;fill:white;">t</text>
            <g transform="matrix(1,0,0,1,29.952,0)">
                <text x="0px" y="0px" style="font-family:'FiraSans-Regular', 'Fira Sans', sans-serif;font-size:85.333px;fill:white;">-t<tspan x="64.341px " y="0px ">e</tspan>rm memor</text>
            </g>
        </g>
        <g transform="matrix(0.999999,0,0,1,2079.5,1206)">
            <text x="0px" y="0px" style="font-family:'FiraSans-Regular', 'Fira Sans', sans-serif;font-size:85.333px;fill:white;">y</text>
        </g>
        <g transform="matrix(0.999999,0,0,1,637.741,736.2)">
            <text x="0px" y="0px" style="font-family:'FiraSans-Regular', 'Fira Sans', sans-serif;font-size:85.333px;fill:white;">C</text>
        </g>
        <g transform="matrix(0.999999,0,0,1,684.666,736.2)">
            <text x="0px" y="0px" style="font-family:'FiraSans-Regular', 'Fira Sans', sans-serif;font-size:85.333px;fill:white;">on</text>
            <g transform="matrix(1,0,0,1,98.986,0)">
                <text x="0px" y="0px" style="font-family:'FiraSans-Regular', 'Fira Sans', sans-serif;font-size:85.333px;fill:white;">v<tspan x="41.131px " y="0px ">o</tspan>lutional Netw</text>
            </g>
        </g>
        <g transform="matrix(0.999999,0,0,1,1394.39,736.2)">
            <text x="0px" y="0px" style="font-family:'FiraSans-Regular', 'Fira Sans', sans-serif;font-size:85.333px;fill:white;">ork</text>
        </g>
        <g transform="matrix(1.06844,0,0,0.981432,1815.08,755.02)">
            <text x="0px" y="0px" style="font-family:'FiraSans-Regular', 'Fira Sans', sans-serif;font-size:85.333px;fill:white;">Full-band ﬁlt</text>
        </g>
        <g transform="matrix(1.06844,0,0,0.981432,2350.08,755.02)">
            <text x="0px" y="0px" style="font-family:'FiraSans-Regular', 'Fira Sans', sans-serif;font-size:85.333px;fill:white;">er</text>
            <g transform="matrix(1,0,0,1,79.018,0)">
                <text x="0px" y="0px" style="font-family:'FiraSans-Regular', 'Fira Sans', sans-serif;font-size:85.333px;fill:white;">s CNN</text>
            </g>
        </g>
        <g transform="matrix(0.999999,0,0,1,2906.16,747.197)">
            <text x="0px" y="0px" style="font-family:'FiraSans-Regular', 'Fira Sans', sans-serif;font-size:85.333px;fill:white;">C</text>
        </g>
        <g transform="matrix(0.999999,0,0,1,2953.09,747.197)">
            <text x="0px" y="0px" style="font-family:'FiraSans-Regular', 'Fira Sans', sans-serif;font-size:85.333px;fill:white;">ombination of CNN + and RNN</text>
        </g>
        <g transform="matrix(0.999999,0,0,1,2640.43,1186.05)">
            <text x="0px" y="0px" style="font-family:'FiraSans-Regular', 'Fira Sans', sans-serif;font-size:85.333px;fill:white;">Full-band ﬁlt</text>
        </g>
        <g transform="matrix(0.999999,0,0,1,3141.17,1186.05)">
            <text x="0px" y="0px" style="font-family:'FiraSans-Regular', 'Fira Sans', sans-serif;font-size:85.333px;fill:white;">er v</text>
        </g>
        <g transform="matrix(0.999999,0,0,1,3284.79,1186.05)">
            <text x="0px" y="0px" style="font-family:'FiraSans-Regular', 'Fira Sans', sans-serif;font-size:85.333px;fill:white;">er</text>
            <g transform="matrix(1,0,0,1,79.018,0)">
                <text x="0px" y="0px" style="font-family:'FiraSans-Regular', 'Fira Sans', sans-serif;font-size:85.333px;fill:white;">sion of CRNN</text>
            </g>
        </g>
        <g transform="matrix(2.05267,0,0,2.18995,94.2463,159.607)">
            <text x="0px" y="0px" style="font-family:'FiraSans-Medium', 'Fira Sans', sans-serif;font-weight:500;font-size:65.755px;stroke:black;stroke-width:0.47px;">Input</text>
        </g>
        <g transform="matrix(2.05267,0,0,2.18995,149.855,871.101)">
            <text x="0px" y="0px" style="font-family:'FiraSans-Medium', 'Fira Sans', sans-serif;font-weight:500;font-size:65.755px;stroke:black;stroke-width:0.47px;">Net</text>
        </g>
        <g transform="matrix(2.63446,0,0,2.63446,101.051,1633.75)">
            <text x="0px" y="0px" style="font-family:'FiraSans-Medium', 'Fira Sans', sans-serif;font-weight:500;font-size:36.44px;">Output/</text>
            <text x="0px" y="36.44px" style="font-family:'FiraSans-Medium', 'Fira Sans', sans-serif;font-weight:500;font-size:36.44px;">Loss</text>
        </g>
        <g transform="matrix(0.494813,0,0,0.253085,-1082.7,872.4)">
            <rect x="5669.29" y="2645.67" width="2362.2" height="967.022" style="fill:rgb(115,115,115);"/>
        </g>
        <g transform="matrix(0.485842,0,0,0.253085,-2222.57,872.395)">
            <rect x="5669.29" y="2645.67" width="2362.2" height="967.022" style="fill:rgb(115,115,115);"/>
        </g>
        <g transform="matrix(1.02975,0,0,1.09862,612.039,1689.68)">
            <text x="0px" y="0px" style="font-family:'FiraSans-Regular', 'Fira Sans', sans-serif;font-size:100px;fill:white;">Gaussian R</text>
        </g>
        <g transform="matrix(1.02975,0,0,1.09862,1123.1,1689.68)">
            <text x="0px" y="0px" style="font-family:'FiraSans-Regular', 'Fira Sans', sans-serif;font-size:100px;fill:white;">egr</text>
        </g>
        <g transform="matrix(1.02975,0,0,1.09862,1272.01,1689.68)">
            <text x="0px" y="0px" style="font-family:'FiraSans-Regular', 'Fira Sans', sans-serif;font-size:100px;fill:white;">ession</text>
        </g>
        <g transform="matrix(1.02975,0,0,1.09862,1815.73,1689.68)">
            <text x="0px" y="0px" style="font-family:'FiraSans-Regular', 'Fira Sans', sans-serif;font-size:100px;fill:white;">P</text>
        </g>
        <g transform="matrix(1.02975,0,0,1.09862,1873.5,1689.68)">
            <text x="0px" y="0px" style="font-family:'FiraSans-Regular', 'Fira Sans', sans-serif;font-size:100px;fill:white;">oisson R</text>
        </g>
        <g transform="matrix(1.02975,0,0,1.09862,2267.89,1689.68)">
            <text x="0px" y="0px" style="font-family:'FiraSans-Regular', 'Fira Sans', sans-serif;font-size:100px;fill:white;">egr</text>
        </g>
        <g transform="matrix(1.02975,0,0,1.09862,2416.79,1689.68)">
            <text x="0px" y="0px" style="font-family:'FiraSans-Regular', 'Fira Sans', sans-serif;font-size:100px;fill:white;">ession</text>
        </g>
    </g>
</svg>
