<svg version="1.1" viewBox="0.0 0.0 327.8871391076116 100.0" fill="none" stroke="none" stroke-linecap="square" stroke-miterlimit="10" xmlns:xlink="http://www.w3.org/1999/xlink" xmlns="http://www.w3.org/2000/svg"><clipPath id="p.0"><path d="m0 0l327.88715 0l0 100.0l-327.88715 0l0 -100.0z" clip-rule="nonzero"/></clipPath><g clip-path="url(#p.0)"><path fill="#000000" fill-opacity="0.0" d="m0 0l327.88715 0l0 100.0l-327.88715 0z" fill-rule="evenodd"/><path fill="#f3f3f3" d="m2.426009 36.693222l0 0c0 -2.1194801 1.7181761 -3.837654 3.8376534 -3.837654l316.07272 0c1.0177917 0 1.993927 0.40432358 2.713623 1.1240234c0.71969604 0.71969986 1.1240234 1.6958199 1.1240234 2.7136307l0 16.734142c0 2.1194763 -1.7181702 3.8376503 -3.8376465 3.8376503l-316.07272 0c-2.1194773 0 -3.8376534 -1.718174 -3.8376534 -3.8376503z" fill-rule="evenodd"/><path stroke="#d9d9d9" stroke-width="1.0" stroke-linejoin="round" stroke-linecap="butt" d="m2.426009 36.693222l0 0c0 -2.1194801 1.7181761 -3.837654 3.8376534 -3.837654l316.07272 0c1.0177917 0 1.993927 0.40432358 2.713623 1.1240234c0.71969604 0.71969986 1.1240234 1.6958199 1.1240234 2.7136307l0 16.734142c0 2.1194763 -1.7181702 3.8376503 -3.8376465 3.8376503l-316.07272 0c-2.1194773 0 -3.8376534 -1.718174 -3.8376534 -3.8376503z" fill-rule="evenodd"/><path fill="#cccccc" d="m7.1853857 36.011066l0 0c0 -0.001449585 0.0011768341 -0.0026283264 0.0026283264 -0.0026283264l315.39896 0.0026283264c6.713867E-4 0 0.0013427734 2.784729E-4 0.0018310547 7.7056885E-4c5.187988E-4 4.9209595E-4 7.9345703E-4 0.001159668 7.9345703E-4 0.0018577576l-0.0026245117 8.24934c0 0.0014533997 -0.0011901855 0.0026283264 -0.0026550293 0.0026283264l-315.39893 -0.0026283264l0 0c-0.0014519691 0 -0.0026283264 -0.0011749268 -0.0026283264 -0.0026283264z" fill-rule="evenodd"/><path stroke="#000000" stroke-width="1.0" stroke-linejoin="round" stroke-linecap="butt" d="m7.1853857 36.011066l0 0c0 -0.001449585 0.0011768341 -0.0026283264 0.0026283264 -0.0026283264l315.39896 0.0026283264c6.713867E-4 0 0.0013427734 2.784729E-4 0.0018310547 7.7056885E-4c5.187988E-4 4.9209595E-4 7.9345703E-4 0.001159668 7.9345703E-4 0.0018577576l-0.0026245117 8.24934c0 0.0014533997 -0.0011901855 0.0026283264 -0.0026550293 0.0026283264l-315.39893 -0.0026283264l0 0c-0.0014519691 0 -0.0026283264 -0.0011749268 -0.0026283264 -0.0026283264z" fill-rule="evenodd"/><path fill="#ead1dc" d="m7.1853857 45.856915l0 0c0 -0.001449585 0.0011768341 -0.0026283264 0.0026283264 -0.0026283264l315.39896 0.0026283264c6.713867E-4 0 0.0013427734 2.784729E-4 0.0018310547 7.7056885E-4c5.187988E-4 4.9209595E-4 7.9345703E-4 0.0011634827 7.9345703E-4 0.0018577576l-0.0026245117 8.24934c0 0.0014533997 -0.0011901855 0.0026283264 -0.0026550293 0.0026283264l-315.39893 -0.0026283264l0 0c-0.0014519691 0 -0.0026283264 -0.0011749268 -0.0026283264 -0.0026283264z" fill-rule="evenodd"/><path stroke="#000000" stroke-width="1.0" stroke-linejoin="round" stroke-linecap="butt" d="m7.1853857 45.856915l0 0c0 -0.001449585 0.0011768341 -0.0026283264 0.0026283264 -0.0026283264l315.39896 0.0026283264c6.713867E-4 0 0.0013427734 2.784729E-4 0.0018310547 7.7056885E-4c5.187988E-4 4.9209595E-4 7.9345703E-4 0.0011634827 7.9345703E-4 0.0018577576l-0.0026245117 8.24934c0 0.0014533997 -0.0011901855 0.0026283264 -0.0026550293 0.0026283264l-315.39893 -0.0026283264l0 0c-0.0014519691 0 -0.0026283264 -0.0011749268 -0.0026283264 -0.0026283264z" fill-rule="evenodd"/><path fill="#000000" fill-opacity="0.0" d="m157.90556 18.847143l51.716522 0l0 42.92913l-51.716522 0z" fill-rule="evenodd"/><path stroke="#b45f06" stroke-width="2.0" stroke-linejoin="round" stroke-linecap="butt" d="m157.90556 18.847143l51.716522 0l0 42.92913l-51.716522 0z" fill-rule="evenodd"/><path fill="#000000" fill-opacity="0.0" d="m178.89185 78.70993l52.094482 -0.53543854" fill-rule="evenodd"/><path stroke="#000000" stroke-width="1.0" stroke-linejoin="round" stroke-linecap="butt" d="m184.89154 78.64826l40.095108 -0.41210175" fill-rule="evenodd"/><path fill="#000000" stroke="#000000" stroke-width="1.0" stroke-linecap="butt" d="m184.87456 76.99662l-4.520874 1.6982803l4.554825 1.6050034z" fill-rule="evenodd"/><path fill="#000000" stroke="#000000" stroke-width="1.0" stroke-linecap="butt" d="m225.00363 79.8878l4.5208893 -1.6982803l-4.55484 -1.6050034z" fill-rule="evenodd"/><path fill="#000000" fill-opacity="0.0" d="m152.96759 70.27684l123.90552 0l0 33.669296l-123.90552 0z" fill-rule="evenodd"/><path fill="#000000" d="m167.88947 90.57559l1.265625 0.15625q-0.203125 1.3125 -1.0625 2.0625q-0.84375 0.734375 -2.09375 0.734375q-1.5625 0 -2.515625 -1.015625q-0.9375 -1.03125 -0.9375 -2.921875q0 -1.234375 0.40625 -2.15625q0.40625 -0.921875 1.234375 -1.375q0.84375 -0.46875 1.8125 -0.46875q1.25 0 2.03125 0.625q0.78125 0.625 1.015625 1.765625l-1.265625 0.203125q-0.171875 -0.765625 -0.625 -1.15625q-0.453125 -0.390625 -1.09375 -0.390625q-0.984375 0 -1.59375 0.703125q-0.609375 0.703125 -0.609375 2.203125q0 1.53125 0.578125 2.234375q0.59375 0.6875 1.546875 0.6875q0.75 0 1.265625 -0.453125q0.515625 -0.46875 0.640625 -1.4375zm1.890625 -1.015625q0 -2.109375 1.171875 -3.125q0.984375 -0.84375 2.390625 -0.84375q1.578125 0 2.5625 1.03125q1.0 1.015625 1.0 2.828125q0 1.46875 -0.4375 2.3125q-0.4375 0.828125 -1.28125 1.296875q-0.84375 0.46875 -1.84375 0.46875q-1.59375 0 -2.578125 -1.015625q-0.984375 -1.03125 -0.984375 -2.953125zm1.328125 0q0 1.453125 0.625 2.1875q0.640625 0.71875 1.609375 0.71875q0.96875 0 1.59375 -0.71875q0.640625 -0.734375 0.640625 -2.234375q0 -1.40625 -0.640625 -2.125q-0.640625 -0.734375 -1.59375 -0.734375q-0.96875 0 -1.609375 0.71875q-0.625 0.71875 -0.625 2.1875zm7.307358 3.796875l0 -7.59375l1.15625 0l0 1.078125q0.84375 -1.25 2.421875 -1.25q0.6875 0 1.265625 0.25q0.578125 0.234375 0.859375 0.640625q0.28125 0.40625 0.40625 0.953125q0.0625 0.359375 0.0625 1.25l0 4.671875l-1.28125 0l0 -4.625q0 -0.78125 -0.15625 -1.171875q-0.15625 -0.390625 -0.546875 -0.625q-0.375 -0.234375 -0.890625 -0.234375q-0.8125 0 -1.421875 0.53125q-0.59375 0.515625 -0.59375 1.96875l0 4.15625l-1.28125 0zm10.963608 -1.15625l0.1875 1.140625q-0.546875 0.109375 -0.984375 0.109375q-0.6875 0 -1.078125 -0.21875q-0.390625 -0.21875 -0.546875 -0.578125q-0.15625 -0.359375 -0.15625 -1.515625l0 -4.375l-0.953125 0l0 -1.0l0.953125 0l0 -1.890625l1.28125 -0.765625l0 2.65625l1.296875 0l0 1.0l-1.296875 0l0 4.4375q0 0.546875 0.0625 0.71875q0.078125 0.15625 0.21875 0.25q0.15625 0.078125 0.453125 0.078125q0.203125 0 0.5625 -0.046875zm6.4626007 -1.296875l1.328125 0.171875q-0.3125 1.171875 -1.171875 1.8125q-0.84375 0.640625 -2.171875 0.640625q-1.671875 0 -2.65625 -1.015625q-0.96875 -1.03125 -0.96875 -2.890625q0 -1.921875 0.984375 -2.96875q1.0 -1.0625 2.578125 -1.0625q1.515625 0 2.484375 1.03125q0.96875 1.03125 0.96875 2.921875q0 0.109375 -0.015625 0.34375l-5.65625 0q0.0625 1.25 0.703125 1.921875q0.640625 0.65625 1.59375 0.65625q0.703125 0 1.203125 -0.359375q0.5 -0.375 0.796875 -1.203125zm-4.234375 -2.078125l4.25 0q-0.09375 -0.953125 -0.484375 -1.4375q-0.625 -0.75 -1.609375 -0.75q-0.875 0 -1.484375 0.59375q-0.609375 0.59375 -0.671875 1.59375zm6.322983 4.53125l2.78125 -3.953125l-2.578125 -3.640625l1.609375 0l1.171875 1.78125q0.328125 0.5 0.53125 0.84375q0.3125 -0.46875 0.578125 -0.828125l1.28125 -1.796875l1.53125 0l-2.625 3.578125l2.828125 4.015625l-1.578125 0l-1.5625 -2.359375l-0.40625 -0.640625l-2.0 3.0l-1.5625 0zm11.0 -1.15625l0.1875 1.140625q-0.546875 0.109375 -0.984375 0.109375q-0.6875 0 -1.078125 -0.21875q-0.390625 -0.21875 -0.546875 -0.578125q-0.15625 -0.359375 -0.15625 -1.515625l0 -4.375l-0.953125 0l0 -1.0l0.953125 0l0 -1.890625l1.28125 -0.765625l0 2.65625l1.296875 0l0 1.0l-1.296875 0l0 4.4375q0 0.546875 0.0625 0.71875q0.078125 0.15625 0.21875 0.25q0.15625 0.078125 0.453125 0.078125q0.203125 0 0.5625 -0.046875zm5.3002014 1.15625l0 -10.484375l1.28125 0l0 10.484375l-1.28125 0zm8.490524 -2.453125l1.328125 0.171875q-0.3125 1.171875 -1.171875 1.8125q-0.84375 0.640625 -2.171875 0.640625q-1.671875 0 -2.65625 -1.015625q-0.96875 -1.03125 -0.96875 -2.890625q0 -1.921875 0.984375 -2.96875q1.0 -1.0625 2.578125 -1.0625q1.515625 0 2.484375 1.03125q0.96875 1.03125 0.96875 2.921875q0 0.109375 -0.015625 0.34375l-5.65625 0q0.0625 1.25 0.703125 1.921875q0.640625 0.65625 1.59375 0.65625q0.703125 0 1.203125 -0.359375q0.5 -0.375 0.796875 -1.203125zm-4.234375 -2.078125l4.25 0q-0.09375 -0.953125 -0.484375 -1.4375q-0.625 -0.75 -1.609375 -0.75q-0.875 0 -1.484375 0.59375q-0.609375 0.59375 -0.671875 1.59375zm7.182358 4.53125l0 -7.59375l1.15625 0l0 1.078125q0.84375 -1.25 2.421875 -1.25q0.6875 0 1.265625 0.25q0.578125 0.234375 0.859375 0.640625q0.28125 0.40625 0.40625 0.953125q0.0625 0.359375 0.0625 1.25l0 4.671875l-1.28125 0l0 -4.625q0 -0.78125 -0.15625 -1.171875q-0.15625 -0.390625 -0.546875 -0.625q-0.375 -0.234375 -0.890625 -0.234375q-0.8125 0 -1.421875 0.53125q-0.59375 0.515625 -0.59375 1.96875l0 4.15625l-1.28125 0zm7.916733 0.625l1.25 0.1875q0.078125 0.578125 0.4375 0.84375q0.46875 0.359375 1.3125 0.359375q0.890625 0 1.375 -0.359375q0.484375 -0.359375 0.65625 -1.0q0.109375 -0.390625 0.09375 -1.65625q-0.84375 1.0 -2.109375 1.0q-1.5625 0 -2.421875 -1.125q-0.859375 -1.140625 -0.859375 -2.71875q0 -1.09375 0.390625 -2.0q0.40625 -0.921875 1.140625 -1.421875q0.75 -0.5 1.765625 -0.5q1.34375 0 2.21875 1.078125l0 -0.90625l1.1875 0l0 6.5625q0 1.78125 -0.359375 2.515625q-0.359375 0.734375 -1.15625 1.15625q-0.78125 0.4375 -1.921875 0.4375q-1.359375 0 -2.203125 -0.609375q-0.828125 -0.609375 -0.796875 -1.84375zm1.0625 -4.5625q0 1.5 0.59375 2.1875q0.59375 0.6875 1.484375 0.6875q0.890625 0 1.484375 -0.6875q0.609375 -0.6875 0.609375 -2.140625q0 -1.390625 -0.625 -2.09375q-0.609375 -0.71875 -1.484375 -0.71875q-0.859375 0 -1.46875 0.703125q-0.59375 0.6875 -0.59375 2.0625zm10.135483 2.78125l0.1875 1.140625q-0.546875 0.109375 -0.984375 0.109375q-0.6875 0 -1.078125 -0.21875q-0.390625 -0.21875 -0.546875 -0.578125q-0.15625 -0.359375 -0.15625 -1.515625l0 -4.375l-0.953125 0l0 -1.0l0.953125 0l0 -1.890625l1.28125 -0.765625l0 2.65625l1.296875 0l0 1.0l-1.296875 0l0 4.4375q0 0.546875 0.0625 0.71875q0.078125 0.15625 0.21875 0.25q0.15625 0.078125 0.453125 0.078125q0.203125 0 0.5625 -0.046875zm1.2594757 1.15625l0 -10.484375l1.28125 0l0 3.75q0.90625 -1.03125 2.28125 -1.03125q0.84375 0 1.46875 0.328125q0.625 0.328125 0.890625 0.921875q0.265625 0.578125 0.265625 1.703125l0 4.8125l-1.28125 0l0 -4.8125q0 -0.96875 -0.421875 -1.40625q-0.421875 -0.4375 -1.1875 -0.4375q-0.578125 0 -1.078125 0.296875q-0.5 0.296875 -0.71875 0.8125q-0.21875 0.5 -0.21875 1.390625l0 4.15625l-1.28125 0z" fill-rule="nonzero"/><path fill="#000000" fill-opacity="0.0" d="m179.50739 28.813942l51.716537 0l0 42.92913l-51.716537 0z" fill-rule="evenodd"/><path stroke="#b45f06" stroke-width="2.0" stroke-linejoin="round" stroke-linecap="butt" d="m179.50739 28.813942l51.716537 0l0 42.92913l-51.716537 0z" fill-rule="evenodd"/><path fill="#000000" fill-opacity="0.0" d="m69.905556 18.847143l51.716537 0l0 42.92913l-51.716537 0z" fill-rule="evenodd"/><path stroke="#b45f06" stroke-width="2.0" stroke-linejoin="round" stroke-linecap="butt" d="m69.905556 18.847143l51.716537 0l0 42.92913l-51.716537 0z" fill-rule="evenodd"/><path fill="#000000" fill-opacity="0.0" d="m87.210396 26.847143l51.71653 0l0 42.92913l-51.71653 0z" fill-rule="evenodd"/><path stroke="#b45f06" stroke-width="2.0" stroke-linejoin="round" stroke-linecap="butt" d="m87.210396 26.847143l51.71653 0l0 42.92913l-51.71653 0z" fill-rule="evenodd"/><path fill="#000000" fill-opacity="0.0" d="m261.90555 26.847143l51.716553 0l0 42.92913l-51.716553 0z" fill-rule="evenodd"/><path stroke="#b45f06" stroke-width="2.0" stroke-linejoin="round" stroke-linecap="butt" d="m261.90555 26.847143l51.716553 0l0 42.92913l-51.716553 0z" fill-rule="evenodd"/><path fill="#000000" fill-opacity="0.0" d="m7.02399 26.847143l51.716534 0l0 42.92913l-51.716534 0z" fill-rule="evenodd"/><path stroke="#b45f06" stroke-width="2.0" stroke-linejoin="round" stroke-linecap="butt" d="m7.02399 26.847143l51.716534 0l0 42.92913l-51.716534 0z" fill-rule="evenodd"/></g></svg>