<?xml version="1.0" encoding="UTF-8" standalone="no"?>
<!DOCTYPE svg PUBLIC "-//W3C//DTD SVG 1.1//EN" "http://www.w3.org/Graphics/SVG/1.1/DTD/svg11.dtd">
<svg width="100%" height="100%" viewBox="0 0 190 360" version="1.1" xmlns="http://www.w3.org/2000/svg" xmlns:xlink="http://www.w3.org/1999/xlink" xml:space="preserve" xmlns:serif="http://www.serif.com/" style="fill-rule:evenodd;clip-rule:evenodd;">
    <g id="figure_1" transform="matrix(1,0,0,1,-108,216)">
        <g transform="matrix(6.12323e-17,-1,1,6.12323e-17,110.72,124.989)">
            <g id="axes_1">
                <rect id="patch_2" x="45" y="17.28" width="279" height="110.88" style="fill:white;fill-rule:nonzero;"/>
                <rect id="patch_3" x="158.999" y="33.912" width="42.043" height="22.176" style="fill:rgb(50,116,161);fill-rule:nonzero;stroke:rgb(63,63,63);stroke-width:1.5px;"/>
                <rect id="patch_4" x="151.417" y="89.352" width="44.111" height="22.176" style="fill:rgb(225,129,44);fill-rule:nonzero;stroke:rgb(63,63,63);stroke-width:1.5px;"/>
                <g id="matplotlib.axis_1">
                    <g id="xtick_1">
                        <g id="mfedea796b0" transform="matrix(1,0,0,1,76.9802,128.16)">
                            <path d="M0,0L0,3.5" style="fill:none;fill-rule:nonzero;stroke:black;stroke-width:0.8px;"/>
                        </g>
                        <g id="text_1" transform="matrix(6.12323e-18,0.1,0.1,-6.12323e-18,73.3648,134.143)">
                            <path id="DejaVuSans-32" d="M19.188,8.297L53.609,8.297L53.609,0L7.328,0L7.328,8.297C11.068,12.172 16.167,17.37 22.625,23.891C29.094,30.422 33.156,34.635 34.813,36.531C37.969,40.073 40.172,43.073 41.422,45.531C42.682,47.99 43.313,50.406 43.313,52.781C43.313,56.656 41.953,59.813 39.234,62.25C36.516,64.698 32.974,65.922 28.609,65.922C25.516,65.922 22.25,65.385 18.813,64.313C15.385,63.24 11.719,61.609 7.813,59.422L7.813,69.391C11.781,70.984 15.49,72.188 18.938,73C22.396,73.813 25.557,74.219 28.422,74.219C35.974,74.219 41.995,72.328 46.484,68.547C50.974,64.776 53.219,59.734 53.219,53.422C53.219,50.422 52.656,47.578 51.531,44.891C50.417,42.214 48.375,39.052 45.406,35.406C44.594,34.458 42.005,31.729 37.641,27.219C33.286,22.708 27.135,16.401 19.188,8.297Z" style="fill-rule:nonzero;"/>
                            <g id="DejaVuSans-2e" transform="matrix(1,0,0,1,63.623,0)">
                                <rect x="10.688" y="0" width="10.313" height="12.406" style="fill-rule:nonzero;"/>
                            </g>
                            <g id="DejaVuSans-38" transform="matrix(1,0,0,1,95.4102,0)">
                                <path d="M31.781,34.625C27.094,34.625 23.406,33.37 20.719,30.859C18.042,28.349 16.703,24.901 16.703,20.516C16.703,16.12 18.042,12.667 20.719,10.156C23.406,7.646 27.094,6.391 31.781,6.391C36.469,6.391 40.161,7.651 42.859,10.172C45.568,12.703 46.922,16.151 46.922,20.516C46.922,24.901 45.578,28.349 42.891,30.859C40.214,33.37 36.51,34.625 31.781,34.625ZM21.922,38.813C17.693,39.854 14.396,41.823 12.031,44.719C9.677,47.625 8.5,51.161 8.5,55.328C8.5,61.151 10.573,65.755 14.719,69.141C18.875,72.526 24.563,74.219 31.781,74.219C39.042,74.219 44.74,72.526 48.875,69.141C53.01,65.755 55.078,61.151 55.078,55.328C55.078,51.161 53.896,47.625 51.531,44.719C49.177,41.823 45.901,39.854 41.703,38.813C46.453,37.708 50.151,35.542 52.797,32.313C55.453,29.094 56.781,25.161 56.781,20.516C56.781,13.443 54.625,8.016 50.313,4.234C46,0.464 39.823,-1.422 31.781,-1.422C23.75,-1.422 17.573,0.464 13.25,4.234C8.938,8.016 6.781,13.443 6.781,20.516C6.781,25.161 8.115,29.094 10.781,32.313C13.458,35.542 17.172,37.708 21.922,38.813ZM18.313,54.391C18.313,50.62 19.49,47.677 21.844,45.563C24.208,43.448 27.521,42.391 31.781,42.391C36.021,42.391 39.333,43.448 41.719,45.563C44.115,47.677 45.313,50.62 45.313,54.391C45.313,58.172 44.115,61.12 41.719,63.234C39.333,65.349 36.021,66.406 31.781,66.406C27.521,66.406 24.208,65.349 21.844,63.234C19.49,61.12 18.313,58.172 18.313,54.391Z" style="fill-rule:nonzero;"/>
                            </g>
                        </g>
                    </g>
                    <g id="xtick_2">
                        <g id="mfedea796b01" serif:id="mfedea796b0" transform="matrix(1,0,0,1,110.063,128.16)">
                            <path d="M0,0L0,3.5" style="fill:none;fill-rule:nonzero;stroke:black;stroke-width:0.8px;"/>
                        </g>
                        <g id="text_2" transform="matrix(6.12323e-18,0.1,0.1,-6.12323e-18,106.473,134.118)">
                            <path id="DejaVuSans-33" d="M40.578,39.313C45.297,38.302 48.979,36.198 51.625,33C54.281,29.813 55.609,25.875 55.609,21.188C55.609,14 53.135,8.432 48.188,4.484C43.24,0.547 36.208,-1.422 27.094,-1.422C24.042,-1.422 20.896,-1.12 17.656,-0.516C14.417,0.089 11.073,0.995 7.625,2.203L7.625,11.719C10.354,10.125 13.344,8.922 16.594,8.109C19.854,7.297 23.26,6.891 26.813,6.891C32.99,6.891 37.698,8.109 40.938,10.547C44.177,12.984 45.797,16.531 45.797,21.188C45.797,25.49 44.292,28.849 41.281,31.266C38.271,33.693 34.083,34.906 28.719,34.906L20.219,34.906L20.219,43.016L29.109,43.016C33.953,43.016 37.661,43.984 40.234,45.922C42.807,47.859 44.094,50.651 44.094,54.297C44.094,58.036 42.766,60.906 40.109,62.906C37.464,64.917 33.667,65.922 28.719,65.922C26.01,65.922 23.109,65.625 20.016,65.031C16.922,64.448 13.521,63.542 9.813,62.313L9.813,71.094C13.563,72.135 17.073,72.917 20.344,73.438C23.615,73.958 26.698,74.219 29.594,74.219C37.083,74.219 43.005,72.516 47.359,69.109C51.724,65.714 53.906,61.12 53.906,55.328C53.906,51.286 52.75,47.875 50.438,45.094C48.125,42.313 44.839,40.385 40.578,39.313Z" style="fill-rule:nonzero;"/>
                            <g id="DejaVuSans-2e1" serif:id="DejaVuSans-2e" transform="matrix(1,0,0,1,63.623,0)">
                                <rect x="10.688" y="0" width="10.313" height="12.406" style="fill-rule:nonzero;"/>
                            </g>
                            <g id="DejaVuSans-30" transform="matrix(1,0,0,1,95.4102,0)">
                                <path d="M31.781,66.406C26.708,66.406 22.891,63.906 20.328,58.906C17.776,53.917 16.5,46.406 16.5,36.375C16.5,26.385 17.776,18.891 20.328,13.891C22.891,8.891 26.708,6.391 31.781,6.391C36.896,6.391 40.729,8.891 43.281,13.891C45.844,18.891 47.125,26.385 47.125,36.375C47.125,46.406 45.844,53.917 43.281,58.906C40.729,63.906 36.896,66.406 31.781,66.406ZM31.781,74.219C39.958,74.219 46.203,70.984 50.516,64.516C54.828,58.057 56.984,48.677 56.984,36.375C56.984,24.104 54.828,14.734 50.516,8.266C46.203,1.807 39.958,-1.422 31.781,-1.422C23.615,-1.422 17.375,1.807 13.063,8.266C8.75,14.734 6.594,24.104 6.594,36.375C6.594,48.677 8.75,58.057 13.063,64.516C17.375,70.984 23.615,74.219 31.781,74.219Z" style="fill-rule:nonzero;"/>
                            </g>
                        </g>
                    </g>
                    <g id="xtick_3">
                        <g id="mfedea796b02" serif:id="mfedea796b0" transform="matrix(1,0,0,1,143.146,128.16)">
                            <path d="M0,0L0,3.5" style="fill:none;fill-rule:nonzero;stroke:black;stroke-width:0.8px;"/>
                        </g>
                        <g id="text_3" transform="matrix(6.12323e-18,0.1,0.1,-6.12323e-18,139.387,134.286)">
                            <path id="DejaVuSans-331" serif:id="DejaVuSans-33" d="M40.578,39.313C45.297,38.302 48.979,36.198 51.625,33C54.281,29.813 55.609,25.875 55.609,21.188C55.609,14 53.135,8.432 48.188,4.484C43.24,0.547 36.208,-1.422 27.094,-1.422C24.042,-1.422 20.896,-1.12 17.656,-0.516C14.417,0.089 11.073,0.995 7.625,2.203L7.625,11.719C10.354,10.125 13.344,8.922 16.594,8.109C19.854,7.297 23.26,6.891 26.813,6.891C32.99,6.891 37.698,8.109 40.938,10.547C44.177,12.984 45.797,16.531 45.797,21.188C45.797,25.49 44.292,28.849 41.281,31.266C38.271,33.693 34.083,34.906 28.719,34.906L20.219,34.906L20.219,43.016L29.109,43.016C33.953,43.016 37.661,43.984 40.234,45.922C42.807,47.859 44.094,50.651 44.094,54.297C44.094,58.036 42.766,60.906 40.109,62.906C37.464,64.917 33.667,65.922 28.719,65.922C26.01,65.922 23.109,65.625 20.016,65.031C16.922,64.448 13.521,63.542 9.813,62.313L9.813,71.094C13.563,72.135 17.073,72.917 20.344,73.438C23.615,73.958 26.698,74.219 29.594,74.219C37.083,74.219 43.005,72.516 47.359,69.109C51.724,65.714 53.906,61.12 53.906,55.328C53.906,51.286 52.75,47.875 50.438,45.094C48.125,42.313 44.839,40.385 40.578,39.313Z" style="fill-rule:nonzero;"/>
                            <g id="DejaVuSans-2e2" serif:id="DejaVuSans-2e" transform="matrix(1,0,0,1,63.623,0)">
                                <rect x="10.688" y="0" width="10.313" height="12.406" style="fill-rule:nonzero;"/>
                            </g>
                            <g id="DejaVuSans-321" serif:id="DejaVuSans-32" transform="matrix(1,0,0,1,95.4102,0)">
                                <path d="M19.188,8.297L53.609,8.297L53.609,0L7.328,0L7.328,8.297C11.068,12.172 16.167,17.37 22.625,23.891C29.094,30.422 33.156,34.635 34.813,36.531C37.969,40.073 40.172,43.073 41.422,45.531C42.682,47.99 43.313,50.406 43.313,52.781C43.313,56.656 41.953,59.813 39.234,62.25C36.516,64.698 32.974,65.922 28.609,65.922C25.516,65.922 22.25,65.385 18.813,64.313C15.385,63.24 11.719,61.609 7.813,59.422L7.813,69.391C11.781,70.984 15.49,72.188 18.938,73C22.396,73.813 25.557,74.219 28.422,74.219C35.974,74.219 41.995,72.328 46.484,68.547C50.974,64.776 53.219,59.734 53.219,53.422C53.219,50.422 52.656,47.578 51.531,44.891C50.417,42.214 48.375,39.052 45.406,35.406C44.594,34.458 42.005,31.729 37.641,27.219C33.286,22.708 27.135,16.401 19.188,8.297Z" style="fill-rule:nonzero;"/>
                            </g>
                        </g>
                    </g>
                    <g id="xtick_4">
                        <g id="mfedea796b03" serif:id="mfedea796b0" transform="matrix(1,0,0,1,176.229,128.16)">
                            <path d="M0,0L0,3.5" style="fill:none;fill-rule:nonzero;stroke:black;stroke-width:0.8px;"/>
                        </g>
                        <g id="text_4" transform="matrix(-1.83697e-17,0.1,0.1,1.83697e-17,172.69,136.066)">
                            <path id="DejaVuSans-332" serif:id="DejaVuSans-33" d="M40.578,39.313C45.297,38.302 48.979,36.198 51.625,33C54.281,29.813 55.609,25.875 55.609,21.188C55.609,14 53.135,8.432 48.188,4.484C43.24,0.547 36.208,-1.422 27.094,-1.422C24.042,-1.422 20.896,-1.12 17.656,-0.516C14.417,0.089 11.073,0.995 7.625,2.203L7.625,11.719C10.354,10.125 13.344,8.922 16.594,8.109C19.854,7.297 23.26,6.891 26.813,6.891C32.99,6.891 37.698,8.109 40.938,10.547C44.177,12.984 45.797,16.531 45.797,21.188C45.797,25.49 44.292,28.849 41.281,31.266C38.271,33.693 34.083,34.906 28.719,34.906L20.219,34.906L20.219,43.016L29.109,43.016C33.953,43.016 37.661,43.984 40.234,45.922C42.807,47.859 44.094,50.651 44.094,54.297C44.094,58.036 42.766,60.906 40.109,62.906C37.464,64.917 33.667,65.922 28.719,65.922C26.01,65.922 23.109,65.625 20.016,65.031C16.922,64.448 13.521,63.542 9.813,62.313L9.813,71.094C13.563,72.135 17.073,72.917 20.344,73.438C23.615,73.958 26.698,74.219 29.594,74.219C37.083,74.219 43.005,72.516 47.359,69.109C51.724,65.714 53.906,61.12 53.906,55.328C53.906,51.286 52.75,47.875 50.438,45.094C48.125,42.313 44.839,40.385 40.578,39.313Z" style="fill-rule:nonzero;"/>
                            <g id="DejaVuSans-2e3" serif:id="DejaVuSans-2e" transform="matrix(1,0,0,1,63.623,0)">
                                <rect x="10.688" y="0" width="10.313" height="12.406" style="fill-rule:nonzero;"/>
                            </g>
                            <g id="DejaVuSans-34" transform="matrix(1,0,0,1,95.4102,0)">
                                <path d="M37.797,64.313L12.891,25.391L37.797,25.391L37.797,64.313ZM35.203,72.906L47.609,72.906L47.609,25.391L58.016,25.391L58.016,17.188L47.609,17.188L47.609,0L37.797,0L37.797,17.188L4.891,17.188L4.891,26.703L35.203,72.906Z" style="fill-rule:nonzero;"/>
                            </g>
                        </g>
                    </g>
                    <g id="xtick_5">
                        <g id="mfedea796b04" serif:id="mfedea796b0" transform="matrix(1,0,0,1,209.312,128.16)">
                            <path d="M0,0L0,3.5" style="fill:none;fill-rule:nonzero;stroke:black;stroke-width:0.8px;"/>
                        </g>
                        <g id="text_5" transform="matrix(6.12323e-18,0.1,0.1,-6.12323e-18,205.739,136.1)">
                            <path id="DejaVuSans-333" serif:id="DejaVuSans-33" d="M40.578,39.313C45.297,38.302 48.979,36.198 51.625,33C54.281,29.813 55.609,25.875 55.609,21.188C55.609,14 53.135,8.432 48.188,4.484C43.24,0.547 36.208,-1.422 27.094,-1.422C24.042,-1.422 20.896,-1.12 17.656,-0.516C14.417,0.089 11.073,0.995 7.625,2.203L7.625,11.719C10.354,10.125 13.344,8.922 16.594,8.109C19.854,7.297 23.26,6.891 26.813,6.891C32.99,6.891 37.698,8.109 40.938,10.547C44.177,12.984 45.797,16.531 45.797,21.188C45.797,25.49 44.292,28.849 41.281,31.266C38.271,33.693 34.083,34.906 28.719,34.906L20.219,34.906L20.219,43.016L29.109,43.016C33.953,43.016 37.661,43.984 40.234,45.922C42.807,47.859 44.094,50.651 44.094,54.297C44.094,58.036 42.766,60.906 40.109,62.906C37.464,64.917 33.667,65.922 28.719,65.922C26.01,65.922 23.109,65.625 20.016,65.031C16.922,64.448 13.521,63.542 9.813,62.313L9.813,71.094C13.563,72.135 17.073,72.917 20.344,73.438C23.615,73.958 26.698,74.219 29.594,74.219C37.083,74.219 43.005,72.516 47.359,69.109C51.724,65.714 53.906,61.12 53.906,55.328C53.906,51.286 52.75,47.875 50.438,45.094C48.125,42.313 44.839,40.385 40.578,39.313Z" style="fill-rule:nonzero;"/>
                            <g id="DejaVuSans-2e4" serif:id="DejaVuSans-2e" transform="matrix(1,0,0,1,63.623,0)">
                                <rect x="10.688" y="0" width="10.313" height="12.406" style="fill-rule:nonzero;"/>
                            </g>
                            <g id="DejaVuSans-36" transform="matrix(1,0,0,1,95.4102,0)">
                                <path d="M33.016,40.375C28.589,40.375 25.078,38.859 22.484,35.828C19.901,32.807 18.609,28.661 18.609,23.391C18.609,18.151 19.901,14.005 22.484,10.953C25.078,7.911 28.589,6.391 33.016,6.391C37.443,6.391 40.948,7.911 43.531,10.953C46.115,14.005 47.406,18.151 47.406,23.391C47.406,28.661 46.115,32.807 43.531,35.828C40.948,38.859 37.443,40.375 33.016,40.375ZM52.594,71.297L52.594,62.313C50.115,63.479 47.615,64.37 45.094,64.984C42.573,65.609 40.073,65.922 37.594,65.922C31.083,65.922 26.109,63.724 22.672,59.328C19.245,54.932 17.286,48.292 16.797,39.406C18.714,42.24 21.12,44.411 24.016,45.922C26.922,47.432 30.115,48.188 33.594,48.188C40.917,48.188 46.703,45.964 50.953,41.516C55.203,37.078 57.328,31.036 57.328,23.391C57.328,15.901 55.115,9.891 50.688,5.359C46.26,0.839 40.37,-1.422 33.016,-1.422C24.578,-1.422 18.13,1.807 13.672,8.266C9.214,14.734 6.984,24.104 6.984,36.375C6.984,47.896 9.719,57.083 15.188,63.938C20.656,70.792 27.995,74.219 37.203,74.219C39.682,74.219 42.182,73.974 44.703,73.484C47.224,72.995 49.854,72.266 52.594,71.297Z" style="fill-rule:nonzero;"/>
                            </g>
                        </g>
                    </g>
                    <g id="xtick_6">
                        <g id="mfedea796b05" serif:id="mfedea796b0" transform="matrix(1,0,0,1,242.395,128.16)">
                            <path d="M0,0L0,3.5" style="fill:none;fill-rule:nonzero;stroke:black;stroke-width:0.8px;"/>
                        </g>
                        <g id="text_6" transform="matrix(6.12323e-18,0.1,0.1,-6.12323e-18,238.795,136.128)">
                            <path id="DejaVuSans-334" serif:id="DejaVuSans-33" d="M40.578,39.313C45.297,38.302 48.979,36.198 51.625,33C54.281,29.813 55.609,25.875 55.609,21.188C55.609,14 53.135,8.432 48.188,4.484C43.24,0.547 36.208,-1.422 27.094,-1.422C24.042,-1.422 20.896,-1.12 17.656,-0.516C14.417,0.089 11.073,0.995 7.625,2.203L7.625,11.719C10.354,10.125 13.344,8.922 16.594,8.109C19.854,7.297 23.26,6.891 26.813,6.891C32.99,6.891 37.698,8.109 40.938,10.547C44.177,12.984 45.797,16.531 45.797,21.188C45.797,25.49 44.292,28.849 41.281,31.266C38.271,33.693 34.083,34.906 28.719,34.906L20.219,34.906L20.219,43.016L29.109,43.016C33.953,43.016 37.661,43.984 40.234,45.922C42.807,47.859 44.094,50.651 44.094,54.297C44.094,58.036 42.766,60.906 40.109,62.906C37.464,64.917 33.667,65.922 28.719,65.922C26.01,65.922 23.109,65.625 20.016,65.031C16.922,64.448 13.521,63.542 9.813,62.313L9.813,71.094C13.563,72.135 17.073,72.917 20.344,73.438C23.615,73.958 26.698,74.219 29.594,74.219C37.083,74.219 43.005,72.516 47.359,69.109C51.724,65.714 53.906,61.12 53.906,55.328C53.906,51.286 52.75,47.875 50.438,45.094C48.125,42.313 44.839,40.385 40.578,39.313Z" style="fill-rule:nonzero;"/>
                            <g id="DejaVuSans-2e5" serif:id="DejaVuSans-2e" transform="matrix(1,0,0,1,63.623,0)">
                                <rect x="10.688" y="0" width="10.313" height="12.406" style="fill-rule:nonzero;"/>
                            </g>
                            <g id="DejaVuSans-381" serif:id="DejaVuSans-38" transform="matrix(1,0,0,1,95.4102,0)">
                                <path d="M31.781,34.625C27.094,34.625 23.406,33.37 20.719,30.859C18.042,28.349 16.703,24.901 16.703,20.516C16.703,16.12 18.042,12.667 20.719,10.156C23.406,7.646 27.094,6.391 31.781,6.391C36.469,6.391 40.161,7.651 42.859,10.172C45.568,12.703 46.922,16.151 46.922,20.516C46.922,24.901 45.578,28.349 42.891,30.859C40.214,33.37 36.51,34.625 31.781,34.625ZM21.922,38.813C17.693,39.854 14.396,41.823 12.031,44.719C9.677,47.625 8.5,51.161 8.5,55.328C8.5,61.151 10.573,65.755 14.719,69.141C18.875,72.526 24.563,74.219 31.781,74.219C39.042,74.219 44.74,72.526 48.875,69.141C53.01,65.755 55.078,61.151 55.078,55.328C55.078,51.161 53.896,47.625 51.531,44.719C49.177,41.823 45.901,39.854 41.703,38.813C46.453,37.708 50.151,35.542 52.797,32.313C55.453,29.094 56.781,25.161 56.781,20.516C56.781,13.443 54.625,8.016 50.313,4.234C46,0.464 39.823,-1.422 31.781,-1.422C23.75,-1.422 17.573,0.464 13.25,4.234C8.938,8.016 6.781,13.443 6.781,20.516C6.781,25.161 8.115,29.094 10.781,32.313C13.458,35.542 17.172,37.708 21.922,38.813ZM18.313,54.391C18.313,50.62 19.49,47.677 21.844,45.563C24.208,43.448 27.521,42.391 31.781,42.391C36.021,42.391 39.333,43.448 41.719,45.563C44.115,47.677 45.313,50.62 45.313,54.391C45.313,58.172 44.115,61.12 41.719,63.234C39.333,65.349 36.021,66.406 31.781,66.406C27.521,66.406 24.208,65.349 21.844,63.234C19.49,61.12 18.313,58.172 18.313,54.391Z" style="fill-rule:nonzero;"/>
                            </g>
                        </g>
                    </g>
                    <g id="xtick_7">
                        <g id="mfedea796b06" serif:id="mfedea796b0" transform="matrix(1,0,0,1,275.478,128.16)">
                            <path d="M0,0L0,3.5" style="fill:none;fill-rule:nonzero;stroke:black;stroke-width:0.8px;"/>
                        </g>
                        <g id="text_7" transform="matrix(6.93889e-18,0.1,0.1,-6.93889e-18,271.751,136.254)">
                            <path id="DejaVuSans-341" serif:id="DejaVuSans-34" d="M37.797,64.313L12.891,25.391L37.797,25.391L37.797,64.313ZM35.203,72.906L47.609,72.906L47.609,25.391L58.016,25.391L58.016,17.188L47.609,17.188L47.609,0L37.797,0L37.797,17.188L4.891,17.188L4.891,26.703L35.203,72.906Z" style="fill-rule:nonzero;"/>
                            <g id="DejaVuSans-2e6" serif:id="DejaVuSans-2e" transform="matrix(1,0,0,1,63.623,0)">
                                <rect x="10.688" y="0" width="10.313" height="12.406" style="fill-rule:nonzero;"/>
                            </g>
                            <g id="DejaVuSans-301" serif:id="DejaVuSans-30" transform="matrix(1,0,0,1,95.4102,0)">
                                <path d="M31.781,66.406C26.708,66.406 22.891,63.906 20.328,58.906C17.776,53.917 16.5,46.406 16.5,36.375C16.5,26.385 17.776,18.891 20.328,13.891C22.891,8.891 26.708,6.391 31.781,6.391C36.896,6.391 40.729,8.891 43.281,13.891C45.844,18.891 47.125,26.385 47.125,36.375C47.125,46.406 45.844,53.917 43.281,58.906C40.729,63.906 36.896,66.406 31.781,66.406ZM31.781,74.219C39.958,74.219 46.203,70.984 50.516,64.516C54.828,58.057 56.984,48.677 56.984,36.375C56.984,24.104 54.828,14.734 50.516,8.266C46.203,1.807 39.958,-1.422 31.781,-1.422C23.615,-1.422 17.375,1.807 13.063,8.266C8.75,14.734 6.594,24.104 6.594,36.375C6.594,48.677 8.75,58.057 13.063,64.516C17.375,70.984 23.615,74.219 31.781,74.219Z" style="fill-rule:nonzero;"/>
                            </g>
                        </g>
                    </g>
                    <g id="xtick_8">
                        <g id="mfedea796b07" serif:id="mfedea796b0" transform="matrix(1,0,0,1,308.561,128.16)">
                            <path d="M0,0L0,3.5" style="fill:none;fill-rule:nonzero;stroke:black;stroke-width:0.8px;"/>
                        </g>
                        <g id="text_8" transform="matrix(-1.83697e-17,0.1,0.1,1.83697e-17,304.594,135.352)">
                            <path id="DejaVuSans-342" serif:id="DejaVuSans-34" d="M37.797,64.313L12.891,25.391L37.797,25.391L37.797,64.313ZM35.203,72.906L47.609,72.906L47.609,25.391L58.016,25.391L58.016,17.188L47.609,17.188L47.609,0L37.797,0L37.797,17.188L4.891,17.188L4.891,26.703L35.203,72.906Z" style="fill-rule:nonzero;"/>
                            <g id="DejaVuSans-2e7" serif:id="DejaVuSans-2e" transform="matrix(1,0,0,1,63.623,0)">
                                <rect x="10.688" y="0" width="10.313" height="12.406" style="fill-rule:nonzero;"/>
                            </g>
                            <g id="DejaVuSans-322" serif:id="DejaVuSans-32" transform="matrix(1,0,0,1,95.4102,0)">
                                <path d="M19.188,8.297L53.609,8.297L53.609,0L7.328,0L7.328,8.297C11.068,12.172 16.167,17.37 22.625,23.891C29.094,30.422 33.156,34.635 34.813,36.531C37.969,40.073 40.172,43.073 41.422,45.531C42.682,47.99 43.313,50.406 43.313,52.781C43.313,56.656 41.953,59.813 39.234,62.25C36.516,64.698 32.974,65.922 28.609,65.922C25.516,65.922 22.25,65.385 18.813,64.313C15.385,63.24 11.719,61.609 7.813,59.422L7.813,69.391C11.781,70.984 15.49,72.188 18.938,73C22.396,73.813 25.557,74.219 28.422,74.219C35.974,74.219 41.995,72.328 46.484,68.547C50.974,64.776 53.219,59.734 53.219,53.422C53.219,50.422 52.656,47.578 51.531,44.891C50.417,42.214 48.375,39.052 45.406,35.406C44.594,34.458 42.005,31.729 37.641,27.219C33.286,22.708 27.135,16.401 19.188,8.297Z" style="fill-rule:nonzero;"/>
                            </g>
                        </g>
                    </g>
                    <g id="text_9" transform="matrix(0.1,0,0,-0.1,151.115,169.878)">
                        <path id="DejaVuSans-73" d="M44.281,53.078L44.281,44.578C41.75,45.88 39.115,46.854 36.375,47.5C33.646,48.156 30.813,48.484 27.875,48.484C23.417,48.484 20.073,47.802 17.844,46.438C15.615,45.073 14.5,43.021 14.5,40.281C14.5,38.198 15.297,36.563 16.891,35.375C18.484,34.188 21.693,33.057 26.516,31.984L29.594,31.297C35.969,29.932 40.5,28.005 43.188,25.516C45.875,23.026 47.219,19.552 47.219,15.094C47.219,10.01 45.208,5.984 41.188,3.016C37.167,0.057 31.641,-1.422 24.609,-1.422C21.682,-1.422 18.63,-1.135 15.453,-0.563C12.276,0.01 8.932,0.865 5.422,2L5.422,11.281C8.745,9.552 12.016,8.255 15.234,7.391C18.453,6.536 21.646,6.109 24.813,6.109C29.042,6.109 32.292,6.833 34.563,8.281C36.844,9.729 37.984,11.771 37.984,14.406C37.984,16.844 37.161,18.714 35.516,20.016C33.88,21.318 30.276,22.573 24.703,23.781L21.578,24.516C16.016,25.682 11.995,27.479 9.516,29.906C7.047,32.333 5.813,35.661 5.813,39.891C5.813,45.036 7.635,49.005 11.281,51.797C14.927,54.599 20.104,56 26.813,56C30.125,56 33.245,55.755 36.172,55.266C39.109,54.786 41.813,54.057 44.281,53.078Z" style="fill-rule:nonzero;"/>
                        <g id="DejaVuSans-70" transform="matrix(1,0,0,1,52.0996,0)">
                            <path d="M18.109,8.203L18.109,-20.797L9.078,-20.797L9.078,54.688L18.109,54.688L18.109,46.391C20.005,49.641 22.391,52.052 25.266,53.625C28.151,55.208 31.594,56 35.594,56C42.24,56 47.635,53.365 51.781,48.094C55.938,42.823 58.016,35.891 58.016,27.297C58.016,18.703 55.938,11.766 51.781,6.484C47.635,1.214 42.24,-1.422 35.594,-1.422C31.594,-1.422 28.151,-0.63 25.266,0.953C22.391,2.536 20.005,4.953 18.109,8.203ZM48.688,27.297C48.688,33.901 47.328,39.083 44.609,42.844C41.891,46.604 38.156,48.484 33.406,48.484C28.646,48.484 24.906,46.604 22.188,42.844C19.469,39.083 18.109,33.901 18.109,27.297C18.109,20.693 19.469,15.51 22.188,11.75C24.906,7.99 28.646,6.109 33.406,6.109C38.156,6.109 41.891,7.99 44.609,11.75C47.328,15.51 48.688,20.693 48.688,27.297Z" style="fill-rule:nonzero;"/>
                        </g>
                        <g id="DejaVuSans-65" transform="matrix(1,0,0,1,115.576,0)">
                            <path d="M56.203,29.594L56.203,25.203L14.891,25.203C15.286,19.016 17.151,14.302 20.484,11.063C23.818,7.823 28.464,6.203 34.422,6.203C37.87,6.203 41.214,6.625 44.453,7.469C47.693,8.313 50.911,9.583 54.109,11.281L54.109,2.781C50.88,1.417 47.573,0.375 44.188,-0.344C40.802,-1.063 37.37,-1.422 33.891,-1.422C25.161,-1.422 18.25,1.115 13.156,6.188C8.063,11.271 5.516,18.146 5.516,26.813C5.516,35.76 7.932,42.859 12.766,48.109C17.599,53.37 24.12,56 32.328,56C39.682,56 45.5,53.63 49.781,48.891C54.063,44.161 56.203,37.729 56.203,29.594ZM47.219,32.234C47.156,37.141 45.781,41.057 43.094,43.984C40.406,46.922 36.849,48.391 32.422,48.391C27.411,48.391 23.401,46.974 20.391,44.141C17.38,41.307 15.646,37.318 15.188,32.172L47.219,32.234Z" style="fill-rule:nonzero;"/>
                        </g>
                        <g id="DejaVuSans-61" transform="matrix(1,0,0,1,177.1,0)">
                            <path d="M34.281,27.484C27.021,27.484 21.99,26.656 19.188,25C16.385,23.344 14.984,20.51 14.984,16.5C14.984,13.313 16.036,10.781 18.141,8.906C20.245,7.042 23.099,6.109 26.703,6.109C31.693,6.109 35.693,7.875 38.703,11.406C41.714,14.938 43.219,19.63 43.219,25.484L43.219,27.484L34.281,27.484ZM52.203,31.203L52.203,0L43.219,0L43.219,8.297C41.167,4.984 38.609,2.536 35.547,0.953C32.484,-0.63 28.74,-1.422 24.313,-1.422C18.719,-1.422 14.266,0.151 10.953,3.297C7.651,6.443 6,10.651 6,15.922C6,22.068 8.057,26.703 12.172,29.828C16.297,32.953 22.443,34.516 30.609,34.516L43.219,34.516L43.219,35.406C43.219,39.542 41.859,42.74 39.141,45C36.422,47.26 32.604,48.391 27.688,48.391C24.563,48.391 21.516,48.016 18.547,47.266C15.589,46.516 12.745,45.391 10.016,43.891L10.016,52.203C13.297,53.474 16.484,54.422 19.578,55.047C22.672,55.682 25.682,56 28.609,56C36.526,56 42.438,53.948 46.344,49.844C50.25,45.75 52.203,39.536 52.203,31.203Z" style="fill-rule:nonzero;"/>
                        </g>
                        <g id="DejaVuSans-6b" transform="matrix(1,0,0,1,238.379,0)">
                            <path d="M9.078,75.984L18.109,75.984L18.109,31.109L44.922,54.688L56.391,54.688L27.391,29.109L57.625,0L45.906,0L18.109,26.703L18.109,0L9.078,0L9.078,75.984Z" style="fill-rule:nonzero;"/>
                        </g>
                        <g id="DejaVuSans-69" transform="matrix(1,0,0,1,296.289,0)">
                            <path d="M9.422,54.688L18.406,54.688L18.406,0L9.422,0L9.422,54.688ZM9.422,75.984L18.406,75.984L18.406,64.594L9.422,64.594L9.422,75.984Z" style="fill-rule:nonzero;"/>
                        </g>
                        <g id="DejaVuSans-6e" transform="matrix(1,0,0,1,324.072,0)">
                            <path d="M54.891,33.016L54.891,0L45.906,0L45.906,32.719C45.906,37.896 44.896,41.766 42.875,44.328C40.854,46.901 37.828,48.188 33.797,48.188C28.943,48.188 25.115,46.641 22.313,43.547C19.51,40.464 18.109,36.25 18.109,30.906L18.109,0L9.078,0L9.078,54.688L18.109,54.688L18.109,46.188C20.266,49.479 22.797,51.938 25.703,53.563C28.62,55.188 31.984,56 35.797,56C42.078,56 46.828,54.057 50.047,50.172C53.276,46.286 54.891,40.568 54.891,33.016Z" style="fill-rule:nonzero;"/>
                        </g>
                        <g id="DejaVuSans-67" transform="matrix(1,0,0,1,387.451,0)">
                            <path d="M45.406,27.984C45.406,34.495 44.063,39.536 41.375,43.109C38.698,46.693 34.932,48.484 30.078,48.484C25.266,48.484 21.516,46.693 18.828,43.109C16.141,39.536 14.797,34.495 14.797,27.984C14.797,21.505 16.141,16.474 18.828,12.891C21.516,9.307 25.266,7.516 30.078,7.516C34.932,7.516 38.698,9.307 41.375,12.891C44.063,16.474 45.406,21.505 45.406,27.984ZM54.391,6.781C54.391,-2.521 52.323,-9.443 48.188,-13.984C44.063,-18.526 37.734,-20.797 29.203,-20.797C26.047,-20.797 23.068,-20.563 20.266,-20.094C17.464,-19.625 14.745,-18.901 12.109,-17.922L12.109,-9.188C14.745,-10.615 17.349,-11.667 19.922,-12.344C22.495,-13.031 25.115,-13.375 27.781,-13.375C33.677,-13.375 38.089,-11.839 41.016,-8.766C43.943,-5.693 45.406,-1.047 45.406,5.172L45.406,9.625C43.552,6.396 41.177,3.984 38.281,2.391C35.385,0.797 31.917,0 27.875,0C21.177,0 15.776,2.552 11.672,7.656C7.568,12.771 5.516,19.547 5.516,27.984C5.516,36.443 7.568,43.224 11.672,48.328C15.776,53.443 21.177,56 27.875,56C31.917,56 35.385,55.203 38.281,53.609C41.177,52.016 43.552,49.609 45.406,46.391L45.406,54.688L54.391,54.688L54.391,6.781Z" style="fill-rule:nonzero;"/>
                        </g>
                        <g id="DejaVuSans-72" transform="matrix(1,0,0,1,500.928,0)">
                            <path d="M41.109,46.297C40.099,46.88 39,47.307 37.813,47.578C36.625,47.859 35.318,48 33.891,48C28.807,48 24.906,46.349 22.188,43.047C19.469,39.745 18.109,35 18.109,28.813L18.109,0L9.078,0L9.078,54.688L18.109,54.688L18.109,46.188C20.005,49.51 22.464,51.974 25.484,53.578C28.516,55.193 32.198,56 36.531,56C37.146,56 37.828,55.958 38.578,55.875C39.328,55.802 40.156,55.682 41.063,55.516L41.109,46.297Z" style="fill-rule:nonzero;"/>
                        </g>
                        <g id="DejaVuSans-611" serif:id="DejaVuSans-61" transform="matrix(1,0,0,1,542.041,0)">
                            <path d="M34.281,27.484C27.021,27.484 21.99,26.656 19.188,25C16.385,23.344 14.984,20.51 14.984,16.5C14.984,13.313 16.036,10.781 18.141,8.906C20.245,7.042 23.099,6.109 26.703,6.109C31.693,6.109 35.693,7.875 38.703,11.406C41.714,14.938 43.219,19.63 43.219,25.484L43.219,27.484L34.281,27.484ZM52.203,31.203L52.203,0L43.219,0L43.219,8.297C41.167,4.984 38.609,2.536 35.547,0.953C32.484,-0.63 28.74,-1.422 24.313,-1.422C18.719,-1.422 14.266,0.151 10.953,3.297C7.651,6.443 6,10.651 6,15.922C6,22.068 8.057,26.703 12.172,29.828C16.297,32.953 22.443,34.516 30.609,34.516L43.219,34.516L43.219,35.406C43.219,39.542 41.859,42.74 39.141,45C36.422,47.26 32.604,48.391 27.688,48.391C24.563,48.391 21.516,48.016 18.547,47.266C15.589,46.516 12.745,45.391 10.016,43.891L10.016,52.203C13.297,53.474 16.484,54.422 19.578,55.047C22.672,55.682 25.682,56 28.609,56C36.526,56 42.438,53.948 46.344,49.844C50.25,45.75 52.203,39.536 52.203,31.203Z" style="fill-rule:nonzero;"/>
                        </g>
                        <g id="DejaVuSans-74" transform="matrix(1,0,0,1,603.32,0)">
                            <path d="M18.313,70.219L18.313,54.688L36.813,54.688L36.813,47.703L18.313,47.703L18.313,18.016C18.313,13.557 18.922,10.693 20.141,9.422C21.359,8.151 23.844,7.516 27.594,7.516L36.813,7.516L36.813,0L27.594,0C20.656,0 15.87,1.292 13.234,3.875C10.599,6.469 9.281,11.182 9.281,18.016L9.281,47.703L2.688,47.703L2.688,54.688L9.281,54.688L9.281,70.219L18.313,70.219Z" style="fill-rule:nonzero;"/>
                        </g>
                        <g id="DejaVuSans-651" serif:id="DejaVuSans-65" transform="matrix(1,0,0,1,642.529,0)">
                            <path d="M56.203,29.594L56.203,25.203L14.891,25.203C15.286,19.016 17.151,14.302 20.484,11.063C23.818,7.823 28.464,6.203 34.422,6.203C37.87,6.203 41.214,6.625 44.453,7.469C47.693,8.313 50.911,9.583 54.109,11.281L54.109,2.781C50.88,1.417 47.573,0.375 44.188,-0.344C40.802,-1.063 37.37,-1.422 33.891,-1.422C25.161,-1.422 18.25,1.115 13.156,6.188C8.063,11.271 5.516,18.146 5.516,26.813C5.516,35.76 7.932,42.859 12.766,48.109C17.599,53.37 24.12,56 32.328,56C39.682,56 45.5,53.63 49.781,48.891C54.063,44.161 56.203,37.729 56.203,29.594ZM47.219,32.234C47.156,37.141 45.781,41.057 43.094,43.984C40.406,46.922 36.849,48.391 32.422,48.391C27.411,48.391 23.401,46.974 20.391,44.141C17.38,41.307 15.646,37.318 15.188,32.172L47.219,32.234Z" style="fill-rule:nonzero;"/>
                        </g>
                    </g>
                </g>
                <g transform="matrix(1,0,0,1,-5.56277,14.3255)">
                    <text x="24.365px" y="34.455px" style="font-family:'FiraSans-Regular', 'Fira Sans', sans-serif;font-size:11.168px;">T<tspan x="29.246px " y="34.455px ">r</tspan>ue</text>
                </g>
                <g transform="matrix(1,0,0,1,-7.5048,69.545)">
                    <text x="24.365px" y="34.455px" style="font-family:'FiraSans-Regular', 'Fira Sans', sans-serif;font-size:11.168px;">F<tspan x="29.458px " y="34.455px ">a</tspan>lse</text>
                </g>
                <path id="line2d_11" d="M158.999,45L99.036,45" style="fill:none;fill-rule:nonzero;stroke:rgb(63,63,63);stroke-width:1.5px;stroke-linecap:square;"/>
                <path id="line2d_12" d="M201.042,45L261.694,45" style="fill:none;fill-rule:nonzero;stroke:rgb(63,63,63);stroke-width:1.5px;stroke-linecap:square;"/>
                <path id="line2d_13" d="M99.036,39.456L99.036,50.544" style="fill:none;fill-rule:nonzero;stroke:rgb(63,63,63);stroke-width:1.5px;stroke-linecap:square;"/>
                <path id="line2d_14" d="M261.694,39.456L261.694,50.544" style="fill:none;fill-rule:nonzero;stroke:rgb(63,63,63);stroke-width:1.5px;stroke-linecap:square;"/>
                <g id="line2d_15">
                    <g id="mf05d31c493" transform="matrix(1,0,0,1,88.0079,45)">
                        <path d="M0,3.536L2.121,0L0,-3.536L-2.121,0L0,3.536Z" style="fill:rgb(63,63,63);fill-rule:nonzero;stroke:rgb(63,63,63);stroke-width:1px;"/>
                    </g>
                    <g id="mf05d31c4931" serif:id="mf05d31c493" transform="matrix(1,0,0,1,76.9802,45)">
                        <path d="M0,3.536L2.121,0L0,-3.536L-2.121,0L0,3.536Z" style="fill:rgb(63,63,63);fill-rule:nonzero;stroke:rgb(63,63,63);stroke-width:1px;"/>
                    </g>
                    <g id="mf05d31c4932" serif:id="mf05d31c493" transform="matrix(1,0,0,1,85.251,45)">
                        <path d="M0,3.536L2.121,0L0,-3.536L-2.121,0L0,3.536Z" style="fill:rgb(63,63,63);fill-rule:nonzero;stroke:rgb(63,63,63);stroke-width:1px;"/>
                    </g>
                    <g id="mf05d31c4933" serif:id="mf05d31c493" transform="matrix(1,0,0,1,93.5217,45)">
                        <path d="M0,3.536L2.121,0L0,-3.536L-2.121,0L0,3.536Z" style="fill:rgb(63,63,63);fill-rule:nonzero;stroke:rgb(63,63,63);stroke-width:1px;"/>
                    </g>
                    <g id="mf05d31c4934" serif:id="mf05d31c493" transform="matrix(1,0,0,1,88.0079,45)">
                        <path d="M0,3.536L2.121,0L0,-3.536L-2.121,0L0,3.536Z" style="fill:rgb(63,63,63);fill-rule:nonzero;stroke:rgb(63,63,63);stroke-width:1px;"/>
                    </g>
                    <g id="mf05d31c4935" serif:id="mf05d31c493" transform="matrix(1,0,0,1,311.318,45)">
                        <path d="M0,3.536L2.121,0L0,-3.536L-2.121,0L0,3.536Z" style="fill:rgb(63,63,63);fill-rule:nonzero;stroke:rgb(63,63,63);stroke-width:1px;"/>
                    </g>
                    <g id="mf05d31c4936" serif:id="mf05d31c493" transform="matrix(1,0,0,1,283.749,45)">
                        <path d="M0,3.536L2.121,0L0,-3.536L-2.121,0L0,3.536Z" style="fill:rgb(63,63,63);fill-rule:nonzero;stroke:rgb(63,63,63);stroke-width:1px;"/>
                    </g>
                    <g id="mf05d31c4937" serif:id="mf05d31c493" transform="matrix(1,0,0,1,269.964,45)">
                        <path d="M0,3.536L2.121,0L0,-3.536L-2.121,0L0,3.536Z" style="fill:rgb(63,63,63);fill-rule:nonzero;stroke:rgb(63,63,63);stroke-width:1px;"/>
                    </g>
                    <g id="mf05d31c4938" serif:id="mf05d31c493" transform="matrix(1,0,0,1,267.208,45)">
                        <path d="M0,3.536L2.121,0L0,-3.536L-2.121,0L0,3.536Z" style="fill:rgb(63,63,63);fill-rule:nonzero;stroke:rgb(63,63,63);stroke-width:1px;"/>
                    </g>
                </g>
                <path id="line2d_16" d="M151.417,100.44L85.251,100.44" style="fill:none;fill-rule:nonzero;stroke:rgb(63,63,63);stroke-width:1.5px;stroke-linecap:square;"/>
                <path id="line2d_17" d="M195.528,100.44L256.18,100.44" style="fill:none;fill-rule:nonzero;stroke:rgb(63,63,63);stroke-width:1.5px;stroke-linecap:square;"/>
                <path id="line2d_18" d="M85.251,94.896L85.251,105.984" style="fill:none;fill-rule:nonzero;stroke:rgb(63,63,63);stroke-width:1.5px;stroke-linecap:square;"/>
                <path id="line2d_19" d="M256.18,94.896L256.18,105.984" style="fill:none;fill-rule:nonzero;stroke:rgb(63,63,63);stroke-width:1.5px;stroke-linecap:square;"/>
                <g id="line2d_20">
                    <g id="mf05d31c4939" serif:id="mf05d31c493" transform="matrix(1,0,0,1,76.9802,100.44)">
                        <path d="M0,3.536L2.121,0L0,-3.536L-2.121,0L0,3.536Z" style="fill:rgb(63,63,63);fill-rule:nonzero;stroke:rgb(63,63,63);stroke-width:1px;"/>
                    </g>
                    <g id="mf05d31c49310" serif:id="mf05d31c493" transform="matrix(1,0,0,1,71.4664,100.44)">
                        <path d="M0,3.536L2.121,0L0,-3.536L-2.121,0L0,3.536Z" style="fill:rgb(63,63,63);fill-rule:nonzero;stroke:rgb(63,63,63);stroke-width:1px;"/>
                    </g>
                    <g id="mf05d31c49311" serif:id="mf05d31c493" transform="matrix(1,0,0,1,57.6818,100.44)">
                        <path d="M0,3.536L2.121,0L0,-3.536L-2.121,0L0,3.536Z" style="fill:rgb(63,63,63);fill-rule:nonzero;stroke:rgb(63,63,63);stroke-width:1px;"/>
                    </g>
                    <g id="mf05d31c49312" serif:id="mf05d31c493" transform="matrix(1,0,0,1,68.7095,100.44)">
                        <path d="M0,3.536L2.121,0L0,-3.536L-2.121,0L0,3.536Z" style="fill:rgb(63,63,63);fill-rule:nonzero;stroke:rgb(63,63,63);stroke-width:1px;"/>
                    </g>
                    <g id="mf05d31c49313" serif:id="mf05d31c493" transform="matrix(1,0,0,1,76.9802,100.44)">
                        <path d="M0,3.536L2.121,0L0,-3.536L-2.121,0L0,3.536Z" style="fill:rgb(63,63,63);fill-rule:nonzero;stroke:rgb(63,63,63);stroke-width:1px;"/>
                    </g>
                    <g id="mf05d31c49314" serif:id="mf05d31c493" transform="matrix(1,0,0,1,82.4941,100.44)">
                        <path d="M0,3.536L2.121,0L0,-3.536L-2.121,0L0,3.536Z" style="fill:rgb(63,63,63);fill-rule:nonzero;stroke:rgb(63,63,63);stroke-width:1px;"/>
                    </g>
                    <g id="mf05d31c49315" serif:id="mf05d31c493" transform="matrix(1,0,0,1,292.02,100.44)">
                        <path d="M0,3.536L2.121,0L0,-3.536L-2.121,0L0,3.536Z" style="fill:rgb(63,63,63);fill-rule:nonzero;stroke:rgb(63,63,63);stroke-width:1px;"/>
                    </g>
                    <g id="mf05d31c49316" serif:id="mf05d31c493" transform="matrix(1,0,0,1,269.964,100.44)">
                        <path d="M0,3.536L2.121,0L0,-3.536L-2.121,0L0,3.536Z" style="fill:rgb(63,63,63);fill-rule:nonzero;stroke:rgb(63,63,63);stroke-width:1px;"/>
                    </g>
                </g>
                <path id="line2d_21" d="M178.986,33.912L178.986,56.088" style="fill:none;fill-rule:nonzero;stroke:rgb(63,63,63);stroke-width:1.5px;stroke-linecap:square;"/>
                <path id="line2d_22" d="M173.472,89.352L173.472,111.528" style="fill:none;fill-rule:nonzero;stroke:rgb(63,63,63);stroke-width:1.5px;stroke-linecap:square;"/>
                <path id="patch_5" d="M45,128.16L45,17.28" style="fill:none;fill-rule:nonzero;stroke:black;stroke-width:0.8px;stroke-linecap:square;"/>
                <path id="patch_6" d="M324,128.16L324,17.28" style="fill:none;fill-rule:nonzero;stroke:black;stroke-width:0.8px;stroke-linecap:square;"/>
                <path id="patch_7" d="M45,128.16L324,128.16" style="fill:none;fill-rule:nonzero;stroke:black;stroke-width:0.8px;stroke-linecap:square;"/>
                <path id="patch_8" d="M45,17.28L324,17.28" style="fill:none;fill-rule:nonzero;stroke:black;stroke-width:0.8px;stroke-linecap:square;"/>
            </g>
        </g>
        <g transform="matrix(1,0,0,1,149.006,55.866)">
            <text x="6px" y="68px" style="font-family:'FiraSans-Regular', 'Fira Sans', sans-serif;font-size:11.168px;">k = c<tspan x="28.448px " y="68px ">o</tspan>rr<tspan x="43.481px " y="68px ">e</tspan>ct</text>
        </g>
    </g>
</svg>
