<svg version="1.1" viewBox="0.0 0.0 959.3595800524935 308.1049868766404" fill="none" stroke="none" stroke-linecap="square" stroke-miterlimit="10" xmlns:xlink="http://www.w3.org/1999/xlink" xmlns="http://www.w3.org/2000/svg"><clipPath id="p.0"><path d="m0 0l959.35956 0l0 308.10498l-959.35956 0l0 -308.10498z" clip-rule="nonzero"/></clipPath><g clip-path="url(#p.0)"><path fill="#000000" fill-opacity="0.0" d="m0 0l959.35956 0l0 308.10498l-959.35956 0z" fill-rule="evenodd"/><path fill="#ffffff" d="m20.60105 36.19427l0 0c0 -5.769291 4.676935 -10.446224 10.446226 -10.446224l137.69023 0c2.7705078 0 5.4275513 1.1005802 7.3865967 3.0596275c1.9590454 1.9590473 3.0596313 4.616085 3.0596313 7.3865967l0 83.64299c0 5.769287 -4.676941 10.44622 -10.446228 10.44622l-137.69023 0l0 0c-5.769291 0 -10.446226 -4.6769333 -10.446226 -10.44622z" fill-rule="evenodd"/><path stroke="#000000" stroke-width="3.0" stroke-linejoin="round" stroke-linecap="butt" d="m20.60105 36.19427l0 0c0 -5.769291 4.676935 -10.446224 10.446226 -10.446224l137.69023 0c2.7705078 0 5.4275513 1.1005802 7.3865967 3.0596275c1.9590454 1.9590473 3.0596313 4.616085 3.0596313 7.3865967l0 83.64299c0 5.769287 -4.676941 10.44622 -10.446228 10.44622l-137.69023 0l0 0c-5.769291 0 -10.446226 -4.6769333 -10.446226 -10.44622z" fill-rule="evenodd"/><path fill="#cccccc" d="m27.417322 33.063362l6.9606304 0l0 92.62992l-6.9606304 0z" fill-rule="evenodd"/><path stroke="#000000" stroke-width="1.0" stroke-linejoin="round" stroke-linecap="butt" d="m27.417322 33.063362l6.9606304 0l0 92.62992l-6.9606304 0z" fill-rule="evenodd"/><path fill="#cccccc" d="m36.692913 33.063362l6.9606285 0l0 92.62992l-6.9606285 0z" fill-rule="evenodd"/><path stroke="#000000" stroke-width="1.0" stroke-linejoin="round" stroke-linecap="butt" d="m36.692913 33.063362l6.9606285 0l0 92.62992l-6.9606285 0z" fill-rule="evenodd"/><path fill="#cccccc" d="m45.968502 33.063362l6.9606323 0l0 92.62992l-6.9606323 0z" fill-rule="evenodd"/><path stroke="#000000" stroke-width="1.0" stroke-linejoin="round" stroke-linecap="butt" d="m45.968502 33.063362l6.9606323 0l0 92.62992l-6.9606323 0z" fill-rule="evenodd"/><path fill="#cccccc" d="m55.244095 33.063362l6.9606285 0l0 92.62992l-6.9606285 0z" fill-rule="evenodd"/><path stroke="#000000" stroke-width="1.0" stroke-linejoin="round" stroke-linecap="butt" d="m55.244095 33.063362l6.9606285 0l0 92.62992l-6.9606285 0z" fill-rule="evenodd"/><path fill="#cccccc" d="m64.519684 33.063362l6.9606323 0l0 92.62992l-6.9606323 0z" fill-rule="evenodd"/><path stroke="#000000" stroke-width="1.0" stroke-linejoin="round" stroke-linecap="butt" d="m64.519684 33.063362l6.9606323 0l0 92.62992l-6.9606323 0z" fill-rule="evenodd"/><path fill="#cccccc" d="m73.79527 33.063362l6.9606323 0l0 92.62992l-6.9606323 0z" fill-rule="evenodd"/><path stroke="#000000" stroke-width="1.0" stroke-linejoin="round" stroke-linecap="butt" d="m73.79527 33.063362l6.9606323 0l0 92.62992l-6.9606323 0z" fill-rule="evenodd"/><path fill="#cccccc" d="m83.07087 33.063362l6.9606247 0l0 92.62992l-6.9606247 0z" fill-rule="evenodd"/><path stroke="#000000" stroke-width="1.0" stroke-linejoin="round" stroke-linecap="butt" d="m83.07087 33.063362l6.9606247 0l0 92.62992l-6.9606247 0z" fill-rule="evenodd"/><path fill="#cccccc" d="m92.34646 33.063362l6.9606247 0l0 92.62992l-6.9606247 0z" fill-rule="evenodd"/><path stroke="#000000" stroke-width="1.0" stroke-linejoin="round" stroke-linecap="butt" d="m92.34646 33.063362l6.9606247 0l0 92.62992l-6.9606247 0z" fill-rule="evenodd"/><path fill="#cccccc" d="m101.62205 33.063362l6.9606323 0l0 92.62992l-6.9606323 0z" fill-rule="evenodd"/><path stroke="#000000" stroke-width="1.0" stroke-linejoin="round" stroke-linecap="butt" d="m101.62205 33.063362l6.9606323 0l0 92.62992l-6.9606323 0z" fill-rule="evenodd"/><path fill="#cccccc" d="m110.89764 33.063362l6.9606323 0l0 92.62992l-6.9606323 0z" fill-rule="evenodd"/><path stroke="#000000" stroke-width="1.0" stroke-linejoin="round" stroke-linecap="butt" d="m110.89764 33.063362l6.9606323 0l0 92.62992l-6.9606323 0z" fill-rule="evenodd"/><path fill="#cccccc" d="m120.173225 33.063362l6.9606323 0l0 92.62992l-6.9606323 0z" fill-rule="evenodd"/><path stroke="#000000" stroke-width="1.0" stroke-linejoin="round" stroke-linecap="butt" d="m120.173225 33.063362l6.9606323 0l0 92.62992l-6.9606323 0z" fill-rule="evenodd"/><path fill="#cccccc" d="m129.44882 33.063362l6.9606323 0l0 92.62992l-6.9606323 0z" fill-rule="evenodd"/><path stroke="#000000" stroke-width="1.0" stroke-linejoin="round" stroke-linecap="butt" d="m129.44882 33.063362l6.9606323 0l0 92.62992l-6.9606323 0z" fill-rule="evenodd"/><path fill="#cccccc" d="m138.72441 33.063362l6.9606323 0l0 92.62992l-6.9606323 0z" fill-rule="evenodd"/><path stroke="#000000" stroke-width="1.0" stroke-linejoin="round" stroke-linecap="butt" d="m138.72441 33.063362l6.9606323 0l0 92.62992l-6.9606323 0z" fill-rule="evenodd"/><path fill="#cccccc" d="m148.0 33.063362l6.9606323 0l0 92.62992l-6.9606323 0z" fill-rule="evenodd"/><path stroke="#000000" stroke-width="1.0" stroke-linejoin="round" stroke-linecap="butt" d="m148.0 33.063362l6.9606323 0l0 92.62992l-6.9606323 0z" fill-rule="evenodd"/><path fill="#cccccc" d="m157.27559 33.063362l6.9606323 0l0 92.62992l-6.9606323 0z" fill-rule="evenodd"/><path stroke="#000000" stroke-width="1.0" stroke-linejoin="round" stroke-linecap="butt" d="m157.27559 33.063362l6.9606323 0l0 92.62992l-6.9606323 0z" fill-rule="evenodd"/><path fill="#cccccc" d="m166.55118 33.063362l6.9606323 0l0 92.62992l-6.9606323 0z" fill-rule="evenodd"/><path stroke="#000000" stroke-width="1.0" stroke-linejoin="round" stroke-linecap="butt" d="m166.55118 33.063362l6.9606323 0l0 92.62992l-6.9606323 0z" fill-rule="evenodd"/><path fill="#570000" fill-opacity="0.2731" d="m20.00665 70.383675l0 0c0 -3.636444 2.9479198 -6.584366 6.584364 -6.584366l145.41394 0c1.7462921 0 3.421051 0.6937103 4.6558533 1.9285126c1.2348022 1.2348099 1.9285126 2.9095688 1.9285126 4.6558533l0 52.72103c0 3.636444 -2.9479218 6.584366 -6.584366 6.584366l-145.41394 0c-3.636444 0 -6.584364 -2.9479218 -6.584364 -6.584366z" fill-rule="evenodd"/><path stroke="#5b0f00" stroke-width="3.0" stroke-linejoin="round" stroke-linecap="butt" d="m20.00665 70.383675l0 0c0 -3.636444 2.9479198 -6.584366 6.584364 -6.584366l145.41394 0c1.7462921 0 3.421051 0.6937103 4.6558533 1.9285126c1.2348022 1.2348099 1.9285126 2.9095688 1.9285126 4.6558533l0 52.72103c0 3.636444 -2.9479218 6.584366 -6.584366 6.584366l-145.41394 0c-3.636444 0 -6.584364 -2.9479218 -6.584364 -6.584366z" fill-rule="evenodd"/><path fill="#ffffff" d="m4.60105 52.19427l0 0c0 -5.769291 4.6769347 -10.446224 10.446226 -10.446224l137.69023 0c2.7705078 0 5.4275513 1.1005821 7.3865967 3.0596275c1.9590454 1.9590492 3.0596313 4.616085 3.0596313 7.3865967l0 83.642975c0 5.7693024 -4.676941 10.446228 -10.446228 10.446228l-137.69023 0l0 0c-5.769291 0 -10.446226 -4.6769257 -10.446226 -10.446228z" fill-rule="evenodd"/><path stroke="#000000" stroke-width="3.0" stroke-linejoin="round" stroke-linecap="butt" d="m4.60105 52.19427l0 0c0 -5.769291 4.6769347 -10.446224 10.446226 -10.446224l137.69023 0c2.7705078 0 5.4275513 1.1005821 7.3865967 3.0596275c1.9590454 1.9590492 3.0596313 4.616085 3.0596313 7.3865967l0 83.642975c0 5.7693024 -4.676941 10.446228 -10.446228 10.446228l-137.69023 0l0 0c-5.769291 0 -10.446226 -4.6769257 -10.446226 -10.446228z" fill-rule="evenodd"/><path fill="#cccccc" d="m11.417323 49.063362l6.9606295 0l0 92.62992l-6.9606295 0z" fill-rule="evenodd"/><path stroke="#000000" stroke-width="1.0" stroke-linejoin="round" stroke-linecap="butt" d="m11.417323 49.063362l6.9606295 0l0 92.62992l-6.9606295 0z" fill-rule="evenodd"/><path fill="#cccccc" d="m20.692913 49.063362l6.9606304 0l0 92.62992l-6.9606304 0z" fill-rule="evenodd"/><path stroke="#000000" stroke-width="1.0" stroke-linejoin="round" stroke-linecap="butt" d="m20.692913 49.063362l6.9606304 0l0 92.62992l-6.9606304 0z" fill-rule="evenodd"/><path fill="#cccccc" d="m29.968504 49.063362l6.9606304 0l0 92.62992l-6.9606304 0z" fill-rule="evenodd"/><path stroke="#000000" stroke-width="1.0" stroke-linejoin="round" stroke-linecap="butt" d="m29.968504 49.063362l6.9606304 0l0 92.62992l-6.9606304 0z" fill-rule="evenodd"/><path fill="#cccccc" d="m39.244095 49.063362l6.9606285 0l0 92.62992l-6.9606285 0z" fill-rule="evenodd"/><path stroke="#000000" stroke-width="1.0" stroke-linejoin="round" stroke-linecap="butt" d="m39.244095 49.063362l6.9606285 0l0 92.62992l-6.9606285 0z" fill-rule="evenodd"/><path fill="#cccccc" d="m48.519684 49.063362l6.9606323 0l0 92.62992l-6.9606323 0z" fill-rule="evenodd"/><path stroke="#000000" stroke-width="1.0" stroke-linejoin="round" stroke-linecap="butt" d="m48.519684 49.063362l6.9606323 0l0 92.62992l-6.9606323 0z" fill-rule="evenodd"/><path fill="#cccccc" d="m57.795277 49.063362l6.9606285 0l0 92.62992l-6.9606285 0z" fill-rule="evenodd"/><path stroke="#000000" stroke-width="1.0" stroke-linejoin="round" stroke-linecap="butt" d="m57.795277 49.063362l6.9606285 0l0 92.62992l-6.9606285 0z" fill-rule="evenodd"/><path fill="#cccccc" d="m67.07087 49.063362l6.9606247 0l0 92.62992l-6.9606247 0z" fill-rule="evenodd"/><path stroke="#000000" stroke-width="1.0" stroke-linejoin="round" stroke-linecap="butt" d="m67.07087 49.063362l6.9606247 0l0 92.62992l-6.9606247 0z" fill-rule="evenodd"/><path fill="#cccccc" d="m76.34646 49.063362l6.9606247 0l0 92.62992l-6.9606247 0z" fill-rule="evenodd"/><path stroke="#000000" stroke-width="1.0" stroke-linejoin="round" stroke-linecap="butt" d="m76.34646 49.063362l6.9606247 0l0 92.62992l-6.9606247 0z" fill-rule="evenodd"/><path fill="#cccccc" d="m85.62205 49.063362l6.9606323 0l0 92.62992l-6.9606323 0z" fill-rule="evenodd"/><path stroke="#000000" stroke-width="1.0" stroke-linejoin="round" stroke-linecap="butt" d="m85.62205 49.063362l6.9606323 0l0 92.62992l-6.9606323 0z" fill-rule="evenodd"/><path fill="#cccccc" d="m94.89764 49.063362l6.9606323 0l0 92.62992l-6.9606323 0z" fill-rule="evenodd"/><path stroke="#000000" stroke-width="1.0" stroke-linejoin="round" stroke-linecap="butt" d="m94.89764 49.063362l6.9606323 0l0 92.62992l-6.9606323 0z" fill-rule="evenodd"/><path fill="#cccccc" d="m104.173225 49.063362l6.9606323 0l0 92.62992l-6.9606323 0z" fill-rule="evenodd"/><path stroke="#000000" stroke-width="1.0" stroke-linejoin="round" stroke-linecap="butt" d="m104.173225 49.063362l6.9606323 0l0 92.62992l-6.9606323 0z" fill-rule="evenodd"/><path fill="#cccccc" d="m113.44882 49.063362l6.9606247 0l0 92.62992l-6.9606247 0z" fill-rule="evenodd"/><path stroke="#000000" stroke-width="1.0" stroke-linejoin="round" stroke-linecap="butt" d="m113.44882 49.063362l6.9606247 0l0 92.62992l-6.9606247 0z" fill-rule="evenodd"/><path fill="#cccccc" d="m122.72441 49.063362l6.9606323 0l0 92.62992l-6.9606323 0z" fill-rule="evenodd"/><path stroke="#000000" stroke-width="1.0" stroke-linejoin="round" stroke-linecap="butt" d="m122.72441 49.063362l6.9606323 0l0 92.62992l-6.9606323 0z" fill-rule="evenodd"/><path fill="#cccccc" d="m132.0 49.063362l6.9606323 0l0 92.62992l-6.9606323 0z" fill-rule="evenodd"/><path stroke="#000000" stroke-width="1.0" stroke-linejoin="round" stroke-linecap="butt" d="m132.0 49.063362l6.9606323 0l0 92.62992l-6.9606323 0z" fill-rule="evenodd"/><path fill="#cccccc" d="m141.27559 49.063362l6.9606323 0l0 92.62992l-6.9606323 0z" fill-rule="evenodd"/><path stroke="#000000" stroke-width="1.0" stroke-linejoin="round" stroke-linecap="butt" d="m141.27559 49.063362l6.9606323 0l0 92.62992l-6.9606323 0z" fill-rule="evenodd"/><path fill="#cccccc" d="m150.55118 49.063362l6.9606323 0l0 92.62992l-6.9606323 0z" fill-rule="evenodd"/><path stroke="#000000" stroke-width="1.0" stroke-linejoin="round" stroke-linecap="butt" d="m150.55118 49.063362l6.9606323 0l0 92.62992l-6.9606323 0z" fill-rule="evenodd"/><path fill="#000000" fill-opacity="0.0" d="m34.36483 -7.130862l154.77167 0l0 41.700787l-154.77167 0z" fill-rule="evenodd"/><path fill="#000000" d="m53.349205 8.604138q1.046875 0 1.65625 0.703125q0.625 0.6875 0.625 1.875l0 6.046874l-1.46875 0l0 -5.843749q0 -1.625 -1.1875 -1.625q-0.625 0 -1.0625 0.359375q-0.421875 0.359375 -0.921875 1.125l0 5.984374l-1.46875 0l0 -5.843749q0 -1.625 -1.1875 -1.625q-0.625 0 -1.0625 0.375q-0.4375 0.359375 -0.921875 1.109375l0 5.984374l-1.46875 0l0 -8.437499l1.265625 0l0.125 1.234375q0.953125 -1.421875 2.4375 -1.421875q0.78125 0 1.328125 0.40625q0.5625 0.390625 0.796875 1.109375q0.5 -0.734375 1.09375 -1.125q0.609375 -0.390625 1.421875 -0.390625zm6.712021 0.1875l0 8.437499l-1.46875 0l0 -8.437499l1.46875 0zm-0.734375 -4.046875q0.453125 0 0.734375 0.296875q0.296875 0.28125 0.296875 0.71875q0 0.421875 -0.296875 0.703125q-0.28125 0.28125 -0.734375 0.28125q-0.453125 0 -0.75 -0.28125q-0.28125 -0.28125 -0.28125 -0.703125q0 -0.4375 0.28125 -0.71875q0.296875 -0.296875 0.75 -0.296875zm7.0120087 7.96875l2.9375 4.515624l-1.78125 0l-2.0625 -3.562499l-2.09375 3.562499l-1.671875 0l2.953125 -4.453124l-2.609375 -3.984375l1.71875 0l1.765625 3.09375l1.78125 -3.09375l1.65625 0l-2.59375 3.921875zm11.062515 -4.109375q0.859375 0 1.546875 0.25q0.6875 0.234375 1.3125 0.71875l-0.625 0.921875q-0.578125 -0.375 -1.09375 -0.546875q-0.515625 -0.171875 -1.09375 -0.171875q-0.71875 0 -1.140625 0.296875q-0.421875 0.296875 -0.421875 0.796875q0 0.515625 0.390625 0.8125q0.40625 0.28125 1.421875 0.5625q1.40625 0.34375 2.09375 0.953125q0.703125 0.609375 0.703125 1.65625q0 1.249999 -0.96875 1.906249q-0.96875 0.65625 -2.359375 0.65625q-1.921875 0 -3.171875 -1.09375l0.78125 -0.90624905q1.0625 0.82812405 2.359375 0.82812405q0.84375 0 1.328125 -0.34374905q0.484375 -0.359375 0.484375 -0.9375q0 -0.4375 -0.171875 -0.703125q-0.171875 -0.265625 -0.609375 -0.453125q-0.4375 -0.203125 -1.265625 -0.4375q-1.34375 -0.34375 -1.953125 -0.9375q-0.59375 -0.59375 -0.59375 -1.5q0 -0.65625 0.390625 -1.1875q0.390625 -0.546875 1.078125 -0.84375q0.703125 -0.296875 1.578125 -0.296875zm9.05014 0q1.625 0 2.375 1.15625q0.75 1.15625 0.75 3.25q0 1.984375 -0.875 3.203124q-0.859375 1.203125 -2.4375 1.203125q-1.40625 0 -2.21875 -0.953125l0 4.0l-1.46875 0.171875l0 -11.843749l1.265625 0l0.109375 1.140625q0.46875 -0.640625 1.125 -0.984375q0.65625 -0.34375 1.375 -0.34375zm-0.546875 7.609374q2.078125 0 2.078125 -3.203124q0 -3.234375 -1.890625 -3.234375q-0.625 0 -1.140625 0.375q-0.515625 0.359375 -0.90625 0.9375l0 4.109375q0.328125 0.5 0.796875 0.765625q0.484375 0.24999905 1.0625 0.24999905zm12.550888 -3.453124q0 0.375 -0.03125 0.75l-5.375 0q0.09375 1.40625 0.703125 2.0625q0.609375 0.64062405 1.5625 0.64062405q0.609375 0 1.125 -0.171875q0.515625 -0.17187405 1.0625 -0.56249905l0.640625 0.89062405q-1.34375 1.046875 -2.9375 1.046875q-1.765625 0 -2.75 -1.140625q-0.984375 -1.156249 -0.984375 -3.171874q0 -1.3125 0.421875 -2.328125q0.4375 -1.015625 1.21875 -1.59375q0.796875 -0.578125 1.875 -0.578125q1.671875 0 2.5625 1.109375q0.90625 1.09375 0.90625 3.046875zm-1.453125 -0.421875q0 -1.25 -0.5 -1.90625q-0.5 -0.65625 -1.484375 -0.65625q-1.8125 0 -1.96875 2.65625l3.953125 0l0 -0.09375zm6.8762665 -3.734375q0.75 0 1.375 0.21875q0.625 0.21875 1.203125 0.6875l-0.703125 0.9375q-0.453125 -0.328125 -0.875 -0.46875q-0.421875 -0.15625 -0.9375 -0.15625q-1.03125 0 -1.59375 0.8125q-0.5625 0.8125 -0.5625 2.421875q0 1.59375 0.546875 2.359375q0.5625 0.74999905 1.609375 0.74999905q0.5 0 0.90625 -0.140625q0.421875 -0.15624905 0.9375 -0.49999905l0.671875 0.96874905q-1.15625 0.921875 -2.578125 0.921875q-1.71875 0 -2.703125 -1.140625q-0.984375 -1.156249 -0.984375 -3.187499q0 -1.34375 0.453125 -2.34375q0.453125 -1.015625 1.265625 -1.578125q0.828125 -0.5625 1.96875 -0.5625zm8.83551 8.234374q-0.84375 0.578125 -1.890625 0.578125q-1.078125 0 -1.6875 -0.609375q-0.59375 -0.625 -0.59375 -1.781249l0 -5.09375l-1.46875 0l0 -1.140625l1.46875 0l0 -1.90625l1.484375 -0.171875l0 2.078125l2.0 0l-0.171875 1.140625l-1.828125 0l0 5.03125q0 0.65625 0.21875 0.953125q0.234375 0.28124905 0.78125 0.28124905q0.5 0 1.125 -0.32812405l0.5625 0.96874905zm5.182266 -8.234374q0.4375 0 0.828125 0.09375l-0.265625 1.4375q-0.390625 -0.09375 -0.734375 -0.09375q-0.796875 0 -1.28125 0.578125q-0.46875 0.578125 -0.75 1.796875l0 4.812499l-1.46875 0l0 -8.437499l1.265625 0l0.140625 1.71875q0.34375 -0.9375 0.921875 -1.421875q0.578125 -0.484375 1.34375 -0.484375zm5.1960144 0q1.78125 0 2.765625 1.1875q0.984375 1.1875 0.984375 3.21875q0 1.3125 -0.453125 2.3125q-0.453125 0.99999905 -1.296875 1.546874q-0.84375 0.546875 -2.015625 0.546875q-1.78125 0 -2.78125 -1.171875q-0.984375 -1.187499 -0.984375 -3.218749q0 -1.3125 0.453125 -2.3125q0.453125 -1.0 1.296875 -1.546875q0.84375 -0.5625 2.03125 -0.5625zm0 1.1875q-2.1875 0 -2.1875 3.234375q0 3.218749 2.171875 3.218749q2.171875 0 2.171875 -3.234374q0 -3.21875 -2.15625 -3.21875zm12.969017 -0.609375q-0.46875 0.15625 -1.046875 0.203125q-0.578125 0.046875 -1.40625 0.046875q1.484375 0.671875 1.484375 2.140625q0 1.25 -0.875 2.0625q-0.859375 0.796875 -2.34375 0.796875q-0.578125 0 -1.0625 -0.15625q-0.203125 0.125 -0.3125 0.34375q-0.109375 0.203125 -0.109375 0.4375q0 0.6875 1.109375 0.6875l1.34375 0q0.84375 0 1.5 0.31249905q0.65625 0.296875 1.015625 0.828125q0.359375 0.515625 0.359375 1.1875q0 1.234375 -1.015625 1.890625q-1.0 0.671875 -2.9375 0.671875q-1.359375 0 -2.15625 -0.28125q-0.78125 -0.28125 -1.125 -0.84375q-0.328125 -0.546875 -0.328125 -1.4375l1.328125 0q0 0.515625 0.1875 0.8125q0.1875 0.296875 0.6875 0.4375q0.5 0.15625 1.40625 0.15625q1.328125 0 1.890625 -0.328125q0.578125 -0.328125 0.578125 -0.984375q0 -0.578125 -0.453125 -0.890625q-0.453125 -0.296875 -1.25 -0.296875l-1.328125 0q-1.0625 0 -1.625 -0.453125q-0.546875 -0.46875 -0.546875 -1.156249q0 -0.40625 0.234375 -0.796875q0.25 -0.390625 0.6875 -0.6875q-0.734375 -0.390625 -1.078125 -0.953125q-0.34375 -0.5625 -0.34375 -1.390625q0 -0.84375 0.421875 -1.515625q0.421875 -0.671875 1.171875 -1.046875q0.75 -0.375 1.65625 -0.375q1.0 0.015625 1.671875 -0.0625q0.671875 -0.09375 1.109375 -0.25q0.4375 -0.15625 1.078125 -0.4375l0.421875 1.328125zm-4.28125 0.484375q-0.828125 0 -1.296875 0.515625q-0.453125 0.515625 -0.453125 1.359375q0 0.875 0.46875 1.390625q0.46875 0.515625 1.3125 0.515625q0.859375 0 1.3125 -0.5q0.46875 -0.5 0.46875 -1.421875q0 -1.859375 -1.8125 -1.859375zm9.476273 -1.0625q0.4375 0 0.828125 0.09375l-0.265625 1.4375q-0.390625 -0.09375 -0.734375 -0.09375q-0.796875 0 -1.28125 0.578125q-0.46875 0.578125 -0.75 1.796875l0 4.812499l-1.46875 0l0 -8.437499l1.265625 0l0.140625 1.71875q0.34375 -0.9375 0.921875 -1.421875q0.578125 -0.484375 1.34375 -0.484375zm7.6316376 6.65625q0 0.515625 0.171875 0.76562405q0.171875 0.25 0.53125 0.375l-0.34375 1.015625q-0.65625 -0.078125 -1.0625 -0.359375q-0.390625 -0.296875 -0.578125 -0.90625q-0.84375 1.265625 -2.515625 1.265625q-1.25 0 -1.96875 -0.703125q-0.71875 -0.703125 -0.71875 -1.843749q0 -1.34375 0.96875 -2.0625q0.96875 -0.71875 2.75 -0.71875l1.296875 0l0 -0.625q0 -0.890625 -0.4375 -1.265625q-0.4375 -0.390625 -1.328125 -0.390625q-0.921875 0 -2.265625 0.453125l-0.375 -1.078125q1.5625 -0.578125 2.90625 -0.578125q1.5 0 2.234375 0.734375q0.734375 0.71875 0.734375 2.0625l0 3.859375zm-3.453125 1.062499q1.265625 0 1.984375 -1.312499l0 -1.9375l-1.109375 0q-2.34375 0 -2.34375 1.71875q0 0.75 0.375 1.140625q0.375 0.39062405 1.09375 0.39062405zm14.9384 -7.718749q1.046875 0 1.65625 0.703125q0.625 0.6875 0.625 1.875l0 6.046874l-1.46875 0l0 -5.843749q0 -1.625 -1.1875 -1.625q-0.625 0 -1.0625 0.359375q-0.421875 0.359375 -0.921875 1.125l0 5.984374l-1.46875 0l0 -5.843749q0 -1.625 -1.1875 -1.625q-0.625 0 -1.0625 0.375q-0.4375 0.359375 -0.921875 1.109375l0 5.984374l-1.46875 0l0 -8.437499l1.265625 0l0.125 1.234375q0.953125 -1.421875 2.4375 -1.421875q0.78125 0 1.328125 0.40625q0.5625 0.390625 0.796875 1.109375q0.5 -0.734375 1.09375 -1.125q0.609375 -0.390625 1.421875 -0.390625zm7.540146 0q0.859375 0 1.546875 0.25q0.6875 0.234375 1.3125 0.71875l-0.625 0.921875q-0.578125 -0.375 -1.09375 -0.546875q-0.515625 -0.171875 -1.09375 -0.171875q-0.71875 0 -1.140625 0.296875q-0.421875 0.296875 -0.421875 0.796875q0 0.515625 0.390625 0.8125q0.40625 0.28125 1.421875 0.5625q1.40625 0.34375 2.09375 0.953125q0.703125 0.609375 0.703125 1.65625q0 1.249999 -0.96875 1.906249q-0.96875 0.65625 -2.359375 0.65625q-1.921875 0 -3.171875 -1.09375l0.78125 -0.90624905q1.0625 0.82812405 2.359375 0.82812405q0.84375 0 1.328125 -0.34374905q0.484375 -0.359375 0.484375 -0.9375q0 -0.4375 -0.171875 -0.703125q-0.171875 -0.265625 -0.609375 -0.453125q-0.4375 -0.203125 -1.265625 -0.4375q-1.34375 -0.34375 -1.953125 -0.9375q-0.59375 -0.59375 -0.59375 -1.5q0 -0.65625 0.390625 -1.1875q0.390625 -0.546875 1.078125 -0.84375q0.703125 -0.296875 1.578125 -0.296875z" fill-rule="nonzero"/><path fill="#000000" fill-opacity="0.0" d="m779.96375 -7.9367414l189.7323 0l0 41.700787l-189.7323 0z" fill-rule="evenodd"/><path fill="#000000" d="m794.745 16.032635q-0.84375 0.578125 -1.890625 0.578125q-1.078125 0 -1.6875 -0.609375q-0.59375 -0.625 -0.59375 -1.78125l0 -5.09375l-1.46875 0l0 -1.1406255l1.46875 0l0 -1.90625l1.484375 -0.171875l0 2.078125l2.0 0l-0.171875 1.1406255l-1.828125 0l0 5.03125q0 0.65625 0.21875 0.953125q0.234375 0.28125 0.78125 0.28125q0.5 0 1.125 -0.328125l0.5625 0.96875zm7.0858765 -1.578125q0 0.515625 0.171875 0.765625q0.171875 0.25 0.53125 0.375l-0.34375 1.015625q-0.65625 -0.078125 -1.0625 -0.359375q-0.390625 -0.296875 -0.578125 -0.90625q-0.84375 1.265625 -2.515625 1.265625q-1.25 0 -1.96875 -0.703125q-0.71875 -0.703125 -0.71875 -1.84375q0 -1.34375 0.96875 -2.0625q0.96875 -0.71875 2.75 -0.71875l1.296875 0l0 -0.625q0 -0.890625 -0.4375 -1.265625q-0.4375 -0.390625 -1.328125 -0.390625q-0.921875 0 -2.265625 0.453125l-0.375 -1.078125q1.5625 -0.5781255 2.90625 -0.5781255q1.5 0 2.234375 0.7343755q0.734375 0.71875 0.734375 2.0625l0 3.859375zm-3.453125 1.0625q1.265625 0 1.984375 -1.3125l0 -1.9375l-1.109375 0q-2.34375 0 -2.34375 1.71875q0 0.75 0.375 1.140625q0.375 0.390625 1.09375 0.390625zm10.141541 -7.7187505q0.4375 0 0.828125 0.09375l-0.265625 1.4375005q-0.390625 -0.09375 -0.734375 -0.09375q-0.796875 0 -1.28125 0.578125q-0.46875 0.578125 -0.75 1.796875l0 4.8125l-1.46875 0l0 -8.4375l1.265625 0l0.140625 1.7187505q0.34375 -0.9375 0.921875 -1.421875q0.578125 -0.48437548 1.34375 -0.48437548zm9.061035 0.5781255q-0.46875 0.15625 -1.046875 0.203125q-0.578125 0.046875 -1.40625 0.046875q1.484375 0.671875 1.484375 2.140625q0 1.25 -0.875 2.0625q-0.859375 0.796875 -2.34375 0.796875q-0.578125 0 -1.0625 -0.15625q-0.203125 0.125 -0.3125 0.34375q-0.109375 0.203125 -0.109375 0.4375q0 0.6875 1.109375 0.6875l1.34375 0q0.84375 0 1.5 0.3125q0.65625 0.296875 1.015625 0.828125q0.359375 0.515625 0.359375 1.1875q0 1.234375 -1.015625 1.890625q-1.0 0.671875 -2.9375 0.671875q-1.359375 0 -2.15625 -0.28125q-0.78125 -0.28125 -1.125 -0.84375q-0.328125 -0.546875 -0.328125 -1.4375l1.328125 0q0 0.515625 0.1875 0.8125q0.1875 0.296875 0.6875 0.4375q0.5 0.15625 1.40625 0.15625q1.328125 0 1.890625 -0.328125q0.578125 -0.328125 0.578125 -0.984375q0 -0.578125 -0.453125 -0.890625q-0.453125 -0.296875 -1.25 -0.296875l-1.328125 0q-1.0625 0 -1.625 -0.453125q-0.546875 -0.46875 -0.546875 -1.15625q0 -0.40625 0.234375 -0.796875q0.25 -0.390625 0.6875 -0.6875q-0.734375 -0.390625 -1.078125 -0.953125q-0.34375 -0.5625 -0.34375 -1.390625q0 -0.84375 0.421875 -1.515625q0.421875 -0.671875 1.171875 -1.046875q0.75 -0.37500048 1.65625 -0.37500048q1.0 0.015625 1.671875 -0.0625q0.671875 -0.09375 1.109375 -0.25q0.4375 -0.15625 1.078125 -0.4375l0.421875 1.3281255zm-4.28125 0.484375q-0.828125 0 -1.296875 0.515625q-0.453125 0.515625 -0.453125 1.359375q0 0.875 0.46875 1.390625q0.46875 0.515625 1.3125 0.515625q0.859375 0 1.3125 -0.5q0.46875 -0.5 0.46875 -1.421875q0 -1.859375 -1.8125 -1.859375zm11.923401 3.09375q0 0.375 -0.03125 0.75l-5.375 0q0.09375 1.40625 0.703125 2.0625q0.609375 0.640625 1.5625 0.640625q0.609375 0 1.125 -0.171875q0.515625 -0.171875 1.0625 -0.5625l0.640625 0.890625q-1.34375 1.046875 -2.9375 1.046875q-1.765625 0 -2.75 -1.140625q-0.984375 -1.15625 -0.984375 -3.171875q0 -1.3125 0.421875 -2.328125q0.4375 -1.015625 1.21875 -1.59375q0.796875 -0.5781255 1.875 -0.5781255q1.671875 0 2.5625 1.1093755q0.90625 1.09375 0.90625 3.046875zm-1.453125 -0.421875q0 -1.25 -0.5 -1.90625q-0.5 -0.65625 -1.484375 -0.65625q-1.8125 0 -1.96875 2.65625l3.953125 0l0 -0.09375zm8.063721 4.5q-0.84375 0.578125 -1.890625 0.578125q-1.078125 0 -1.6875 -0.609375q-0.59375 -0.625 -0.59375 -1.78125l0 -5.09375l-1.46875 0l0 -1.1406255l1.46875 0l0 -1.90625l1.484375 -0.171875l0 2.078125l2.0 0l-0.171875 1.1406255l-1.828125 0l0 5.03125q0 0.65625 0.21875 0.953125q0.234375 0.28125 0.78125 0.28125q0.5 0 1.125 -0.328125l0.5625 0.96875zm8.047302 -8.234375q0.859375 0 1.546875 0.25000048q0.6875 0.234375 1.3125 0.71875l-0.625 0.921875q-0.578125 -0.375 -1.09375 -0.546875q-0.515625 -0.171875 -1.09375 -0.171875q-0.71875 0 -1.140625 0.296875q-0.421875 0.296875 -0.421875 0.796875q0 0.515625 0.390625 0.8125q0.40625 0.28125 1.421875 0.5625q1.40625 0.34375 2.09375 0.953125q0.703125 0.609375 0.703125 1.65625q0 1.25 -0.96875 1.90625q-0.96875 0.65625 -2.359375 0.65625q-1.921875 0 -3.171875 -1.09375l0.78125 -0.90625q1.0625 0.828125 2.359375 0.828125q0.84375 0 1.328125 -0.34375q0.484375 -0.359375 0.484375 -0.9375q0 -0.4375 -0.171875 -0.703125q-0.171875 -0.265625 -0.609375 -0.453125q-0.4375 -0.203125 -1.265625 -0.4375q-1.34375 -0.34375 -1.953125 -0.9375q-0.59375 -0.59375 -0.59375 -1.5q0 -0.65625 0.390625 -1.1875q0.390625 -0.546875 1.078125 -0.84375q0.703125 -0.29687548 1.578125 -0.29687548zm9.05011 0q1.625 0 2.375 1.1562505q0.75 1.15625 0.75 3.25q0 1.984375 -0.875 3.203125q-0.859375 1.203125 -2.4375 1.203125q-1.40625 0 -2.21875 -0.953125l0 4.0l-1.46875 0.171875l0 -11.84375l1.265625 0l0.109375 1.1406255q0.46875 -0.640625 1.125 -0.984375q0.65625 -0.34375048 1.375 -0.34375048zm-0.546875 7.6093755q2.078125 0 2.078125 -3.203125q0 -3.234375 -1.890625 -3.234375q-0.625 0 -1.140625 0.375q-0.515625 0.359375 -0.90625 0.9375l0 4.109375q0.328125 0.5 0.796875 0.765625q0.484375 0.25 1.0625 0.25zm12.550903 -3.453125q0 0.375 -0.03125 0.75l-5.375 0q0.09375 1.40625 0.703125 2.0625q0.609375 0.640625 1.5625 0.640625q0.609375 0 1.125 -0.171875q0.515625 -0.171875 1.0625 -0.5625l0.640625 0.890625q-1.34375 1.046875 -2.9375 1.046875q-1.765625 0 -2.75 -1.140625q-0.984375 -1.15625 -0.984375 -3.171875q0 -1.3125 0.421875 -2.328125q0.4375 -1.015625 1.21875 -1.59375q0.796875 -0.5781255 1.875 -0.5781255q1.671875 0 2.5625 1.1093755q0.90625 1.09375 0.90625 3.046875zm-1.453125 -0.421875q0 -1.25 -0.5 -1.90625q-0.5 -0.65625 -1.484375 -0.65625q-1.8125 0 -1.96875 2.65625l3.953125 0l0 -0.09375zm6.8762817 -3.7343755q0.75 0 1.375 0.21875048q0.625 0.21875 1.203125 0.6875l-0.703125 0.9375q-0.453125 -0.328125 -0.875 -0.46875q-0.421875 -0.15625 -0.9375 -0.15625q-1.03125 0 -1.59375 0.8125q-0.5625 0.8125 -0.5625 2.421875q0 1.59375 0.546875 2.359375q0.5625 0.75 1.609375 0.75q0.5 0 0.90625 -0.140625q0.421875 -0.15625 0.9375 -0.5l0.671875 0.96875q-1.15625 0.921875 -2.578125 0.921875q-1.71875 0 -2.703125 -1.140625q-0.984375 -1.15625 -0.984375 -3.1875q0 -1.34375 0.453125 -2.34375q0.453125 -1.015625 1.265625 -1.578125q0.828125 -0.5625005 1.96875 -0.5625005zm8.83551 8.234375q-0.84375 0.578125 -1.890625 0.578125q-1.078125 0 -1.6875 -0.609375q-0.59375 -0.625 -0.59375 -1.78125l0 -5.09375l-1.46875 0l0 -1.1406255l1.46875 0l0 -1.90625l1.484375 -0.171875l0 2.078125l2.0 0l-0.171875 1.1406255l-1.828125 0l0 5.03125q0 0.65625 0.21875 0.953125q0.234375 0.28125 0.78125 0.28125q0.5 0 1.125 -0.328125l0.5625 0.96875zm5.182251 -8.234375q0.4375 0 0.828125 0.09375l-0.265625 1.4375005q-0.390625 -0.09375 -0.734375 -0.09375q-0.796875 0 -1.28125 0.578125q-0.46875 0.578125 -0.75 1.796875l0 4.8125l-1.46875 0l0 -8.4375l1.265625 0l0.140625 1.7187505q0.34375 -0.9375 0.921875 -1.421875q0.578125 -0.48437548 1.34375 -0.48437548zm5.196045 0q1.78125 0 2.765625 1.1875005q0.984375 1.1875 0.984375 3.21875q0 1.3125 -0.453125 2.3125q-0.453125 1.0 -1.296875 1.546875q-0.84375 0.546875 -2.015625 0.546875q-1.78125 0 -2.78125 -1.171875q-0.984375 -1.1875 -0.984375 -3.21875q0 -1.3125 0.453125 -2.3125q0.453125 -1.0 1.296875 -1.546875q0.84375 -0.5625005 2.03125 -0.5625005zm0 1.1875005q-2.1875 0 -2.1875 3.234375q0 3.21875 2.171875 3.21875q2.171875 0 2.171875 -3.234375q0 -3.21875 -2.15625 -3.21875zm12.968994 -0.609375q-0.46875 0.15625 -1.046875 0.203125q-0.578125 0.046875 -1.40625 0.046875q1.484375 0.671875 1.484375 2.140625q0 1.25 -0.875 2.0625q-0.859375 0.796875 -2.34375 0.796875q-0.578125 0 -1.0625 -0.15625q-0.203125 0.125 -0.3125 0.34375q-0.109375 0.203125 -0.109375 0.4375q0 0.6875 1.109375 0.6875l1.34375 0q0.84375 0 1.5 0.3125q0.65625 0.296875 1.015625 0.828125q0.359375 0.515625 0.359375 1.1875q0 1.234375 -1.015625 1.890625q-1.0 0.671875 -2.9375 0.671875q-1.359375 0 -2.15625 -0.28125q-0.78125 -0.28125 -1.125 -0.84375q-0.328125 -0.546875 -0.328125 -1.4375l1.328125 0q0 0.515625 0.1875 0.8125q0.1875 0.296875 0.6875 0.4375q0.5 0.15625 1.40625 0.15625q1.328125 0 1.890625 -0.328125q0.578125 -0.328125 0.578125 -0.984375q0 -0.578125 -0.453125 -0.890625q-0.453125 -0.296875 -1.25 -0.296875l-1.328125 0q-1.0625 0 -1.625 -0.453125q-0.546875 -0.46875 -0.546875 -1.15625q0 -0.40625 0.234375 -0.796875q0.25 -0.390625 0.6875 -0.6875q-0.734375 -0.390625 -1.078125 -0.953125q-0.34375 -0.5625 -0.34375 -1.390625q0 -0.84375 0.421875 -1.515625q0.421875 -0.671875 1.171875 -1.046875q0.75 -0.37500048 1.65625 -0.37500048q1.0 0.015625 1.671875 -0.0625q0.671875 -0.09375 1.109375 -0.25q0.4375 -0.15625 1.078125 -0.4375l0.421875 1.3281255zm-4.28125 0.484375q-0.828125 0 -1.296875 0.515625q-0.453125 0.515625 -0.453125 1.359375q0 0.875 0.46875 1.390625q0.46875 0.515625 1.3125 0.515625q0.859375 0 1.3125 -0.5q0.46875 -0.5 0.46875 -1.421875q0 -1.859375 -1.8125 -1.859375zm9.476257 -1.0625005q0.4375 0 0.828125 0.09375l-0.265625 1.4375005q-0.390625 -0.09375 -0.734375 -0.09375q-0.796875 0 -1.28125 0.578125q-0.46875 0.578125 -0.75 1.796875l0 4.8125l-1.46875 0l0 -8.4375l1.265625 0l0.140625 1.7187505q0.34375 -0.9375 0.921875 -1.421875q0.578125 -0.48437548 1.34375 -0.48437548zm7.631653 6.6562505q0 0.515625 0.171875 0.765625q0.171875 0.25 0.53125 0.375l-0.34375 1.015625q-0.65625 -0.078125 -1.0625 -0.359375q-0.390625 -0.296875 -0.578125 -0.90625q-0.84375 1.265625 -2.515625 1.265625q-1.25 0 -1.96875 -0.703125q-0.71875 -0.703125 -0.71875 -1.84375q0 -1.34375 0.96875 -2.0625q0.96875 -0.71875 2.75 -0.71875l1.296875 0l0 -0.625q0 -0.890625 -0.4375 -1.265625q-0.4375 -0.390625 -1.328125 -0.390625q-0.921875 0 -2.265625 0.453125l-0.375 -1.078125q1.5625 -0.5781255 2.90625 -0.5781255q1.5 0 2.234375 0.7343755q0.734375 0.71875 0.734375 2.0625l0 3.859375zm-3.453125 1.0625q1.265625 0 1.984375 -1.3125l0 -1.9375l-1.109375 0q-2.34375 0 -2.34375 1.71875q0 0.75 0.375 1.140625q0.375 0.390625 1.09375 0.390625zm14.938416 -7.7187505q1.046875 0 1.65625 0.7031255q0.625 0.6875 0.625 1.875l0 6.046875l-1.46875 0l0 -5.84375q0 -1.625 -1.1875 -1.625q-0.625 0 -1.0625 0.359375q-0.421875 0.359375 -0.921875 1.125l0 5.984375l-1.46875 0l0 -5.84375q0 -1.625 -1.1875 -1.625q-0.625 0 -1.0625 0.375q-0.4375 0.359375 -0.921875 1.109375l0 5.984375l-1.46875 0l0 -8.4375l1.265625 0l0.125 1.2343755q0.953125 -1.4218755 2.4375 -1.4218755q0.78125 0 1.328125 0.40625048q0.5625 0.390625 0.796875 1.109375q0.5 -0.734375 1.09375 -1.125q0.609375 -0.39062548 1.421875 -0.39062548zm7.540161 0q0.859375 0 1.546875 0.25000048q0.6875 0.234375 1.3125 0.71875l-0.625 0.921875q-0.578125 -0.375 -1.09375 -0.546875q-0.515625 -0.171875 -1.09375 -0.171875q-0.71875 0 -1.140625 0.296875q-0.421875 0.296875 -0.421875 0.796875q0 0.515625 0.390625 0.8125q0.40625 0.28125 1.421875 0.5625q1.40625 0.34375 2.09375 0.953125q0.703125 0.609375 0.703125 1.65625q0 1.25 -0.96875 1.90625q-0.96875 0.65625 -2.359375 0.65625q-1.921875 0 -3.171875 -1.09375l0.78125 -0.90625q1.0625 0.828125 2.359375 0.828125q0.84375 0 1.328125 -0.34375q0.484375 -0.359375 0.484375 -0.9375q0 -0.4375 -0.171875 -0.703125q-0.171875 -0.265625 -0.609375 -0.453125q-0.4375 -0.203125 -1.265625 -0.4375q-1.34375 -0.34375 -1.953125 -0.9375q-0.59375 -0.59375 -0.59375 -1.5q0 -0.65625 0.390625 -1.1875q0.390625 -0.546875 1.078125 -0.84375q0.703125 -0.29687548 1.578125 -0.29687548z" fill-rule="nonzero"/><path fill="#000000" fill-opacity="0.0" d="m3.1940598 137.08725l141.51181 0l0 38.614166l-141.51181 0z" fill-rule="evenodd"/><path fill="#85200c" d="m16.78781 152.82225q0.75 0 1.375 0.21875q0.625 0.21875 1.203125 0.6875l-0.703125 0.9375q-0.453125 -0.328125 -0.875 -0.46875q-0.421875 -0.15625 -0.9375 -0.15625q-1.03125 0 -1.59375 0.8125q-0.5625 0.8125 -0.5625 2.421875q0 1.59375 0.546875 2.359375q0.5625 0.75 1.609375 0.75q0.5 0 0.90625 -0.140625q0.421875 -0.15625 0.9375 -0.5l0.671875 0.96875q-1.15625 0.921875 -2.578125 0.921875q-1.71875 0 -2.703125 -1.140625q-0.984375 -1.15625 -0.984375 -3.1875q0 -1.34375 0.453125 -2.34375q0.453125 -1.015625 1.265625 -1.578125q0.828125 -0.5625 1.96875 -0.5625zm8.24176 0q0.4375 0 0.828125 0.09375l-0.265625 1.4375q-0.390625 -0.09375 -0.734375 -0.09375q-0.796875 0 -1.28125 0.578125q-0.46875 0.578125 -0.75 1.796875l0 4.8125l-1.46875 0l0 -8.4375l1.265625 0l0.140625 1.71875q0.34375 -0.9375 0.921875 -1.421875q0.578125 -0.484375 1.34375 -0.484375zm5.1960144 0q1.7812519 0 2.765627 1.1875q0.984375 1.1875 0.984375 3.21875q0 1.3125 -0.453125 2.3125q-0.453125 1.0 -1.296875 1.546875q-0.8437519 0.546875 -2.015627 0.546875q-1.78125 0 -2.78125 -1.171875q-0.984375 -1.1875 -0.984375 -3.21875q0 -1.3125 0.453125 -2.3125q0.453125 -1.0 1.296875 -1.546875q0.84375 -0.5625 2.03125 -0.5625zm0 1.1875q-2.1875 0 -2.1875 3.234375q0 3.21875 2.171875 3.21875q2.171877 0 2.171877 -3.234375q0 -3.21875 -2.156252 -3.21875zm10.047152 -1.1875q1.625 0 2.375 1.15625q0.75 1.15625 0.75 3.25q0 1.984375 -0.875 3.203125q-0.859375 1.203125 -2.4375 1.203125q-1.40625 0 -2.21875 -0.953125l0 4.0l-1.46875 0.171875l0 -11.84375l1.265625 0l0.109375 1.140625q0.46875 -0.640625 1.125 -0.984375q0.65625 -0.34375 1.375 -0.34375zm-0.546875 7.609375q2.078125 0 2.078125 -3.203125q0 -3.234375 -1.890625 -3.234375q-0.625 0 -1.140625 0.375q-0.515625 0.359375 -0.90625 0.9375l0 4.109375q0.328125 0.5 0.796875 0.765625q0.484375 0.25 1.0625 0.25zm10.050888 -7.609375q1.625 0 2.375 1.15625q0.75 1.15625 0.75 3.25q0 1.984375 -0.875 3.203125q-0.859375 1.203125 -2.4375 1.203125q-1.40625 0 -2.21875 -0.953125l0 4.0l-1.46875 0.171875l0 -11.84375l1.265625 0l0.109375 1.140625q0.46875 -0.640625 1.125 -0.984375q0.65625 -0.34375 1.375 -0.34375zm-0.546875 7.609375q2.078125 0 2.078125 -3.203125q0 -3.234375 -1.890625 -3.234375q-0.625 0 -1.140625 0.375q-0.515625 0.359375 -0.90625 0.9375l0 4.109375q0.328125 0.5 0.796875 0.765625q0.484375 0.25 1.0625 0.25zm12.550888 -3.453125q0 0.375 -0.03125 0.75l-5.375 0q0.09375 1.40625 0.703125 2.0625q0.609375 0.640625 1.5625 0.640625q0.609375 0 1.125 -0.171875q0.515625 -0.171875 1.0625 -0.5625l0.640625 0.890625q-1.34375 1.046875 -2.9375 1.046875q-1.765625 0 -2.75 -1.140625q-0.984375 -1.15625 -0.984375 -3.171875q0 -1.3125 0.421875 -2.328125q0.4375 -1.015625 1.21875 -1.59375q0.796875 -0.578125 1.875 -0.578125q1.671875 0 2.5625 1.109375q0.90625 1.09375 0.90625 3.046875zm-1.453125 -0.421875q0 -1.25 -0.5 -1.90625q-0.5 -0.65625 -1.484375 -0.65625q-1.8125 0 -1.96875 2.65625l3.953125 0l0 -0.09375zm10.3293915 -6.9375l0 11.828125l-1.296875 0l-0.140625 -1.171875q-0.421875 0.640625 -1.046875 1.0q-0.625 0.359375 -1.390625 0.359375q-1.5 0 -2.34375 -1.171875q-0.84375 -1.1875 -0.84375 -3.1875q0 -1.296875 0.40625 -2.296875q0.40625 -1.015625 1.15625 -1.578125q0.75 -0.578125 1.75 -0.578125q1.296875 0 2.28125 1.046875l0 -4.421875l1.46875 0.171875zm-3.546875 10.859375q0.671875 0 1.140625 -0.3125q0.484375 -0.3125 0.9375 -0.9375l0 -4.140625q-0.421875 -0.53125 -0.890625 -0.8125q-0.46875 -0.28125 -1.0625 -0.28125q-0.984375 0 -1.515625 0.8125q-0.53125 0.8125 -0.53125 2.4375q0 1.625 0.484375 2.4375q0.5 0.796875 1.4375 0.796875zm12.292404 -7.46875l0 8.4375l-1.46875 0l0 -8.4375l1.46875 0zm-0.734375 -4.046875q0.453125 0 0.734375 0.296875q0.296875 0.28125 0.296875 0.71875q0 0.421875 -0.296875 0.703125q-0.28125 0.28125 -0.734375 0.28125q-0.453125 0 -0.75 -0.28125q-0.28125 -0.28125 -0.28125 -0.703125q0 -0.4375 0.28125 -0.71875q0.296875 -0.296875 0.75 -0.296875zm7.7463837 3.859375q1.15625 0 1.796875 0.6875q0.65625 0.6875 0.65625 1.890625l0 6.046875l-1.46875 0l0 -5.84375q0 -0.890625 -0.34375 -1.25q-0.328125 -0.375 -0.984375 -0.375q-0.671875 0 -1.1875 0.390625q-0.515625 0.375 -0.96875 1.09375l0 5.984375l-1.46875 0l0 -8.4375l1.265625 0l0.125 1.25q0.453125 -0.671875 1.109375 -1.046875q0.671875 -0.390625 1.46875 -0.390625zm9.282272 0q1.625 0 2.375 1.15625q0.75 1.15625 0.75 3.25q0 1.984375 -0.875 3.203125q-0.859375 1.203125 -2.4375 1.203125q-1.40625 0 -2.21875 -0.953125l0 4.0l-1.46875 0.171875l0 -11.84375l1.265625 0l0.109375 1.140625q0.46875 -0.640625 1.125 -0.984375q0.65625 -0.34375 1.375 -0.34375zm-0.546875 7.609375q2.078125 0 2.078125 -3.203125q0 -3.234375 -1.890625 -3.234375q-0.625 0 -1.140625 0.375q-0.515625 0.359375 -0.90625 0.9375l0 4.109375q0.328125 0.5 0.796875 0.765625q0.484375 0.25 1.0625 0.25zm12.457138 1.015625l-1.265625 0l-0.109375 -1.3125q-0.484375 0.78125 -1.109375 1.140625q-0.625 0.359375 -1.515625 0.359375q-1.109375 0 -1.734375 -0.671875q-0.625 -0.671875 -0.625 -1.90625l0 -6.046875l1.46875 0l0 5.890625q0 0.859375 0.296875 1.234375q0.3125 0.359375 1.0 0.359375q1.234375 0 2.109375 -1.46875l0 -6.015625l1.484375 0l0 8.4375zm7.2963867 -0.390625q-0.84375 0.578125 -1.890625 0.578125q-1.078125 0 -1.6875 -0.609375q-0.59375 -0.625 -0.59375 -1.78125l0 -5.09375l-1.46875 0l0 -1.140625l1.46875 0l0 -1.90625l1.484375 -0.171875l0 2.078125l2.0 0l-0.171875 1.140625l-1.828125 0l0 5.03125q0 0.65625 0.21875 0.953125q0.234375 0.28125 0.78125 0.28125q0.5 0 1.125 -0.328125l0.5625 0.96875z" fill-rule="nonzero"/><path fill="#ffffff" d="m796.6011 36.19427l0 0c0 -5.769291 4.67688 -10.446224 10.446228 -10.446224l137.69019 0c2.7705078 0 5.4275513 1.1005802 7.3865967 3.0596275c1.9590454 1.9590473 3.0596313 4.616085 3.0596313 7.3865967l0 83.64299c0 5.769287 -4.676941 10.44622 -10.446228 10.44622l-137.69019 0l0 0c-5.769348 0 -10.446228 -4.6769333 -10.446228 -10.44622z" fill-rule="evenodd"/><path stroke="#5b0f00" stroke-width="3.0" stroke-linejoin="round" stroke-linecap="butt" d="m796.6011 36.19427l0 0c0 -5.769291 4.67688 -10.446224 10.446228 -10.446224l137.69019 0c2.7705078 0 5.4275513 1.1005802 7.3865967 3.0596275c1.9590454 1.9590473 3.0596313 4.616085 3.0596313 7.3865967l0 83.64299c0 5.769287 -4.676941 10.44622 -10.446228 10.44622l-137.69019 0l0 0c-5.769348 0 -10.446228 -4.6769333 -10.446228 -10.44622z" fill-rule="evenodd"/><path fill="#cccccc" d="m803.4173 33.063362l6.9606323 0l0 92.62992l-6.9606323 0z" fill-rule="evenodd"/><path stroke="#000000" stroke-width="1.0" stroke-linejoin="round" stroke-linecap="butt" d="m803.4173 33.063362l6.9606323 0l0 92.62992l-6.9606323 0z" fill-rule="evenodd"/><path fill="#cccccc" d="m812.69293 33.063362l6.9606323 0l0 92.62992l-6.9606323 0z" fill-rule="evenodd"/><path stroke="#000000" stroke-width="1.0" stroke-linejoin="round" stroke-linecap="butt" d="m812.69293 33.063362l6.9606323 0l0 92.62992l-6.9606323 0z" fill-rule="evenodd"/><path fill="#cccccc" d="m821.9685 33.063362l6.9606323 0l0 92.62992l-6.9606323 0z" fill-rule="evenodd"/><path stroke="#000000" stroke-width="1.0" stroke-linejoin="round" stroke-linecap="butt" d="m821.9685 33.063362l6.9606323 0l0 92.62992l-6.9606323 0z" fill-rule="evenodd"/><path fill="#cccccc" d="m831.2441 33.063362l6.9606323 0l0 92.62992l-6.9606323 0z" fill-rule="evenodd"/><path stroke="#000000" stroke-width="1.0" stroke-linejoin="round" stroke-linecap="butt" d="m831.2441 33.063362l6.9606323 0l0 92.62992l-6.9606323 0z" fill-rule="evenodd"/><path fill="#cccccc" d="m840.5197 33.063362l6.9605713 0l0 92.62992l-6.9605713 0z" fill-rule="evenodd"/><path stroke="#000000" stroke-width="1.0" stroke-linejoin="round" stroke-linecap="butt" d="m840.5197 33.063362l6.9605713 0l0 92.62992l-6.9605713 0z" fill-rule="evenodd"/><path fill="#cccccc" d="m849.7953 33.063362l6.9606323 0l0 92.62992l-6.9606323 0z" fill-rule="evenodd"/><path stroke="#000000" stroke-width="1.0" stroke-linejoin="round" stroke-linecap="butt" d="m849.7953 33.063362l6.9606323 0l0 92.62992l-6.9606323 0z" fill-rule="evenodd"/><path fill="#cccccc" d="m859.07086 33.063362l6.9606323 0l0 92.62992l-6.9606323 0z" fill-rule="evenodd"/><path stroke="#000000" stroke-width="1.0" stroke-linejoin="round" stroke-linecap="butt" d="m859.07086 33.063362l6.9606323 0l0 92.62992l-6.9606323 0z" fill-rule="evenodd"/><path fill="#cccccc" d="m868.34644 33.063362l6.9606323 0l0 92.62992l-6.9606323 0z" fill-rule="evenodd"/><path stroke="#000000" stroke-width="1.0" stroke-linejoin="round" stroke-linecap="butt" d="m868.34644 33.063362l6.9606323 0l0 92.62992l-6.9606323 0z" fill-rule="evenodd"/><path fill="#cccccc" d="m877.6221 33.063362l6.9606323 0l0 92.62992l-6.9606323 0z" fill-rule="evenodd"/><path stroke="#000000" stroke-width="1.0" stroke-linejoin="round" stroke-linecap="butt" d="m877.6221 33.063362l6.9606323 0l0 92.62992l-6.9606323 0z" fill-rule="evenodd"/><path fill="#cccccc" d="m886.89764 33.063362l6.9606323 0l0 92.62992l-6.9606323 0z" fill-rule="evenodd"/><path stroke="#000000" stroke-width="1.0" stroke-linejoin="round" stroke-linecap="butt" d="m886.89764 33.063362l6.9606323 0l0 92.62992l-6.9606323 0z" fill-rule="evenodd"/><path fill="#cccccc" d="m896.1732 33.063362l6.9606323 0l0 92.62992l-6.9606323 0z" fill-rule="evenodd"/><path stroke="#000000" stroke-width="1.0" stroke-linejoin="round" stroke-linecap="butt" d="m896.1732 33.063362l6.9606323 0l0 92.62992l-6.9606323 0z" fill-rule="evenodd"/><path fill="#cccccc" d="m905.4488 33.063362l6.9606323 0l0 92.62992l-6.9606323 0z" fill-rule="evenodd"/><path stroke="#000000" stroke-width="1.0" stroke-linejoin="round" stroke-linecap="butt" d="m905.4488 33.063362l6.9606323 0l0 92.62992l-6.9606323 0z" fill-rule="evenodd"/><path fill="#cccccc" d="m914.7244 33.063362l6.9606323 0l0 92.62992l-6.9606323 0z" fill-rule="evenodd"/><path stroke="#000000" stroke-width="1.0" stroke-linejoin="round" stroke-linecap="butt" d="m914.7244 33.063362l6.9606323 0l0 92.62992l-6.9606323 0z" fill-rule="evenodd"/><path fill="#cccccc" d="m924.0 33.063362l6.9606323 0l0 92.62992l-6.9606323 0z" fill-rule="evenodd"/><path stroke="#000000" stroke-width="1.0" stroke-linejoin="round" stroke-linecap="butt" d="m924.0 33.063362l6.9606323 0l0 92.62992l-6.9606323 0z" fill-rule="evenodd"/><path fill="#cccccc" d="m933.2756 33.063362l6.9606323 0l0 92.62992l-6.9606323 0z" fill-rule="evenodd"/><path stroke="#000000" stroke-width="1.0" stroke-linejoin="round" stroke-linecap="butt" d="m933.2756 33.063362l6.9606323 0l0 92.62992l-6.9606323 0z" fill-rule="evenodd"/><path fill="#cccccc" d="m942.5512 33.063362l6.9606323 0l0 92.62992l-6.9606323 0z" fill-rule="evenodd"/><path stroke="#000000" stroke-width="1.0" stroke-linejoin="round" stroke-linecap="butt" d="m942.5512 33.063362l6.9606323 0l0 92.62992l-6.9606323 0z" fill-rule="evenodd"/><path fill="#ffffff" d="m780.6011 52.19427l0 0c0 -5.769291 4.67688 -10.446224 10.446228 -10.446224l137.69019 0c2.7705078 0 5.4275513 1.1005821 7.3865967 3.0596275c1.9590454 1.9590492 3.0596313 4.616085 3.0596313 7.3865967l0 83.642975c0 5.7693024 -4.676941 10.446228 -10.446228 10.446228l-137.69019 0l0 0c-5.769348 0 -10.446228 -4.6769257 -10.446228 -10.446228z" fill-rule="evenodd"/><path stroke="#5b0f00" stroke-width="3.0" stroke-linejoin="round" stroke-linecap="butt" d="m780.6011 52.19427l0 0c0 -5.769291 4.67688 -10.446224 10.446228 -10.446224l137.69019 0c2.7705078 0 5.4275513 1.1005821 7.3865967 3.0596275c1.9590454 1.9590492 3.0596313 4.616085 3.0596313 7.3865967l0 83.642975c0 5.7693024 -4.676941 10.446228 -10.446228 10.446228l-137.69019 0l0 0c-5.769348 0 -10.446228 -4.6769257 -10.446228 -10.446228z" fill-rule="evenodd"/><path fill="#cccccc" d="m787.4173 49.063362l6.9606323 0l0 92.62992l-6.9606323 0z" fill-rule="evenodd"/><path stroke="#000000" stroke-width="1.0" stroke-linejoin="round" stroke-linecap="butt" d="m787.4173 49.063362l6.9606323 0l0 92.62992l-6.9606323 0z" fill-rule="evenodd"/><path fill="#cccccc" d="m796.69293 49.063362l6.9606323 0l0 92.62992l-6.9606323 0z" fill-rule="evenodd"/><path stroke="#000000" stroke-width="1.0" stroke-linejoin="round" stroke-linecap="butt" d="m796.69293 49.063362l6.9606323 0l0 92.62992l-6.9606323 0z" fill-rule="evenodd"/><path fill="#cccccc" d="m805.9685 49.063362l6.9606323 0l0 92.62992l-6.9606323 0z" fill-rule="evenodd"/><path stroke="#000000" stroke-width="1.0" stroke-linejoin="round" stroke-linecap="butt" d="m805.9685 49.063362l6.9606323 0l0 92.62992l-6.9606323 0z" fill-rule="evenodd"/><path fill="#cccccc" d="m815.2441 49.063362l6.9606323 0l0 92.62992l-6.9606323 0z" fill-rule="evenodd"/><path stroke="#000000" stroke-width="1.0" stroke-linejoin="round" stroke-linecap="butt" d="m815.2441 49.063362l6.9606323 0l0 92.62992l-6.9606323 0z" fill-rule="evenodd"/><path fill="#cccccc" d="m824.5197 49.063362l6.9605713 0l0 92.62992l-6.9605713 0z" fill-rule="evenodd"/><path stroke="#000000" stroke-width="1.0" stroke-linejoin="round" stroke-linecap="butt" d="m824.5197 49.063362l6.9605713 0l0 92.62992l-6.9605713 0z" fill-rule="evenodd"/><path fill="#cccccc" d="m833.7953 49.063362l6.9606323 0l0 92.62992l-6.9606323 0z" fill-rule="evenodd"/><path stroke="#000000" stroke-width="1.0" stroke-linejoin="round" stroke-linecap="butt" d="m833.7953 49.063362l6.9606323 0l0 92.62992l-6.9606323 0z" fill-rule="evenodd"/><path fill="#cccccc" d="m843.07086 49.063362l6.9606323 0l0 92.62992l-6.9606323 0z" fill-rule="evenodd"/><path stroke="#000000" stroke-width="1.0" stroke-linejoin="round" stroke-linecap="butt" d="m843.07086 49.063362l6.9606323 0l0 92.62992l-6.9606323 0z" fill-rule="evenodd"/><path fill="#cccccc" d="m852.34644 49.063362l6.9606323 0l0 92.62992l-6.9606323 0z" fill-rule="evenodd"/><path stroke="#000000" stroke-width="1.0" stroke-linejoin="round" stroke-linecap="butt" d="m852.34644 49.063362l6.9606323 0l0 92.62992l-6.9606323 0z" fill-rule="evenodd"/><path fill="#cccccc" d="m861.6221 49.063362l6.9606323 0l0 92.62992l-6.9606323 0z" fill-rule="evenodd"/><path stroke="#000000" stroke-width="1.0" stroke-linejoin="round" stroke-linecap="butt" d="m861.6221 49.063362l6.9606323 0l0 92.62992l-6.9606323 0z" fill-rule="evenodd"/><path fill="#cccccc" d="m870.89764 49.063362l6.9606323 0l0 92.62992l-6.9606323 0z" fill-rule="evenodd"/><path stroke="#000000" stroke-width="1.0" stroke-linejoin="round" stroke-linecap="butt" d="m870.89764 49.063362l6.9606323 0l0 92.62992l-6.9606323 0z" fill-rule="evenodd"/><path fill="#cccccc" d="m880.1732 49.063362l6.9606323 0l0 92.62992l-6.9606323 0z" fill-rule="evenodd"/><path stroke="#000000" stroke-width="1.0" stroke-linejoin="round" stroke-linecap="butt" d="m880.1732 49.063362l6.9606323 0l0 92.62992l-6.9606323 0z" fill-rule="evenodd"/><path fill="#cccccc" d="m889.4488 49.063362l6.9606323 0l0 92.62992l-6.9606323 0z" fill-rule="evenodd"/><path stroke="#000000" stroke-width="1.0" stroke-linejoin="round" stroke-linecap="butt" d="m889.4488 49.063362l6.9606323 0l0 92.62992l-6.9606323 0z" fill-rule="evenodd"/><path fill="#cccccc" d="m898.7244 49.063362l6.9606323 0l0 92.62992l-6.9606323 0z" fill-rule="evenodd"/><path stroke="#000000" stroke-width="1.0" stroke-linejoin="round" stroke-linecap="butt" d="m898.7244 49.063362l6.9606323 0l0 92.62992l-6.9606323 0z" fill-rule="evenodd"/><path fill="#cccccc" d="m908.0 49.063362l6.9606323 0l0 92.62992l-6.9606323 0z" fill-rule="evenodd"/><path stroke="#000000" stroke-width="1.0" stroke-linejoin="round" stroke-linecap="butt" d="m908.0 49.063362l6.9606323 0l0 92.62992l-6.9606323 0z" fill-rule="evenodd"/><path fill="#cccccc" d="m917.2756 49.063362l6.9606323 0l0 92.62992l-6.9606323 0z" fill-rule="evenodd"/><path stroke="#000000" stroke-width="1.0" stroke-linejoin="round" stroke-linecap="butt" d="m917.2756 49.063362l6.9606323 0l0 92.62992l-6.9606323 0z" fill-rule="evenodd"/><path fill="#cccccc" d="m926.5512 49.063362l6.9606323 0l0 92.62992l-6.9606323 0z" fill-rule="evenodd"/><path stroke="#000000" stroke-width="1.0" stroke-linejoin="round" stroke-linecap="butt" d="m926.5512 49.063362l6.9606323 0l0 92.62992l-6.9606323 0z" fill-rule="evenodd"/><path fill="#fce5cd" d="m190.71391 67.85513l534.4252 0l0 -21.10236l42.204712 42.204723l-42.204712 42.20472l0 -21.102356l-534.4252 0z" fill-rule="evenodd"/><path stroke="#000000" stroke-width="1.0" stroke-linejoin="round" stroke-linecap="butt" d="m190.71391 67.85513l534.4252 0l0 -21.10236l42.204712 42.204723l-42.204712 42.20472l0 -21.102356l-534.4252 0z" fill-rule="evenodd"/><path fill="#000000" fill-opacity="0.0" d="m373.71783 59.032787l262.99213 0l0 65.88977l-262.99213 0z" fill-rule="evenodd"/><path fill="#000000" d="m392.09283 81.50279q3.546875 0 5.515625 2.375q1.96875 2.359375 1.96875 6.421875q0 2.625 -0.890625 4.625q-0.890625 2.0 -2.59375 3.109375q-1.6875 1.109375 -4.03125 1.109375q-3.546875 0 -5.53125 -2.375q-1.984375 -2.375 -1.984375 -6.4375q0 -2.625 0.890625 -4.625q0.890625 -2.0 2.59375 -3.09375q1.703125 -1.109375 4.0625 -1.109375zm0 2.375q-4.390625 0 -4.390625 6.453125q0 6.4375 4.359375 6.4375q4.359375 0 4.359375 -6.46875q0 -6.421875 -4.328125 -6.421875zm20.0943 -2.375q3.234375 0 4.734375 2.3125q1.515625 2.296875 1.515625 6.484375q0 3.96875 -1.734375 6.40625q-1.734375 2.4375 -4.890625 2.4375q-2.828125 0 -4.421875 -1.921875l0 8.0l-2.9375 0.34375l0 -23.671875l2.515625 0l0.234375 2.265625q0.921875 -1.28125 2.234375 -1.96875q1.3125 -0.6875 2.75 -0.6875zm-1.078125 15.234375q4.15625 0 4.15625 -6.4375q0 -6.453125 -3.8125 -6.453125q-1.25 0 -2.28125 0.734375q-1.015625 0.734375 -1.78125 1.890625l0 8.21875q0.640625 0.984375 1.59375 1.515625q0.96875 0.53125 2.125 0.53125zm25.086151 -6.90625q0 0.734375 -0.0625 1.5l-10.765625 0q0.203125 2.78125 1.40625 4.09375q1.21875 1.3125 3.140625 1.3125q1.21875 0 2.234375 -0.34375q1.03125 -0.359375 2.15625 -1.125l1.28125 1.75q-2.6875 2.125 -5.890625 2.125q-3.515625 0 -5.484375 -2.296875q-1.96875 -2.3125 -1.96875 -6.34375q0 -2.625 0.84375 -4.65625q0.84375 -2.03125 2.421875 -3.1875q1.59375 -1.15625 3.734375 -1.15625q3.359375 0 5.15625 2.21875q1.796875 2.203125 1.796875 6.109375zm-2.921875 -0.875q0 -2.484375 -1.0 -3.796875q-0.984375 -1.3125 -2.96875 -1.3125q-3.609375 0 -3.9375 5.3125l7.90625 0l0 -0.203125zm15.549408 -7.453125q2.3125 0 3.609375 1.375q1.296875 1.375 1.296875 3.78125l0 12.09375l-2.953125 0l0 -11.6875q0 -1.78125 -0.671875 -2.515625q-0.671875 -0.734375 -1.984375 -0.734375q-1.34375 0 -2.375 0.765625q-1.015625 0.765625 -1.90625 2.203125l0 11.96875l-2.9375 0l0 -16.859375l2.515625 0l0.265625 2.484375q0.890625 -1.34375 2.21875 -2.109375q1.328125 -0.765625 2.921875 -0.765625zm9.70517 8.484375l0 -2.5l9.046875 0l0 2.5l-9.046875 0zm26.552277 8.765625l-2.515625 0l-0.234375 -2.625q-0.953125 1.5625 -2.203125 2.296875q-1.25 0.71875 -3.046875 0.71875q-2.203125 0 -3.453125 -1.34375q-1.25 -1.34375 -1.25 -3.8125l0 -12.09375l2.953125 0l0 11.765625q0 1.734375 0.609375 2.453125q0.609375 0.71875 1.984375 0.71875q2.453125 0 4.21875 -2.90625l0 -12.03125l2.9375 0l0 16.859375zm14.014679 -17.25q2.3125 0 3.609375 1.375q1.296875 1.375 1.296875 3.78125l0 12.09375l-2.953125 0l0 -11.6875q0 -1.78125 -0.671875 -2.515625q-0.671875 -0.734375 -1.984375 -0.734375q-1.34375 0 -2.375 0.765625q-1.015625 0.765625 -1.90625 2.203125l0 11.96875l-2.9375 0l0 -16.859375l2.515625 0l0.265625 2.484375q0.890625 -1.34375 2.21875 -2.109375q1.328125 -0.765625 2.921875 -0.765625zm27.752045 0q2.078125 0 3.328125 1.390625q1.25 1.390625 1.25 3.765625l0 12.09375l-2.953125 0l0 -11.6875q0 -3.25 -2.359375 -3.25q-1.25 0 -2.125 0.71875q-0.859375 0.71875 -1.84375 2.25l0 11.96875l-2.953125 0l0 -11.6875q0 -3.25 -2.359375 -3.25q-1.28125 0 -2.15625 0.734375q-0.859375 0.734375 -1.8125 2.234375l0 11.96875l-2.9375 0l0 -16.859375l2.515625 0l0.265625 2.453125q1.890625 -2.84375 4.859375 -2.84375q1.5625 0 2.671875 0.8125q1.109375 0.796875 1.578125 2.234375q1.0 -1.484375 2.203125 -2.265625q1.203125 -0.78125 2.828125 -0.78125zm13.439697 0.390625l0 16.859375l-2.9375 0l0 -16.859375l2.9375 0zm-1.515625 -8.09375q0.9375 0 1.515625 0.578125q0.578125 0.5625 0.578125 1.4375q0 0.859375 -0.578125 1.421875q-0.578125 0.5625 -1.515625 0.5625q-0.890625 0 -1.46875 -0.5625q-0.578125 -0.5625 -0.578125 -1.421875q0 -0.875 0.578125 -1.4375q0.578125 -0.578125 1.46875 -0.578125zm14.055237 15.921875l5.859375 9.03125l-3.546875 0l-4.125 -7.140625l-4.203125 7.140625l-3.328125 0l5.890625 -8.890625l-5.21875 -7.96875l3.453125 0l3.53125 6.171875l3.546875 -6.171875l3.328125 0l-5.1875 7.828125z" fill-rule="nonzero"/><path fill="#000000" fill-opacity="0.0" d="m777.7324 136.72011l141.51184 0l0 38.614166l-141.51184 0z" fill-rule="evenodd"/><path fill="#85200c" d="m791.12305 150.26761q-0.671875 0 -0.96875 0.296875q-0.28125 0.296875 -0.28125 0.921875l0 1.15625l2.046875 0l-0.15625 1.140625l-1.890625 0l0 7.296875l-1.484375 0l0 -7.296875l-1.5 0l0 -1.140625l1.5 0l0 -1.140625q0 -1.09375 0.703125 -1.75q0.703125 -0.671875 1.9375 -0.671875q0.578125 0 1.03125 0.109375q0.46875 0.09375 0.984375 0.328125l-0.453125 1.0625q-0.71875 -0.3125 -1.46875 -0.3125zm8.766296 10.8125l-1.265625 0l-0.109375 -1.3125q-0.484375 0.78125 -1.109375 1.140625q-0.625 0.359375 -1.515625 0.359375q-1.109375 0 -1.734375 -0.671875q-0.625 -0.671875 -0.625 -1.90625l0 -6.046875l1.46875 0l0 5.890625q0 0.859375 0.296875 1.234375q0.3125 0.359375 1.0 0.359375q1.234375 0 2.109375 -1.46875l0 -6.015625l1.484375 0l0 8.4375zm4.7182617 0.1875q-0.8125 0 -1.296875 -0.484375q-0.46875 -0.484375 -0.46875 -1.359375l0 -10.171875l1.46875 -0.171875l0 10.296875q0 0.359375 0.125 0.515625q0.125 0.15625 0.40625 0.15625q0.3125 0 0.546875 -0.09375l0.390625 1.03125q-0.53125 0.28125 -1.171875 0.28125zm4.6879883 0q-0.8125 0 -1.296875 -0.484375q-0.46875 -0.484375 -0.46875 -1.359375l0 -10.171875l1.46875 -0.171875l0 10.296875q0 0.359375 0.125 0.515625q0.125 0.15625 0.40625 0.15625q0.3125 0 0.546875 -0.09375l0.390625 1.03125q-0.53125 0.28125 -1.171875 0.28125zm2.2780151 -4.578125l0 -1.234375l4.53125 0l0 1.234375l-4.53125 0zm10.869873 -4.234375q1.4375 0 2.28125 1.171875q0.859375 1.15625 0.859375 3.234375q0 1.3125 -0.40625 2.3125q-0.390625 1.0 -1.15625 1.546875q-0.75 0.546875 -1.75 0.546875q-1.328125 0 -2.25 -1.109375l-0.140625 0.921875l-1.296875 0l0 -11.828125l1.46875 -0.171875l0 4.625q0.921875 -1.25 2.390625 -1.25zm-0.53125 7.65625q0.984375 0 1.53125 -0.796875q0.546875 -0.796875 0.546875 -2.453125q0 -1.71875 -0.515625 -2.46875q-0.5 -0.765625 -1.453125 -0.765625q-1.109375 0 -1.96875 1.3125l0 4.03125q0.34375 0.53125 0.828125 0.84375q0.484375 0.296875 1.03125 0.296875zm11.703369 -1.0q0 0.515625 0.171875 0.765625q0.171875 0.25 0.53125 0.375l-0.34375 1.015625q-0.65625 -0.078125 -1.0625 -0.359375q-0.390625 -0.296875 -0.578125 -0.90625q-0.84375 1.265625 -2.515625 1.265625q-1.25 0 -1.96875 -0.703125q-0.71875 -0.703125 -0.71875 -1.84375q0 -1.34375 0.96875 -2.0625q0.96875 -0.71875 2.75 -0.71875l1.296875 0l0 -0.625q0 -0.890625 -0.4375 -1.265625q-0.4375 -0.390625 -1.328125 -0.390625q-0.921875 0 -2.265625 0.453125l-0.375 -1.078125q1.5625 -0.578125 2.90625 -0.578125q1.5 0 2.234375 0.734375q0.734375 0.71875 0.734375 2.0625l0 3.859375zm-3.453125 1.0625q1.265625 0 1.984375 -1.3125l0 -1.9375l-1.109375 0q-2.34375 0 -2.34375 1.71875q0 0.75 0.375 1.140625q0.375 0.390625 1.09375 0.390625zm10.438416 -7.71875q1.15625 0 1.796875 0.6875q0.65625 0.6875 0.65625 1.890625l0 6.046875l-1.46875 0l0 -5.84375q0 -0.890625 -0.34375 -1.25q-0.328125 -0.375 -0.984375 -0.375q-0.671875 0 -1.1875 0.390625q-0.515625 0.375 -0.96875 1.09375l0 5.984375l-1.46875 0l0 -8.4375l1.265625 0l0.125 1.25q0.453125 -0.671875 1.109375 -1.046875q0.671875 -0.390625 1.46875 -0.390625zm11.938538 -3.203125l0 11.828125l-1.296875 0l-0.140625 -1.171875q-0.421875 0.640625 -1.046875 1.0q-0.625 0.359375 -1.390625 0.359375q-1.5 0 -2.34375 -1.171875q-0.84375 -1.1875 -0.84375 -3.1875q0 -1.296875 0.40625 -2.296875q0.40625 -1.015625 1.15625 -1.578125q0.75 -0.578125 1.75 -0.578125q1.296875 0 2.28125 1.046875l0 -4.421875l1.46875 0.171875zm-3.546875 10.859375q0.671875 0 1.140625 -0.3125q0.484375 -0.3125 0.9375 -0.9375l0 -4.140625q-0.421875 -0.53125 -0.890625 -0.8125q-0.46875 -0.28125 -1.0625 -0.28125q-0.984375 0 -1.515625 0.8125q-0.53125 0.8125 -0.53125 2.4375q0 1.625 0.484375 2.4375q0.5 0.796875 1.4375 0.796875zm13.995544 -7.65625q1.78125 0 2.765625 1.1875q0.984375 1.1875 0.984375 3.21875q0 1.3125 -0.453125 2.3125q-0.453125 1.0 -1.296875 1.546875q-0.84375 0.546875 -2.015625 0.546875q-1.78125 0 -2.78125 -1.171875q-0.984375 -1.1875 -0.984375 -3.21875q0 -1.3125 0.453125 -2.3125q0.453125 -1.0 1.296875 -1.546875q0.84375 -0.5625 2.03125 -0.5625zm0 1.1875q-2.1875 0 -2.1875 3.234375q0 3.21875 2.171875 3.21875q2.171875 0 2.171875 -3.234375q0 -3.21875 -2.15625 -3.21875zm12.453369 7.4375l-1.265625 0l-0.109375 -1.3125q-0.484375 0.78125 -1.109375 1.140625q-0.625 0.359375 -1.515625 0.359375q-1.109375 0 -1.734375 -0.671875q-0.625 -0.671875 -0.625 -1.90625l0 -6.046875l1.46875 0l0 5.890625q0 0.859375 0.296875 1.234375q0.3125 0.359375 1.0 0.359375q1.234375 0 2.109375 -1.46875l0 -6.015625l1.484375 0l0 8.4375zm7.2963867 -0.390625q-0.84375 0.578125 -1.890625 0.578125q-1.078125 0 -1.6875 -0.609375q-0.59375 -0.625 -0.59375 -1.78125l0 -5.09375l-1.46875 0l0 -1.140625l1.46875 0l0 -1.90625l1.484375 -0.171875l0 2.078125l2.0 0l-0.171875 1.140625l-1.828125 0l0 5.03125q0 0.65625 0.21875 0.953125q0.234375 0.28125 0.78125 0.28125q0.5 0 1.125 -0.328125l0.5625 0.96875zm5.385376 -8.234375q1.625 0 2.375 1.15625q0.75 1.15625 0.75 3.25q0 1.984375 -0.875 3.203125q-0.859375 1.203125 -2.4375 1.203125q-1.40625 0 -2.21875 -0.953125l0 4.0l-1.46875 0.171875l0 -11.84375l1.265625 0l0.109375 1.140625q0.46875 -0.640625 1.125 -0.984375q0.65625 -0.34375 1.375 -0.34375zm-0.546875 7.609375q2.078125 0 2.078125 -3.203125q0 -3.234375 -1.890625 -3.234375q-0.625 0 -1.140625 0.375q-0.515625 0.359375 -0.90625 0.9375l0 4.109375q0.328125 0.5 0.796875 0.765625q0.484375 0.25 1.0625 0.25zm12.457153 1.015625l-1.265625 0l-0.109375 -1.3125q-0.484375 0.78125 -1.109375 1.140625q-0.625 0.359375 -1.515625 0.359375q-1.109375 0 -1.734375 -0.671875q-0.625 -0.671875 -0.625 -1.90625l0 -6.046875l1.46875 0l0 5.890625q0 0.859375 0.296875 1.234375q0.3125 0.359375 1.0 0.359375q1.234375 0 2.109375 -1.46875l0 -6.015625l1.484375 0l0 8.4375zm7.2963867 -0.390625q-0.84375 0.578125 -1.890625 0.578125q-1.078125 0 -1.6875 -0.609375q-0.59375 -0.625 -0.59375 -1.78125l0 -5.09375l-1.46875 0l0 -1.140625l1.46875 0l0 -1.90625l1.484375 -0.171875l0 2.078125l2.0 0l-0.171875 1.140625l-1.828125 0l0 5.03125q0 0.65625 0.21875 0.953125q0.234375 0.28125 0.78125 0.28125q0.5 0 1.125 -0.328125l0.5625 0.96875z" fill-rule="nonzero"/><path fill="#570000" fill-opacity="0.2731" d="m4.60105 86.97807l0 0c0 -3.636444 2.9479203 -6.584366 6.5843644 -6.584366l145.41396 0c1.7462769 0 3.4210358 0.6937103 4.6558533 1.9285126c1.2348022 1.2348099 1.9285126 2.9095688 1.9285126 4.6558533l0 52.72104c0 3.636444 -2.9479218 6.5843506 -6.584366 6.5843506l-145.41396 0c-3.636444 0 -6.5843644 -2.9479065 -6.5843644 -6.5843506z" fill-rule="evenodd"/><path stroke="#5b0f00" stroke-width="3.0" stroke-linejoin="round" stroke-linecap="butt" d="m4.60105 86.97807l0 0c0 -3.636444 2.9479203 -6.584366 6.5843644 -6.584366l145.41396 0c1.7462769 0 3.4210358 0.6937103 4.6558533 1.9285126c1.2348022 1.2348099 1.9285126 2.9095688 1.9285126 4.6558533l0 52.72104c0 3.636444 -2.9479218 6.5843506 -6.584366 6.5843506l-145.41396 0c-3.636444 0 -6.5843644 -2.9479065 -6.5843644 -6.5843506z" fill-rule="evenodd"/><path fill="#ffffff" d="m61.81355 120.25858l-1.640625 0l0 -10.453125q-0.59375 0.5625 -1.5625 1.140625q-0.953125 0.5625 -1.71875 0.84375l0 -1.59375q1.375 -0.640625 2.40625 -1.5625q1.03125 -0.921875 1.453125 -1.78125l1.0625 0l0 13.40625zm12.703838 -10.078125l-1.625 0.125q-0.21875 -0.96875 -0.625 -1.40625q-0.65625 -0.703125 -1.640625 -0.703125q-0.78125 0 -1.375 0.4375q-0.765625 0.5625 -1.21875 1.65625q-0.453125 1.078125 -0.46875 3.078125q0.59375 -0.890625 1.453125 -1.328125q0.859375 -0.4375 1.796875 -0.4375q1.640625 0 2.78125 1.203125q1.15625 1.203125 1.15625 3.109375q0 1.265625 -0.546875 2.34375q-0.53125 1.078125 -1.484375 1.65625q-0.9375 0.578125 -2.140625 0.578125q-2.0625 0 -3.359375 -1.5q-1.28125 -1.515625 -1.28125 -4.984375q0 -3.875 1.421875 -5.625q1.25 -1.53125 3.375 -1.53125q1.5625 0 2.5625 0.890625q1.015625 0.875 1.21875 2.4375zm-6.6875 5.75q0 0.84375 0.359375 1.625q0.359375 0.765625 1.0 1.171875q0.640625 0.40625 1.359375 0.40625q1.03125 0 1.78125 -0.828125q0.75 -0.84375 0.75 -2.28125q0 -1.390625 -0.734375 -2.1875q-0.734375 -0.796875 -1.859375 -0.796875q-1.109375 0 -1.890625 0.796875q-0.765625 0.796875 -0.765625 2.09375zm14.199646 4.328125l0 -13.359375l1.640625 0l0 7.625l3.890625 -3.9375l2.109375 0l-3.6875 3.59375l4.0625 6.078125l-2.015625 0l-3.203125 -4.953125l-1.15625 1.125l0 3.828125l-1.640625 0zm9.59375 0l0 -13.359375l1.765625 0l0 5.484375l6.9375 0l0 -5.484375l1.765625 0l0 13.359375l-1.765625 0l0 -6.296875l-6.9375 0l0 6.296875l-1.765625 0zm12.332321 0l0 -1.328125l6.15625 -7.078125q-1.046875 0.0625 -1.84375 0.0625l-3.9375 0l0 -1.328125l7.90625 0l0 1.078125l-5.25 6.140625l-1.0 1.125q1.09375 -0.078125 2.0625 -0.078125l4.46875 0l0 1.40625l-8.5625 0z" fill-rule="nonzero"/></g></svg>